<svg width="500mm" height="500mm" viewBox="0 0 500 500" xmlns="http://www.w3.org/2000/svg">
  <g id="Column00Key00" transform="translate(35.054,25.637) rotate(10)">
    <path d="M -9.05 -9.05 L 9.05 -9.05 L 9.05 9.05 L -9.05 9.05 L -9.05 -9.05"/>
  </g>
  <g id="Column00Key01" transform="translate(31.746,44.397) rotate(10)">
    <path d="M -9.05 -9.05 L 9.05 -9.05 L 9.05 9.05 L -9.05 9.05 L -9.05 -9.05"/>
  </g>
  <g id="Column00Key02" transform="translate(28.438,63.158) rotate(10)">
    <path d="M -9.05 -9.05 L 9.05 -9.05 L 9.05 9.05 L -9.05 9.05 L -9.05 -9.05"/>
  </g>
  <g id="Column00Key03" transform="translate(25.13,81.918) rotate(10)">
    <path d="M -9.05 -9.05 L 9.05 -9.05 L 9.05 9.05 L -9.05 9.05 L -9.05 -9.05"/>
  </g>
  <g id="Column00Key04" transform="translate(21.822,100.679) rotate(10)">
    <path d="M -9.05 -9.05 L 9.05 -9.05 L 9.05 9.05 L -9.05 9.05 L -9.05 -9.05"/>
  </g>
  <g id="Column00Key05" transform="translate(18.514,119.439) rotate(10)">
    <path d="M -9.05 -9.05 L 9.05 -9.05 L 9.05 9.05 L -9.05 9.05 L -9.05 -9.05"/>
  </g>
  <g id="Column01Key00" transform="translate(53.815,28.945) rotate(10)">
    <path d="M -9.05 -9.05 L 9.05 -9.05 L 9.05 9.05 L -9.05 9.05 L -9.05 -9.05"/>
  </g>
  <g id="Column01Key01" transform="translate(50.507,47.705) rotate(10)">
    <path d="M -9.05 -9.05 L 9.05 -9.05 L 9.05 9.05 L -9.05 9.05 L -9.05 -9.05"/>
  </g>
  <g id="Column01Key02" transform="translate(47.199,66.466) rotate(10)">
    <path d="M -9.05 -9.05 L 9.05 -9.05 L 9.05 9.05 L -9.05 9.05 L -9.05 -9.05"/>
  </g>
  <g id="Column01Key03" transform="translate(43.891,85.226) rotate(10)">
    <path d="M -9.05 -9.05 L 9.05 -9.05 L 9.05 9.05 L -9.05 9.05 L -9.05 -9.05"/>
  </g>
  <g id="Column01Key04" transform="translate(40.583,103.987) rotate(10)">
    <path d="M -9.05 -9.05 L 9.05 -9.05 L 9.05 9.05 L -9.05 9.05 L -9.05 -9.05"/>
  </g>
  <g id="Column01Key05" transform="translate(37.275,122.747) rotate(10)">
    <path d="M -9.05 -9.05 L 9.05 -9.05 L 9.05 9.05 L -9.05 9.05 L -9.05 -9.05"/>
  </g>
  <g id="Column02Key00" transform="translate(73.096,29.298) rotate(10)">
    <path d="M -9.05 -9.05 L 9.05 -9.05 L 9.05 9.05 L -9.05 9.05 L -9.05 -9.05"/>
  </g>
  <g id="Column02Key01" transform="translate(69.788,48.059) rotate(10)">
    <path d="M -9.05 -9.05 L 9.05 -9.05 L 9.05 9.05 L -9.05 9.05 L -9.05 -9.05"/>
  </g>
  <g id="Column02Key02" transform="translate(66.48,66.819) rotate(10)">
    <path d="M -9.05 -9.05 L 9.05 -9.05 L 9.05 9.05 L -9.05 9.05 L -9.05 -9.05"/>
  </g>
  <g id="Column02Key03" transform="translate(63.172,85.58) rotate(10)">
    <path d="M -9.05 -9.05 L 9.05 -9.05 L 9.05 9.05 L -9.05 9.05 L -9.05 -9.05"/>
  </g>
  <g id="Column02Key04" transform="translate(59.864,104.34) rotate(10)">
    <path d="M -9.05 -9.05 L 9.05 -9.05 L 9.05 9.05 L -9.05 9.05 L -9.05 -9.05"/>
  </g>
  <g id="Column02Key05" transform="translate(56.556,123.101) rotate(10)">
    <path d="M -9.05 -9.05 L 9.05 -9.05 L 9.05 9.05 L -9.05 9.05 L -9.05 -9.05"/>
  </g>
  <g id="Column03Key00" transform="translate(92.725,27.682) rotate(10)">
    <path d="M -9.05 -9.05 L 9.05 -9.05 L 9.05 9.05 L -9.05 9.05 L -9.05 -9.05"/>
  </g>
  <g id="Column03Key01" transform="translate(89.417,46.443) rotate(10)">
    <path d="M -9.05 -9.05 L 9.05 -9.05 L 9.05 9.05 L -9.05 9.05 L -9.05 -9.05"/>
  </g>
  <g id="Column03Key02" transform="translate(86.109,65.203) rotate(10)">
    <path d="M -9.05 -9.05 L 9.05 -9.05 L 9.05 9.05 L -9.05 9.05 L -9.05 -9.05"/>
  </g>
  <g id="Column03Key03" transform="translate(82.801,83.964) rotate(10)">
    <path d="M -9.05 -9.05 L 9.05 -9.05 L 9.05 9.05 L -9.05 9.05 L -9.05 -9.05"/>
  </g>
  <g id="Column03Key04" transform="translate(79.493,102.724) rotate(10)">
    <path d="M -9.05 -9.05 L 9.05 -9.05 L 9.05 9.05 L -9.05 9.05 L -9.05 -9.05"/>
  </g>
  <g id="Column03Key05" transform="translate(76.185,121.485) rotate(10)">
    <path d="M -9.05 -9.05 L 9.05 -9.05 L 9.05 9.05 L -9.05 9.05 L -9.05 -9.05"/>
  </g>
  <g id="Column04Key00" transform="translate(110.444,36.899) rotate(10)">
    <path d="M -9.05 -9.05 L 9.05 -9.05 L 9.05 9.05 L -9.05 9.05 L -9.05 -9.05"/>
  </g>
  <g id="Column04Key01" transform="translate(107.136,55.66) rotate(10)">
    <path d="M -9.05 -9.05 L 9.05 -9.05 L 9.05 9.05 L -9.05 9.05 L -9.05 -9.05"/>
  </g>
  <g id="Column04Key02" transform="translate(103.828,74.42) rotate(10)">
    <path d="M -9.05 -9.05 L 9.05 -9.05 L 9.05 9.05 L -9.05 9.05 L -9.05 -9.05"/>
  </g>
  <g id="Column04Key03" transform="translate(100.52,93.181) rotate(10)">
    <path d="M -9.05 -9.05 L 9.05 -9.05 L 9.05 9.05 L -9.05 9.05 L -9.05 -9.05"/>
  </g>
  <g id="Column04Key04" transform="translate(97.212,111.941) rotate(10)">
    <path d="M -9.05 -9.05 L 9.05 -9.05 L 9.05 9.05 L -9.05 9.05 L -9.05 -9.05"/>
  </g>
  <g id="Column04Key05" transform="translate(93.904,130.702) rotate(10)">
    <path d="M -9.05 -9.05 L 9.05 -9.05 L 9.05 9.05 L -9.05 9.05 L -9.05 -9.05"/>
  </g>
  <g id="Column05Key00" transform="translate(128.336,45.131) rotate(10)">
    <path d="M -9.05 -9.05 L 9.05 -9.05 L 9.05 9.05 L -9.05 9.05 L -9.05 -9.05"/>
  </g>
  <g id="Column05Key01" transform="translate(125.028,63.892) rotate(10)">
    <path d="M -9.05 -9.05 L 9.05 -9.05 L 9.05 9.05 L -9.05 9.05 L -9.05 -9.05"/>
  </g>
  <g id="Column05Key02" transform="translate(121.72,82.652) rotate(10)">
    <path d="M -9.05 -9.05 L 9.05 -9.05 L 9.05 9.05 L -9.05 9.05 L -9.05 -9.05"/>
  </g>
  <g id="Column05Key03" transform="translate(118.412,101.413) rotate(10)">
    <path d="M -9.05 -9.05 L 9.05 -9.05 L 9.05 9.05 L -9.05 9.05 L -9.05 -9.05"/>
  </g>
  <g id="Column05Key04" transform="translate(115.104,120.173) rotate(10)">
    <path d="M -9.05 -9.05 L 9.05 -9.05 L 9.05 9.05 L -9.05 9.05 L -9.05 -9.05"/>
  </g>
  <g id="Column05Key05" transform="translate(111.796,138.934) rotate(10)">
    <path d="M -9.05 -9.05 L 9.05 -9.05 L 9.05 9.05 L -9.05 9.05 L -9.05 -9.05"/>
  </g>
  <g id="Column06Key04" transform="translate(130.557,142.242) rotate(10)">
    <path d="M -9.05 -9.05 L 9.05 -9.05 L 9.05 9.05 L -9.05 9.05 L -9.05 -9.05"/>
  </g>
  <g id="Column06Key00" transform="translate(155.95,48.89) rotate(0)">
    <path d="M -9.05 -9.05 L 9.05 -9.05 L 9.05 9.05 L -9.05 9.05 L -9.05 -9.05"/>
  </g>
  <g id="Column06Key01" transform="translate(155.95,77.465) rotate(0)">
    <path d="M -9.05 -9.05 L 9.05 -9.05 L 9.05 9.05 L -9.05 9.05 L -9.05 -9.05"/>
  </g>
  <g id="Column06Key02" transform="translate(155.95,96.515) rotate(0)">
    <path d="M -9.05 -9.05 L 9.05 -9.05 L 9.05 9.05 L -9.05 9.05 L -9.05 -9.05"/>
  </g>
  <g id="Column06Key03" transform="translate(155.95,144.14) rotate(0)">
    <path d="M -9.05 -9.05 L 9.05 -9.05 L 9.05 9.05 L -9.05 9.05 L -9.05 -9.05"/>
  </g>
  <g id="Column07Key00" transform="translate(175,48.89) rotate(0)">
    <path d="M -9.05 -9.05 L 9.05 -9.05 L 9.05 9.05 L -9.05 9.05 L -9.05 -9.05"/>
  </g>
  <g id="Column07Key01" transform="translate(175,77.465) rotate(0)">
    <path d="M -9.05 -9.05 L 9.05 -9.05 L 9.05 9.05 L -9.05 9.05 L -9.05 -9.05"/>
  </g>
  <g id="Column07Key02" transform="translate(175,96.515) rotate(0)">
    <path d="M -9.05 -9.05 L 9.05 -9.05 L 9.05 9.05 L -9.05 9.05 L -9.05 -9.05"/>
  </g>
  <g id="Column07Key03" transform="translate(175,125.09) rotate(0)">
    <path d="M -9.05 -9.05 L 9.05 -9.05 L 9.05 9.05 L -9.05 9.05 L -9.05 -9.05"/>
  </g>
  <g id="Column07Key04" transform="translate(175,144.14) rotate(0)">
    <path d="M -9.05 -9.05 L 9.05 -9.05 L 9.05 9.05 L -9.05 9.05 L -9.05 -9.05"/>
  </g>
  <g id="Column08Key00" transform="translate(194.05,48.89) rotate(0)">
    <path d="M -9.05 -9.05 L 9.05 -9.05 L 9.05 9.05 L -9.05 9.05 L -9.05 -9.05"/>
  </g>
  <g id="Column08Key01" transform="translate(194.05,77.465) rotate(0)">
    <path d="M -9.05 -9.05 L 9.05 -9.05 L 9.05 9.05 L -9.05 9.05 L -9.05 -9.05"/>
  </g>
  <g id="Column08Key02" transform="translate(194.05,96.515) rotate(0)">
    <path d="M -9.05 -9.05 L 9.05 -9.05 L 9.05 9.05 L -9.05 9.05 L -9.05 -9.05"/>
  </g>
  <g id="Column08Key03" transform="translate(194.05,144.14) rotate(0)">
    <path d="M -9.05 -9.05 L 9.05 -9.05 L 9.05 9.05 L -9.05 9.05 L -9.05 -9.05"/>
  </g>
  <g id="Column08Key04" transform="translate(219.443,142.242) rotate(-10)">
    <path d="M -9.05 -9.05 L 9.05 -9.05 L 9.05 9.05 L -9.05 9.05 L -9.05 -9.05"/>
  </g>
  <g id="Column09Key00" transform="translate(221.664,45.131) rotate(-10)">
    <path d="M -9.05 -9.05 L 9.05 -9.05 L 9.05 9.05 L -9.05 9.05 L -9.05 -9.05"/>
  </g>
  <g id="Column09Key01" transform="translate(224.972,63.892) rotate(-10)">
    <path d="M -9.05 -9.05 L 9.05 -9.05 L 9.05 9.05 L -9.05 9.05 L -9.05 -9.05"/>
  </g>
  <g id="Column09Key02" transform="translate(228.28,82.652) rotate(-10)">
    <path d="M -9.05 -9.05 L 9.05 -9.05 L 9.05 9.05 L -9.05 9.05 L -9.05 -9.05"/>
  </g>
  <g id="Column09Key03" transform="translate(231.588,101.413) rotate(-10)">
    <path d="M -9.05 -9.05 L 9.05 -9.05 L 9.05 9.05 L -9.05 9.05 L -9.05 -9.05"/>
  </g>
  <g id="Column09Key04" transform="translate(234.896,120.173) rotate(-10)">
    <path d="M -9.05 -9.05 L 9.05 -9.05 L 9.05 9.05 L -9.05 9.05 L -9.05 -9.05"/>
  </g>
  <g id="Column09Key05" transform="translate(238.204,138.934) rotate(-10)">
    <path d="M -9.05 -9.05 L 9.05 -9.05 L 9.05 9.05 L -9.05 9.05 L -9.05 -9.05"/>
  </g>
  <g id="Column10Key00" transform="translate(239.556,36.899) rotate(-10)">
    <path d="M -9.05 -9.05 L 9.05 -9.05 L 9.05 9.05 L -9.05 9.05 L -9.05 -9.05"/>
  </g>
  <g id="Column10Key01" transform="translate(242.864,55.66) rotate(-10)">
    <path d="M -9.05 -9.05 L 9.05 -9.05 L 9.05 9.05 L -9.05 9.05 L -9.05 -9.05"/>
  </g>
  <g id="Column10Key02" transform="translate(246.172,74.42) rotate(-10)">
    <path d="M -9.05 -9.05 L 9.05 -9.05 L 9.05 9.05 L -9.05 9.05 L -9.05 -9.05"/>
  </g>
  <g id="Column10Key03" transform="translate(249.48,93.181) rotate(-10)">
    <path d="M -9.05 -9.05 L 9.05 -9.05 L 9.05 9.05 L -9.05 9.05 L -9.05 -9.05"/>
  </g>
  <g id="Column10Key04" transform="translate(252.788,111.941) rotate(-10)">
    <path d="M -9.05 -9.05 L 9.05 -9.05 L 9.05 9.05 L -9.05 9.05 L -9.05 -9.05"/>
  </g>
  <g id="Column10Key05" transform="translate(256.096,130.702) rotate(-10)">
    <path d="M -9.05 -9.05 L 9.05 -9.05 L 9.05 9.05 L -9.05 9.05 L -9.05 -9.05"/>
  </g>
  <g id="Column11Key00" transform="translate(257.275,27.682) rotate(-10)">
    <path d="M -9.05 -9.05 L 9.05 -9.05 L 9.05 9.05 L -9.05 9.05 L -9.05 -9.05"/>
  </g>
  <g id="Column11Key01" transform="translate(260.583,46.443) rotate(-10)">
    <path d="M -9.05 -9.05 L 9.05 -9.05 L 9.05 9.05 L -9.05 9.05 L -9.05 -9.05"/>
  </g>
  <g id="Column11Key02" transform="translate(263.891,65.203) rotate(-10)">
    <path d="M -9.05 -9.05 L 9.05 -9.05 L 9.05 9.05 L -9.05 9.05 L -9.05 -9.05"/>
  </g>
  <g id="Column11Key03" transform="translate(267.199,83.964) rotate(-10)">
    <path d="M -9.05 -9.05 L 9.05 -9.05 L 9.05 9.05 L -9.05 9.05 L -9.05 -9.05"/>
  </g>
  <g id="Column11Key04" transform="translate(270.507,102.724) rotate(-10)">
    <path d="M -9.05 -9.05 L 9.05 -9.05 L 9.05 9.05 L -9.05 9.05 L -9.05 -9.05"/>
  </g>
  <g id="Column11Key05" transform="translate(273.815,121.485) rotate(-10)">
    <path d="M -9.05 -9.05 L 9.05 -9.05 L 9.05 9.05 L -9.05 9.05 L -9.05 -9.05"/>
  </g>
  <g id="Column12Key00" transform="translate(276.904,29.298) rotate(-10)">
    <path d="M -9.05 -9.05 L 9.05 -9.05 L 9.05 9.05 L -9.05 9.05 L -9.05 -9.05"/>
  </g>
  <g id="Column12Key01" transform="translate(280.212,48.059) rotate(-10)">
    <path d="M -9.05 -9.05 L 9.05 -9.05 L 9.05 9.05 L -9.05 9.05 L -9.05 -9.05"/>
  </g>
  <g id="Column12Key02" transform="translate(283.52,66.819) rotate(-10)">
    <path d="M -9.05 -9.05 L 9.05 -9.05 L 9.05 9.05 L -9.05 9.05 L -9.05 -9.05"/>
  </g>
  <g id="Column12Key03" transform="translate(286.828,85.58) rotate(-10)">
    <path d="M -9.05 -9.05 L 9.05 -9.05 L 9.05 9.05 L -9.05 9.05 L -9.05 -9.05"/>
  </g>
  <g id="Column12Key04" transform="translate(290.136,104.34) rotate(-10)">
    <path d="M -9.05 -9.05 L 9.05 -9.05 L 9.05 9.05 L -9.05 9.05 L -9.05 -9.05"/>
  </g>
  <g id="Column12Key05" transform="translate(293.444,123.101) rotate(-10)">
    <path d="M -9.05 -9.05 L 9.05 -9.05 L 9.05 9.05 L -9.05 9.05 L -9.05 -9.05"/>
  </g>
  <g id="Column13Key00" transform="translate(296.185,28.945) rotate(-10)">
    <path d="M -9.05 -9.05 L 9.05 -9.05 L 9.05 9.05 L -9.05 9.05 L -9.05 -9.05"/>
  </g>
  <g id="Column13Key01" transform="translate(299.493,47.705) rotate(-10)">
    <path d="M -9.05 -9.05 L 9.05 -9.05 L 9.05 9.05 L -9.05 9.05 L -9.05 -9.05"/>
  </g>
  <g id="Column13Key02" transform="translate(302.801,66.466) rotate(-10)">
    <path d="M -9.05 -9.05 L 9.05 -9.05 L 9.05 9.05 L -9.05 9.05 L -9.05 -9.05"/>
  </g>
  <g id="Column13Key03" transform="translate(306.109,85.226) rotate(-10)">
    <path d="M -9.05 -9.05 L 9.05 -9.05 L 9.05 9.05 L -9.05 9.05 L -9.05 -9.05"/>
  </g>
  <g id="Column13Key04" transform="translate(309.417,103.987) rotate(-10)">
    <path d="M -9.05 -9.05 L 9.05 -9.05 L 9.05 9.05 L -9.05 9.05 L -9.05 -9.05"/>
  </g>
  <g id="Column13Key05" transform="translate(312.725,122.747) rotate(-10)">
    <path d="M -9.05 -9.05 L 9.05 -9.05 L 9.05 9.05 L -9.05 9.05 L -9.05 -9.05"/>
  </g>
  <g id="Column14Key00" transform="translate(314.946,25.637) rotate(-10)">
    <path d="M -9.05 -9.05 L 9.05 -9.05 L 9.05 9.05 L -9.05 9.05 L -9.05 -9.05"/>
  </g>
  <g id="Column14Key01" transform="translate(318.254,44.397) rotate(-10)">
    <path d="M -9.05 -9.05 L 9.05 -9.05 L 9.05 9.05 L -9.05 9.05 L -9.05 -9.05"/>
  </g>
  <g id="Column14Key02" transform="translate(321.562,63.158) rotate(-10)">
    <path d="M -9.05 -9.05 L 9.05 -9.05 L 9.05 9.05 L -9.05 9.05 L -9.05 -9.05"/>
  </g>
  <g id="Column14Key03" transform="translate(324.87,81.918) rotate(-10)">
    <path d="M -9.05 -9.05 L 9.05 -9.05 L 9.05 9.05 L -9.05 9.05 L -9.05 -9.05"/>
  </g>
  <g id="Column14Key04" transform="translate(328.178,100.679) rotate(-10)">
    <path d="M -9.05 -9.05 L 9.05 -9.05 L 9.05 9.05 L -9.05 9.05 L -9.05 -9.05"/>
  </g>
  <g id="Column14Key05" transform="translate(331.486,119.439) rotate(-10)">
    <path d="M -9.05 -9.05 L 9.05 -9.05 L 9.05 9.05 L -9.05 9.05 L -9.05 -9.05"/>
  </g>
</svg>