<?xml version="1.0" encoding="utf-8"?>
<svg
  width="500mm"
  height="500mm"
  viewBox="0 0 500 500" xmlns="http://www.w3.org/2000/svg">
  <g
    id="Switch"
    transform="translate(185,80)">
    <g
      id="Case"
      transform="translate(-185,-80)">
      <g
        id=""
        transform="translate(-147,-68)">
        <circle
          r="1.15"
          style="fill:none;stroke:#0000ff;stroke-width:0.01" />
      </g>
      <g
        id=""
        transform="translate(-25,-68)">
        <circle
          r="1.15"
          style="fill:none;stroke:#0000ff;stroke-width:0.01" />
      </g>
      <g
        id=""
        transform="translate(25,-68)">
        <circle
          r="1.15"
          style="fill:none;stroke:#0000ff;stroke-width:0.01" />
      </g>
      <g
        id=""
        transform="translate(147,-68)">
        <circle
          r="1.15"
          style="fill:none;stroke:#0000ff;stroke-width:0.01" />
      </g>
      <g
        id=""
        transform="translate(-168,50)">
        <circle
          r="1.15"
          style="fill:none;stroke:#0000ff;stroke-width:0.01" />
      </g>
      <g
        id=""
        transform="translate(-30,78)">
        <circle
          r="1.15"
          style="fill:none;stroke:#0000ff;stroke-width:0.01" />
      </g>
      <g
        id=""
        transform="translate(30,78)">
        <circle
          r="1.15"
          style="fill:none;stroke:#0000ff;stroke-width:0.01" />
      </g>
      <g
        id=""
        transform="translate(168,50)">
        <circle
          r="1.15"
          style="fill:none;stroke:#0000ff;stroke-width:0.01" />
      </g>
      <g
        id="CasePerimeter">
        <g
          id="">
          <path
            style="fill:#7f7f7f;fill-opacity:1;stroke:#000000;stroke-width:0.5"
            d="M 27.604 6.26 Q 28.125 3.306 31.123 3.412 L 93.594 5.627 Q 96.592 5.734 99.546 6.255 L 113.854 8.777 Q 116.808 9.298 119.502 10.618 L 148.792 24.97 Q 151.486 26.29 154.486 26.29 L 215.514 26.29 Q 218.514 26.29 221.208 24.97 L 250.498 10.618 Q 253.192 9.298 256.146 8.777 L 270.454 6.255 Q 273.408 5.734 276.406 5.627 L 338.877 3.412 Q 341.875 3.306 342.396 6.26 L 364.771 133.154 Q 365.292 136.108 362.338 136.629 L 320.628 143.984 Q 317.673 144.505 314.75 145.177 L 263.901 156.876 Q 260.977 157.549 258.023 158.07 L 226.356 163.653 Q 223.401 164.174 220.405 164.329 L 216.392 164.536 Q 213.396 164.69 210.396 164.69 L 159.604 164.69 Q 156.604 164.69 153.608 164.536 L 149.595 164.329 Q 146.599 164.174 143.644 163.653 L 111.977 158.07 Q 109.023 157.549 106.099 156.876 L 55.25 145.177 Q 52.327 144.505 49.372 143.984 L 7.662 136.629 Q 4.708 136.108 5.229 133.154 L 27.604 6.26" />
        </g>
      </g>
    </g>
    <g
      id="Outer">
      <g
        id="Left"
        transform="translate(-91.5,0) rotate(10)">
        <g
          id="LeftKeywellPerimeter"
          transform="translate(-66.675,0)">
          <g
            id="">
            <path
              style="fill:#5f5f5f;fill-opacity:1;stroke:#000000;stroke-width:0.5"
              d="M -0.525 60.175 L 38.625 60.175 L 38.625 57.175 L 57.675 57.175 L 57.675 52.175 L 75.675 52.175 L 75.675 58.175 L 94.725 58.175 L 94.725 63.175 L 133.875 63.175 L 133.875 43.075 L 114.825 43.075 L 114.825 -52.175 L 95.775 -52.175 L 95.775 -57.175 L 76.725 -57.175 L 76.725 -63.175 L 56.625 -63.175 L 56.625 -58.175 L 37.575 -58.175 L 37.575 -55.175 L -0.525 -55.175 L -0.525 60.175" />
          </g>
        </g>
        <g
          id="Column00"
          transform="translate(-57.15,2.5)">
          <g
            id="Column00Key00"
            transform="translate(0,-47.625004)">
            <g
              id="">
              <path
                style="fill:none;fill-opacity:1;stroke:#0000ff;stroke-width:0.5"
                d="M -7 -7 L 7 -7 L 7 -6 L 7.8 -6 L 7.8 6 L 7 6 L 7 7 L -7 7 L -7 6 L -7.8 6 L -7.8 -6 L -7 -6 L -7 -7" />
            </g>
          </g>
          <g
            id="Column00Key01"
            transform="translate(0,-28.575003)">
            <g
              id="">
              <path
                style="fill:none;fill-opacity:1;stroke:#0000ff;stroke-width:0.5"
                d="M -7 -7 L 7 -7 L 7 -6 L 7.8 -6 L 7.8 6 L 7 6 L 7 7 L -7 7 L -7 6 L -7.8 6 L -7.8 -6 L -7 -6 L -7 -7" />
            </g>
          </g>
          <g
            id="Column00Key02"
            transform="translate(0,-9.525005)">
            <g
              id="">
              <path
                style="fill:none;fill-opacity:1;stroke:#0000ff;stroke-width:0.5"
                d="M -7 -7 L 7 -7 L 7 -6 L 7.8 -6 L 7.8 6 L 7 6 L 7 7 L -7 7 L -7 6 L -7.8 6 L -7.8 -6 L -7 -6 L -7 -7" />
            </g>
          </g>
          <g
            id="Column00Key03"
            transform="translate(0,9.524998)">
            <g
              id="">
              <path
                style="fill:none;fill-opacity:1;stroke:#0000ff;stroke-width:0.5"
                d="M -7 -7 L 7 -7 L 7 -6 L 7.8 -6 L 7.8 6 L 7 6 L 7 7 L -7 7 L -7 6 L -7.8 6 L -7.8 -6 L -7 -6 L -7 -7" />
            </g>
          </g>
          <g
            id="Column00Key04"
            transform="translate(0,28.575)">
            <g
              id="">
              <path
                style="fill:none;fill-opacity:1;stroke:#0000ff;stroke-width:0.5"
                d="M -7 -7 L 7 -7 L 7 -6 L 7.8 -6 L 7.8 6 L 7 6 L 7 7 L -7 7 L -7 6 L -7.8 6 L -7.8 -6 L -7 -6 L -7 -7" />
            </g>
          </g>
          <g
            id="Column00Key05"
            transform="translate(0,47.625004)">
            <g
              id="">
              <path
                style="fill:none;fill-opacity:1;stroke:#0000ff;stroke-width:0.5"
                d="M -7 -7 L 7 -7 L 7 -6 L 7.8 -6 L 7.8 6 L 7 6 L 7 7 L -7 7 L -7 6 L -7.8 6 L -7.8 -6 L -7 -6 L -7 -7" />
            </g>
          </g>
        </g>
        <g
          id="Column01"
          transform="translate(-38.100002,2.5)">
          <g
            id="Column01Key00"
            transform="translate(0,-47.625004)">
            <g
              id="">
              <path
                style="fill:none;fill-opacity:1;stroke:#0000ff;stroke-width:0.5"
                d="M -7 -7 L 7 -7 L 7 -6 L 7.8 -6 L 7.8 6 L 7 6 L 7 7 L -7 7 L -7 6 L -7.8 6 L -7.8 -6 L -7 -6 L -7 -7" />
            </g>
          </g>
          <g
            id="Column01Key01"
            transform="translate(0,-28.575003)">
            <g
              id="">
              <path
                style="fill:none;fill-opacity:1;stroke:#0000ff;stroke-width:0.5"
                d="M -7 -7 L 7 -7 L 7 -6 L 7.8 -6 L 7.8 6 L 7 6 L 7 7 L -7 7 L -7 6 L -7.8 6 L -7.8 -6 L -7 -6 L -7 -7" />
            </g>
          </g>
          <g
            id="Column01Key02"
            transform="translate(0,-9.525005)">
            <g
              id="">
              <path
                style="fill:none;fill-opacity:1;stroke:#0000ff;stroke-width:0.5"
                d="M -7 -7 L 7 -7 L 7 -6 L 7.8 -6 L 7.8 6 L 7 6 L 7 7 L -7 7 L -7 6 L -7.8 6 L -7.8 -6 L -7 -6 L -7 -7" />
            </g>
          </g>
          <g
            id="Column01Key03"
            transform="translate(0,9.524998)">
            <g
              id="">
              <path
                style="fill:none;fill-opacity:1;stroke:#0000ff;stroke-width:0.5"
                d="M -7 -7 L 7 -7 L 7 -6 L 7.8 -6 L 7.8 6 L 7 6 L 7 7 L -7 7 L -7 6 L -7.8 6 L -7.8 -6 L -7 -6 L -7 -7" />
            </g>
          </g>
          <g
            id="Column01Key04"
            transform="translate(0,28.575)">
            <g
              id="">
              <path
                style="fill:none;fill-opacity:1;stroke:#0000ff;stroke-width:0.5"
                d="M -7 -7 L 7 -7 L 7 -6 L 7.8 -6 L 7.8 6 L 7 6 L 7 7 L -7 7 L -7 6 L -7.8 6 L -7.8 -6 L -7 -6 L -7 -7" />
            </g>
          </g>
          <g
            id="Column01Key05"
            transform="translate(0,47.625004)">
            <g
              id="">
              <path
                style="fill:none;fill-opacity:1;stroke:#0000ff;stroke-width:0.5"
                d="M -7 -7 L 7 -7 L 7 -6 L 7.8 -6 L 7.8 6 L 7 6 L 7 7 L -7 7 L -7 6 L -7.8 6 L -7.8 -6 L -7 -6 L -7 -7" />
            </g>
          </g>
        </g>
        <g
          id="Column02"
          transform="translate(-19.05,-0.5)">
          <g
            id="Column02Key00"
            transform="translate(0,-47.625004)">
            <g
              id="">
              <path
                style="fill:none;fill-opacity:1;stroke:#0000ff;stroke-width:0.5"
                d="M -7 -7 L 7 -7 L 7 -6 L 7.8 -6 L 7.8 6 L 7 6 L 7 7 L -7 7 L -7 6 L -7.8 6 L -7.8 -6 L -7 -6 L -7 -7" />
            </g>
          </g>
          <g
            id="Column02Key01"
            transform="translate(0,-28.575003)">
            <g
              id="">
              <path
                style="fill:none;fill-opacity:1;stroke:#0000ff;stroke-width:0.5"
                d="M -7 -7 L 7 -7 L 7 -6 L 7.8 -6 L 7.8 6 L 7 6 L 7 7 L -7 7 L -7 6 L -7.8 6 L -7.8 -6 L -7 -6 L -7 -7" />
            </g>
          </g>
          <g
            id="Column02Key02"
            transform="translate(0,-9.525005)">
            <g
              id="">
              <path
                style="fill:none;fill-opacity:1;stroke:#0000ff;stroke-width:0.5"
                d="M -7 -7 L 7 -7 L 7 -6 L 7.8 -6 L 7.8 6 L 7 6 L 7 7 L -7 7 L -7 6 L -7.8 6 L -7.8 -6 L -7 -6 L -7 -7" />
            </g>
          </g>
          <g
            id="Column02Key03"
            transform="translate(0,9.524998)">
            <g
              id="">
              <path
                style="fill:none;fill-opacity:1;stroke:#0000ff;stroke-width:0.5"
                d="M -7 -7 L 7 -7 L 7 -6 L 7.8 -6 L 7.8 6 L 7 6 L 7 7 L -7 7 L -7 6 L -7.8 6 L -7.8 -6 L -7 -6 L -7 -7" />
            </g>
          </g>
          <g
            id="Column02Key04"
            transform="translate(0,28.575)">
            <g
              id="">
              <path
                style="fill:none;fill-opacity:1;stroke:#0000ff;stroke-width:0.5"
                d="M -7 -7 L 7 -7 L 7 -6 L 7.8 -6 L 7.8 6 L 7 6 L 7 7 L -7 7 L -7 6 L -7.8 6 L -7.8 -6 L -7 -6 L -7 -7" />
            </g>
          </g>
          <g
            id="Column02Key05"
            transform="translate(0,47.625004)">
            <g
              id="">
              <path
                style="fill:none;fill-opacity:1;stroke:#0000ff;stroke-width:0.5"
                d="M -7 -7 L 7 -7 L 7 -6 L 7.8 -6 L 7.8 6 L 7 6 L 7 7 L -7 7 L -7 6 L -7.8 6 L -7.8 -6 L -7 -6 L -7 -7" />
            </g>
          </g>
        </g>
        <g
          id="Column03"
          transform="translate(0,-5.5)">
          <g
            id="Column03Key00"
            transform="translate(0,-47.625004)">
            <g
              id="">
              <path
                style="fill:none;fill-opacity:1;stroke:#0000ff;stroke-width:0.5"
                d="M -7 -7 L 7 -7 L 7 -6 L 7.8 -6 L 7.8 6 L 7 6 L 7 7 L -7 7 L -7 6 L -7.8 6 L -7.8 -6 L -7 -6 L -7 -7" />
            </g>
          </g>
          <g
            id="Column03Key01"
            transform="translate(0,-28.575003)">
            <g
              id="">
              <path
                style="fill:none;fill-opacity:1;stroke:#0000ff;stroke-width:0.5"
                d="M -7 -7 L 7 -7 L 7 -6 L 7.8 -6 L 7.8 6 L 7 6 L 7 7 L -7 7 L -7 6 L -7.8 6 L -7.8 -6 L -7 -6 L -7 -7" />
            </g>
          </g>
          <g
            id="Column03Key02"
            transform="translate(0,-9.525005)">
            <g
              id="">
              <path
                style="fill:none;fill-opacity:1;stroke:#0000ff;stroke-width:0.5"
                d="M -7 -7 L 7 -7 L 7 -6 L 7.8 -6 L 7.8 6 L 7 6 L 7 7 L -7 7 L -7 6 L -7.8 6 L -7.8 -6 L -7 -6 L -7 -7" />
            </g>
          </g>
          <g
            id="Column03Key03"
            transform="translate(0,9.524998)">
            <g
              id="">
              <path
                style="fill:none;fill-opacity:1;stroke:#0000ff;stroke-width:0.5"
                d="M -7 -7 L 7 -7 L 7 -6 L 7.8 -6 L 7.8 6 L 7 6 L 7 7 L -7 7 L -7 6 L -7.8 6 L -7.8 -6 L -7 -6 L -7 -7" />
            </g>
          </g>
          <g
            id="Column03Key04"
            transform="translate(0,28.575)">
            <g
              id="">
              <path
                style="fill:none;fill-opacity:1;stroke:#0000ff;stroke-width:0.5"
                d="M -7 -7 L 7 -7 L 7 -6 L 7.8 -6 L 7.8 6 L 7 6 L 7 7 L -7 7 L -7 6 L -7.8 6 L -7.8 -6 L -7 -6 L -7 -7" />
            </g>
          </g>
          <g
            id="Column03Key05"
            transform="translate(0,47.625004)">
            <g
              id="">
              <path
                style="fill:none;fill-opacity:1;stroke:#0000ff;stroke-width:0.5"
                d="M -7 -7 L 7 -7 L 7 -6 L 7.8 -6 L 7.8 6 L 7 6 L 7 7 L -7 7 L -7 6 L -7.8 6 L -7.8 -6 L -7 -6 L -7 -7" />
            </g>
          </g>
        </g>
        <g
          id="Column04"
          transform="translate(19.050003,0.5)">
          <g
            id="Column04Key00"
            transform="translate(0,-47.625004)">
            <g
              id="">
              <path
                style="fill:none;fill-opacity:1;stroke:#0000ff;stroke-width:0.5"
                d="M -7 -7 L 7 -7 L 7 -6 L 7.8 -6 L 7.8 6 L 7 6 L 7 7 L -7 7 L -7 6 L -7.8 6 L -7.8 -6 L -7 -6 L -7 -7" />
            </g>
          </g>
          <g
            id="Column04Key01"
            transform="translate(0,-28.575003)">
            <g
              id="">
              <path
                style="fill:none;fill-opacity:1;stroke:#0000ff;stroke-width:0.5"
                d="M -7 -7 L 7 -7 L 7 -6 L 7.8 -6 L 7.8 6 L 7 6 L 7 7 L -7 7 L -7 6 L -7.8 6 L -7.8 -6 L -7 -6 L -7 -7" />
            </g>
          </g>
          <g
            id="Column04Key02"
            transform="translate(0,-9.525005)">
            <g
              id="">
              <path
                style="fill:none;fill-opacity:1;stroke:#0000ff;stroke-width:0.5"
                d="M -7 -7 L 7 -7 L 7 -6 L 7.8 -6 L 7.8 6 L 7 6 L 7 7 L -7 7 L -7 6 L -7.8 6 L -7.8 -6 L -7 -6 L -7 -7" />
            </g>
          </g>
          <g
            id="Column04Key03"
            transform="translate(0,9.524998)">
            <g
              id="">
              <path
                style="fill:none;fill-opacity:1;stroke:#0000ff;stroke-width:0.5"
                d="M -7 -7 L 7 -7 L 7 -6 L 7.8 -6 L 7.8 6 L 7 6 L 7 7 L -7 7 L -7 6 L -7.8 6 L -7.8 -6 L -7 -6 L -7 -7" />
            </g>
          </g>
          <g
            id="Column04Key04"
            transform="translate(0,28.575)">
            <g
              id="">
              <path
                style="fill:none;fill-opacity:1;stroke:#0000ff;stroke-width:0.5"
                d="M -7 -7 L 7 -7 L 7 -6 L 7.8 -6 L 7.8 6 L 7 6 L 7 7 L -7 7 L -7 6 L -7.8 6 L -7.8 -6 L -7 -6 L -7 -7" />
            </g>
          </g>
          <g
            id="Column04Key05"
            transform="translate(0,47.625004)">
            <g
              id="">
              <path
                style="fill:none;fill-opacity:1;stroke:#0000ff;stroke-width:0.5"
                d="M -7 -7 L 7 -7 L 7 -6 L 7.8 -6 L 7.8 6 L 7 6 L 7 7 L -7 7 L -7 6 L -7.8 6 L -7.8 -6 L -7 -6 L -7 -7" />
            </g>
          </g>
        </g>
        <g
          id="Column05"
          transform="translate(38.100006,5.5)">
          <g
            id="Column05Key00"
            transform="translate(0,-47.625004)">
            <g
              id="">
              <path
                style="fill:none;fill-opacity:1;stroke:#0000ff;stroke-width:0.5"
                d="M -7 -7 L 7 -7 L 7 -6 L 7.8 -6 L 7.8 6 L 7 6 L 7 7 L -7 7 L -7 6 L -7.8 6 L -7.8 -6 L -7 -6 L -7 -7" />
            </g>
          </g>
          <g
            id="Column05Key01"
            transform="translate(0,-28.575003)">
            <g
              id="">
              <path
                style="fill:none;fill-opacity:1;stroke:#0000ff;stroke-width:0.5"
                d="M -7 -7 L 7 -7 L 7 -6 L 7.8 -6 L 7.8 6 L 7 6 L 7 7 L -7 7 L -7 6 L -7.8 6 L -7.8 -6 L -7 -6 L -7 -7" />
            </g>
          </g>
          <g
            id="Column05Key02"
            transform="translate(0,-9.525005)">
            <g
              id="">
              <path
                style="fill:none;fill-opacity:1;stroke:#0000ff;stroke-width:0.5"
                d="M -7 -7 L 7 -7 L 7 -6 L 7.8 -6 L 7.8 6 L 7 6 L 7 7 L -7 7 L -7 6 L -7.8 6 L -7.8 -6 L -7 -6 L -7 -7" />
            </g>
          </g>
          <g
            id="Column05Key03"
            transform="translate(0,9.524998)">
            <g
              id="">
              <path
                style="fill:none;fill-opacity:1;stroke:#0000ff;stroke-width:0.5"
                d="M -7 -7 L 7 -7 L 7 -6 L 7.8 -6 L 7.8 6 L 7 6 L 7 7 L -7 7 L -7 6 L -7.8 6 L -7.8 -6 L -7 -6 L -7 -7" />
            </g>
          </g>
          <g
            id="Column05Key04"
            transform="translate(0,28.575)">
            <g
              id="">
              <path
                style="fill:none;fill-opacity:1;stroke:#0000ff;stroke-width:0.5"
                d="M -7 -7 L 7 -7 L 7 -6 L 7.8 -6 L 7.8 6 L 7 6 L 7 7 L -7 7 L -7 6 L -7.8 6 L -7.8 -6 L -7 -6 L -7 -7" />
            </g>
          </g>
          <g
            id="Column05Key05"
            transform="translate(0,47.625004)">
            <g
              id="">
              <path
                style="fill:none;fill-opacity:1;stroke:#0000ff;stroke-width:0.5"
                d="M -7 -7 L 7 -7 L 7 -6 L 7.8 -6 L 7.8 6 L 7 6 L 7 7 L -7 7 L -7 6 L -7.8 6 L -7.8 -6 L -7 -6 L -7 -7" />
            </g>
          </g>
        </g>
        <g
          id="Column06"
          transform="translate(57.15001,5.5)">
          <g
            id=""
            transform="translate(0,-9.525002)" />
          <g
            id="Column06Key04"
            transform="translate(0,47.625)">
            <g
              id="">
              <path
                style="fill:none;fill-opacity:1;stroke:#0000ff;stroke-width:0.5"
                d="M -7 -7 L 7 -7 L 7 -6 L 7.8 -6 L 7.8 6 L 7 6 L 7 7 L -7 7 L -7 6 L -7.8 6 L -7.8 -6 L -7 -6 L -7 -7" />
            </g>
          </g>
        </g>
      </g>
      <g
        id="Center"
        transform="translate(0,16.515)">
        <g
          id="CenterKeywellCutout1"
          transform="translate(0,-85.725)">
          <g
            id="">
            <path
              style="fill:#5f5f5f;fill-opacity:1;stroke:#000000;stroke-width:0.5"
              d="M -29.1 48.15 L 29.1 48.15 L 29.1 28.05 L -29.1 28.05 L -29.1 48.15" />
          </g>
        </g>
        <g
          id="CenterKeywellCutout2"
          transform="translate(0,-29.1)">
          <g
            id="">
            <path
              style="fill:#5f5f5f;fill-opacity:1;stroke:#000000;stroke-width:0.5"
              d="M -29.1 39.15 L 29.1 39.15 L 29.1 0 L -29.1 0 L -29.1 39.15" />
          </g>
        </g>
        <g
          id="CenterKeywellCutout3"
          transform="translate(0,57.675)">
          <g
            id="">
            <path
              style="fill:#5f5f5f;fill-opacity:1;stroke:#000000;stroke-width:0.5"
              d="M -29.1 0 L 29.1 0 L 29.1 -20.1 L 10.05 -20.1 L 10.05 -39.15 L -10.05 -39.15 L -10.05 -20.1 L -29.1 -20.1 L -29.1 0" />
          </g>
        </g>
        <g
          id="Column06"
          transform="translate(-19.05,0)">
          <g
            id="Column06Key00"
            transform="translate(0,-47.625)">
            <g
              id="">
              <path
                style="fill:none;fill-opacity:1;stroke:#0000ff;stroke-width:0.5"
                d="M -7 -7 L 7 -7 L 7 -6 L 7.8 -6 L 7.8 6 L 7 6 L 7 7 L -7 7 L -7 6 L -7.8 6 L -7.8 -6 L -7 -6 L -7 -7" />
            </g>
          </g>
          <g
            id=""
            transform="translate(0,-33.3375)" />
          <g
            id="Column06Key01"
            transform="translate(0,-19.050003)">
            <g
              id="">
              <path
                style="fill:none;fill-opacity:1;stroke:#0000ff;stroke-width:0.5"
                d="M -7 -7 L 7 -7 L 7 -6 L 7.8 -6 L 7.8 6 L 7 6 L 7 7 L -7 7 L -7 6 L -7.8 6 L -7.8 -6 L -7 -6 L -7 -7" />
            </g>
          </g>
          <g
            id="Column06Key02"
            transform="translate(0,-3.8146973E-06)">
            <g
              id="">
              <path
                style="fill:none;fill-opacity:1;stroke:#0000ff;stroke-width:0.5"
                d="M -7 -7 L 7 -7 L 7 -6 L 7.8 -6 L 7.8 6 L 7 6 L 7 7 L -7 7 L -7 6 L -7.8 6 L -7.8 -6 L -7 -6 L -7 -7" />
            </g>
          </g>
          <g
            id=""
            transform="translate(0,14.287498)" />
          <g
            id=""
            transform="translate(0,28.575005)" />
          <g
            id="Column06Key03"
            transform="translate(0,47.625)">
            <g
              id="">
              <path
                style="fill:none;fill-opacity:1;stroke:#0000ff;stroke-width:0.5"
                d="M -7 -7 L 7 -7 L 7 -6 L 7.8 -6 L 7.8 6 L 7 6 L 7 7 L -7 7 L -7 6 L -7.8 6 L -7.8 -6 L -7 -6 L -7 -7" />
            </g>
          </g>
        </g>
        <g
          id="Column07">
          <g
            id="Column07Key00"
            transform="translate(0,-47.625004)">
            <g
              id="">
              <path
                style="fill:none;fill-opacity:1;stroke:#0000ff;stroke-width:0.5"
                d="M -7 -7 L 7 -7 L 7 -6 L 7.8 -6 L 7.8 6 L 7 6 L 7 7 L -7 7 L -7 6 L -7.8 6 L -7.8 -6 L -7 -6 L -7 -7" />
            </g>
          </g>
          <g
            id=""
            transform="translate(0,-33.337505)" />
          <g
            id="Column07Key01"
            transform="translate(0,-19.050007)">
            <g
              id="">
              <path
                style="fill:none;fill-opacity:1;stroke:#0000ff;stroke-width:0.5"
                d="M -7 -7 L 7 -7 L 7 -6 L 7.8 -6 L 7.8 6 L 7 6 L 7 7 L -7 7 L -7 6 L -7.8 6 L -7.8 -6 L -7 -6 L -7 -7" />
            </g>
          </g>
          <g
            id="Column07Key02"
            transform="translate(0,-7.6293945E-06)">
            <g
              id="">
              <path
                style="fill:none;fill-opacity:1;stroke:#0000ff;stroke-width:0.5"
                d="M -7 -7 L 7 -7 L 7 -6 L 7.8 -6 L 7.8 6 L 7 6 L 7 7 L -7 7 L -7 6 L -7.8 6 L -7.8 -6 L -7 -6 L -7 -7" />
            </g>
          </g>
          <g
            id=""
            transform="translate(0,14.287495)" />
          <g
            id="Column07Key03"
            transform="translate(0,28.575)">
            <g
              id="">
              <path
                style="fill:none;fill-opacity:1;stroke:#0000ff;stroke-width:0.5"
                d="M -7 -7 L 7 -7 L 7 -6 L 7.8 -6 L 7.8 6 L 7 6 L 7 7 L -7 7 L -7 6 L -7.8 6 L -7.8 -6 L -7 -6 L -7 -7" />
            </g>
          </g>
          <g
            id="Column07Key04"
            transform="translate(0,47.625004)">
            <g
              id="">
              <path
                style="fill:none;fill-opacity:1;stroke:#0000ff;stroke-width:0.5"
                d="M -7 -7 L 7 -7 L 7 -6 L 7.8 -6 L 7.8 6 L 7 6 L 7 7 L -7 7 L -7 6 L -7.8 6 L -7.8 -6 L -7 -6 L -7 -7" />
            </g>
          </g>
        </g>
        <g
          id="Column08"
          transform="translate(19.050003,0)">
          <g
            id="Column08Key00"
            transform="translate(0,-47.625)">
            <g
              id="">
              <path
                style="fill:none;fill-opacity:1;stroke:#0000ff;stroke-width:0.5"
                d="M -7 -7 L 7 -7 L 7 -6 L 7.8 -6 L 7.8 6 L 7 6 L 7 7 L -7 7 L -7 6 L -7.8 6 L -7.8 -6 L -7 -6 L -7 -7" />
            </g>
          </g>
          <g
            id=""
            transform="translate(0,-33.3375)" />
          <g
            id="Column08Key01"
            transform="translate(0,-19.050003)">
            <g
              id="">
              <path
                style="fill:none;fill-opacity:1;stroke:#0000ff;stroke-width:0.5"
                d="M -7 -7 L 7 -7 L 7 -6 L 7.8 -6 L 7.8 6 L 7 6 L 7 7 L -7 7 L -7 6 L -7.8 6 L -7.8 -6 L -7 -6 L -7 -7" />
            </g>
          </g>
          <g
            id="Column08Key02"
            transform="translate(0,-3.8146973E-06)">
            <g
              id="">
              <path
                style="fill:none;fill-opacity:1;stroke:#0000ff;stroke-width:0.5"
                d="M -7 -7 L 7 -7 L 7 -6 L 7.8 -6 L 7.8 6 L 7 6 L 7 7 L -7 7 L -7 6 L -7.8 6 L -7.8 -6 L -7 -6 L -7 -7" />
            </g>
          </g>
          <g
            id=""
            transform="translate(0,14.287498)" />
          <g
            id=""
            transform="translate(0,28.575005)" />
          <g
            id="Column08Key03"
            transform="translate(0,47.625)">
            <g
              id="">
              <path
                style="fill:none;fill-opacity:1;stroke:#0000ff;stroke-width:0.5"
                d="M -7 -7 L 7 -7 L 7 -6 L 7.8 -6 L 7.8 6 L 7 6 L 7 7 L -7 7 L -7 6 L -7.8 6 L -7.8 -6 L -7 -6 L -7 -7" />
            </g>
          </g>
        </g>
      </g>
      <g
        id="Right"
        transform="translate(91.5,0) rotate(-10)">
        <g
          id="RightKeywellPerimeter"
          transform="translate(-66.675,0)">
          <g
            id="">
            <path
              style="fill:#5f5f5f;fill-opacity:1;stroke:#000000;stroke-width:0.5"
              d="M 133.875 60.175 L 94.725 60.175 L 94.725 57.175 L 75.675 57.175 L 75.675 52.175 L 57.675 52.175 L 57.675 58.175 L 38.625 58.175 L 38.625 63.175 L -0.525 63.175 L -0.525 43.075 L 18.525 43.075 L 18.525 -52.175 L 37.575 -52.175 L 37.575 -57.175 L 56.625 -57.175 L 56.625 -63.175 L 76.725 -63.175 L 76.725 -58.175 L 95.775 -58.175 L 95.775 -55.175 L 133.875 -55.175 L 133.875 60.175" />
          </g>
        </g>
        <g
          id="Column08"
          transform="translate(-57.15,5.5)">
          <g
            id=""
            transform="translate(0,-9.525002)" />
          <g
            id="Column08Key04"
            transform="translate(0,47.625)">
            <g
              id="">
              <path
                style="fill:none;fill-opacity:1;stroke:#0000ff;stroke-width:0.5"
                d="M -7 -7 L 7 -7 L 7 -6 L 7.8 -6 L 7.8 6 L 7 6 L 7 7 L -7 7 L -7 6 L -7.8 6 L -7.8 -6 L -7 -6 L -7 -7" />
            </g>
          </g>
        </g>
        <g
          id="Column09"
          transform="translate(-38.100002,5.5)">
          <g
            id="Column09Key00"
            transform="translate(0,-47.625004)">
            <g
              id="">
              <path
                style="fill:none;fill-opacity:1;stroke:#0000ff;stroke-width:0.5"
                d="M -7 -7 L 7 -7 L 7 -6 L 7.8 -6 L 7.8 6 L 7 6 L 7 7 L -7 7 L -7 6 L -7.8 6 L -7.8 -6 L -7 -6 L -7 -7" />
            </g>
          </g>
          <g
            id="Column09Key01"
            transform="translate(0,-28.575003)">
            <g
              id="">
              <path
                style="fill:none;fill-opacity:1;stroke:#0000ff;stroke-width:0.5"
                d="M -7 -7 L 7 -7 L 7 -6 L 7.8 -6 L 7.8 6 L 7 6 L 7 7 L -7 7 L -7 6 L -7.8 6 L -7.8 -6 L -7 -6 L -7 -7" />
            </g>
          </g>
          <g
            id="Column09Key02"
            transform="translate(0,-9.525005)">
            <g
              id="">
              <path
                style="fill:none;fill-opacity:1;stroke:#0000ff;stroke-width:0.5"
                d="M -7 -7 L 7 -7 L 7 -6 L 7.8 -6 L 7.8 6 L 7 6 L 7 7 L -7 7 L -7 6 L -7.8 6 L -7.8 -6 L -7 -6 L -7 -7" />
            </g>
          </g>
          <g
            id="Column09Key03"
            transform="translate(0,9.524998)">
            <g
              id="">
              <path
                style="fill:none;fill-opacity:1;stroke:#0000ff;stroke-width:0.5"
                d="M -7 -7 L 7 -7 L 7 -6 L 7.8 -6 L 7.8 6 L 7 6 L 7 7 L -7 7 L -7 6 L -7.8 6 L -7.8 -6 L -7 -6 L -7 -7" />
            </g>
          </g>
          <g
            id="Column09Key04"
            transform="translate(0,28.575)">
            <g
              id="">
              <path
                style="fill:none;fill-opacity:1;stroke:#0000ff;stroke-width:0.5"
                d="M -7 -7 L 7 -7 L 7 -6 L 7.8 -6 L 7.8 6 L 7 6 L 7 7 L -7 7 L -7 6 L -7.8 6 L -7.8 -6 L -7 -6 L -7 -7" />
            </g>
          </g>
          <g
            id="Column09Key05"
            transform="translate(0,47.625004)">
            <g
              id="">
              <path
                style="fill:none;fill-opacity:1;stroke:#0000ff;stroke-width:0.5"
                d="M -7 -7 L 7 -7 L 7 -6 L 7.8 -6 L 7.8 6 L 7 6 L 7 7 L -7 7 L -7 6 L -7.8 6 L -7.8 -6 L -7 -6 L -7 -7" />
            </g>
          </g>
        </g>
        <g
          id="Column10"
          transform="translate(-19.05,0.5)">
          <g
            id="Column10Key00"
            transform="translate(0,-47.625004)">
            <g
              id="">
              <path
                style="fill:none;fill-opacity:1;stroke:#0000ff;stroke-width:0.5"
                d="M -7 -7 L 7 -7 L 7 -6 L 7.8 -6 L 7.8 6 L 7 6 L 7 7 L -7 7 L -7 6 L -7.8 6 L -7.8 -6 L -7 -6 L -7 -7" />
            </g>
          </g>
          <g
            id="Column10Key01"
            transform="translate(0,-28.575003)">
            <g
              id="">
              <path
                style="fill:none;fill-opacity:1;stroke:#0000ff;stroke-width:0.5"
                d="M -7 -7 L 7 -7 L 7 -6 L 7.8 -6 L 7.8 6 L 7 6 L 7 7 L -7 7 L -7 6 L -7.8 6 L -7.8 -6 L -7 -6 L -7 -7" />
            </g>
          </g>
          <g
            id="Column10Key02"
            transform="translate(0,-9.525005)">
            <g
              id="">
              <path
                style="fill:none;fill-opacity:1;stroke:#0000ff;stroke-width:0.5"
                d="M -7 -7 L 7 -7 L 7 -6 L 7.8 -6 L 7.8 6 L 7 6 L 7 7 L -7 7 L -7 6 L -7.8 6 L -7.8 -6 L -7 -6 L -7 -7" />
            </g>
          </g>
          <g
            id="Column10Key03"
            transform="translate(0,9.524998)">
            <g
              id="">
              <path
                style="fill:none;fill-opacity:1;stroke:#0000ff;stroke-width:0.5"
                d="M -7 -7 L 7 -7 L 7 -6 L 7.8 -6 L 7.8 6 L 7 6 L 7 7 L -7 7 L -7 6 L -7.8 6 L -7.8 -6 L -7 -6 L -7 -7" />
            </g>
          </g>
          <g
            id="Column10Key04"
            transform="translate(0,28.575)">
            <g
              id="">
              <path
                style="fill:none;fill-opacity:1;stroke:#0000ff;stroke-width:0.5"
                d="M -7 -7 L 7 -7 L 7 -6 L 7.8 -6 L 7.8 6 L 7 6 L 7 7 L -7 7 L -7 6 L -7.8 6 L -7.8 -6 L -7 -6 L -7 -7" />
            </g>
          </g>
          <g
            id="Column10Key05"
            transform="translate(0,47.625004)">
            <g
              id="">
              <path
                style="fill:none;fill-opacity:1;stroke:#0000ff;stroke-width:0.5"
                d="M -7 -7 L 7 -7 L 7 -6 L 7.8 -6 L 7.8 6 L 7 6 L 7 7 L -7 7 L -7 6 L -7.8 6 L -7.8 -6 L -7 -6 L -7 -7" />
            </g>
          </g>
        </g>
        <g
          id="Column11"
          transform="translate(0,-5.5)">
          <g
            id="Column11Key00"
            transform="translate(0,-47.625004)">
            <g
              id="">
              <path
                style="fill:none;fill-opacity:1;stroke:#0000ff;stroke-width:0.5"
                d="M -7 -7 L 7 -7 L 7 -6 L 7.8 -6 L 7.8 6 L 7 6 L 7 7 L -7 7 L -7 6 L -7.8 6 L -7.8 -6 L -7 -6 L -7 -7" />
            </g>
          </g>
          <g
            id="Column11Key01"
            transform="translate(0,-28.575003)">
            <g
              id="">
              <path
                style="fill:none;fill-opacity:1;stroke:#0000ff;stroke-width:0.5"
                d="M -7 -7 L 7 -7 L 7 -6 L 7.8 -6 L 7.8 6 L 7 6 L 7 7 L -7 7 L -7 6 L -7.8 6 L -7.8 -6 L -7 -6 L -7 -7" />
            </g>
          </g>
          <g
            id="Column11Key02"
            transform="translate(0,-9.525005)">
            <g
              id="">
              <path
                style="fill:none;fill-opacity:1;stroke:#0000ff;stroke-width:0.5"
                d="M -7 -7 L 7 -7 L 7 -6 L 7.8 -6 L 7.8 6 L 7 6 L 7 7 L -7 7 L -7 6 L -7.8 6 L -7.8 -6 L -7 -6 L -7 -7" />
            </g>
          </g>
          <g
            id="Column11Key03"
            transform="translate(0,9.524998)">
            <g
              id="">
              <path
                style="fill:none;fill-opacity:1;stroke:#0000ff;stroke-width:0.5"
                d="M -7 -7 L 7 -7 L 7 -6 L 7.8 -6 L 7.8 6 L 7 6 L 7 7 L -7 7 L -7 6 L -7.8 6 L -7.8 -6 L -7 -6 L -7 -7" />
            </g>
          </g>
          <g
            id="Column11Key04"
            transform="translate(0,28.575)">
            <g
              id="">
              <path
                style="fill:none;fill-opacity:1;stroke:#0000ff;stroke-width:0.5"
                d="M -7 -7 L 7 -7 L 7 -6 L 7.8 -6 L 7.8 6 L 7 6 L 7 7 L -7 7 L -7 6 L -7.8 6 L -7.8 -6 L -7 -6 L -7 -7" />
            </g>
          </g>
          <g
            id="Column11Key05"
            transform="translate(0,47.625004)">
            <g
              id="">
              <path
                style="fill:none;fill-opacity:1;stroke:#0000ff;stroke-width:0.5"
                d="M -7 -7 L 7 -7 L 7 -6 L 7.8 -6 L 7.8 6 L 7 6 L 7 7 L -7 7 L -7 6 L -7.8 6 L -7.8 -6 L -7 -6 L -7 -7" />
            </g>
          </g>
        </g>
        <g
          id="Column12"
          transform="translate(19.050003,-0.5)">
          <g
            id="Column12Key00"
            transform="translate(0,-47.625004)">
            <g
              id="">
              <path
                style="fill:none;fill-opacity:1;stroke:#0000ff;stroke-width:0.5"
                d="M -7 -7 L 7 -7 L 7 -6 L 7.8 -6 L 7.8 6 L 7 6 L 7 7 L -7 7 L -7 6 L -7.8 6 L -7.8 -6 L -7 -6 L -7 -7" />
            </g>
          </g>
          <g
            id="Column12Key01"
            transform="translate(0,-28.575003)">
            <g
              id="">
              <path
                style="fill:none;fill-opacity:1;stroke:#0000ff;stroke-width:0.5"
                d="M -7 -7 L 7 -7 L 7 -6 L 7.8 -6 L 7.8 6 L 7 6 L 7 7 L -7 7 L -7 6 L -7.8 6 L -7.8 -6 L -7 -6 L -7 -7" />
            </g>
          </g>
          <g
            id="Column12Key02"
            transform="translate(0,-9.525005)">
            <g
              id="">
              <path
                style="fill:none;fill-opacity:1;stroke:#0000ff;stroke-width:0.5"
                d="M -7 -7 L 7 -7 L 7 -6 L 7.8 -6 L 7.8 6 L 7 6 L 7 7 L -7 7 L -7 6 L -7.8 6 L -7.8 -6 L -7 -6 L -7 -7" />
            </g>
          </g>
          <g
            id="Column12Key03"
            transform="translate(0,9.524998)">
            <g
              id="">
              <path
                style="fill:none;fill-opacity:1;stroke:#0000ff;stroke-width:0.5"
                d="M -7 -7 L 7 -7 L 7 -6 L 7.8 -6 L 7.8 6 L 7 6 L 7 7 L -7 7 L -7 6 L -7.8 6 L -7.8 -6 L -7 -6 L -7 -7" />
            </g>
          </g>
          <g
            id="Column12Key04"
            transform="translate(0,28.575)">
            <g
              id="">
              <path
                style="fill:none;fill-opacity:1;stroke:#0000ff;stroke-width:0.5"
                d="M -7 -7 L 7 -7 L 7 -6 L 7.8 -6 L 7.8 6 L 7 6 L 7 7 L -7 7 L -7 6 L -7.8 6 L -7.8 -6 L -7 -6 L -7 -7" />
            </g>
          </g>
          <g
            id="Column12Key05"
            transform="translate(0,47.625004)">
            <g
              id="">
              <path
                style="fill:none;fill-opacity:1;stroke:#0000ff;stroke-width:0.5"
                d="M -7 -7 L 7 -7 L 7 -6 L 7.8 -6 L 7.8 6 L 7 6 L 7 7 L -7 7 L -7 6 L -7.8 6 L -7.8 -6 L -7 -6 L -7 -7" />
            </g>
          </g>
        </g>
        <g
          id="Column13"
          transform="translate(38.100006,2.5)">
          <g
            id="Column13Key00"
            transform="translate(0,-47.625004)">
            <g
              id="">
              <path
                style="fill:none;fill-opacity:1;stroke:#0000ff;stroke-width:0.5"
                d="M -7 -7 L 7 -7 L 7 -6 L 7.8 -6 L 7.8 6 L 7 6 L 7 7 L -7 7 L -7 6 L -7.8 6 L -7.8 -6 L -7 -6 L -7 -7" />
            </g>
          </g>
          <g
            id="Column13Key01"
            transform="translate(0,-28.575003)">
            <g
              id="">
              <path
                style="fill:none;fill-opacity:1;stroke:#0000ff;stroke-width:0.5"
                d="M -7 -7 L 7 -7 L 7 -6 L 7.8 -6 L 7.8 6 L 7 6 L 7 7 L -7 7 L -7 6 L -7.8 6 L -7.8 -6 L -7 -6 L -7 -7" />
            </g>
          </g>
          <g
            id="Column13Key02"
            transform="translate(0,-9.525005)">
            <g
              id="">
              <path
                style="fill:none;fill-opacity:1;stroke:#0000ff;stroke-width:0.5"
                d="M -7 -7 L 7 -7 L 7 -6 L 7.8 -6 L 7.8 6 L 7 6 L 7 7 L -7 7 L -7 6 L -7.8 6 L -7.8 -6 L -7 -6 L -7 -7" />
            </g>
          </g>
          <g
            id="Column13Key03"
            transform="translate(0,9.524998)">
            <g
              id="">
              <path
                style="fill:none;fill-opacity:1;stroke:#0000ff;stroke-width:0.5"
                d="M -7 -7 L 7 -7 L 7 -6 L 7.8 -6 L 7.8 6 L 7 6 L 7 7 L -7 7 L -7 6 L -7.8 6 L -7.8 -6 L -7 -6 L -7 -7" />
            </g>
          </g>
          <g
            id="Column13Key04"
            transform="translate(0,28.575)">
            <g
              id="">
              <path
                style="fill:none;fill-opacity:1;stroke:#0000ff;stroke-width:0.5"
                d="M -7 -7 L 7 -7 L 7 -6 L 7.8 -6 L 7.8 6 L 7 6 L 7 7 L -7 7 L -7 6 L -7.8 6 L -7.8 -6 L -7 -6 L -7 -7" />
            </g>
          </g>
          <g
            id="Column13Key05"
            transform="translate(0,47.625004)">
            <g
              id="">
              <path
                style="fill:none;fill-opacity:1;stroke:#0000ff;stroke-width:0.5"
                d="M -7 -7 L 7 -7 L 7 -6 L 7.8 -6 L 7.8 6 L 7 6 L 7 7 L -7 7 L -7 6 L -7.8 6 L -7.8 -6 L -7 -6 L -7 -7" />
            </g>
          </g>
        </g>
        <g
          id="Column14"
          transform="translate(57.15001,2.5)">
          <g
            id="Column14Key00"
            transform="translate(0,-47.625004)">
            <g
              id="">
              <path
                style="fill:none;fill-opacity:1;stroke:#0000ff;stroke-width:0.5"
                d="M -7 -7 L 7 -7 L 7 -6 L 7.8 -6 L 7.8 6 L 7 6 L 7 7 L -7 7 L -7 6 L -7.8 6 L -7.8 -6 L -7 -6 L -7 -7" />
            </g>
          </g>
          <g
            id="Column14Key01"
            transform="translate(0,-28.575003)">
            <g
              id="">
              <path
                style="fill:none;fill-opacity:1;stroke:#0000ff;stroke-width:0.5"
                d="M -7 -7 L 7 -7 L 7 -6 L 7.8 -6 L 7.8 6 L 7 6 L 7 7 L -7 7 L -7 6 L -7.8 6 L -7.8 -6 L -7 -6 L -7 -7" />
            </g>
          </g>
          <g
            id="Column14Key02"
            transform="translate(0,-9.525005)">
            <g
              id="">
              <path
                style="fill:none;fill-opacity:1;stroke:#0000ff;stroke-width:0.5"
                d="M -7 -7 L 7 -7 L 7 -6 L 7.8 -6 L 7.8 6 L 7 6 L 7 7 L -7 7 L -7 6 L -7.8 6 L -7.8 -6 L -7 -6 L -7 -7" />
            </g>
          </g>
          <g
            id="Column14Key03"
            transform="translate(0,9.524998)">
            <g
              id="">
              <path
                style="fill:none;fill-opacity:1;stroke:#0000ff;stroke-width:0.5"
                d="M -7 -7 L 7 -7 L 7 -6 L 7.8 -6 L 7.8 6 L 7 6 L 7 7 L -7 7 L -7 6 L -7.8 6 L -7.8 -6 L -7 -6 L -7 -7" />
            </g>
          </g>
          <g
            id="Column14Key04"
            transform="translate(0,28.575)">
            <g
              id="">
              <path
                style="fill:none;fill-opacity:1;stroke:#0000ff;stroke-width:0.5"
                d="M -7 -7 L 7 -7 L 7 -6 L 7.8 -6 L 7.8 6 L 7 6 L 7 7 L -7 7 L -7 6 L -7.8 6 L -7.8 -6 L -7 -6 L -7 -7" />
            </g>
          </g>
          <g
            id="Column14Key05"
            transform="translate(0,47.625004)">
            <g
              id="">
              <path
                style="fill:none;fill-opacity:1;stroke:#0000ff;stroke-width:0.5"
                d="M -7 -7 L 7 -7 L 7 -6 L 7.8 -6 L 7.8 6 L 7 6 L 7 7 L -7 7 L -7 6 L -7.8 6 L -7.8 -6 L -7 -6 L -7 -7" />
            </g>
          </g>
        </g>
      </g>
    </g>
    <g
      id="Pcb"
      transform="translate(-175,-80)" />
  </g>
</svg>