<?xml version="1.0" encoding="utf-8"?>
<svg
  width="500mm"
  height="500mm"
  viewBox="0 0 500 500" xmlns="http://www.w3.org/2000/svg">
  <g
    id="top"
    transform="translate(185,80)">
    <g
      id="CasePerimeter"
      transform="translate(-185,-80)">
      <g
        id="">
        <path
          style="fill:none;fill-opacity:1;stroke:#000000;stroke-width:0.5"
          d="M 27.604 6.26 Q 28.125 3.306 31.123 3.412 L 93.594 5.627 Q 96.592 5.734 99.546 6.255 L 113.854 8.777 Q 116.808 9.298 119.502 10.618 L 148.792 24.97 Q 151.486 26.29 154.486 26.29 L 215.514 26.29 Q 218.514 26.29 221.208 24.97 L 250.498 10.618 Q 253.192 9.298 256.146 8.777 L 270.454 6.255 Q 273.408 5.734 276.406 5.627 L 338.877 3.412 Q 341.875 3.306 342.396 6.26 L 364.771 133.154 Q 365.292 136.108 362.338 136.629 L 320.628 143.984 Q 317.673 144.505 314.75 145.177 L 263.901 156.876 Q 260.977 157.549 258.023 158.07 L 226.356 163.653 Q 223.401 164.174 220.405 164.329 L 216.392 164.536 Q 213.396 164.69 210.396 164.69 L 159.604 164.69 Q 156.604 164.69 153.608 164.536 L 149.595 164.329 Q 146.599 164.174 143.644 163.653 L 111.977 158.07 Q 109.023 157.549 106.099 156.876 L 55.25 145.177 Q 52.327 144.505 49.372 143.984 L 7.662 136.629 Q 4.708 136.108 5.229 133.154 L 27.604 6.26" />
      </g>
    </g>
    <g
      id="LeftKeywellPerimeter"
      transform="translate(-157.162,-11.578) rotate(10)">
      <g
        id="">
        <path
          style="fill:none;fill-opacity:1;stroke:#000000;stroke-width:0.5"
          d="M -0.525 60.175 L 38.625 60.175 L 38.625 57.175 L 57.675 57.175 L 57.675 52.175 L 75.675 52.175 L 75.675 58.175 L 94.725 58.175 L 94.725 63.175 L 133.875 63.175 L 133.875 43.075 L 114.825 43.075 L 114.825 -52.175 L 95.775 -52.175 L 95.775 -57.175 L 76.725 -57.175 L 76.725 -63.175 L 56.625 -63.175 L 56.625 -58.175 L 37.575 -58.175 L 37.575 -55.175 L -0.525 -55.175 L -0.525 60.175" />
      </g>
    </g>
    <g
      id="CenterKeywellCutout1"
      transform="translate(0,-69.21)">
      <g
        id="">
        <path
          style="fill:none;fill-opacity:1;stroke:#000000;stroke-width:0.5"
          d="M -29.1 48.15 L 29.1 48.15 L 29.1 28.05 L -29.1 28.05 L -29.1 48.15" />
      </g>
    </g>
    <g
      id="CenterKeywellCutout2"
      transform="translate(0,-12.585)">
      <g
        id="">
        <path
          style="fill:none;fill-opacity:1;stroke:#000000;stroke-width:0.5"
          d="M -29.1 39.15 L 29.1 39.15 L 29.1 0 L -29.1 0 L -29.1 39.15" />
      </g>
    </g>
    <g
      id="CenterKeywellCutout3"
      transform="translate(0,74.19)">
      <g
        id="">
        <path
          style="fill:none;fill-opacity:1;stroke:#000000;stroke-width:0.5"
          d="M -29.1 0 L 29.1 0 L 29.1 -20.1 L 10.05 -20.1 L 10.05 -39.15 L -10.05 -39.15 L -10.05 -20.1 L -29.1 -20.1 L -29.1 0" />
      </g>
    </g>
    <g
      id="RightKeywellPerimeter"
      transform="translate(25.838,11.578) rotate(-10)">
      <g
        id="">
        <path
          style="fill:none;fill-opacity:1;stroke:#000000;stroke-width:0.5"
          d="M 133.875 60.175 L 94.725 60.175 L 94.725 57.175 L 75.675 57.175 L 75.675 52.175 L 57.675 52.175 L 57.675 58.175 L 38.625 58.175 L 38.625 63.175 L -0.525 63.175 L -0.525 43.075 L 18.525 43.075 L 18.525 -52.175 L 37.575 -52.175 L 37.575 -57.175 L 56.625 -57.175 L 56.625 -63.175 L 76.725 -63.175 L 76.725 -58.175 L 95.775 -58.175 L 95.775 -55.175 L 133.875 -55.175 L 133.875 60.175" />
      </g>
    </g>
  </g>
</svg>