<?xml version="1.0" encoding="utf-8"?>
<svg
  width="500mm"
  height="500mm"
  viewBox="0 0 500 500" xmlns="http://www.w3.org/2000/svg">
  <g
    id="switch"
    transform="translate(200,100)">
    <g
      id="Clusters">
      <g
        id="ClusterLeft"
        transform="translate(-93.331,-4.815) rotate(10)">
        <g
          id="CluserLeftPerimeter">
          <g
            id="">
            <path
              style="fill:none;fill-opacity:1;stroke:#000000;stroke-width:0.5"
              d="M -67.2 60.175 L -28.05 60.175 L -28.05 57.175 L -9 57.175 L -9 52.175 L 9 52.175 L 9 58.175 L 28.05 58.175 L 28.05 63.175 L 67.2 63.175 L 67.2 43.075 L 48.15 43.075 L 48.15 -52.175 L 29.1 -52.175 L 29.1 -57.175 L 10.05 -57.175 L 10.05 -63.175 L -10.05 -63.175 L -10.05 -58.175 L -29.1 -58.175 L -29.1 -55.175 L -67.2 -55.175 L -67.2 60.175" />
          </g>
        </g>
        <g
          id="k00"
          transform="translate(-57.15,-45.125)">
          <g
            id="">
            <path
              style="fill:none;fill-opacity:1;stroke:#000000;stroke-width:0.5"
              d="M -7 -7 L 7 -7 L 7 -6 L 7.8 -6 L 7.8 6 L 7 6 L 7 7 L -7 7 L -7 6 L -7.8 6 L -7.8 -6 L -7 -6 L -7 -7" />
          </g>
        </g>
        <g
          id="k01"
          transform="translate(-38.1,-45.125)">
          <g
            id="">
            <path
              style="fill:none;fill-opacity:1;stroke:#000000;stroke-width:0.5"
              d="M -7 -7 L 7 -7 L 7 -6 L 7.8 -6 L 7.8 6 L 7 6 L 7 7 L -7 7 L -7 6 L -7.8 6 L -7.8 -6 L -7 -6 L -7 -7" />
          </g>
        </g>
        <g
          id="k02"
          transform="translate(-19.05,-48.125)">
          <g
            id="">
            <path
              style="fill:none;fill-opacity:1;stroke:#000000;stroke-width:0.5"
              d="M -7 -7 L 7 -7 L 7 -6 L 7.8 -6 L 7.8 6 L 7 6 L 7 7 L -7 7 L -7 6 L -7.8 6 L -7.8 -6 L -7 -6 L -7 -7" />
          </g>
        </g>
        <g
          id="k03"
          transform="translate(0,-53.125)">
          <g
            id="">
            <path
              style="fill:none;fill-opacity:1;stroke:#000000;stroke-width:0.5"
              d="M -7 -7 L 7 -7 L 7 -6 L 7.8 -6 L 7.8 6 L 7 6 L 7 7 L -7 7 L -7 6 L -7.8 6 L -7.8 -6 L -7 -6 L -7 -7" />
          </g>
        </g>
        <g
          id="k04"
          transform="translate(19.05,-47.125)">
          <g
            id="">
            <path
              style="fill:none;fill-opacity:1;stroke:#000000;stroke-width:0.5"
              d="M -7 -7 L 7 -7 L 7 -6 L 7.8 -6 L 7.8 6 L 7 6 L 7 7 L -7 7 L -7 6 L -7.8 6 L -7.8 -6 L -7 -6 L -7 -7" />
          </g>
        </g>
        <g
          id="k05"
          transform="translate(38.1,-42.125)">
          <g
            id="">
            <path
              style="fill:none;fill-opacity:1;stroke:#000000;stroke-width:0.5"
              d="M -7 -7 L 7 -7 L 7 -6 L 7.8 -6 L 7.8 6 L 7 6 L 7 7 L -7 7 L -7 6 L -7.8 6 L -7.8 -6 L -7 -6 L -7 -7" />
          </g>
        </g>
        <g
          id="k15"
          transform="translate(-57.15,-26.075)">
          <g
            id="">
            <path
              style="fill:none;fill-opacity:1;stroke:#000000;stroke-width:0.5"
              d="M -7 -7 L 7 -7 L 7 -6 L 7.8 -6 L 7.8 6 L 7 6 L 7 7 L -7 7 L -7 6 L -7.8 6 L -7.8 -6 L -7 -6 L -7 -7" />
          </g>
        </g>
        <g
          id="k16"
          transform="translate(-38.1,-26.075)">
          <g
            id="">
            <path
              style="fill:none;fill-opacity:1;stroke:#000000;stroke-width:0.5"
              d="M -7 -7 L 7 -7 L 7 -6 L 7.8 -6 L 7.8 6 L 7 6 L 7 7 L -7 7 L -7 6 L -7.8 6 L -7.8 -6 L -7 -6 L -7 -7" />
          </g>
        </g>
        <g
          id="k17"
          transform="translate(-19.05,-29.075)">
          <g
            id="">
            <path
              style="fill:none;fill-opacity:1;stroke:#000000;stroke-width:0.5"
              d="M -7 -7 L 7 -7 L 7 -6 L 7.8 -6 L 7.8 6 L 7 6 L 7 7 L -7 7 L -7 6 L -7.8 6 L -7.8 -6 L -7 -6 L -7 -7" />
          </g>
        </g>
        <g
          id="k18"
          transform="translate(0,-34.075)">
          <g
            id="">
            <path
              style="fill:none;fill-opacity:1;stroke:#000000;stroke-width:0.5"
              d="M -7 -7 L 7 -7 L 7 -6 L 7.8 -6 L 7.8 6 L 7 6 L 7 7 L -7 7 L -7 6 L -7.8 6 L -7.8 -6 L -7 -6 L -7 -7" />
          </g>
        </g>
        <g
          id="k19"
          transform="translate(19.05,-28.075)">
          <g
            id="">
            <path
              style="fill:none;fill-opacity:1;stroke:#000000;stroke-width:0.5"
              d="M -7 -7 L 7 -7 L 7 -6 L 7.8 -6 L 7.8 6 L 7 6 L 7 7 L -7 7 L -7 6 L -7.8 6 L -7.8 -6 L -7 -6 L -7 -7" />
          </g>
        </g>
        <g
          id="k20"
          transform="translate(38.1,-23.075)">
          <g
            id="">
            <path
              style="fill:none;fill-opacity:1;stroke:#000000;stroke-width:0.5"
              d="M -7 -7 L 7 -7 L 7 -6 L 7.8 -6 L 7.8 6 L 7 6 L 7 7 L -7 7 L -7 6 L -7.8 6 L -7.8 -6 L -7 -6 L -7 -7" />
          </g>
        </g>
        <g
          id="k30"
          transform="translate(-57.15,-7.025)">
          <g
            id="">
            <path
              style="fill:none;fill-opacity:1;stroke:#000000;stroke-width:0.5"
              d="M -7 -7 L 7 -7 L 7 -6 L 7.8 -6 L 7.8 6 L 7 6 L 7 7 L -7 7 L -7 6 L -7.8 6 L -7.8 -6 L -7 -6 L -7 -7" />
          </g>
        </g>
        <g
          id="k31"
          transform="translate(-38.1,-7.025)">
          <g
            id="">
            <path
              style="fill:none;fill-opacity:1;stroke:#000000;stroke-width:0.5"
              d="M -7 -7 L 7 -7 L 7 -6 L 7.8 -6 L 7.8 6 L 7 6 L 7 7 L -7 7 L -7 6 L -7.8 6 L -7.8 -6 L -7 -6 L -7 -7" />
          </g>
        </g>
        <g
          id="k32"
          transform="translate(-19.05,-10.025)">
          <g
            id="">
            <path
              style="fill:none;fill-opacity:1;stroke:#000000;stroke-width:0.5"
              d="M -7 -7 L 7 -7 L 7 -6 L 7.8 -6 L 7.8 6 L 7 6 L 7 7 L -7 7 L -7 6 L -7.8 6 L -7.8 -6 L -7 -6 L -7 -7" />
          </g>
        </g>
        <g
          id="k33"
          transform="translate(0,-15.025)">
          <g
            id="">
            <path
              style="fill:none;fill-opacity:1;stroke:#000000;stroke-width:0.5"
              d="M -7 -7 L 7 -7 L 7 -6 L 7.8 -6 L 7.8 6 L 7 6 L 7 7 L -7 7 L -7 6 L -7.8 6 L -7.8 -6 L -7 -6 L -7 -7" />
          </g>
        </g>
        <g
          id="k34"
          transform="translate(19.05,-9.025)">
          <g
            id="">
            <path
              style="fill:none;fill-opacity:1;stroke:#000000;stroke-width:0.5"
              d="M -7 -7 L 7 -7 L 7 -6 L 7.8 -6 L 7.8 6 L 7 6 L 7 7 L -7 7 L -7 6 L -7.8 6 L -7.8 -6 L -7 -6 L -7 -7" />
          </g>
        </g>
        <g
          id="k35"
          transform="translate(38.1,-4.025)">
          <g
            id="">
            <path
              style="fill:none;fill-opacity:1;stroke:#000000;stroke-width:0.5"
              d="M -7 -7 L 7 -7 L 7 -6 L 7.8 -6 L 7.8 6 L 7 6 L 7 7 L -7 7 L -7 6 L -7.8 6 L -7.8 -6 L -7 -6 L -7 -7" />
          </g>
        </g>
        <g
          id="k45"
          transform="translate(-57.15,12.025)">
          <g
            id="">
            <path
              style="fill:none;fill-opacity:1;stroke:#000000;stroke-width:0.5"
              d="M -7 -7 L 7 -7 L 7 -6 L 7.8 -6 L 7.8 6 L 7 6 L 7 7 L -7 7 L -7 6 L -7.8 6 L -7.8 -6 L -7 -6 L -7 -7" />
          </g>
        </g>
        <g
          id="k46"
          transform="translate(-38.1,12.025)">
          <g
            id="">
            <path
              style="fill:none;fill-opacity:1;stroke:#000000;stroke-width:0.5"
              d="M -7 -7 L 7 -7 L 7 -6 L 7.8 -6 L 7.8 6 L 7 6 L 7 7 L -7 7 L -7 6 L -7.8 6 L -7.8 -6 L -7 -6 L -7 -7" />
          </g>
        </g>
        <g
          id="k47"
          transform="translate(-19.05,9.025)">
          <g
            id="">
            <path
              style="fill:none;fill-opacity:1;stroke:#000000;stroke-width:0.5"
              d="M -7 -7 L 7 -7 L 7 -6 L 7.8 -6 L 7.8 6 L 7 6 L 7 7 L -7 7 L -7 6 L -7.8 6 L -7.8 -6 L -7 -6 L -7 -7" />
          </g>
        </g>
        <g
          id="k48"
          transform="translate(0,4.025)">
          <g
            id="">
            <path
              style="fill:none;fill-opacity:1;stroke:#000000;stroke-width:0.5"
              d="M -7 -7 L 7 -7 L 7 -6 L 7.8 -6 L 7.8 6 L 7 6 L 7 7 L -7 7 L -7 6 L -7.8 6 L -7.8 -6 L -7 -6 L -7 -7" />
          </g>
        </g>
        <g
          id="k49"
          transform="translate(19.05,10.025)">
          <g
            id="">
            <path
              style="fill:none;fill-opacity:1;stroke:#000000;stroke-width:0.5"
              d="M -7 -7 L 7 -7 L 7 -6 L 7.8 -6 L 7.8 6 L 7 6 L 7 7 L -7 7 L -7 6 L -7.8 6 L -7.8 -6 L -7 -6 L -7 -7" />
          </g>
        </g>
        <g
          id="k50"
          transform="translate(38.1,15.025)">
          <g
            id="">
            <path
              style="fill:none;fill-opacity:1;stroke:#000000;stroke-width:0.5"
              d="M -7 -7 L 7 -7 L 7 -6 L 7.8 -6 L 7.8 6 L 7 6 L 7 7 L -7 7 L -7 6 L -7.8 6 L -7.8 -6 L -7 -6 L -7 -7" />
          </g>
        </g>
        <g
          id="k58"
          transform="translate(-57.15,31.075)">
          <g
            id="">
            <path
              style="fill:none;fill-opacity:1;stroke:#000000;stroke-width:0.5"
              d="M -7 -7 L 7 -7 L 7 -6 L 7.8 -6 L 7.8 6 L 7 6 L 7 7 L -7 7 L -7 6 L -7.8 6 L -7.8 -6 L -7 -6 L -7 -7" />
          </g>
        </g>
        <g
          id="k59"
          transform="translate(-38.1,31.075)">
          <g
            id="">
            <path
              style="fill:none;fill-opacity:1;stroke:#000000;stroke-width:0.5"
              d="M -7 -7 L 7 -7 L 7 -6 L 7.8 -6 L 7.8 6 L 7 6 L 7 7 L -7 7 L -7 6 L -7.8 6 L -7.8 -6 L -7 -6 L -7 -7" />
          </g>
        </g>
        <g
          id="k60"
          transform="translate(-19.05,28.075)">
          <g
            id="">
            <path
              style="fill:none;fill-opacity:1;stroke:#000000;stroke-width:0.5"
              d="M -7 -7 L 7 -7 L 7 -6 L 7.8 -6 L 7.8 6 L 7 6 L 7 7 L -7 7 L -7 6 L -7.8 6 L -7.8 -6 L -7 -6 L -7 -7" />
          </g>
        </g>
        <g
          id="k61"
          transform="translate(0,23.075)">
          <g
            id="">
            <path
              style="fill:none;fill-opacity:1;stroke:#000000;stroke-width:0.5"
              d="M -7 -7 L 7 -7 L 7 -6 L 7.8 -6 L 7.8 6 L 7 6 L 7 7 L -7 7 L -7 6 L -7.8 6 L -7.8 -6 L -7 -6 L -7 -7" />
          </g>
        </g>
        <g
          id="k62"
          transform="translate(19.05,29.075)">
          <g
            id="">
            <path
              style="fill:none;fill-opacity:1;stroke:#000000;stroke-width:0.5"
              d="M -7 -7 L 7 -7 L 7 -6 L 7.8 -6 L 7.8 6 L 7 6 L 7 7 L -7 7 L -7 6 L -7.8 6 L -7.8 -6 L -7 -6 L -7 -7" />
          </g>
        </g>
        <g
          id="k63"
          transform="translate(38.1,34.075)">
          <g
            id="">
            <path
              style="fill:none;fill-opacity:1;stroke:#000000;stroke-width:0.5"
              d="M -7 -7 L 7 -7 L 7 -6 L 7.8 -6 L 7.8 6 L 7 6 L 7 7 L -7 7 L -7 6 L -7.8 6 L -7.8 -6 L -7 -6 L -7 -7" />
          </g>
        </g>
        <g
          id="k73"
          transform="translate(-57.15,50.125)">
          <g
            id="">
            <path
              style="fill:none;fill-opacity:1;stroke:#000000;stroke-width:0.5"
              d="M -7 -7 L 7 -7 L 7 -6 L 7.8 -6 L 7.8 6 L 7 6 L 7 7 L -7 7 L -7 6 L -7.8 6 L -7.8 -6 L -7 -6 L -7 -7" />
          </g>
        </g>
        <g
          id="k74"
          transform="translate(-38.1,50.125)">
          <g
            id="">
            <path
              style="fill:none;fill-opacity:1;stroke:#000000;stroke-width:0.5"
              d="M -7 -7 L 7 -7 L 7 -6 L 7.8 -6 L 7.8 6 L 7 6 L 7 7 L -7 7 L -7 6 L -7.8 6 L -7.8 -6 L -7 -6 L -7 -7" />
          </g>
        </g>
        <g
          id="k75"
          transform="translate(-19.05,47.125)">
          <g
            id="">
            <path
              style="fill:none;fill-opacity:1;stroke:#000000;stroke-width:0.5"
              d="M -7 -7 L 7 -7 L 7 -6 L 7.8 -6 L 7.8 6 L 7 6 L 7 7 L -7 7 L -7 6 L -7.8 6 L -7.8 -6 L -7 -6 L -7 -7" />
          </g>
        </g>
        <g
          id="k76"
          transform="translate(0,42.125)">
          <g
            id="">
            <path
              style="fill:none;fill-opacity:1;stroke:#000000;stroke-width:0.5"
              d="M -7 -7 L 7 -7 L 7 -6 L 7.8 -6 L 7.8 6 L 7 6 L 7 7 L -7 7 L -7 6 L -7.8 6 L -7.8 -6 L -7 -6 L -7 -7" />
          </g>
        </g>
        <g
          id="k77"
          transform="translate(19.05,48.125)">
          <g
            id="">
            <path
              style="fill:none;fill-opacity:1;stroke:#000000;stroke-width:0.5"
              d="M -7 -7 L 7 -7 L 7 -6 L 7.8 -6 L 7.8 6 L 7 6 L 7 7 L -7 7 L -7 6 L -7.8 6 L -7.8 -6 L -7 -6 L -7 -7" />
          </g>
        </g>
        <g
          id="k78"
          transform="translate(38.1,53.125)">
          <g
            id="">
            <path
              style="fill:none;fill-opacity:1;stroke:#000000;stroke-width:0.5"
              d="M -7 -7 L 7 -7 L 7 -6 L 7.8 -6 L 7.8 6 L 7 6 L 7 7 L -7 7 L -7 6 L -7.8 6 L -7.8 -6 L -7 -6 L -7 -7" />
          </g>
        </g>
        <g
          id="k79"
          transform="translate(57.15,53.125)">
          <g
            id="">
            <path
              style="fill:none;fill-opacity:1;stroke:#000000;stroke-width:0.5"
              d="M -7 -7 L 7 -7 L 7 -6 L 7.8 -6 L 7.8 6 L 7 6 L 7 7 L -7 7 L -7 6 L -7.8 6 L -7.8 -6 L -7 -6 L -7 -7" />
          </g>
        </g>
      </g>
      <g
        id="ClusterCenterTop"
        transform="translate(0,-36.227)">
        <g
          id="ClusterCenterTopPerimeter">
          <g
            id="">
            <path
              style="fill:none;fill-opacity:1;stroke:#000000;stroke-width:0.5"
              d="M -29.1 10.05 L 29.1 10.05 L 29.1 -10.05 L -29.1 -10.05 L -29.1 10.05" />
          </g>
        </g>
        <g
          id="k06"
          transform="translate(-19.05,0)">
          <g
            id="">
            <path
              style="fill:none;fill-opacity:1;stroke:#000000;stroke-width:0.5"
              d="M -7 -7 L 7 -7 L 7 -6 L 7.8 -6 L 7.8 6 L 7 6 L 7 7 L -7 7 L -7 6 L -7.8 6 L -7.8 -6 L -7 -6 L -7 -7" />
          </g>
        </g>
        <g
          id="k07">
          <g
            id="">
            <path
              style="fill:none;fill-opacity:1;stroke:#000000;stroke-width:0.5"
              d="M -7 -7 L 7 -7 L 7 -6 L 7.8 -6 L 7.8 6 L 7 6 L 7 7 L -7 7 L -7 6 L -7.8 6 L -7.8 -6 L -7 -6 L -7 -7" />
          </g>
        </g>
        <g
          id="k08"
          transform="translate(19.05,0)">
          <g
            id="">
            <path
              style="fill:none;fill-opacity:1;stroke:#000000;stroke-width:0.5"
              d="M -7 -7 L 7 -7 L 7 -6 L 7.8 -6 L 7.8 6 L 7 6 L 7 7 L -7 7 L -7 6 L -7.8 6 L -7.8 -6 L -7 -6 L -7 -7" />
          </g>
        </g>
      </g>
      <g
        id="ClusterCenterMiddle"
        transform="translate(0,2.747)">
        <g
          id="ClusterCenterMiddlePerimeter">
          <g
            id="">
            <path
              style="fill:none;fill-opacity:1;stroke:#000000;stroke-width:0.5"
              d="M -29.1 19.575 L 29.1 19.575 L 29.1 -19.575 L -29.1 -19.575 L -29.1 19.575" />
          </g>
        </g>
        <g
          id="k21"
          transform="translate(-19.05,-9.525)">
          <g
            id="">
            <path
              style="fill:none;fill-opacity:1;stroke:#000000;stroke-width:0.5"
              d="M -7 -7 L 7 -7 L 7 -6 L 7.8 -6 L 7.8 6 L 7 6 L 7 7 L -7 7 L -7 6 L -7.8 6 L -7.8 -6 L -7 -6 L -7 -7" />
          </g>
        </g>
        <g
          id="k22"
          transform="translate(0,-9.525)">
          <g
            id="">
            <path
              style="fill:none;fill-opacity:1;stroke:#000000;stroke-width:0.5"
              d="M -7 -7 L 7 -7 L 7 -6 L 7.8 -6 L 7.8 6 L 7 6 L 7 7 L -7 7 L -7 6 L -7.8 6 L -7.8 -6 L -7 -6 L -7 -7" />
          </g>
        </g>
        <g
          id="k23"
          transform="translate(19.05,-9.525)">
          <g
            id="">
            <path
              style="fill:none;fill-opacity:1;stroke:#000000;stroke-width:0.5"
              d="M -7 -7 L 7 -7 L 7 -6 L 7.8 -6 L 7.8 6 L 7 6 L 7 7 L -7 7 L -7 6 L -7.8 6 L -7.8 -6 L -7 -6 L -7 -7" />
          </g>
        </g>
        <g
          id="k36"
          transform="translate(-19.05,9.525)">
          <g
            id="">
            <path
              style="fill:none;fill-opacity:1;stroke:#000000;stroke-width:0.5"
              d="M -7 -7 L 7 -7 L 7 -6 L 7.8 -6 L 7.8 6 L 7 6 L 7 7 L -7 7 L -7 6 L -7.8 6 L -7.8 -6 L -7 -6 L -7 -7" />
          </g>
        </g>
        <g
          id="k37"
          transform="translate(0,9.525)">
          <g
            id="">
            <path
              style="fill:none;fill-opacity:1;stroke:#000000;stroke-width:0.5"
              d="M -7 -7 L 7 -7 L 7 -6 L 7.8 -6 L 7.8 6 L 7 6 L 7 7 L -7 7 L -7 6 L -7.8 6 L -7.8 -6 L -7 -6 L -7 -7" />
          </g>
        </g>
        <g
          id="k38"
          transform="translate(19.05,9.525)">
          <g
            id="">
            <path
              style="fill:none;fill-opacity:1;stroke:#000000;stroke-width:0.5"
              d="M -7 -7 L 7 -7 L 7 -6 L 7.8 -6 L 7.8 6 L 7 6 L 7 7 L -7 7 L -7 6 L -7.8 6 L -7.8 -6 L -7 -6 L -7 -7" />
          </g>
        </g>
      </g>
      <g
        id="ClusterCenterBottom"
        transform="translate(0,51.246)">
        <g
          id="ClusterCenterBottomPerimeter">
          <g
            id="">
            <path
              style="fill:none;fill-opacity:1;stroke:#000000;stroke-width:0.5"
              d="M -29.1 19.575 L 29.1 19.575 L 29.1 -0.525 L 10.05 -0.525 L 10.05 -19.575 L -10.05 -19.575 L -10.05 -0.525 L -29.1 -0.525 L -29.1 19.575" />
          </g>
        </g>
        <g
          id="k51"
          transform="translate(0,-9.525)">
          <g
            id="">
            <path
              style="fill:none;fill-opacity:1;stroke:#000000;stroke-width:0.5"
              d="M -7 -7 L 7 -7 L 7 -6 L 7.8 -6 L 7.8 6 L 7 6 L 7 7 L -7 7 L -7 6 L -7.8 6 L -7.8 -6 L -7 -6 L -7 -7" />
          </g>
        </g>
        <g
          id="k64"
          transform="translate(-19.05,9.525)">
          <g
            id="">
            <path
              style="fill:none;fill-opacity:1;stroke:#000000;stroke-width:0.5"
              d="M -7 -7 L 7 -7 L 7 -6 L 7.8 -6 L 7.8 6 L 7 6 L 7 7 L -7 7 L -7 6 L -7.8 6 L -7.8 -6 L -7 -6 L -7 -7" />
          </g>
        </g>
        <g
          id="k65"
          transform="translate(0,9.525)">
          <g
            id="">
            <path
              style="fill:none;fill-opacity:1;stroke:#000000;stroke-width:0.5"
              d="M -7 -7 L 7 -7 L 7 -6 L 7.8 -6 L 7.8 6 L 7 6 L 7 7 L -7 7 L -7 6 L -7.8 6 L -7.8 -6 L -7 -6 L -7 -7" />
          </g>
        </g>
        <g
          id="k66"
          transform="translate(19.05,9.525)">
          <g
            id="">
            <path
              style="fill:none;fill-opacity:1;stroke:#000000;stroke-width:0.5"
              d="M -7 -7 L 7 -7 L 7 -6 L 7.8 -6 L 7.8 6 L 7 6 L 7 7 L -7 7 L -7 6 L -7.8 6 L -7.8 -6 L -7 -6 L -7 -7" />
          </g>
        </g>
      </g>
      <g
        id="ClusterRight"
        transform="translate(93.331,-4.815) rotate(-10)">
        <g
          id="ClusterRightPerimeter">
          <g
            id="">
            <path
              style="fill:none;fill-opacity:1;stroke:#000000;stroke-width:0.5"
              d="M 67.2 60.175 L 28.05 60.175 L 28.05 57.175 L 9 57.175 L 9 52.175 L -9 52.175 L -9 58.175 L -28.05 58.175 L -28.05 63.175 L -67.2 63.175 L -67.2 43.075 L -48.15 43.075 L -48.15 -52.175 L -29.1 -52.175 L -29.1 -57.175 L -10.05 -57.175 L -10.05 -63.175 L 10.05 -63.175 L 10.05 -58.175 L 29.1 -58.175 L 29.1 -55.175 L 67.2 -55.175 L 67.2 60.175" />
          </g>
        </g>
        <g
          id="k09"
          transform="translate(-38.1,-42.125)">
          <g
            id="">
            <path
              style="fill:none;fill-opacity:1;stroke:#000000;stroke-width:0.5"
              d="M -7 -7 L 7 -7 L 7 -6 L 7.8 -6 L 7.8 6 L 7 6 L 7 7 L -7 7 L -7 6 L -7.8 6 L -7.8 -6 L -7 -6 L -7 -7" />
          </g>
        </g>
        <g
          id="k10"
          transform="translate(-19.05,-47.125)">
          <g
            id="">
            <path
              style="fill:none;fill-opacity:1;stroke:#000000;stroke-width:0.5"
              d="M -7 -7 L 7 -7 L 7 -6 L 7.8 -6 L 7.8 6 L 7 6 L 7 7 L -7 7 L -7 6 L -7.8 6 L -7.8 -6 L -7 -6 L -7 -7" />
          </g>
        </g>
        <g
          id="k11"
          transform="translate(0,-53.125)">
          <g
            id="">
            <path
              style="fill:none;fill-opacity:1;stroke:#000000;stroke-width:0.5"
              d="M -7 -7 L 7 -7 L 7 -6 L 7.8 -6 L 7.8 6 L 7 6 L 7 7 L -7 7 L -7 6 L -7.8 6 L -7.8 -6 L -7 -6 L -7 -7" />
          </g>
        </g>
        <g
          id="k12"
          transform="translate(19.05,-48.125)">
          <g
            id="">
            <path
              style="fill:none;fill-opacity:1;stroke:#000000;stroke-width:0.5"
              d="M -7 -7 L 7 -7 L 7 -6 L 7.8 -6 L 7.8 6 L 7 6 L 7 7 L -7 7 L -7 6 L -7.8 6 L -7.8 -6 L -7 -6 L -7 -7" />
          </g>
        </g>
        <g
          id="k13"
          transform="translate(38.1,-45.125)">
          <g
            id="">
            <path
              style="fill:none;fill-opacity:1;stroke:#000000;stroke-width:0.5"
              d="M -7 -7 L 7 -7 L 7 -6 L 7.8 -6 L 7.8 6 L 7 6 L 7 7 L -7 7 L -7 6 L -7.8 6 L -7.8 -6 L -7 -6 L -7 -7" />
          </g>
        </g>
        <g
          id="k14"
          transform="translate(57.15,-45.125)">
          <g
            id="">
            <path
              style="fill:none;fill-opacity:1;stroke:#000000;stroke-width:0.5"
              d="M -7 -7 L 7 -7 L 7 -6 L 7.8 -6 L 7.8 6 L 7 6 L 7 7 L -7 7 L -7 6 L -7.8 6 L -7.8 -6 L -7 -6 L -7 -7" />
          </g>
        </g>
        <g
          id="k24"
          transform="translate(-38.1,-23.075)">
          <g
            id="">
            <path
              style="fill:none;fill-opacity:1;stroke:#000000;stroke-width:0.5"
              d="M -7 -7 L 7 -7 L 7 -6 L 7.8 -6 L 7.8 6 L 7 6 L 7 7 L -7 7 L -7 6 L -7.8 6 L -7.8 -6 L -7 -6 L -7 -7" />
          </g>
        </g>
        <g
          id="k25"
          transform="translate(-19.05,-28.075)">
          <g
            id="">
            <path
              style="fill:none;fill-opacity:1;stroke:#000000;stroke-width:0.5"
              d="M -7 -7 L 7 -7 L 7 -6 L 7.8 -6 L 7.8 6 L 7 6 L 7 7 L -7 7 L -7 6 L -7.8 6 L -7.8 -6 L -7 -6 L -7 -7" />
          </g>
        </g>
        <g
          id="k26"
          transform="translate(0,-34.075)">
          <g
            id="">
            <path
              style="fill:none;fill-opacity:1;stroke:#000000;stroke-width:0.5"
              d="M -7 -7 L 7 -7 L 7 -6 L 7.8 -6 L 7.8 6 L 7 6 L 7 7 L -7 7 L -7 6 L -7.8 6 L -7.8 -6 L -7 -6 L -7 -7" />
          </g>
        </g>
        <g
          id="k27"
          transform="translate(19.05,-29.075)">
          <g
            id="">
            <path
              style="fill:none;fill-opacity:1;stroke:#000000;stroke-width:0.5"
              d="M -7 -7 L 7 -7 L 7 -6 L 7.8 -6 L 7.8 6 L 7 6 L 7 7 L -7 7 L -7 6 L -7.8 6 L -7.8 -6 L -7 -6 L -7 -7" />
          </g>
        </g>
        <g
          id="k28"
          transform="translate(38.1,-26.075)">
          <g
            id="">
            <path
              style="fill:none;fill-opacity:1;stroke:#000000;stroke-width:0.5"
              d="M -7 -7 L 7 -7 L 7 -6 L 7.8 -6 L 7.8 6 L 7 6 L 7 7 L -7 7 L -7 6 L -7.8 6 L -7.8 -6 L -7 -6 L -7 -7" />
          </g>
        </g>
        <g
          id="k29"
          transform="translate(57.15,-26.075)">
          <g
            id="">
            <path
              style="fill:none;fill-opacity:1;stroke:#000000;stroke-width:0.5"
              d="M -7 -7 L 7 -7 L 7 -6 L 7.8 -6 L 7.8 6 L 7 6 L 7 7 L -7 7 L -7 6 L -7.8 6 L -7.8 -6 L -7 -6 L -7 -7" />
          </g>
        </g>
        <g
          id="k39"
          transform="translate(-38.1,-4.025)">
          <g
            id="">
            <path
              style="fill:none;fill-opacity:1;stroke:#000000;stroke-width:0.5"
              d="M -7 -7 L 7 -7 L 7 -6 L 7.8 -6 L 7.8 6 L 7 6 L 7 7 L -7 7 L -7 6 L -7.8 6 L -7.8 -6 L -7 -6 L -7 -7" />
          </g>
        </g>
        <g
          id="k40"
          transform="translate(-19.05,-9.025)">
          <g
            id="">
            <path
              style="fill:none;fill-opacity:1;stroke:#000000;stroke-width:0.5"
              d="M -7 -7 L 7 -7 L 7 -6 L 7.8 -6 L 7.8 6 L 7 6 L 7 7 L -7 7 L -7 6 L -7.8 6 L -7.8 -6 L -7 -6 L -7 -7" />
          </g>
        </g>
        <g
          id="k41"
          transform="translate(0,-15.025)">
          <g
            id="">
            <path
              style="fill:none;fill-opacity:1;stroke:#000000;stroke-width:0.5"
              d="M -7 -7 L 7 -7 L 7 -6 L 7.8 -6 L 7.8 6 L 7 6 L 7 7 L -7 7 L -7 6 L -7.8 6 L -7.8 -6 L -7 -6 L -7 -7" />
          </g>
        </g>
        <g
          id="k42"
          transform="translate(19.05,-10.025)">
          <g
            id="">
            <path
              style="fill:none;fill-opacity:1;stroke:#000000;stroke-width:0.5"
              d="M -7 -7 L 7 -7 L 7 -6 L 7.8 -6 L 7.8 6 L 7 6 L 7 7 L -7 7 L -7 6 L -7.8 6 L -7.8 -6 L -7 -6 L -7 -7" />
          </g>
        </g>
        <g
          id="k43"
          transform="translate(38.1,-7.025)">
          <g
            id="">
            <path
              style="fill:none;fill-opacity:1;stroke:#000000;stroke-width:0.5"
              d="M -7 -7 L 7 -7 L 7 -6 L 7.8 -6 L 7.8 6 L 7 6 L 7 7 L -7 7 L -7 6 L -7.8 6 L -7.8 -6 L -7 -6 L -7 -7" />
          </g>
        </g>
        <g
          id="k44"
          transform="translate(57.15,-7.025)">
          <g
            id="">
            <path
              style="fill:none;fill-opacity:1;stroke:#000000;stroke-width:0.5"
              d="M -7 -7 L 7 -7 L 7 -6 L 7.8 -6 L 7.8 6 L 7 6 L 7 7 L -7 7 L -7 6 L -7.8 6 L -7.8 -6 L -7 -6 L -7 -7" />
          </g>
        </g>
        <g
          id="k52"
          transform="translate(-38.1,15.025)">
          <g
            id="">
            <path
              style="fill:none;fill-opacity:1;stroke:#000000;stroke-width:0.5"
              d="M -7 -7 L 7 -7 L 7 -6 L 7.8 -6 L 7.8 6 L 7 6 L 7 7 L -7 7 L -7 6 L -7.8 6 L -7.8 -6 L -7 -6 L -7 -7" />
          </g>
        </g>
        <g
          id="k53"
          transform="translate(-19.05,10.025)">
          <g
            id="">
            <path
              style="fill:none;fill-opacity:1;stroke:#000000;stroke-width:0.5"
              d="M -7 -7 L 7 -7 L 7 -6 L 7.8 -6 L 7.8 6 L 7 6 L 7 7 L -7 7 L -7 6 L -7.8 6 L -7.8 -6 L -7 -6 L -7 -7" />
          </g>
        </g>
        <g
          id="k54"
          transform="translate(0,4.025)">
          <g
            id="">
            <path
              style="fill:none;fill-opacity:1;stroke:#000000;stroke-width:0.5"
              d="M -7 -7 L 7 -7 L 7 -6 L 7.8 -6 L 7.8 6 L 7 6 L 7 7 L -7 7 L -7 6 L -7.8 6 L -7.8 -6 L -7 -6 L -7 -7" />
          </g>
        </g>
        <g
          id="k55"
          transform="translate(19.05,9.025)">
          <g
            id="">
            <path
              style="fill:none;fill-opacity:1;stroke:#000000;stroke-width:0.5"
              d="M -7 -7 L 7 -7 L 7 -6 L 7.8 -6 L 7.8 6 L 7 6 L 7 7 L -7 7 L -7 6 L -7.8 6 L -7.8 -6 L -7 -6 L -7 -7" />
          </g>
        </g>
        <g
          id="k56"
          transform="translate(38.1,12.025)">
          <g
            id="">
            <path
              style="fill:none;fill-opacity:1;stroke:#000000;stroke-width:0.5"
              d="M -7 -7 L 7 -7 L 7 -6 L 7.8 -6 L 7.8 6 L 7 6 L 7 7 L -7 7 L -7 6 L -7.8 6 L -7.8 -6 L -7 -6 L -7 -7" />
          </g>
        </g>
        <g
          id="k57"
          transform="translate(57.15,12.025)">
          <g
            id="">
            <path
              style="fill:none;fill-opacity:1;stroke:#000000;stroke-width:0.5"
              d="M -7 -7 L 7 -7 L 7 -6 L 7.8 -6 L 7.8 6 L 7 6 L 7 7 L -7 7 L -7 6 L -7.8 6 L -7.8 -6 L -7 -6 L -7 -7" />
          </g>
        </g>
        <g
          id="k67"
          transform="translate(-38.1,34.075)">
          <g
            id="">
            <path
              style="fill:none;fill-opacity:1;stroke:#000000;stroke-width:0.5"
              d="M -7 -7 L 7 -7 L 7 -6 L 7.8 -6 L 7.8 6 L 7 6 L 7 7 L -7 7 L -7 6 L -7.8 6 L -7.8 -6 L -7 -6 L -7 -7" />
          </g>
        </g>
        <g
          id="k68"
          transform="translate(-19.05,29.075)">
          <g
            id="">
            <path
              style="fill:none;fill-opacity:1;stroke:#000000;stroke-width:0.5"
              d="M -7 -7 L 7 -7 L 7 -6 L 7.8 -6 L 7.8 6 L 7 6 L 7 7 L -7 7 L -7 6 L -7.8 6 L -7.8 -6 L -7 -6 L -7 -7" />
          </g>
        </g>
        <g
          id="k69"
          transform="translate(0,23.075)">
          <g
            id="">
            <path
              style="fill:none;fill-opacity:1;stroke:#000000;stroke-width:0.5"
              d="M -7 -7 L 7 -7 L 7 -6 L 7.8 -6 L 7.8 6 L 7 6 L 7 7 L -7 7 L -7 6 L -7.8 6 L -7.8 -6 L -7 -6 L -7 -7" />
          </g>
        </g>
        <g
          id="k70"
          transform="translate(19.05,28.075)">
          <g
            id="">
            <path
              style="fill:none;fill-opacity:1;stroke:#000000;stroke-width:0.5"
              d="M -7 -7 L 7 -7 L 7 -6 L 7.8 -6 L 7.8 6 L 7 6 L 7 7 L -7 7 L -7 6 L -7.8 6 L -7.8 -6 L -7 -6 L -7 -7" />
          </g>
        </g>
        <g
          id="k71"
          transform="translate(38.1,31.075)">
          <g
            id="">
            <path
              style="fill:none;fill-opacity:1;stroke:#000000;stroke-width:0.5"
              d="M -7 -7 L 7 -7 L 7 -6 L 7.8 -6 L 7.8 6 L 7 6 L 7 7 L -7 7 L -7 6 L -7.8 6 L -7.8 -6 L -7 -6 L -7 -7" />
          </g>
        </g>
        <g
          id="k72"
          transform="translate(57.15,31.075)">
          <g
            id="">
            <path
              style="fill:none;fill-opacity:1;stroke:#000000;stroke-width:0.5"
              d="M -7 -7 L 7 -7 L 7 -6 L 7.8 -6 L 7.8 6 L 7 6 L 7 7 L -7 7 L -7 6 L -7.8 6 L -7.8 -6 L -7 -6 L -7 -7" />
          </g>
        </g>
        <g
          id="k80"
          transform="translate(-57.15,53.125)">
          <g
            id="">
            <path
              style="fill:none;fill-opacity:1;stroke:#000000;stroke-width:0.5"
              d="M -7 -7 L 7 -7 L 7 -6 L 7.8 -6 L 7.8 6 L 7 6 L 7 7 L -7 7 L -7 6 L -7.8 6 L -7.8 -6 L -7 -6 L -7 -7" />
          </g>
        </g>
        <g
          id="k81"
          transform="translate(-38.1,53.125)">
          <g
            id="">
            <path
              style="fill:none;fill-opacity:1;stroke:#000000;stroke-width:0.5"
              d="M -7 -7 L 7 -7 L 7 -6 L 7.8 -6 L 7.8 6 L 7 6 L 7 7 L -7 7 L -7 6 L -7.8 6 L -7.8 -6 L -7 -6 L -7 -7" />
          </g>
        </g>
        <g
          id="k82"
          transform="translate(-19.05,48.125)">
          <g
            id="">
            <path
              style="fill:none;fill-opacity:1;stroke:#000000;stroke-width:0.5"
              d="M -7 -7 L 7 -7 L 7 -6 L 7.8 -6 L 7.8 6 L 7 6 L 7 7 L -7 7 L -7 6 L -7.8 6 L -7.8 -6 L -7 -6 L -7 -7" />
          </g>
        </g>
        <g
          id="k83"
          transform="translate(0,42.125)">
          <g
            id="">
            <path
              style="fill:none;fill-opacity:1;stroke:#000000;stroke-width:0.5"
              d="M -7 -7 L 7 -7 L 7 -6 L 7.8 -6 L 7.8 6 L 7 6 L 7 7 L -7 7 L -7 6 L -7.8 6 L -7.8 -6 L -7 -6 L -7 -7" />
          </g>
        </g>
        <g
          id="k84"
          transform="translate(19.05,47.125)">
          <g
            id="">
            <path
              style="fill:none;fill-opacity:1;stroke:#000000;stroke-width:0.5"
              d="M -7 -7 L 7 -7 L 7 -6 L 7.8 -6 L 7.8 6 L 7 6 L 7 7 L -7 7 L -7 6 L -7.8 6 L -7.8 -6 L -7 -6 L -7 -7" />
          </g>
        </g>
        <g
          id="k85"
          transform="translate(38.1,50.125)">
          <g
            id="">
            <path
              style="fill:none;fill-opacity:1;stroke:#000000;stroke-width:0.5"
              d="M -7 -7 L 7 -7 L 7 -6 L 7.8 -6 L 7.8 6 L 7 6 L 7 7 L -7 7 L -7 6 L -7.8 6 L -7.8 -6 L -7 -6 L -7 -7" />
          </g>
        </g>
        <g
          id="k86"
          transform="translate(57.15,50.125)">
          <g
            id="">
            <path
              style="fill:none;fill-opacity:1;stroke:#000000;stroke-width:0.5"
              d="M -7 -7 L 7 -7 L 7 -6 L 7.8 -6 L 7.8 6 L 7 6 L 7 7 L -7 7 L -7 6 L -7.8 6 L -7.8 -6 L -7 -6 L -7 -7" />
          </g>
        </g>
      </g>
    </g>
    <g
      id="Elite-C"
      transform="translate(0,-31.448)">
      <g
        id="">
        <path
          style="fill:#5f5f5f;fill-opacity:1;stroke:#000000;stroke-width:0.5"
          d="M -9 -16.5 L 9 -16.5 L 9 16.5 L -9 16.5 L -9 -16.5" />
      </g>
    </g>
    <g
      id="PCB">
      <g
        id="">
        <path
          style="fill:#00ff00;fill-opacity:0.5;stroke:#00ff00;stroke-width:0.5"
          d="M 0 -64.474 L 73.622 -64.474 L 91.447 -67.617 L 149.118 -69.662 L 168.801 41.965 L 132.215 48.417 L 75.519 61.46 L 28.1 69.821 L -28.1 69.821 L -75.519 61.46 L -132.215 48.417 L -168.801 41.965 L -149.118 -69.662 L -91.447 -67.617 L -73.622 -64.474 L 0 -64.474" />
      </g>
    </g>
  </g>
</svg>