<svg width="500mm" height="500mm" viewBox="0 0 500 500" xmlns="http://www.w3.org/2000/svg">
  <g id="k00" transform="translate(58.223,40.822) rotate(10)">
    <path d="M -9.05 -9.05 L 9.05 -9.05 L 9.05 9.05 L -9.05 9.05 L -9.05 -9.05"/>
  </g>
  <g id="k01" transform="translate(76.984,44.13) rotate(10)">
    <path d="M -9.05 -9.05 L 9.05 -9.05 L 9.05 9.05 L -9.05 9.05 L -9.05 -9.05"/>
  </g>
  <g id="k02" transform="translate(96.265,44.483) rotate(10)">
    <path d="M -9.05 -9.05 L 9.05 -9.05 L 9.05 9.05 L -9.05 9.05 L -9.05 -9.05"/>
  </g>
  <g id="k03" transform="translate(115.894,42.867) rotate(10)">
    <path d="M -9.05 -9.05 L 9.05 -9.05 L 9.05 9.05 L -9.05 9.05 L -9.05 -9.05"/>
  </g>
  <g id="k04" transform="translate(133.613,52.084) rotate(10)">
    <path d="M -9.05 -9.05 L 9.05 -9.05 L 9.05 9.05 L -9.05 9.05 L -9.05 -9.05"/>
  </g>
  <g id="k05" transform="translate(151.505,60.316) rotate(10)">
    <path d="M -9.05 -9.05 L 9.05 -9.05 L 9.05 9.05 L -9.05 9.05 L -9.05 -9.05"/>
  </g>
  <g id="k06" transform="translate(180.95,63.773) rotate(0)">
    <path d="M -9.05 -9.05 L 9.05 -9.05 L 9.05 9.05 L -9.05 9.05 L -9.05 -9.05"/>
  </g>
  <g id="k07" transform="translate(200,63.773) rotate(0)">
    <path d="M -9.05 -9.05 L 9.05 -9.05 L 9.05 9.05 L -9.05 9.05 L -9.05 -9.05"/>
  </g>
  <g id="k08" transform="translate(219.05,63.773) rotate(0)">
    <path d="M -9.05 -9.05 L 9.05 -9.05 L 9.05 9.05 L -9.05 9.05 L -9.05 -9.05"/>
  </g>
  <g id="k09" transform="translate(248.495,60.316) rotate(-10)">
    <path d="M -9.05 -9.05 L 9.05 -9.05 L 9.05 9.05 L -9.05 9.05 L -9.05 -9.05"/>
  </g>
  <g id="k10" transform="translate(266.387,52.084) rotate(-10)">
    <path d="M -9.05 -9.05 L 9.05 -9.05 L 9.05 9.05 L -9.05 9.05 L -9.05 -9.05"/>
  </g>
  <g id="k11" transform="translate(284.106,42.867) rotate(-10)">
    <path d="M -9.05 -9.05 L 9.05 -9.05 L 9.05 9.05 L -9.05 9.05 L -9.05 -9.05"/>
  </g>
  <g id="k12" transform="translate(303.735,44.483) rotate(-10)">
    <path d="M -9.05 -9.05 L 9.05 -9.05 L 9.05 9.05 L -9.05 9.05 L -9.05 -9.05"/>
  </g>
  <g id="k13" transform="translate(323.016,44.13) rotate(-10)">
    <path d="M -9.05 -9.05 L 9.05 -9.05 L 9.05 9.05 L -9.05 9.05 L -9.05 -9.05"/>
  </g>
  <g id="k14" transform="translate(341.777,40.822) rotate(-10)">
    <path d="M -9.05 -9.05 L 9.05 -9.05 L 9.05 9.05 L -9.05 9.05 L -9.05 -9.05"/>
  </g>
  <g id="k15" transform="translate(54.915,59.582) rotate(10)">
    <path d="M -9.05 -9.05 L 9.05 -9.05 L 9.05 9.05 L -9.05 9.05 L -9.05 -9.05"/>
  </g>
  <g id="k16" transform="translate(73.676,62.89) rotate(10)">
    <path d="M -9.05 -9.05 L 9.05 -9.05 L 9.05 9.05 L -9.05 9.05 L -9.05 -9.05"/>
  </g>
  <g id="k17" transform="translate(92.957,63.244) rotate(10)">
    <path d="M -9.05 -9.05 L 9.05 -9.05 L 9.05 9.05 L -9.05 9.05 L -9.05 -9.05"/>
  </g>
  <g id="k18" transform="translate(112.586,61.628) rotate(10)">
    <path d="M -9.05 -9.05 L 9.05 -9.05 L 9.05 9.05 L -9.05 9.05 L -9.05 -9.05"/>
  </g>
  <g id="k19" transform="translate(130.305,70.845) rotate(10)">
    <path d="M -9.05 -9.05 L 9.05 -9.05 L 9.05 9.05 L -9.05 9.05 L -9.05 -9.05"/>
  </g>
  <g id="k20" transform="translate(148.197,79.077) rotate(10)">
    <path d="M -9.05 -9.05 L 9.05 -9.05 L 9.05 9.05 L -9.05 9.05 L -9.05 -9.05"/>
  </g>
  <g id="k21" transform="translate(180.95,93.222) rotate(0)">
    <path d="M -9.05 -9.05 L 9.05 -9.05 L 9.05 9.05 L -9.05 9.05 L -9.05 -9.05"/>
  </g>
  <g id="k22" transform="translate(200,93.222) rotate(0)">
    <path d="M -9.05 -9.05 L 9.05 -9.05 L 9.05 9.05 L -9.05 9.05 L -9.05 -9.05"/>
  </g>
  <g id="k23" transform="translate(219.05,93.222) rotate(0)">
    <path d="M -9.05 -9.05 L 9.05 -9.05 L 9.05 9.05 L -9.05 9.05 L -9.05 -9.05"/>
  </g>
  <g id="k24" transform="translate(251.803,79.077) rotate(-10)">
    <path d="M -9.05 -9.05 L 9.05 -9.05 L 9.05 9.05 L -9.05 9.05 L -9.05 -9.05"/>
  </g>
  <g id="k25" transform="translate(269.695,70.845) rotate(-10)">
    <path d="M -9.05 -9.05 L 9.05 -9.05 L 9.05 9.05 L -9.05 9.05 L -9.05 -9.05"/>
  </g>
  <g id="k26" transform="translate(287.414,61.628) rotate(-10)">
    <path d="M -9.05 -9.05 L 9.05 -9.05 L 9.05 9.05 L -9.05 9.05 L -9.05 -9.05"/>
  </g>
  <g id="k27" transform="translate(307.043,63.244) rotate(-10)">
    <path d="M -9.05 -9.05 L 9.05 -9.05 L 9.05 9.05 L -9.05 9.05 L -9.05 -9.05"/>
  </g>
  <g id="k28" transform="translate(326.324,62.89) rotate(-10)">
    <path d="M -9.05 -9.05 L 9.05 -9.05 L 9.05 9.05 L -9.05 9.05 L -9.05 -9.05"/>
  </g>
  <g id="k29" transform="translate(345.085,59.582) rotate(-10)">
    <path d="M -9.05 -9.05 L 9.05 -9.05 L 9.05 9.05 L -9.05 9.05 L -9.05 -9.05"/>
  </g>
  <g id="k30" transform="translate(51.607,78.343) rotate(10)">
    <path d="M -9.05 -9.05 L 9.05 -9.05 L 9.05 9.05 L -9.05 9.05 L -9.05 -9.05"/>
  </g>
  <g id="k31" transform="translate(70.368,81.651) rotate(10)">
    <path d="M -9.05 -9.05 L 9.05 -9.05 L 9.05 9.05 L -9.05 9.05 L -9.05 -9.05"/>
  </g>
  <g id="k32" transform="translate(89.649,82.004) rotate(10)">
    <path d="M -9.05 -9.05 L 9.05 -9.05 L 9.05 9.05 L -9.05 9.05 L -9.05 -9.05"/>
  </g>
  <g id="k33" transform="translate(109.278,80.388) rotate(10)">
    <path d="M -9.05 -9.05 L 9.05 -9.05 L 9.05 9.05 L -9.05 9.05 L -9.05 -9.05"/>
  </g>
  <g id="k34" transform="translate(126.997,89.605) rotate(10)">
    <path d="M -9.05 -9.05 L 9.05 -9.05 L 9.05 9.05 L -9.05 9.05 L -9.05 -9.05"/>
  </g>
  <g id="k35" transform="translate(144.889,97.837) rotate(10)">
    <path d="M -9.05 -9.05 L 9.05 -9.05 L 9.05 9.05 L -9.05 9.05 L -9.05 -9.05"/>
  </g>
  <g id="k36" transform="translate(180.95,112.272) rotate(0)">
    <path d="M -9.05 -9.05 L 9.05 -9.05 L 9.05 9.05 L -9.05 9.05 L -9.05 -9.05"/>
  </g>
  <g id="k37" transform="translate(200,112.272) rotate(0)">
    <path d="M -9.05 -9.05 L 9.05 -9.05 L 9.05 9.05 L -9.05 9.05 L -9.05 -9.05"/>
  </g>
  <g id="k38" transform="translate(219.05,112.272) rotate(0)">
    <path d="M -9.05 -9.05 L 9.05 -9.05 L 9.05 9.05 L -9.05 9.05 L -9.05 -9.05"/>
  </g>
  <g id="k39" transform="translate(255.111,97.837) rotate(-10)">
    <path d="M -9.05 -9.05 L 9.05 -9.05 L 9.05 9.05 L -9.05 9.05 L -9.05 -9.05"/>
  </g>
  <g id="k40" transform="translate(273.003,89.605) rotate(-10)">
    <path d="M -9.05 -9.05 L 9.05 -9.05 L 9.05 9.05 L -9.05 9.05 L -9.05 -9.05"/>
  </g>
  <g id="k41" transform="translate(290.722,80.388) rotate(-10)">
    <path d="M -9.05 -9.05 L 9.05 -9.05 L 9.05 9.05 L -9.05 9.05 L -9.05 -9.05"/>
  </g>
  <g id="k42" transform="translate(310.351,82.004) rotate(-10)">
    <path d="M -9.05 -9.05 L 9.05 -9.05 L 9.05 9.05 L -9.05 9.05 L -9.05 -9.05"/>
  </g>
  <g id="k43" transform="translate(329.632,81.651) rotate(-10)">
    <path d="M -9.05 -9.05 L 9.05 -9.05 L 9.05 9.05 L -9.05 9.05 L -9.05 -9.05"/>
  </g>
  <g id="k44" transform="translate(348.393,78.343) rotate(-10)">
    <path d="M -9.05 -9.05 L 9.05 -9.05 L 9.05 9.05 L -9.05 9.05 L -9.05 -9.05"/>
  </g>
  <g id="k45" transform="translate(48.299,97.103) rotate(10)">
    <path d="M -9.05 -9.05 L 9.05 -9.05 L 9.05 9.05 L -9.05 9.05 L -9.05 -9.05"/>
  </g>
  <g id="k46" transform="translate(67.06,100.411) rotate(10)">
    <path d="M -9.05 -9.05 L 9.05 -9.05 L 9.05 9.05 L -9.05 9.05 L -9.05 -9.05"/>
  </g>
  <g id="k47" transform="translate(86.341,100.765) rotate(10)">
    <path d="M -9.05 -9.05 L 9.05 -9.05 L 9.05 9.05 L -9.05 9.05 L -9.05 -9.05"/>
  </g>
  <g id="k48" transform="translate(105.97,99.149) rotate(10)">
    <path d="M -9.05 -9.05 L 9.05 -9.05 L 9.05 9.05 L -9.05 9.05 L -9.05 -9.05"/>
  </g>
  <g id="k49" transform="translate(123.689,108.366) rotate(10)">
    <path d="M -9.05 -9.05 L 9.05 -9.05 L 9.05 9.05 L -9.05 9.05 L -9.05 -9.05"/>
  </g>
  <g id="k50" transform="translate(141.581,116.598) rotate(10)">
    <path d="M -9.05 -9.05 L 9.05 -9.05 L 9.05 9.05 L -9.05 9.05 L -9.05 -9.05"/>
  </g>
  <g id="k51" transform="translate(200,141.721) rotate(0)">
    <path d="M -9.05 -9.05 L 9.05 -9.05 L 9.05 9.05 L -9.05 9.05 L -9.05 -9.05"/>
  </g>
  <g id="k52" transform="translate(258.419,116.598) rotate(-10)">
    <path d="M -9.05 -9.05 L 9.05 -9.05 L 9.05 9.05 L -9.05 9.05 L -9.05 -9.05"/>
  </g>
  <g id="k53" transform="translate(276.311,108.366) rotate(-10)">
    <path d="M -9.05 -9.05 L 9.05 -9.05 L 9.05 9.05 L -9.05 9.05 L -9.05 -9.05"/>
  </g>
  <g id="k54" transform="translate(294.03,99.149) rotate(-10)">
    <path d="M -9.05 -9.05 L 9.05 -9.05 L 9.05 9.05 L -9.05 9.05 L -9.05 -9.05"/>
  </g>
  <g id="k55" transform="translate(313.659,100.765) rotate(-10)">
    <path d="M -9.05 -9.05 L 9.05 -9.05 L 9.05 9.05 L -9.05 9.05 L -9.05 -9.05"/>
  </g>
  <g id="k56" transform="translate(332.94,100.411) rotate(-10)">
    <path d="M -9.05 -9.05 L 9.05 -9.05 L 9.05 9.05 L -9.05 9.05 L -9.05 -9.05"/>
  </g>
  <g id="k57" transform="translate(351.701,97.103) rotate(-10)">
    <path d="M -9.05 -9.05 L 9.05 -9.05 L 9.05 9.05 L -9.05 9.05 L -9.05 -9.05"/>
  </g>
  <g id="k58" transform="translate(44.991,115.864) rotate(10)">
    <path d="M -9.05 -9.05 L 9.05 -9.05 L 9.05 9.05 L -9.05 9.05 L -9.05 -9.05"/>
  </g>
  <g id="k59" transform="translate(63.752,119.172) rotate(10)">
    <path d="M -9.05 -9.05 L 9.05 -9.05 L 9.05 9.05 L -9.05 9.05 L -9.05 -9.05"/>
  </g>
  <g id="k60" transform="translate(83.033,119.525) rotate(10)">
    <path d="M -9.05 -9.05 L 9.05 -9.05 L 9.05 9.05 L -9.05 9.05 L -9.05 -9.05"/>
  </g>
  <g id="k61" transform="translate(102.662,117.909) rotate(10)">
    <path d="M -9.05 -9.05 L 9.05 -9.05 L 9.05 9.05 L -9.05 9.05 L -9.05 -9.05"/>
  </g>
  <g id="k62" transform="translate(120.381,127.126) rotate(10)">
    <path d="M -9.05 -9.05 L 9.05 -9.05 L 9.05 9.05 L -9.05 9.05 L -9.05 -9.05"/>
  </g>
  <g id="k63" transform="translate(138.273,135.358) rotate(10)">
    <path d="M -9.05 -9.05 L 9.05 -9.05 L 9.05 9.05 L -9.05 9.05 L -9.05 -9.05"/>
  </g>
  <g id="k64" transform="translate(180.95,160.771) rotate(0)">
    <path d="M -9.05 -9.05 L 9.05 -9.05 L 9.05 9.05 L -9.05 9.05 L -9.05 -9.05"/>
  </g>
  <g id="k65" transform="translate(200,160.771) rotate(0)">
    <path d="M -9.05 -9.05 L 9.05 -9.05 L 9.05 9.05 L -9.05 9.05 L -9.05 -9.05"/>
  </g>
  <g id="k66" transform="translate(219.05,160.771) rotate(0)">
    <path d="M -9.05 -9.05 L 9.05 -9.05 L 9.05 9.05 L -9.05 9.05 L -9.05 -9.05"/>
  </g>
  <g id="k67" transform="translate(261.727,135.358) rotate(-10)">
    <path d="M -9.05 -9.05 L 9.05 -9.05 L 9.05 9.05 L -9.05 9.05 L -9.05 -9.05"/>
  </g>
  <g id="k68" transform="translate(279.619,127.126) rotate(-10)">
    <path d="M -9.05 -9.05 L 9.05 -9.05 L 9.05 9.05 L -9.05 9.05 L -9.05 -9.05"/>
  </g>
  <g id="k69" transform="translate(297.338,117.909) rotate(-10)">
    <path d="M -9.05 -9.05 L 9.05 -9.05 L 9.05 9.05 L -9.05 9.05 L -9.05 -9.05"/>
  </g>
  <g id="k70" transform="translate(316.967,119.525) rotate(-10)">
    <path d="M -9.05 -9.05 L 9.05 -9.05 L 9.05 9.05 L -9.05 9.05 L -9.05 -9.05"/>
  </g>
  <g id="k71" transform="translate(336.248,119.172) rotate(-10)">
    <path d="M -9.05 -9.05 L 9.05 -9.05 L 9.05 9.05 L -9.05 9.05 L -9.05 -9.05"/>
  </g>
  <g id="k72" transform="translate(355.009,115.864) rotate(-10)">
    <path d="M -9.05 -9.05 L 9.05 -9.05 L 9.05 9.05 L -9.05 9.05 L -9.05 -9.05"/>
  </g>
  <g id="k73" transform="translate(41.683,134.624) rotate(10)">
    <path d="M -9.05 -9.05 L 9.05 -9.05 L 9.05 9.05 L -9.05 9.05 L -9.05 -9.05"/>
  </g>
  <g id="k74" transform="translate(60.444,137.932) rotate(10)">
    <path d="M -9.05 -9.05 L 9.05 -9.05 L 9.05 9.05 L -9.05 9.05 L -9.05 -9.05"/>
  </g>
  <g id="k75" transform="translate(79.725,138.286) rotate(10)">
    <path d="M -9.05 -9.05 L 9.05 -9.05 L 9.05 9.05 L -9.05 9.05 L -9.05 -9.05"/>
  </g>
  <g id="k76" transform="translate(99.354,136.67) rotate(10)">
    <path d="M -9.05 -9.05 L 9.05 -9.05 L 9.05 9.05 L -9.05 9.05 L -9.05 -9.05"/>
  </g>
  <g id="k77" transform="translate(117.073,145.887) rotate(10)">
    <path d="M -9.05 -9.05 L 9.05 -9.05 L 9.05 9.05 L -9.05 9.05 L -9.05 -9.05"/>
  </g>
  <g id="k78" transform="translate(134.965,154.119) rotate(10)">
    <path d="M -9.05 -9.05 L 9.05 -9.05 L 9.05 9.05 L -9.05 9.05 L -9.05 -9.05"/>
  </g>
  <g id="k79" transform="translate(153.726,157.427) rotate(10)">
    <path d="M -9.05 -9.05 L 9.05 -9.05 L 9.05 9.05 L -9.05 9.05 L -9.05 -9.05"/>
  </g>
  <g id="k80" transform="translate(246.274,157.427) rotate(-10)">
    <path d="M -9.05 -9.05 L 9.05 -9.05 L 9.05 9.05 L -9.05 9.05 L -9.05 -9.05"/>
  </g>
  <g id="k81" transform="translate(265.035,154.119) rotate(-10)">
    <path d="M -9.05 -9.05 L 9.05 -9.05 L 9.05 9.05 L -9.05 9.05 L -9.05 -9.05"/>
  </g>
  <g id="k82" transform="translate(282.927,145.887) rotate(-10)">
    <path d="M -9.05 -9.05 L 9.05 -9.05 L 9.05 9.05 L -9.05 9.05 L -9.05 -9.05"/>
  </g>
  <g id="k83" transform="translate(300.646,136.67) rotate(-10)">
    <path d="M -9.05 -9.05 L 9.05 -9.05 L 9.05 9.05 L -9.05 9.05 L -9.05 -9.05"/>
  </g>
  <g id="k84" transform="translate(320.275,138.286) rotate(-10)">
    <path d="M -9.05 -9.05 L 9.05 -9.05 L 9.05 9.05 L -9.05 9.05 L -9.05 -9.05"/>
  </g>
  <g id="k85" transform="translate(339.556,137.932) rotate(-10)">
    <path d="M -9.05 -9.05 L 9.05 -9.05 L 9.05 9.05 L -9.05 9.05 L -9.05 -9.05"/>
  </g>
  <g id="k86" transform="translate(358.317,134.624) rotate(-10)">
    <path d="M -9.05 -9.05 L 9.05 -9.05 L 9.05 9.05 L -9.05 9.05 L -9.05 -9.05"/>
  </g>
</svg>