  0
SECTION
  2
HEADER
  9
$ACADVER
  1
AC1014
  9
$HANDSEED
  5
FFFF
  9
$MEASUREMENT
 70
     1
  0
ENDSEC
  0
SECTION
  2
TABLES
  0
TABLE
  2
VPORT
  5
8
330
0
100
AcDbSymbolTable
 70
     4
  0
VPORT
  5
2E
330
8
100
AcDbSymbolTableRecord
100
AcDbViewportTableRecord
  2
*ACTIVE
 70
     0
 10
0.0
 20
0.0
 11
1.0
 21
1.0
 12
210.0
 22
148.5
 13
0.0
 23
0.0
 14
10.0
 24
10.0
 15
10.0
 25
10.0
 16
0.0
 26
0.0
 36
1.0
 17
0.0
 27
0.0
 37
0.0
 40
341.0
 41
1.24
 42
50.0
 43
0.0
 44
0.0
 50
0.0
 51
0.0
 71
     0
 72
   100
 73
     1
 74
     3
 75
     0
 76
     0
 77
     0
 78
     0
  0
ENDTAB
  0
TABLE
  2
LTYPE
  5
5
330
0
100
AcDbSymbolTable
 70
     1
  0
LTYPE
  5
14
330
5
100
AcDbSymbolTableRecord
100
AcDbLinetypeTableRecord
  2
BYBLOCK
 70
     0
  3

 72
    65
 73
     0
 40
0.0
  0
LTYPE
  5
15
330
5
100
AcDbSymbolTableRecord
100
AcDbLinetypeTableRecord
  2
BYLAYER
 70
     0
  3

 72
    65
 73
     0
 40
0.0
  0
LTYPE
  5
16
330
5
100
AcDbSymbolTableRecord
100
AcDbLinetypeTableRecord
  2
CONTINUOUS
 70
     0
  3
Solid line
 72
    65
 73
     0
 40
0.0
  0
ENDTAB
  0
TABLE
  2
LAYER
  5
2
100
AcDbSymbolTable
 70
1
  0
LAYER
  5
50
100
AcDbSymbolTableRecord
100
AcDbLayerTableRecord
  2
0
 70
0
  6
CONTINUOUS
  0
ENDTAB
  0
TABLE
  2
STYLE
  5
3
330
0
100
AcDbSymbolTable
 70
     1
  0
STYLE
  5
11
330
3
100
AcDbSymbolTableRecord
100
AcDbTextStyleTableRecord
  2
STANDARD
 70
     0
 40
0.0
 41
1.0
 50
0.0
 71
     0
 42
2.5
  3
txt
  4

  0
ENDTAB
  0
TABLE
  2
VIEW
  5
6
330
0
100
AcDbSymbolTable
 70
     0
  0
ENDTAB
  0
TABLE
  2
UCS
  5
7
330
0
100
AcDbSymbolTable
 70
     0
  0
ENDTAB
  0
TABLE
  2
APPID
  5
9
330
0
100
AcDbSymbolTable
 70
     2
  0
APPID
  5
12
330
9
100
AcDbSymbolTableRecord
100
AcDbRegAppTableRecord
  2
ACAD
 70
     0
  0
ENDTAB
  0
TABLE
  2
DIMSTYLE
  5
A
330
0
100
AcDbSymbolTable
 70
     1
  0
DIMSTYLE
105
27
330
A
100
AcDbSymbolTableRecord
100
AcDbDimStyleTableRecord
  2
ISO-25
 70
     0
  3

  4

  5

  6

  7

 40
1.0
 41
2.5
 42
0.625
 43
3.75
 44
1.25
 45
0.0
 46
0.0
 47
0.0
 48
0.0
140
2.5
141
2.5
142
0.0
143
0.03937007874016
144
1.0
145
0.0
146
1.0
147
0.625
 71
     0
 72
     0
 73
     0
 74
     0
 75
     0
 76
     0
 77
     1
 78
     8
170
     0
171
     3
172
     1
173
     0
174
     0
175
     0
176
     0
177
     0
178
     0
270
     2
271
     2
272
     2
273
     2
274
     3
340
11
275
     0
280
     0
281
     0
282
     0
283
     0
284
     8
285
     0
286
     0
287
     3
288
     0
  0
ENDTAB
  0
TABLE
  2
BLOCK_RECORD
  5
1
330
0
100
AcDbSymbolTable
 70
     1
  0
BLOCK_RECORD
  5
1F
330
1
100
AcDbSymbolTableRecord
100
AcDbBlockTableRecord
  2
*MODEL_SPACE
  0
BLOCK_RECORD
  5
1B
330
1
100
AcDbSymbolTableRecord
100
AcDbBlockTableRecord
  2
*PAPER_SPACE
  0
ENDTAB
  0
ENDSEC
  0
SECTION
  2
BLOCKS
  0
BLOCK
  5
20
330
1F
100
AcDbEntity
  8
0
100
AcDbBlockBegin
  2
*MODEL_SPACE
 70
     0
 10
0.0
 20
0.0
 30
0.0
  3
*MODEL_SPACE
  1

  0
ENDBLK
  5
21
330
1F
100
AcDbEntity
  8
0
100
AcDbBlockEnd
  0
BLOCK
  5
1C
330
1B
100
AcDbEntity
 67
     1
  8
0
100
AcDbBlockBegin
  2
*PAPER_SPACE
  1

  0
ENDBLK
  5
1D
330
1B
100
AcDbEntity
 67
     1
  8
0
100
AcDbBlockEnd
  0
ENDSEC
  0
SECTION
  2
ENTITIES
  0
SPLINE
  5
100
100
AcDbEntity
  8
0
 62
7
100
AcDbSpline
 70
8
 71
3
 72
8
 73
4
 74
0
 40
0
 40
0
 40
0
 40
0
 40
1
 40
1
 40
1
 40
1
 10
336.852000
 20
485.720000
 30
0.0
 10
340.185333
 20
485.720000
 30
0.0
 10
341.852000
 20
484.053333
 30
0.0
 10
341.852000
 20
480.720000
 30
0.0
  0
LWPOLYLINE
  5
101
100
AcDbEntity
  8
0
 62
7
100
AcDbPolyline
 90
2
 70
0
 10
13.148000
 20
485.720000
 30
0.0
 10
336.852000
 20
485.720000
 30
0.0
  0
SPLINE
  5
102
100
AcDbEntity
  8
0
 62
7
100
AcDbSpline
 70
8
 71
3
 72
8
 73
4
 74
0
 40
0
 40
0
 40
0
 40
0
 40
1
 40
1
 40
1
 40
1
 10
341.852000
 20
350.750000
 30
0.0
 10
341.852000
 20
347.416667
 30
0.0
 10
340.185333
 20
345.750000
 30
0.0
 10
336.852000
 20
345.750000
 30
0.0
  0
LWPOLYLINE
  5
103
100
AcDbEntity
  8
0
 62
7
100
AcDbPolyline
 90
2
 70
0
 10
341.852000
 20
480.720000
 30
0.0
 10
341.852000
 20
350.750000
 30
0.0
  0
SPLINE
  5
104
100
AcDbEntity
  8
0
 62
7
100
AcDbSpline
 70
8
 71
3
 72
8
 73
4
 74
0
 40
0
 40
0
 40
0
 40
0
 40
1
 40
1
 40
1
 40
1
 10
13.148000
 20
345.750000
 30
0.0
 10
9.814667
 20
345.750000
 30
0.0
 10
8.148000
 20
347.416667
 30
0.0
 10
8.148000
 20
350.750000
 30
0.0
  0
LWPOLYLINE
  5
105
100
AcDbEntity
  8
0
 62
7
100
AcDbPolyline
 90
2
 70
0
 10
336.852000
 20
345.750000
 30
0.0
 10
13.148000
 20
345.750000
 30
0.0
  0
SPLINE
  5
106
100
AcDbEntity
  8
0
 62
7
100
AcDbSpline
 70
8
 71
3
 72
8
 73
4
 74
0
 40
0
 40
0
 40
0
 40
0
 40
1
 40
1
 40
1
 40
1
 10
8.148000
 20
480.720000
 30
0.0
 10
8.148000
 20
484.053333
 30
0.0
 10
9.814667
 20
485.720000
 30
0.0
 10
13.148000
 20
485.720000
 30
0.0
  0
SPLINE
  5
107
100
AcDbEntity
  8
0
 62
7
100
AcDbSpline
 70
8
 71
3
 72
8
 73
4
 74
0
 40
0
 40
0
 40
0
 40
0
 40
1
 40
1
 40
1
 40
1
 10
22.798000
 20
472.220000
 30
0.0
 10
22.798000
 20
471.809145
 30
0.0
 10
22.578811
 20
471.429499
 30
0.0
 10
22.223000
 20
471.224071
 30
0.0
  0
SPLINE
  5
108
100
AcDbEntity
  8
0
 62
7
100
AcDbSpline
 70
8
 71
3
 72
8
 73
4
 74
0
 40
0
 40
0
 40
0
 40
0
 40
1
 40
1
 40
1
 40
1
 10
22.223000
 20
471.224071
 30
0.0
 10
21.867189
 20
471.018643
 30
0.0
 10
21.428811
 20
471.018643
 30
0.0
 10
21.073000
 20
471.224071
 30
0.0
  0
SPLINE
  5
109
100
AcDbEntity
  8
0
 62
7
100
AcDbSpline
 70
8
 71
3
 72
8
 73
4
 74
0
 40
0
 40
0
 40
0
 40
0
 40
1
 40
1
 40
1
 40
1
 10
21.073000
 20
471.224071
 30
0.0
 10
20.717189
 20
471.429499
 30
0.0
 10
20.498000
 20
471.809145
 30
0.0
 10
20.498000
 20
472.220000
 30
0.0
  0
SPLINE
  5
10a
100
AcDbEntity
  8
0
 62
7
100
AcDbSpline
 70
8
 71
3
 72
8
 73
4
 74
0
 40
0
 40
0
 40
0
 40
0
 40
1
 40
1
 40
1
 40
1
 10
20.498000
 20
472.220000
 30
0.0
 10
20.498000
 20
472.630855
 30
0.0
 10
20.717189
 20
473.010502
 30
0.0
 10
21.073000
 20
473.215929
 30
0.0
  0
SPLINE
  5
10b
100
AcDbEntity
  8
0
 62
7
100
AcDbSpline
 70
8
 71
3
 72
8
 73
4
 74
0
 40
0
 40
0
 40
0
 40
0
 40
1
 40
1
 40
1
 40
1
 10
21.073000
 20
473.215929
 30
0.0
 10
21.428811
 20
473.421357
 30
0.0
 10
21.867189
 20
473.421357
 30
0.0
 10
22.223000
 20
473.215929
 30
0.0
  0
SPLINE
  5
10c
100
AcDbEntity
  8
0
 62
7
100
AcDbSpline
 70
8
 71
3
 72
8
 73
4
 74
0
 40
0
 40
0
 40
0
 40
0
 40
1
 40
1
 40
1
 40
1
 10
22.223000
 20
473.215929
 30
0.0
 10
22.578811
 20
473.010502
 30
0.0
 10
22.798000
 20
472.630855
 30
0.0
 10
22.798000
 20
472.220000
 30
0.0
  0
LWPOLYLINE
  5
10d
100
AcDbEntity
  8
0
 62
7
100
AcDbPolyline
 90
2
 70
0
 10
8.148000
 20
350.750000
 30
0.0
 10
8.148000
 20
480.720000
 30
0.0
  0
SPLINE
  5
10e
100
AcDbEntity
  8
0
 62
7
100
AcDbSpline
 70
8
 71
3
 72
8
 73
4
 74
0
 40
0
 40
0
 40
0
 40
0
 40
1
 40
1
 40
1
 40
1
 10
156.150000
 20
472.220000
 30
0.0
 10
156.150000
 20
471.809145
 30
0.0
 10
155.930811
 20
471.429499
 30
0.0
 10
155.575000
 20
471.224071
 30
0.0
  0
SPLINE
  5
10f
100
AcDbEntity
  8
0
 62
7
100
AcDbSpline
 70
8
 71
3
 72
8
 73
4
 74
0
 40
0
 40
0
 40
0
 40
0
 40
1
 40
1
 40
1
 40
1
 10
155.575000
 20
471.224071
 30
0.0
 10
155.219189
 20
471.018643
 30
0.0
 10
154.780811
 20
471.018643
 30
0.0
 10
154.425000
 20
471.224071
 30
0.0
  0
SPLINE
  5
110
100
AcDbEntity
  8
0
 62
7
100
AcDbSpline
 70
8
 71
3
 72
8
 73
4
 74
0
 40
0
 40
0
 40
0
 40
0
 40
1
 40
1
 40
1
 40
1
 10
154.425000
 20
471.224071
 30
0.0
 10
154.069189
 20
471.429499
 30
0.0
 10
153.850000
 20
471.809145
 30
0.0
 10
153.850000
 20
472.220000
 30
0.0
  0
SPLINE
  5
111
100
AcDbEntity
  8
0
 62
7
100
AcDbSpline
 70
8
 71
3
 72
8
 73
4
 74
0
 40
0
 40
0
 40
0
 40
0
 40
1
 40
1
 40
1
 40
1
 10
153.850000
 20
472.220000
 30
0.0
 10
153.850000
 20
472.630855
 30
0.0
 10
154.069189
 20
473.010502
 30
0.0
 10
154.425000
 20
473.215929
 30
0.0
  0
SPLINE
  5
112
100
AcDbEntity
  8
0
 62
7
100
AcDbSpline
 70
8
 71
3
 72
8
 73
4
 74
0
 40
0
 40
0
 40
0
 40
0
 40
1
 40
1
 40
1
 40
1
 10
154.425000
 20
473.215929
 30
0.0
 10
154.780811
 20
473.421357
 30
0.0
 10
155.219189
 20
473.421357
 30
0.0
 10
155.575000
 20
473.215929
 30
0.0
  0
SPLINE
  5
113
100
AcDbEntity
  8
0
 62
7
100
AcDbSpline
 70
8
 71
3
 72
8
 73
4
 74
0
 40
0
 40
0
 40
0
 40
0
 40
1
 40
1
 40
1
 40
1
 10
155.575000
 20
473.215929
 30
0.0
 10
155.930811
 20
473.010502
 30
0.0
 10
156.150000
 20
472.630855
 30
0.0
 10
156.150000
 20
472.220000
 30
0.0
  0
LWPOLYLINE
  5
114
100
AcDbEntity
  8
0
 62
7
100
AcDbPolyline
 90
1
 70
1
 10
22.798000
 20
472.220000
 30
0.0
  0
SPLINE
  5
115
100
AcDbEntity
  8
0
 62
7
100
AcDbSpline
 70
8
 71
3
 72
8
 73
4
 74
0
 40
0
 40
0
 40
0
 40
0
 40
1
 40
1
 40
1
 40
1
 10
196.150000
 20
472.220000
 30
0.0
 10
196.150000
 20
471.809145
 30
0.0
 10
195.930811
 20
471.429499
 30
0.0
 10
195.575000
 20
471.224071
 30
0.0
  0
SPLINE
  5
116
100
AcDbEntity
  8
0
 62
7
100
AcDbSpline
 70
8
 71
3
 72
8
 73
4
 74
0
 40
0
 40
0
 40
0
 40
0
 40
1
 40
1
 40
1
 40
1
 10
195.575000
 20
471.224071
 30
0.0
 10
195.219189
 20
471.018643
 30
0.0
 10
194.780811
 20
471.018643
 30
0.0
 10
194.425000
 20
471.224071
 30
0.0
  0
SPLINE
  5
117
100
AcDbEntity
  8
0
 62
7
100
AcDbSpline
 70
8
 71
3
 72
8
 73
4
 74
0
 40
0
 40
0
 40
0
 40
0
 40
1
 40
1
 40
1
 40
1
 10
194.425000
 20
471.224071
 30
0.0
 10
194.069189
 20
471.429499
 30
0.0
 10
193.850000
 20
471.809145
 30
0.0
 10
193.850000
 20
472.220000
 30
0.0
  0
SPLINE
  5
118
100
AcDbEntity
  8
0
 62
7
100
AcDbSpline
 70
8
 71
3
 72
8
 73
4
 74
0
 40
0
 40
0
 40
0
 40
0
 40
1
 40
1
 40
1
 40
1
 10
193.850000
 20
472.220000
 30
0.0
 10
193.850000
 20
472.630855
 30
0.0
 10
194.069189
 20
473.010502
 30
0.0
 10
194.425000
 20
473.215929
 30
0.0
  0
SPLINE
  5
119
100
AcDbEntity
  8
0
 62
7
100
AcDbSpline
 70
8
 71
3
 72
8
 73
4
 74
0
 40
0
 40
0
 40
0
 40
0
 40
1
 40
1
 40
1
 40
1
 10
194.425000
 20
473.215929
 30
0.0
 10
194.780811
 20
473.421357
 30
0.0
 10
195.219189
 20
473.421357
 30
0.0
 10
195.575000
 20
473.215929
 30
0.0
  0
SPLINE
  5
11a
100
AcDbEntity
  8
0
 62
7
100
AcDbSpline
 70
8
 71
3
 72
8
 73
4
 74
0
 40
0
 40
0
 40
0
 40
0
 40
1
 40
1
 40
1
 40
1
 10
195.575000
 20
473.215929
 30
0.0
 10
195.930811
 20
473.010502
 30
0.0
 10
196.150000
 20
472.630855
 30
0.0
 10
196.150000
 20
472.220000
 30
0.0
  0
LWPOLYLINE
  5
11b
100
AcDbEntity
  8
0
 62
7
100
AcDbPolyline
 90
1
 70
1
 10
156.150000
 20
472.220000
 30
0.0
  0
SPLINE
  5
11c
100
AcDbEntity
  8
0
 62
7
100
AcDbSpline
 70
8
 71
3
 72
8
 73
4
 74
0
 40
0
 40
0
 40
0
 40
0
 40
1
 40
1
 40
1
 40
1
 10
156.150000
 20
439.220000
 30
0.0
 10
156.150000
 20
438.809145
 30
0.0
 10
155.930811
 20
438.429499
 30
0.0
 10
155.575000
 20
438.224071
 30
0.0
  0
SPLINE
  5
11d
100
AcDbEntity
  8
0
 62
7
100
AcDbSpline
 70
8
 71
3
 72
8
 73
4
 74
0
 40
0
 40
0
 40
0
 40
0
 40
1
 40
1
 40
1
 40
1
 10
155.575000
 20
438.224071
 30
0.0
 10
155.219189
 20
438.018643
 30
0.0
 10
154.780811
 20
438.018643
 30
0.0
 10
154.425000
 20
438.224071
 30
0.0
  0
SPLINE
  5
11e
100
AcDbEntity
  8
0
 62
7
100
AcDbSpline
 70
8
 71
3
 72
8
 73
4
 74
0
 40
0
 40
0
 40
0
 40
0
 40
1
 40
1
 40
1
 40
1
 10
154.425000
 20
438.224071
 30
0.0
 10
154.069189
 20
438.429499
 30
0.0
 10
153.850000
 20
438.809145
 30
0.0
 10
153.850000
 20
439.220000
 30
0.0
  0
SPLINE
  5
11f
100
AcDbEntity
  8
0
 62
7
100
AcDbSpline
 70
8
 71
3
 72
8
 73
4
 74
0
 40
0
 40
0
 40
0
 40
0
 40
1
 40
1
 40
1
 40
1
 10
153.850000
 20
439.220000
 30
0.0
 10
153.850000
 20
439.630855
 30
0.0
 10
154.069189
 20
440.010502
 30
0.0
 10
154.425000
 20
440.215929
 30
0.0
  0
SPLINE
  5
120
100
AcDbEntity
  8
0
 62
7
100
AcDbSpline
 70
8
 71
3
 72
8
 73
4
 74
0
 40
0
 40
0
 40
0
 40
0
 40
1
 40
1
 40
1
 40
1
 10
154.425000
 20
440.215929
 30
0.0
 10
154.780811
 20
440.421357
 30
0.0
 10
155.219189
 20
440.421357
 30
0.0
 10
155.575000
 20
440.215929
 30
0.0
  0
SPLINE
  5
121
100
AcDbEntity
  8
0
 62
7
100
AcDbSpline
 70
8
 71
3
 72
8
 73
4
 74
0
 40
0
 40
0
 40
0
 40
0
 40
1
 40
1
 40
1
 40
1
 10
155.575000
 20
440.215929
 30
0.0
 10
155.930811
 20
440.010502
 30
0.0
 10
156.150000
 20
439.630855
 30
0.0
 10
156.150000
 20
439.220000
 30
0.0
  0
LWPOLYLINE
  5
122
100
AcDbEntity
  8
0
 62
7
100
AcDbPolyline
 90
1
 70
1
 10
196.150000
 20
472.220000
 30
0.0
  0
SPLINE
  5
123
100
AcDbEntity
  8
0
 62
7
100
AcDbSpline
 70
8
 71
3
 72
8
 73
4
 74
0
 40
0
 40
0
 40
0
 40
0
 40
1
 40
1
 40
1
 40
1
 10
196.150000
 20
439.220000
 30
0.0
 10
196.150000
 20
438.809145
 30
0.0
 10
195.930811
 20
438.429499
 30
0.0
 10
195.575000
 20
438.224071
 30
0.0
  0
SPLINE
  5
124
100
AcDbEntity
  8
0
 62
7
100
AcDbSpline
 70
8
 71
3
 72
8
 73
4
 74
0
 40
0
 40
0
 40
0
 40
0
 40
1
 40
1
 40
1
 40
1
 10
195.575000
 20
438.224071
 30
0.0
 10
195.219189
 20
438.018643
 30
0.0
 10
194.780811
 20
438.018643
 30
0.0
 10
194.425000
 20
438.224071
 30
0.0
  0
SPLINE
  5
125
100
AcDbEntity
  8
0
 62
7
100
AcDbSpline
 70
8
 71
3
 72
8
 73
4
 74
0
 40
0
 40
0
 40
0
 40
0
 40
1
 40
1
 40
1
 40
1
 10
194.425000
 20
438.224071
 30
0.0
 10
194.069189
 20
438.429499
 30
0.0
 10
193.850000
 20
438.809145
 30
0.0
 10
193.850000
 20
439.220000
 30
0.0
  0
SPLINE
  5
126
100
AcDbEntity
  8
0
 62
7
100
AcDbSpline
 70
8
 71
3
 72
8
 73
4
 74
0
 40
0
 40
0
 40
0
 40
0
 40
1
 40
1
 40
1
 40
1
 10
193.850000
 20
439.220000
 30
0.0
 10
193.850000
 20
439.630855
 30
0.0
 10
194.069189
 20
440.010502
 30
0.0
 10
194.425000
 20
440.215929
 30
0.0
  0
SPLINE
  5
127
100
AcDbEntity
  8
0
 62
7
100
AcDbSpline
 70
8
 71
3
 72
8
 73
4
 74
0
 40
0
 40
0
 40
0
 40
0
 40
1
 40
1
 40
1
 40
1
 10
194.425000
 20
440.215929
 30
0.0
 10
194.780811
 20
440.421357
 30
0.0
 10
195.219189
 20
440.421357
 30
0.0
 10
195.575000
 20
440.215929
 30
0.0
  0
SPLINE
  5
128
100
AcDbEntity
  8
0
 62
7
100
AcDbSpline
 70
8
 71
3
 72
8
 73
4
 74
0
 40
0
 40
0
 40
0
 40
0
 40
1
 40
1
 40
1
 40
1
 10
195.575000
 20
440.215929
 30
0.0
 10
195.930811
 20
440.010502
 30
0.0
 10
196.150000
 20
439.630855
 30
0.0
 10
196.150000
 20
439.220000
 30
0.0
  0
LWPOLYLINE
  5
129
100
AcDbEntity
  8
0
 62
7
100
AcDbPolyline
 90
1
 70
1
 10
156.150000
 20
439.220000
 30
0.0
  0
SPLINE
  5
12a
100
AcDbEntity
  8
0
 62
7
100
AcDbSpline
 70
8
 71
3
 72
8
 73
4
 74
0
 40
0
 40
0
 40
0
 40
0
 40
1
 40
1
 40
1
 40
1
 10
329.502000
 20
472.220000
 30
0.0
 10
329.502000
 20
471.809145
 30
0.0
 10
329.282811
 20
471.429499
 30
0.0
 10
328.927000
 20
471.224071
 30
0.0
  0
SPLINE
  5
12b
100
AcDbEntity
  8
0
 62
7
100
AcDbSpline
 70
8
 71
3
 72
8
 73
4
 74
0
 40
0
 40
0
 40
0
 40
0
 40
1
 40
1
 40
1
 40
1
 10
328.927000
 20
471.224071
 30
0.0
 10
328.571189
 20
471.018643
 30
0.0
 10
328.132811
 20
471.018643
 30
0.0
 10
327.777000
 20
471.224071
 30
0.0
  0
SPLINE
  5
12c
100
AcDbEntity
  8
0
 62
7
100
AcDbSpline
 70
8
 71
3
 72
8
 73
4
 74
0
 40
0
 40
0
 40
0
 40
0
 40
1
 40
1
 40
1
 40
1
 10
327.777000
 20
471.224071
 30
0.0
 10
327.421189
 20
471.429499
 30
0.0
 10
327.202000
 20
471.809145
 30
0.0
 10
327.202000
 20
472.220000
 30
0.0
  0
SPLINE
  5
12d
100
AcDbEntity
  8
0
 62
7
100
AcDbSpline
 70
8
 71
3
 72
8
 73
4
 74
0
 40
0
 40
0
 40
0
 40
0
 40
1
 40
1
 40
1
 40
1
 10
327.202000
 20
472.220000
 30
0.0
 10
327.202000
 20
472.630855
 30
0.0
 10
327.421189
 20
473.010502
 30
0.0
 10
327.777000
 20
473.215929
 30
0.0
  0
SPLINE
  5
12e
100
AcDbEntity
  8
0
 62
7
100
AcDbSpline
 70
8
 71
3
 72
8
 73
4
 74
0
 40
0
 40
0
 40
0
 40
0
 40
1
 40
1
 40
1
 40
1
 10
327.777000
 20
473.215929
 30
0.0
 10
328.132811
 20
473.421357
 30
0.0
 10
328.571189
 20
473.421357
 30
0.0
 10
328.927000
 20
473.215929
 30
0.0
  0
SPLINE
  5
12f
100
AcDbEntity
  8
0
 62
7
100
AcDbSpline
 70
8
 71
3
 72
8
 73
4
 74
0
 40
0
 40
0
 40
0
 40
0
 40
1
 40
1
 40
1
 40
1
 10
328.927000
 20
473.215929
 30
0.0
 10
329.282811
 20
473.010502
 30
0.0
 10
329.502000
 20
472.630855
 30
0.0
 10
329.502000
 20
472.220000
 30
0.0
  0
LWPOLYLINE
  5
130
100
AcDbEntity
  8
0
 62
7
100
AcDbPolyline
 90
1
 70
1
 10
196.150000
 20
439.220000
 30
0.0
  0
SPLINE
  5
131
100
AcDbEntity
  8
0
 62
7
100
AcDbSpline
 70
8
 71
3
 72
8
 73
4
 74
0
 40
0
 40
0
 40
0
 40
0
 40
1
 40
1
 40
1
 40
1
 10
329.502000
 20
359.500000
 30
0.0
 10
329.502000
 20
359.089145
 30
0.0
 10
329.282811
 20
358.709499
 30
0.0
 10
328.927000
 20
358.504071
 30
0.0
  0
SPLINE
  5
132
100
AcDbEntity
  8
0
 62
7
100
AcDbSpline
 70
8
 71
3
 72
8
 73
4
 74
0
 40
0
 40
0
 40
0
 40
0
 40
1
 40
1
 40
1
 40
1
 10
328.927000
 20
358.504071
 30
0.0
 10
328.571189
 20
358.298643
 30
0.0
 10
328.132811
 20
358.298643
 30
0.0
 10
327.777000
 20
358.504071
 30
0.0
  0
SPLINE
  5
133
100
AcDbEntity
  8
0
 62
7
100
AcDbSpline
 70
8
 71
3
 72
8
 73
4
 74
0
 40
0
 40
0
 40
0
 40
0
 40
1
 40
1
 40
1
 40
1
 10
327.777000
 20
358.504071
 30
0.0
 10
327.421189
 20
358.709499
 30
0.0
 10
327.202000
 20
359.089145
 30
0.0
 10
327.202000
 20
359.500000
 30
0.0
  0
SPLINE
  5
134
100
AcDbEntity
  8
0
 62
7
100
AcDbSpline
 70
8
 71
3
 72
8
 73
4
 74
0
 40
0
 40
0
 40
0
 40
0
 40
1
 40
1
 40
1
 40
1
 10
327.202000
 20
359.500000
 30
0.0
 10
327.202000
 20
359.910855
 30
0.0
 10
327.421189
 20
360.290502
 30
0.0
 10
327.777000
 20
360.495929
 30
0.0
  0
SPLINE
  5
135
100
AcDbEntity
  8
0
 62
7
100
AcDbSpline
 70
8
 71
3
 72
8
 73
4
 74
0
 40
0
 40
0
 40
0
 40
0
 40
1
 40
1
 40
1
 40
1
 10
327.777000
 20
360.495929
 30
0.0
 10
328.132811
 20
360.701357
 30
0.0
 10
328.571189
 20
360.701357
 30
0.0
 10
328.927000
 20
360.495929
 30
0.0
  0
SPLINE
  5
136
100
AcDbEntity
  8
0
 62
7
100
AcDbSpline
 70
8
 71
3
 72
8
 73
4
 74
0
 40
0
 40
0
 40
0
 40
0
 40
1
 40
1
 40
1
 40
1
 10
328.927000
 20
360.495929
 30
0.0
 10
329.282811
 20
360.290502
 30
0.0
 10
329.502000
 20
359.910855
 30
0.0
 10
329.502000
 20
359.500000
 30
0.0
  0
LWPOLYLINE
  5
137
100
AcDbEntity
  8
0
 62
7
100
AcDbPolyline
 90
1
 70
1
 10
329.502000
 20
472.220000
 30
0.0
  0
SPLINE
  5
138
100
AcDbEntity
  8
0
 62
7
100
AcDbSpline
 70
8
 71
3
 72
8
 73
4
 74
0
 40
0
 40
0
 40
0
 40
0
 40
1
 40
1
 40
1
 40
1
 10
22.798000
 20
359.500000
 30
0.0
 10
22.798000
 20
359.089145
 30
0.0
 10
22.578811
 20
358.709499
 30
0.0
 10
22.223000
 20
358.504071
 30
0.0
  0
SPLINE
  5
139
100
AcDbEntity
  8
0
 62
7
100
AcDbSpline
 70
8
 71
3
 72
8
 73
4
 74
0
 40
0
 40
0
 40
0
 40
0
 40
1
 40
1
 40
1
 40
1
 10
22.223000
 20
358.504071
 30
0.0
 10
21.867189
 20
358.298643
 30
0.0
 10
21.428811
 20
358.298643
 30
0.0
 10
21.073000
 20
358.504071
 30
0.0
  0
SPLINE
  5
13a
100
AcDbEntity
  8
0
 62
7
100
AcDbSpline
 70
8
 71
3
 72
8
 73
4
 74
0
 40
0
 40
0
 40
0
 40
0
 40
1
 40
1
 40
1
 40
1
 10
21.073000
 20
358.504071
 30
0.0
 10
20.717189
 20
358.709499
 30
0.0
 10
20.498000
 20
359.089145
 30
0.0
 10
20.498000
 20
359.500000
 30
0.0
  0
SPLINE
  5
13b
100
AcDbEntity
  8
0
 62
7
100
AcDbSpline
 70
8
 71
3
 72
8
 73
4
 74
0
 40
0
 40
0
 40
0
 40
0
 40
1
 40
1
 40
1
 40
1
 10
20.498000
 20
359.500000
 30
0.0
 10
20.498000
 20
359.910855
 30
0.0
 10
20.717189
 20
360.290502
 30
0.0
 10
21.073000
 20
360.495929
 30
0.0
  0
SPLINE
  5
13c
100
AcDbEntity
  8
0
 62
7
100
AcDbSpline
 70
8
 71
3
 72
8
 73
4
 74
0
 40
0
 40
0
 40
0
 40
0
 40
1
 40
1
 40
1
 40
1
 10
21.073000
 20
360.495929
 30
0.0
 10
21.428811
 20
360.701357
 30
0.0
 10
21.867189
 20
360.701357
 30
0.0
 10
22.223000
 20
360.495929
 30
0.0
  0
SPLINE
  5
13d
100
AcDbEntity
  8
0
 62
7
100
AcDbSpline
 70
8
 71
3
 72
8
 73
4
 74
0
 40
0
 40
0
 40
0
 40
0
 40
1
 40
1
 40
1
 40
1
 10
22.223000
 20
360.495929
 30
0.0
 10
22.578811
 20
360.290502
 30
0.0
 10
22.798000
 20
359.910855
 30
0.0
 10
22.798000
 20
359.500000
 30
0.0
  0
LWPOLYLINE
  5
13e
100
AcDbEntity
  8
0
 62
7
100
AcDbPolyline
 90
1
 70
1
 10
329.502000
 20
359.500000
 30
0.0
  0
SPLINE
  5
13f
100
AcDbEntity
  8
0
 62
7
100
AcDbSpline
 70
8
 71
3
 72
8
 73
4
 74
0
 40
0
 40
0
 40
0
 40
0
 40
1
 40
1
 40
1
 40
1
 10
152.650000
 20
388.500000
 30
0.0
 10
152.650000
 20
388.089145
 30
0.0
 10
152.430811
 20
387.709499
 30
0.0
 10
152.075000
 20
387.504071
 30
0.0
  0
SPLINE
  5
140
100
AcDbEntity
  8
0
 62
7
100
AcDbSpline
 70
8
 71
3
 72
8
 73
4
 74
0
 40
0
 40
0
 40
0
 40
0
 40
1
 40
1
 40
1
 40
1
 10
152.075000
 20
387.504071
 30
0.0
 10
151.719189
 20
387.298643
 30
0.0
 10
151.280811
 20
387.298643
 30
0.0
 10
150.925000
 20
387.504071
 30
0.0
  0
SPLINE
  5
141
100
AcDbEntity
  8
0
 62
7
100
AcDbSpline
 70
8
 71
3
 72
8
 73
4
 74
0
 40
0
 40
0
 40
0
 40
0
 40
1
 40
1
 40
1
 40
1
 10
150.925000
 20
387.504071
 30
0.0
 10
150.569189
 20
387.709499
 30
0.0
 10
150.350000
 20
388.089145
 30
0.0
 10
150.350000
 20
388.500000
 30
0.0
  0
SPLINE
  5
142
100
AcDbEntity
  8
0
 62
7
100
AcDbSpline
 70
8
 71
3
 72
8
 73
4
 74
0
 40
0
 40
0
 40
0
 40
0
 40
1
 40
1
 40
1
 40
1
 10
150.350000
 20
388.500000
 30
0.0
 10
150.350000
 20
388.910855
 30
0.0
 10
150.569189
 20
389.290502
 30
0.0
 10
150.925000
 20
389.495929
 30
0.0
  0
SPLINE
  5
143
100
AcDbEntity
  8
0
 62
7
100
AcDbSpline
 70
8
 71
3
 72
8
 73
4
 74
0
 40
0
 40
0
 40
0
 40
0
 40
1
 40
1
 40
1
 40
1
 10
150.925000
 20
389.495929
 30
0.0
 10
151.280811
 20
389.701357
 30
0.0
 10
151.719189
 20
389.701357
 30
0.0
 10
152.075000
 20
389.495929
 30
0.0
  0
SPLINE
  5
144
100
AcDbEntity
  8
0
 62
7
100
AcDbSpline
 70
8
 71
3
 72
8
 73
4
 74
0
 40
0
 40
0
 40
0
 40
0
 40
1
 40
1
 40
1
 40
1
 10
152.075000
 20
389.495929
 30
0.0
 10
152.430811
 20
389.290502
 30
0.0
 10
152.650000
 20
388.910855
 30
0.0
 10
152.650000
 20
388.500000
 30
0.0
  0
LWPOLYLINE
  5
145
100
AcDbEntity
  8
0
 62
7
100
AcDbPolyline
 90
1
 70
1
 10
22.798000
 20
359.500000
 30
0.0
  0
SPLINE
  5
146
100
AcDbEntity
  8
0
 62
7
100
AcDbSpline
 70
8
 71
3
 72
8
 73
4
 74
0
 40
0
 40
0
 40
0
 40
0
 40
1
 40
1
 40
1
 40
1
 10
199.650000
 20
388.500000
 30
0.0
 10
199.650000
 20
388.089145
 30
0.0
 10
199.430811
 20
387.709499
 30
0.0
 10
199.075000
 20
387.504071
 30
0.0
  0
SPLINE
  5
147
100
AcDbEntity
  8
0
 62
7
100
AcDbSpline
 70
8
 71
3
 72
8
 73
4
 74
0
 40
0
 40
0
 40
0
 40
0
 40
1
 40
1
 40
1
 40
1
 10
199.075000
 20
387.504071
 30
0.0
 10
198.719189
 20
387.298643
 30
0.0
 10
198.280811
 20
387.298643
 30
0.0
 10
197.925000
 20
387.504071
 30
0.0
  0
SPLINE
  5
148
100
AcDbEntity
  8
0
 62
7
100
AcDbSpline
 70
8
 71
3
 72
8
 73
4
 74
0
 40
0
 40
0
 40
0
 40
0
 40
1
 40
1
 40
1
 40
1
 10
197.925000
 20
387.504071
 30
0.0
 10
197.569189
 20
387.709499
 30
0.0
 10
197.350000
 20
388.089145
 30
0.0
 10
197.350000
 20
388.500000
 30
0.0
  0
SPLINE
  5
149
100
AcDbEntity
  8
0
 62
7
100
AcDbSpline
 70
8
 71
3
 72
8
 73
4
 74
0
 40
0
 40
0
 40
0
 40
0
 40
1
 40
1
 40
1
 40
1
 10
197.350000
 20
388.500000
 30
0.0
 10
197.350000
 20
388.910855
 30
0.0
 10
197.569189
 20
389.290502
 30
0.0
 10
197.925000
 20
389.495929
 30
0.0
  0
SPLINE
  5
14a
100
AcDbEntity
  8
0
 62
7
100
AcDbSpline
 70
8
 71
3
 72
8
 73
4
 74
0
 40
0
 40
0
 40
0
 40
0
 40
1
 40
1
 40
1
 40
1
 10
197.925000
 20
389.495929
 30
0.0
 10
198.280811
 20
389.701357
 30
0.0
 10
198.719189
 20
389.701357
 30
0.0
 10
199.075000
 20
389.495929
 30
0.0
  0
SPLINE
  5
14b
100
AcDbEntity
  8
0
 62
7
100
AcDbSpline
 70
8
 71
3
 72
8
 73
4
 74
0
 40
0
 40
0
 40
0
 40
0
 40
1
 40
1
 40
1
 40
1
 10
199.075000
 20
389.495929
 30
0.0
 10
199.430811
 20
389.290502
 30
0.0
 10
199.650000
 20
388.910855
 30
0.0
 10
199.650000
 20
388.500000
 30
0.0
  0
LWPOLYLINE
  5
14c
100
AcDbEntity
  8
0
 62
7
100
AcDbPolyline
 90
1
 70
1
 10
152.650000
 20
388.500000
 30
0.0
  0
LWPOLYLINE
  5
14d
100
AcDbEntity
  8
0
 62
7
100
AcDbPolyline
 90
1
 70
1
 10
199.650000
 20
388.500000
 30
0.0
  0
LWPOLYLINE
  5
14e
100
AcDbEntity
  8
0
 62
7
100
AcDbPolyline
 90
14
 70
0
 10
30.875883
 20
482.473192
 30
0.0
 10
44.663192
 20
480.042117
 30
0.0
 10
44.489543
 20
479.057309
 30
0.0
 10
45.277390
 20
478.918391
 30
0.0
 10
43.193611
 20
467.100698
 30
0.0
 10
42.405765
 20
467.239616
 30
0.0
 10
42.232117
 20
466.254808
 30
0.0
 10
28.444808
 20
468.685883
 30
0.0
 10
28.618457
 20
469.670691
 30
0.0
 10
27.830610
 20
469.809609
 30
0.0
 10
29.914389
 20
481.627302
 30
0.0
 10
30.702235
 20
481.488384
 30
0.0
 10
30.875883
 20
482.473192
 30
0.0
 10
44.663192
 20
480.042117
 30
0.0
  0
LWPOLYLINE
  5
14f
100
AcDbEntity
  8
0
 62
7
100
AcDbPolyline
 90
14
 70
0
 10
27.567883
 20
463.712192
 30
0.0
 10
41.355192
 20
461.281117
 30
0.0
 10
41.181543
 20
460.296309
 30
0.0
 10
41.969390
 20
460.157391
 30
0.0
 10
39.885611
 20
448.339698
 30
0.0
 10
39.097765
 20
448.478616
 30
0.0
 10
38.924117
 20
447.493808
 30
0.0
 10
25.136808
 20
449.924883
 30
0.0
 10
25.310457
 20
450.909691
 30
0.0
 10
24.522610
 20
451.048609
 30
0.0
 10
26.606389
 20
462.866302
 30
0.0
 10
27.394235
 20
462.727384
 30
0.0
 10
27.567883
 20
463.712192
 30
0.0
 10
41.355192
 20
461.281117
 30
0.0
  0
LWPOLYLINE
  5
150
100
AcDbEntity
  8
0
 62
7
100
AcDbPolyline
 90
14
 70
0
 10
24.259883
 20
444.952192
 30
0.0
 10
38.047192
 20
442.521117
 30
0.0
 10
37.873543
 20
441.536309
 30
0.0
 10
38.661390
 20
441.397391
 30
0.0
 10
36.577611
 20
429.579698
 30
0.0
 10
35.789765
 20
429.718616
 30
0.0
 10
35.616117
 20
428.733808
 30
0.0
 10
21.828808
 20
431.164883
 30
0.0
 10
22.002457
 20
432.149691
 30
0.0
 10
21.214610
 20
432.288609
 30
0.0
 10
23.298389
 20
444.106302
 30
0.0
 10
24.086235
 20
443.967384
 30
0.0
 10
24.259883
 20
444.952192
 30
0.0
 10
38.047192
 20
442.521117
 30
0.0
  0
LWPOLYLINE
  5
151
100
AcDbEntity
  8
0
 62
7
100
AcDbPolyline
 90
14
 70
0
 10
20.951883
 20
426.191192
 30
0.0
 10
34.739192
 20
423.760117
 30
0.0
 10
34.565543
 20
422.775309
 30
0.0
 10
35.353390
 20
422.636391
 30
0.0
 10
33.269611
 20
410.818698
 30
0.0
 10
32.481765
 20
410.957616
 30
0.0
 10
32.308117
 20
409.972808
 30
0.0
 10
18.520808
 20
412.403883
 30
0.0
 10
18.694457
 20
413.388691
 30
0.0
 10
17.906610
 20
413.527609
 30
0.0
 10
19.990389
 20
425.345302
 30
0.0
 10
20.778235
 20
425.206384
 30
0.0
 10
20.951883
 20
426.191192
 30
0.0
 10
34.739192
 20
423.760117
 30
0.0
  0
LWPOLYLINE
  5
152
100
AcDbEntity
  8
0
 62
7
100
AcDbPolyline
 90
14
 70
0
 10
17.643883
 20
407.431192
 30
0.0
 10
31.431192
 20
405.000117
 30
0.0
 10
31.257543
 20
404.015309
 30
0.0
 10
32.045390
 20
403.876391
 30
0.0
 10
29.961611
 20
392.058698
 30
0.0
 10
29.173765
 20
392.197616
 30
0.0
 10
29.000117
 20
391.212808
 30
0.0
 10
15.212808
 20
393.643883
 30
0.0
 10
15.386457
 20
394.628691
 30
0.0
 10
14.598610
 20
394.767609
 30
0.0
 10
16.682389
 20
406.585302
 30
0.0
 10
17.470235
 20
406.446384
 30
0.0
 10
17.643883
 20
407.431192
 30
0.0
 10
31.431192
 20
405.000117
 30
0.0
  0
LWPOLYLINE
  5
153
100
AcDbEntity
  8
0
 62
7
100
AcDbPolyline
 90
14
 70
0
 10
14.335883
 20
388.670192
 30
0.0
 10
28.123192
 20
386.239117
 30
0.0
 10
27.949543
 20
385.254309
 30
0.0
 10
28.737390
 20
385.115391
 30
0.0
 10
26.653611
 20
373.297698
 30
0.0
 10
25.865765
 20
373.436616
 30
0.0
 10
25.692117
 20
372.451808
 30
0.0
 10
11.904808
 20
374.882883
 30
0.0
 10
12.078457
 20
375.867691
 30
0.0
 10
11.290610
 20
376.006609
 30
0.0
 10
13.374389
 20
387.824302
 30
0.0
 10
14.162235
 20
387.685384
 30
0.0
 10
14.335883
 20
388.670192
 30
0.0
 10
28.123192
 20
386.239117
 30
0.0
  0
LWPOLYLINE
  5
154
100
AcDbEntity
  8
0
 62
7
100
AcDbPolyline
 90
14
 70
0
 10
49.635883
 20
479.165192
 30
0.0
 10
63.423192
 20
476.734117
 30
0.0
 10
63.249543
 20
475.749309
 30
0.0
 10
64.037390
 20
475.610391
 30
0.0
 10
61.953611
 20
463.792698
 30
0.0
 10
61.165765
 20
463.931616
 30
0.0
 10
60.992117
 20
462.946808
 30
0.0
 10
47.204808
 20
465.377883
 30
0.0
 10
47.378457
 20
466.362691
 30
0.0
 10
46.590610
 20
466.501609
 30
0.0
 10
48.674389
 20
478.319302
 30
0.0
 10
49.462235
 20
478.180384
 30
0.0
 10
49.635883
 20
479.165192
 30
0.0
 10
63.423192
 20
476.734117
 30
0.0
  0
LWPOLYLINE
  5
155
100
AcDbEntity
  8
0
 62
7
100
AcDbPolyline
 90
14
 70
0
 10
46.327883
 20
460.404192
 30
0.0
 10
60.115192
 20
457.973117
 30
0.0
 10
59.941543
 20
456.988309
 30
0.0
 10
60.729390
 20
456.849391
 30
0.0
 10
58.645611
 20
445.031698
 30
0.0
 10
57.857765
 20
445.170616
 30
0.0
 10
57.684117
 20
444.185808
 30
0.0
 10
43.896808
 20
446.616883
 30
0.0
 10
44.070457
 20
447.601691
 30
0.0
 10
43.282610
 20
447.740609
 30
0.0
 10
45.366389
 20
459.558302
 30
0.0
 10
46.154235
 20
459.419384
 30
0.0
 10
46.327883
 20
460.404192
 30
0.0
 10
60.115192
 20
457.973117
 30
0.0
  0
LWPOLYLINE
  5
156
100
AcDbEntity
  8
0
 62
7
100
AcDbPolyline
 90
14
 70
0
 10
43.019883
 20
441.644192
 30
0.0
 10
56.807192
 20
439.213117
 30
0.0
 10
56.633543
 20
438.228309
 30
0.0
 10
57.421390
 20
438.089391
 30
0.0
 10
55.337611
 20
426.271698
 30
0.0
 10
54.549765
 20
426.410616
 30
0.0
 10
54.376117
 20
425.425808
 30
0.0
 10
40.588808
 20
427.856883
 30
0.0
 10
40.762457
 20
428.841691
 30
0.0
 10
39.974610
 20
428.980609
 30
0.0
 10
42.058389
 20
440.798302
 30
0.0
 10
42.846235
 20
440.659384
 30
0.0
 10
43.019883
 20
441.644192
 30
0.0
 10
56.807192
 20
439.213117
 30
0.0
  0
LWPOLYLINE
  5
157
100
AcDbEntity
  8
0
 62
7
100
AcDbPolyline
 90
14
 70
0
 10
39.711883
 20
422.883192
 30
0.0
 10
53.499192
 20
420.452117
 30
0.0
 10
53.325543
 20
419.467309
 30
0.0
 10
54.113390
 20
419.328391
 30
0.0
 10
52.029611
 20
407.510698
 30
0.0
 10
51.241765
 20
407.649616
 30
0.0
 10
51.068117
 20
406.664808
 30
0.0
 10
37.280808
 20
409.095883
 30
0.0
 10
37.454457
 20
410.080691
 30
0.0
 10
36.666610
 20
410.219609
 30
0.0
 10
38.750389
 20
422.037302
 30
0.0
 10
39.538235
 20
421.898384
 30
0.0
 10
39.711883
 20
422.883192
 30
0.0
 10
53.499192
 20
420.452117
 30
0.0
  0
LWPOLYLINE
  5
158
100
AcDbEntity
  8
0
 62
7
100
AcDbPolyline
 90
14
 70
0
 10
36.403883
 20
404.123192
 30
0.0
 10
50.191192
 20
401.692117
 30
0.0
 10
50.017543
 20
400.707309
 30
0.0
 10
50.805390
 20
400.568391
 30
0.0
 10
48.721611
 20
388.750698
 30
0.0
 10
47.933765
 20
388.889616
 30
0.0
 10
47.760117
 20
387.904808
 30
0.0
 10
33.972808
 20
390.335883
 30
0.0
 10
34.146457
 20
391.320691
 30
0.0
 10
33.358610
 20
391.459609
 30
0.0
 10
35.442389
 20
403.277302
 30
0.0
 10
36.230235
 20
403.138384
 30
0.0
 10
36.403883
 20
404.123192
 30
0.0
 10
50.191192
 20
401.692117
 30
0.0
  0
LWPOLYLINE
  5
159
100
AcDbEntity
  8
0
 62
7
100
AcDbPolyline
 90
14
 70
0
 10
33.095883
 20
385.362192
 30
0.0
 10
46.883192
 20
382.931117
 30
0.0
 10
46.709543
 20
381.946309
 30
0.0
 10
47.497390
 20
381.807391
 30
0.0
 10
45.413611
 20
369.989698
 30
0.0
 10
44.625765
 20
370.128616
 30
0.0
 10
44.452117
 20
369.143808
 30
0.0
 10
30.664808
 20
371.574883
 30
0.0
 10
30.838457
 20
372.559691
 30
0.0
 10
30.050610
 20
372.698609
 30
0.0
 10
32.134389
 20
384.516302
 30
0.0
 10
32.922235
 20
384.377384
 30
0.0
 10
33.095883
 20
385.362192
 30
0.0
 10
46.883192
 20
382.931117
 30
0.0
  0
LWPOLYLINE
  5
15a
100
AcDbEntity
  8
0
 62
7
100
AcDbPolyline
 90
14
 70
0
 10
68.743883
 20
477.827192
 30
0.0
 10
82.531192
 20
475.396117
 30
0.0
 10
82.357543
 20
474.411309
 30
0.0
 10
83.145390
 20
474.272391
 30
0.0
 10
81.061611
 20
462.454698
 30
0.0
 10
80.273765
 20
462.593616
 30
0.0
 10
80.100117
 20
461.608808
 30
0.0
 10
66.312808
 20
464.039883
 30
0.0
 10
66.486457
 20
465.024691
 30
0.0
 10
65.698610
 20
465.163609
 30
0.0
 10
67.782389
 20
476.981302
 30
0.0
 10
68.570235
 20
476.842384
 30
0.0
 10
68.743883
 20
477.827192
 30
0.0
 10
82.531192
 20
475.396117
 30
0.0
  0
LWPOLYLINE
  5
15b
100
AcDbEntity
  8
0
 62
7
100
AcDbPolyline
 90
14
 70
0
 10
65.435883
 20
459.066192
 30
0.0
 10
79.223192
 20
456.635117
 30
0.0
 10
79.049543
 20
455.650309
 30
0.0
 10
79.837390
 20
455.511391
 30
0.0
 10
77.753611
 20
443.693698
 30
0.0
 10
76.965765
 20
443.832616
 30
0.0
 10
76.792117
 20
442.847808
 30
0.0
 10
63.004808
 20
445.278883
 30
0.0
 10
63.178457
 20
446.263691
 30
0.0
 10
62.390610
 20
446.402609
 30
0.0
 10
64.474389
 20
458.220302
 30
0.0
 10
65.262235
 20
458.081384
 30
0.0
 10
65.435883
 20
459.066192
 30
0.0
 10
79.223192
 20
456.635117
 30
0.0
  0
LWPOLYLINE
  5
15c
100
AcDbEntity
  8
0
 62
7
100
AcDbPolyline
 90
14
 70
0
 10
62.127883
 20
440.305192
 30
0.0
 10
75.915192
 20
437.874117
 30
0.0
 10
75.741543
 20
436.889309
 30
0.0
 10
76.529390
 20
436.750391
 30
0.0
 10
74.445611
 20
424.932698
 30
0.0
 10
73.657765
 20
425.071616
 30
0.0
 10
73.484117
 20
424.086808
 30
0.0
 10
59.696808
 20
426.517883
 30
0.0
 10
59.870457
 20
427.502691
 30
0.0
 10
59.082610
 20
427.641609
 30
0.0
 10
61.166389
 20
439.459302
 30
0.0
 10
61.954235
 20
439.320384
 30
0.0
 10
62.127883
 20
440.305192
 30
0.0
 10
75.915192
 20
437.874117
 30
0.0
  0
LWPOLYLINE
  5
15d
100
AcDbEntity
  8
0
 62
7
100
AcDbPolyline
 90
14
 70
0
 10
58.819883
 20
421.545192
 30
0.0
 10
72.607192
 20
419.114117
 30
0.0
 10
72.433543
 20
418.129309
 30
0.0
 10
73.221390
 20
417.990391
 30
0.0
 10
71.137611
 20
406.172698
 30
0.0
 10
70.349765
 20
406.311616
 30
0.0
 10
70.176117
 20
405.326808
 30
0.0
 10
56.388808
 20
407.757883
 30
0.0
 10
56.562457
 20
408.742691
 30
0.0
 10
55.774610
 20
408.881609
 30
0.0
 10
57.858389
 20
420.699302
 30
0.0
 10
58.646235
 20
420.560384
 30
0.0
 10
58.819883
 20
421.545192
 30
0.0
 10
72.607192
 20
419.114117
 30
0.0
  0
LWPOLYLINE
  5
15e
100
AcDbEntity
  8
0
 62
7
100
AcDbPolyline
 90
14
 70
0
 10
55.511883
 20
402.784192
 30
0.0
 10
69.299192
 20
400.353117
 30
0.0
 10
69.125543
 20
399.368309
 30
0.0
 10
69.913390
 20
399.229391
 30
0.0
 10
67.829611
 20
387.411698
 30
0.0
 10
67.041765
 20
387.550616
 30
0.0
 10
66.868117
 20
386.565808
 30
0.0
 10
53.080808
 20
388.996883
 30
0.0
 10
53.254457
 20
389.981691
 30
0.0
 10
52.466610
 20
390.120609
 30
0.0
 10
54.550389
 20
401.938302
 30
0.0
 10
55.338235
 20
401.799384
 30
0.0
 10
55.511883
 20
402.784192
 30
0.0
 10
69.299192
 20
400.353117
 30
0.0
  0
LWPOLYLINE
  5
15f
100
AcDbEntity
  8
0
 62
7
100
AcDbPolyline
 90
14
 70
0
 10
52.203883
 20
384.024192
 30
0.0
 10
65.991192
 20
381.593117
 30
0.0
 10
65.817543
 20
380.608309
 30
0.0
 10
66.605390
 20
380.469391
 30
0.0
 10
64.521611
 20
368.651698
 30
0.0
 10
63.733765
 20
368.790616
 30
0.0
 10
63.560117
 20
367.805808
 30
0.0
 10
49.772808
 20
370.236883
 30
0.0
 10
49.946457
 20
371.221691
 30
0.0
 10
49.158610
 20
371.360609
 30
0.0
 10
51.242389
 20
383.178302
 30
0.0
 10
52.030235
 20
383.039384
 30
0.0
 10
52.203883
 20
384.024192
 30
0.0
 10
65.991192
 20
381.593117
 30
0.0
  0
LWPOLYLINE
  5
160
100
AcDbEntity
  8
0
 62
7
100
AcDbPolyline
 90
14
 70
0
 10
88.546883
 20
480.427192
 30
0.0
 10
102.334192
 20
477.996117
 30
0.0
 10
102.160543
 20
477.011309
 30
0.0
 10
102.948390
 20
476.872391
 30
0.0
 10
100.864611
 20
465.054698
 30
0.0
 10
100.076765
 20
465.193616
 30
0.0
 10
99.903117
 20
464.208808
 30
0.0
 10
86.115808
 20
466.639883
 30
0.0
 10
86.289457
 20
467.624691
 30
0.0
 10
85.501610
 20
467.763609
 30
0.0
 10
87.585389
 20
479.581302
 30
0.0
 10
88.373235
 20
479.442384
 30
0.0
 10
88.546883
 20
480.427192
 30
0.0
 10
102.334192
 20
477.996117
 30
0.0
  0
LWPOLYLINE
  5
161
100
AcDbEntity
  8
0
 62
7
100
AcDbPolyline
 90
14
 70
0
 10
85.238883
 20
461.667192
 30
0.0
 10
99.026192
 20
459.236117
 30
0.0
 10
98.852543
 20
458.251309
 30
0.0
 10
99.640390
 20
458.112391
 30
0.0
 10
97.556611
 20
446.294698
 30
0.0
 10
96.768765
 20
446.433616
 30
0.0
 10
96.595117
 20
445.448808
 30
0.0
 10
82.807808
 20
447.879883
 30
0.0
 10
82.981457
 20
448.864691
 30
0.0
 10
82.193610
 20
449.003609
 30
0.0
 10
84.277389
 20
460.821302
 30
0.0
 10
85.065235
 20
460.682384
 30
0.0
 10
85.238883
 20
461.667192
 30
0.0
 10
99.026192
 20
459.236117
 30
0.0
  0
LWPOLYLINE
  5
162
100
AcDbEntity
  8
0
 62
7
100
AcDbPolyline
 90
14
 70
0
 10
81.930883
 20
442.906192
 30
0.0
 10
95.718192
 20
440.475117
 30
0.0
 10
95.544543
 20
439.490309
 30
0.0
 10
96.332390
 20
439.351391
 30
0.0
 10
94.248611
 20
427.533698
 30
0.0
 10
93.460765
 20
427.672616
 30
0.0
 10
93.287117
 20
426.687808
 30
0.0
 10
79.499808
 20
429.118883
 30
0.0
 10
79.673457
 20
430.103691
 30
0.0
 10
78.885610
 20
430.242609
 30
0.0
 10
80.969389
 20
442.060302
 30
0.0
 10
81.757235
 20
441.921384
 30
0.0
 10
81.930883
 20
442.906192
 30
0.0
 10
95.718192
 20
440.475117
 30
0.0
  0
LWPOLYLINE
  5
163
100
AcDbEntity
  8
0
 62
7
100
AcDbPolyline
 90
14
 70
0
 10
78.622883
 20
424.146192
 30
0.0
 10
92.410192
 20
421.715117
 30
0.0
 10
92.236543
 20
420.730309
 30
0.0
 10
93.024390
 20
420.591391
 30
0.0
 10
90.940611
 20
408.773698
 30
0.0
 10
90.152765
 20
408.912616
 30
0.0
 10
89.979117
 20
407.927808
 30
0.0
 10
76.191808
 20
410.358883
 30
0.0
 10
76.365457
 20
411.343691
 30
0.0
 10
75.577610
 20
411.482609
 30
0.0
 10
77.661389
 20
423.300302
 30
0.0
 10
78.449235
 20
423.161384
 30
0.0
 10
78.622883
 20
424.146192
 30
0.0
 10
92.410192
 20
421.715117
 30
0.0
  0
LWPOLYLINE
  5
164
100
AcDbEntity
  8
0
 62
7
100
AcDbPolyline
 90
14
 70
0
 10
75.314883
 20
405.385192
 30
0.0
 10
89.102192
 20
402.954117
 30
0.0
 10
88.928543
 20
401.969309
 30
0.0
 10
89.716390
 20
401.830391
 30
0.0
 10
87.632611
 20
390.012698
 30
0.0
 10
86.844765
 20
390.151616
 30
0.0
 10
86.671117
 20
389.166808
 30
0.0
 10
72.883808
 20
391.597883
 30
0.0
 10
73.057457
 20
392.582691
 30
0.0
 10
72.269610
 20
392.721609
 30
0.0
 10
74.353389
 20
404.539302
 30
0.0
 10
75.141235
 20
404.400384
 30
0.0
 10
75.314883
 20
405.385192
 30
0.0
 10
89.102192
 20
402.954117
 30
0.0
  0
LWPOLYLINE
  5
165
100
AcDbEntity
  8
0
 62
7
100
AcDbPolyline
 90
14
 70
0
 10
72.006883
 20
386.624192
 30
0.0
 10
85.794192
 20
384.193117
 30
0.0
 10
85.620543
 20
383.208309
 30
0.0
 10
86.408390
 20
383.069391
 30
0.0
 10
84.324611
 20
371.251698
 30
0.0
 10
83.536765
 20
371.390616
 30
0.0
 10
83.363117
 20
370.405808
 30
0.0
 10
69.575808
 20
372.836883
 30
0.0
 10
69.749457
 20
373.821691
 30
0.0
 10
68.961610
 20
373.960609
 30
0.0
 10
71.045389
 20
385.778302
 30
0.0
 10
71.833235
 20
385.639384
 30
0.0
 10
72.006883
 20
386.624192
 30
0.0
 10
85.794192
 20
384.193117
 30
0.0
  0
LWPOLYLINE
  5
166
100
AcDbEntity
  8
0
 62
7
100
AcDbPolyline
 90
14
 70
0
 10
106.264883
 20
471.211192
 30
0.0
 10
120.052192
 20
468.780117
 30
0.0
 10
119.878543
 20
467.795309
 30
0.0
 10
120.666390
 20
467.656391
 30
0.0
 10
118.582611
 20
455.838698
 30
0.0
 10
117.794765
 20
455.977616
 30
0.0
 10
117.621117
 20
454.992808
 30
0.0
 10
103.833808
 20
457.423883
 30
0.0
 10
104.007457
 20
458.408691
 30
0.0
 10
103.219610
 20
458.547609
 30
0.0
 10
105.303389
 20
470.365302
 30
0.0
 10
106.091235
 20
470.226384
 30
0.0
 10
106.264883
 20
471.211192
 30
0.0
 10
120.052192
 20
468.780117
 30
0.0
  0
LWPOLYLINE
  5
167
100
AcDbEntity
  8
0
 62
7
100
AcDbPolyline
 90
14
 70
0
 10
102.956883
 20
452.450192
 30
0.0
 10
116.744192
 20
450.019117
 30
0.0
 10
116.570543
 20
449.034309
 30
0.0
 10
117.358390
 20
448.895391
 30
0.0
 10
115.274611
 20
437.077698
 30
0.0
 10
114.486765
 20
437.216616
 30
0.0
 10
114.313117
 20
436.231808
 30
0.0
 10
100.525808
 20
438.662883
 30
0.0
 10
100.699457
 20
439.647691
 30
0.0
 10
99.911610
 20
439.786609
 30
0.0
 10
101.995389
 20
451.604302
 30
0.0
 10
102.783235
 20
451.465384
 30
0.0
 10
102.956883
 20
452.450192
 30
0.0
 10
116.744192
 20
450.019117
 30
0.0
  0
LWPOLYLINE
  5
168
100
AcDbEntity
  8
0
 62
7
100
AcDbPolyline
 90
14
 70
0
 10
99.648883
 20
433.689192
 30
0.0
 10
113.436192
 20
431.258117
 30
0.0
 10
113.262543
 20
430.273309
 30
0.0
 10
114.050390
 20
430.134391
 30
0.0
 10
111.966611
 20
418.316698
 30
0.0
 10
111.178765
 20
418.455616
 30
0.0
 10
111.005117
 20
417.470808
 30
0.0
 10
97.217808
 20
419.901883
 30
0.0
 10
97.391457
 20
420.886691
 30
0.0
 10
96.603610
 20
421.025609
 30
0.0
 10
98.687389
 20
432.843302
 30
0.0
 10
99.475235
 20
432.704384
 30
0.0
 10
99.648883
 20
433.689192
 30
0.0
 10
113.436192
 20
431.258117
 30
0.0
  0
LWPOLYLINE
  5
169
100
AcDbEntity
  8
0
 62
7
100
AcDbPolyline
 90
14
 70
0
 10
96.340883
 20
414.929192
 30
0.0
 10
110.128192
 20
412.498117
 30
0.0
 10
109.954543
 20
411.513309
 30
0.0
 10
110.742390
 20
411.374391
 30
0.0
 10
108.658611
 20
399.556698
 30
0.0
 10
107.870765
 20
399.695616
 30
0.0
 10
107.697117
 20
398.710808
 30
0.0
 10
93.909808
 20
401.141883
 30
0.0
 10
94.083457
 20
402.126691
 30
0.0
 10
93.295610
 20
402.265609
 30
0.0
 10
95.379389
 20
414.083302
 30
0.0
 10
96.167235
 20
413.944384
 30
0.0
 10
96.340883
 20
414.929192
 30
0.0
 10
110.128192
 20
412.498117
 30
0.0
  0
LWPOLYLINE
  5
16a
100
AcDbEntity
  8
0
 62
7
100
AcDbPolyline
 90
14
 70
0
 10
93.032883
 20
396.168192
 30
0.0
 10
106.820192
 20
393.737117
 30
0.0
 10
106.646543
 20
392.752309
 30
0.0
 10
107.434390
 20
392.613391
 30
0.0
 10
105.350611
 20
380.795698
 30
0.0
 10
104.562765
 20
380.934616
 30
0.0
 10
104.389117
 20
379.949808
 30
0.0
 10
90.601808
 20
382.380883
 30
0.0
 10
90.775457
 20
383.365691
 30
0.0
 10
89.987610
 20
383.504609
 30
0.0
 10
92.071389
 20
395.322302
 30
0.0
 10
92.859235
 20
395.183384
 30
0.0
 10
93.032883
 20
396.168192
 30
0.0
 10
106.820192
 20
393.737117
 30
0.0
  0
LWPOLYLINE
  5
16b
100
AcDbEntity
  8
0
 62
7
100
AcDbPolyline
 90
14
 70
0
 10
89.724883
 20
377.408192
 30
0.0
 10
103.512192
 20
374.977117
 30
0.0
 10
103.338543
 20
373.992309
 30
0.0
 10
104.126390
 20
373.853391
 30
0.0
 10
102.042611
 20
362.035698
 30
0.0
 10
101.254765
 20
362.174616
 30
0.0
 10
101.081117
 20
361.189808
 30
0.0
 10
87.293808
 20
363.620883
 30
0.0
 10
87.467457
 20
364.605691
 30
0.0
 10
86.679610
 20
364.744609
 30
0.0
 10
88.763389
 20
376.562302
 30
0.0
 10
89.551235
 20
376.423384
 30
0.0
 10
89.724883
 20
377.408192
 30
0.0
 10
103.512192
 20
374.977117
 30
0.0
  0
LWPOLYLINE
  5
16c
100
AcDbEntity
  8
0
 62
7
100
AcDbPolyline
 90
14
 70
0
 10
124.157883
 20
462.979192
 30
0.0
 10
137.945192
 20
460.548117
 30
0.0
 10
137.771543
 20
459.563309
 30
0.0
 10
138.559390
 20
459.424391
 30
0.0
 10
136.475611
 20
447.606698
 30
0.0
 10
135.687765
 20
447.745616
 30
0.0
 10
135.514117
 20
446.760808
 30
0.0
 10
121.726808
 20
449.191883
 30
0.0
 10
121.900457
 20
450.176691
 30
0.0
 10
121.112610
 20
450.315609
 30
0.0
 10
123.196389
 20
462.133302
 30
0.0
 10
123.984235
 20
461.994384
 30
0.0
 10
124.157883
 20
462.979192
 30
0.0
 10
137.945192
 20
460.548117
 30
0.0
  0
LWPOLYLINE
  5
16d
100
AcDbEntity
  8
0
 62
7
100
AcDbPolyline
 90
14
 70
0
 10
120.849883
 20
444.218192
 30
0.0
 10
134.637192
 20
441.787117
 30
0.0
 10
134.463543
 20
440.802309
 30
0.0
 10
135.251390
 20
440.663391
 30
0.0
 10
133.167611
 20
428.845698
 30
0.0
 10
132.379765
 20
428.984616
 30
0.0
 10
132.206117
 20
427.999808
 30
0.0
 10
118.418808
 20
430.430883
 30
0.0
 10
118.592457
 20
431.415691
 30
0.0
 10
117.804610
 20
431.554609
 30
0.0
 10
119.888389
 20
443.372302
 30
0.0
 10
120.676235
 20
443.233384
 30
0.0
 10
120.849883
 20
444.218192
 30
0.0
 10
134.637192
 20
441.787117
 30
0.0
  0
LWPOLYLINE
  5
16e
100
AcDbEntity
  8
0
 62
7
100
AcDbPolyline
 90
14
 70
0
 10
117.541883
 20
425.457192
 30
0.0
 10
131.329192
 20
423.026117
 30
0.0
 10
131.155543
 20
422.041309
 30
0.0
 10
131.943390
 20
421.902391
 30
0.0
 10
129.859611
 20
410.084698
 30
0.0
 10
129.071765
 20
410.223616
 30
0.0
 10
128.898117
 20
409.238808
 30
0.0
 10
115.110808
 20
411.669883
 30
0.0
 10
115.284457
 20
412.654691
 30
0.0
 10
114.496610
 20
412.793609
 30
0.0
 10
116.580389
 20
424.611302
 30
0.0
 10
117.368235
 20
424.472384
 30
0.0
 10
117.541883
 20
425.457192
 30
0.0
 10
131.329192
 20
423.026117
 30
0.0
  0
LWPOLYLINE
  5
16f
100
AcDbEntity
  8
0
 62
7
100
AcDbPolyline
 90
14
 70
0
 10
114.233883
 20
406.697192
 30
0.0
 10
128.021192
 20
404.266117
 30
0.0
 10
127.847543
 20
403.281309
 30
0.0
 10
128.635390
 20
403.142391
 30
0.0
 10
126.551611
 20
391.324698
 30
0.0
 10
125.763765
 20
391.463616
 30
0.0
 10
125.590117
 20
390.478808
 30
0.0
 10
111.802808
 20
392.909883
 30
0.0
 10
111.976457
 20
393.894691
 30
0.0
 10
111.188610
 20
394.033609
 30
0.0
 10
113.272389
 20
405.851302
 30
0.0
 10
114.060235
 20
405.712384
 30
0.0
 10
114.233883
 20
406.697192
 30
0.0
 10
128.021192
 20
404.266117
 30
0.0
  0
LWPOLYLINE
  5
170
100
AcDbEntity
  8
0
 62
7
100
AcDbPolyline
 90
14
 70
0
 10
110.925883
 20
387.936192
 30
0.0
 10
124.713192
 20
385.505117
 30
0.0
 10
124.539543
 20
384.520309
 30
0.0
 10
125.327390
 20
384.381391
 30
0.0
 10
123.243611
 20
372.563698
 30
0.0
 10
122.455765
 20
372.702616
 30
0.0
 10
122.282117
 20
371.717808
 30
0.0
 10
108.494808
 20
374.148883
 30
0.0
 10
108.668457
 20
375.133691
 30
0.0
 10
107.880610
 20
375.272609
 30
0.0
 10
109.964389
 20
387.090302
 30
0.0
 10
110.752235
 20
386.951384
 30
0.0
 10
110.925883
 20
387.936192
 30
0.0
 10
124.713192
 20
385.505117
 30
0.0
  0
LWPOLYLINE
  5
171
100
AcDbEntity
  8
0
 62
7
100
AcDbPolyline
 90
14
 70
0
 10
107.617883
 20
369.176192
 30
0.0
 10
121.405192
 20
366.745117
 30
0.0
 10
121.231543
 20
365.760309
 30
0.0
 10
122.019390
 20
365.621391
 30
0.0
 10
119.935611
 20
353.803698
 30
0.0
 10
119.147765
 20
353.942616
 30
0.0
 10
118.974117
 20
352.957808
 30
0.0
 10
105.186808
 20
355.388883
 30
0.0
 10
105.360457
 20
356.373691
 30
0.0
 10
104.572610
 20
356.512609
 30
0.0
 10
106.656389
 20
368.330302
 30
0.0
 10
107.444235
 20
368.191384
 30
0.0
 10
107.617883
 20
369.176192
 30
0.0
 10
121.405192
 20
366.745117
 30
0.0
  0
LWPOLYLINE
  5
172
100
AcDbEntity
  8
0
 62
7
100
AcDbPolyline
 90
14
 70
0
 10
136.301883
 20
422.149192
 30
0.0
 10
150.089192
 20
419.718117
 30
0.0
 10
149.915543
 20
418.733309
 30
0.0
 10
150.703390
 20
418.594391
 30
0.0
 10
148.619611
 20
406.776698
 30
0.0
 10
147.831765
 20
406.915616
 30
0.0
 10
147.658117
 20
405.930808
 30
0.0
 10
133.870808
 20
408.361883
 30
0.0
 10
134.044457
 20
409.346691
 30
0.0
 10
133.256610
 20
409.485609
 30
0.0
 10
135.340389
 20
421.303302
 30
0.0
 10
136.128235
 20
421.164384
 30
0.0
 10
136.301883
 20
422.149192
 30
0.0
 10
150.089192
 20
419.718117
 30
0.0
  0
LWPOLYLINE
  5
173
100
AcDbEntity
  8
0
 62
7
100
AcDbPolyline
 90
14
 70
0
 10
132.993883
 20
403.389192
 30
0.0
 10
146.781192
 20
400.958117
 30
0.0
 10
146.607543
 20
399.973309
 30
0.0
 10
147.395390
 20
399.834391
 30
0.0
 10
145.311611
 20
388.016698
 30
0.0
 10
144.523765
 20
388.155616
 30
0.0
 10
144.350117
 20
387.170808
 30
0.0
 10
130.562808
 20
389.601883
 30
0.0
 10
130.736457
 20
390.586691
 30
0.0
 10
129.948610
 20
390.725609
 30
0.0
 10
132.032389
 20
402.543302
 30
0.0
 10
132.820235
 20
402.404384
 30
0.0
 10
132.993883
 20
403.389192
 30
0.0
 10
146.781192
 20
400.958117
 30
0.0
  0
LWPOLYLINE
  5
174
100
AcDbEntity
  8
0
 62
7
100
AcDbPolyline
 90
14
 70
0
 10
129.685883
 20
384.628192
 30
0.0
 10
143.473192
 20
382.197117
 30
0.0
 10
143.299543
 20
381.212309
 30
0.0
 10
144.087390
 20
381.073391
 30
0.0
 10
142.003611
 20
369.255698
 30
0.0
 10
141.215765
 20
369.394616
 30
0.0
 10
141.042117
 20
368.409808
 30
0.0
 10
127.254808
 20
370.840883
 30
0.0
 10
127.428457
 20
371.825691
 30
0.0
 10
126.640610
 20
371.964609
 30
0.0
 10
128.724389
 20
383.782302
 30
0.0
 10
129.512235
 20
383.643384
 30
0.0
 10
129.685883
 20
384.628192
 30
0.0
 10
143.473192
 20
382.197117
 30
0.0
  0
LWPOLYLINE
  5
175
100
AcDbEntity
  8
0
 62
7
100
AcDbPolyline
 90
14
 70
0
 10
126.377883
 20
365.868192
 30
0.0
 10
140.165192
 20
363.437117
 30
0.0
 10
139.991543
 20
362.452309
 30
0.0
 10
140.779390
 20
362.313391
 30
0.0
 10
138.695611
 20
350.495698
 30
0.0
 10
137.907765
 20
350.634616
 30
0.0
 10
137.734117
 20
349.649808
 30
0.0
 10
123.946808
 20
352.080883
 30
0.0
 10
124.120457
 20
353.065691
 30
0.0
 10
123.332610
 20
353.204609
 30
0.0
 10
125.416389
 20
365.022302
 30
0.0
 10
126.204235
 20
364.883384
 30
0.0
 10
126.377883
 20
365.868192
 30
0.0
 10
140.165192
 20
363.437117
 30
0.0
  0
LWPOLYLINE
  5
176
100
AcDbEntity
  8
0
 62
7
100
AcDbPolyline
 90
14
 70
0
 10
158.475000
 20
420.076000
 30
0.0
 10
172.475000
 20
420.076000
 30
0.0
 10
172.475000
 20
419.076000
 30
0.0
 10
173.275000
 20
419.076000
 30
0.0
 10
173.275000
 20
407.076000
 30
0.0
 10
172.475000
 20
407.076000
 30
0.0
 10
172.475000
 20
406.076000
 30
0.0
 10
158.475000
 20
406.076000
 30
0.0
 10
158.475000
 20
407.076000
 30
0.0
 10
157.675000
 20
407.076000
 30
0.0
 10
157.675000
 20
419.076000
 30
0.0
 10
158.475000
 20
419.076000
 30
0.0
 10
158.475000
 20
420.076000
 30
0.0
 10
172.475000
 20
420.076000
 30
0.0
  0
LWPOLYLINE
  5
177
100
AcDbEntity
  8
0
 62
7
100
AcDbPolyline
 90
14
 70
0
 10
158.475000
 20
401.025000
 30
0.0
 10
172.475000
 20
401.025000
 30
0.0
 10
172.475000
 20
400.025000
 30
0.0
 10
173.275000
 20
400.025000
 30
0.0
 10
173.275000
 20
388.025000
 30
0.0
 10
172.475000
 20
388.025000
 30
0.0
 10
172.475000
 20
387.025000
 30
0.0
 10
158.475000
 20
387.025000
 30
0.0
 10
158.475000
 20
388.025000
 30
0.0
 10
157.675000
 20
388.025000
 30
0.0
 10
157.675000
 20
400.025000
 30
0.0
 10
158.475000
 20
400.025000
 30
0.0
 10
158.475000
 20
401.025000
 30
0.0
 10
172.475000
 20
401.025000
 30
0.0
  0
LWPOLYLINE
  5
178
100
AcDbEntity
  8
0
 62
7
100
AcDbPolyline
 90
14
 70
0
 10
177.525000
 20
420.076000
 30
0.0
 10
191.525000
 20
420.076000
 30
0.0
 10
191.525000
 20
419.076000
 30
0.0
 10
192.325000
 20
419.076000
 30
0.0
 10
192.325000
 20
407.076000
 30
0.0
 10
191.525000
 20
407.076000
 30
0.0
 10
191.525000
 20
406.076000
 30
0.0
 10
177.525000
 20
406.076000
 30
0.0
 10
177.525000
 20
407.076000
 30
0.0
 10
176.725000
 20
407.076000
 30
0.0
 10
176.725000
 20
419.076000
 30
0.0
 10
177.525000
 20
419.076000
 30
0.0
 10
177.525000
 20
420.076000
 30
0.0
 10
191.525000
 20
420.076000
 30
0.0
  0
LWPOLYLINE
  5
179
100
AcDbEntity
  8
0
 62
7
100
AcDbPolyline
 90
14
 70
0
 10
177.525000
 20
401.025000
 30
0.0
 10
191.525000
 20
401.025000
 30
0.0
 10
191.525000
 20
400.025000
 30
0.0
 10
192.325000
 20
400.025000
 30
0.0
 10
192.325000
 20
388.025000
 30
0.0
 10
191.525000
 20
388.025000
 30
0.0
 10
191.525000
 20
387.025000
 30
0.0
 10
177.525000
 20
387.025000
 30
0.0
 10
177.525000
 20
388.025000
 30
0.0
 10
176.725000
 20
388.025000
 30
0.0
 10
176.725000
 20
400.025000
 30
0.0
 10
177.525000
 20
400.025000
 30
0.0
 10
177.525000
 20
401.025000
 30
0.0
 10
191.525000
 20
401.025000
 30
0.0
  0
LWPOLYLINE
  5
17a
100
AcDbEntity
  8
0
 62
7
100
AcDbPolyline
 90
14
 70
0
 10
148.950000
 20
381.975000
 30
0.0
 10
162.950000
 20
381.975000
 30
0.0
 10
162.950000
 20
380.975000
 30
0.0
 10
163.750000
 20
380.975000
 30
0.0
 10
163.750000
 20
368.975000
 30
0.0
 10
162.950000
 20
368.975000
 30
0.0
 10
162.950000
 20
367.975000
 30
0.0
 10
148.950000
 20
367.975000
 30
0.0
 10
148.950000
 20
368.975000
 30
0.0
 10
148.150000
 20
368.975000
 30
0.0
 10
148.150000
 20
380.975000
 30
0.0
 10
148.950000
 20
380.975000
 30
0.0
 10
148.950000
 20
381.975000
 30
0.0
 10
162.950000
 20
381.975000
 30
0.0
  0
LWPOLYLINE
  5
17b
100
AcDbEntity
  8
0
 62
7
100
AcDbPolyline
 90
14
 70
0
 10
148.950000
 20
362.925000
 30
0.0
 10
162.950000
 20
362.925000
 30
0.0
 10
162.950000
 20
361.925000
 30
0.0
 10
163.750000
 20
361.925000
 30
0.0
 10
163.750000
 20
349.925000
 30
0.0
 10
162.950000
 20
349.925000
 30
0.0
 10
162.950000
 20
348.925000
 30
0.0
 10
148.950000
 20
348.925000
 30
0.0
 10
148.950000
 20
349.925000
 30
0.0
 10
148.150000
 20
349.925000
 30
0.0
 10
148.150000
 20
361.925000
 30
0.0
 10
148.950000
 20
361.925000
 30
0.0
 10
148.950000
 20
362.925000
 30
0.0
 10
162.950000
 20
362.925000
 30
0.0
  0
LWPOLYLINE
  5
17c
100
AcDbEntity
  8
0
 62
7
100
AcDbPolyline
 90
14
 70
0
 10
168.000000
 20
381.975000
 30
0.0
 10
182.000000
 20
381.975000
 30
0.0
 10
182.000000
 20
380.975000
 30
0.0
 10
182.800000
 20
380.975000
 30
0.0
 10
182.800000
 20
368.975000
 30
0.0
 10
182.000000
 20
368.975000
 30
0.0
 10
182.000000
 20
367.975000
 30
0.0
 10
168.000000
 20
367.975000
 30
0.0
 10
168.000000
 20
368.975000
 30
0.0
 10
167.200000
 20
368.975000
 30
0.0
 10
167.200000
 20
380.975000
 30
0.0
 10
168.000000
 20
380.975000
 30
0.0
 10
168.000000
 20
381.975000
 30
0.0
 10
182.000000
 20
381.975000
 30
0.0
  0
LWPOLYLINE
  5
17d
100
AcDbEntity
  8
0
 62
7
100
AcDbPolyline
 90
14
 70
0
 10
168.000000
 20
362.925000
 30
0.0
 10
182.000000
 20
362.925000
 30
0.0
 10
182.000000
 20
361.925000
 30
0.0
 10
182.800000
 20
361.925000
 30
0.0
 10
182.800000
 20
349.925000
 30
0.0
 10
182.000000
 20
349.925000
 30
0.0
 10
182.000000
 20
348.925000
 30
0.0
 10
168.000000
 20
348.925000
 30
0.0
 10
168.000000
 20
349.925000
 30
0.0
 10
167.200000
 20
349.925000
 30
0.0
 10
167.200000
 20
361.925000
 30
0.0
 10
168.000000
 20
361.925000
 30
0.0
 10
168.000000
 20
362.925000
 30
0.0
 10
182.000000
 20
362.925000
 30
0.0
  0
LWPOLYLINE
  5
17e
100
AcDbEntity
  8
0
 62
7
100
AcDbPolyline
 90
14
 70
0
 10
187.050000
 20
381.975000
 30
0.0
 10
201.050000
 20
381.975000
 30
0.0
 10
201.050000
 20
380.975000
 30
0.0
 10
201.850000
 20
380.975000
 30
0.0
 10
201.850000
 20
368.975000
 30
0.0
 10
201.050000
 20
368.975000
 30
0.0
 10
201.050000
 20
367.975000
 30
0.0
 10
187.050000
 20
367.975000
 30
0.0
 10
187.050000
 20
368.975000
 30
0.0
 10
186.250000
 20
368.975000
 30
0.0
 10
186.250000
 20
380.975000
 30
0.0
 10
187.050000
 20
380.975000
 30
0.0
 10
187.050000
 20
381.975000
 30
0.0
 10
201.050000
 20
381.975000
 30
0.0
  0
LWPOLYLINE
  5
17f
100
AcDbEntity
  8
0
 62
7
100
AcDbPolyline
 90
14
 70
0
 10
187.050000
 20
362.925000
 30
0.0
 10
201.050000
 20
362.925000
 30
0.0
 10
201.050000
 20
361.925000
 30
0.0
 10
201.850000
 20
361.925000
 30
0.0
 10
201.850000
 20
349.925000
 30
0.0
 10
201.050000
 20
349.925000
 30
0.0
 10
201.050000
 20
348.925000
 30
0.0
 10
187.050000
 20
348.925000
 30
0.0
 10
187.050000
 20
349.925000
 30
0.0
 10
186.250000
 20
349.925000
 30
0.0
 10
186.250000
 20
361.925000
 30
0.0
 10
187.050000
 20
361.925000
 30
0.0
 10
187.050000
 20
362.925000
 30
0.0
 10
201.050000
 20
362.925000
 30
0.0
  0
LWPOLYLINE
  5
180
100
AcDbEntity
  8
0
 62
7
100
AcDbPolyline
 90
14
 70
0
 10
199.909808
 20
419.718117
 30
0.0
 10
213.697117
 20
422.149192
 30
0.0
 10
213.870765
 20
421.164384
 30
0.0
 10
214.658611
 20
421.303302
 30
0.0
 10
216.742390
 20
409.485609
 30
0.0
 10
215.954543
 20
409.346691
 30
0.0
 10
216.128192
 20
408.361883
 30
0.0
 10
202.340883
 20
405.930808
 30
0.0
 10
202.167235
 20
406.915616
 30
0.0
 10
201.379389
 20
406.776698
 30
0.0
 10
199.295610
 20
418.594391
 30
0.0
 10
200.083457
 20
418.733309
 30
0.0
 10
199.909808
 20
419.718117
 30
0.0
 10
213.697117
 20
422.149192
 30
0.0
  0
LWPOLYLINE
  5
181
100
AcDbEntity
  8
0
 62
7
100
AcDbPolyline
 90
14
 70
0
 10
203.217808
 20
400.958117
 30
0.0
 10
217.005117
 20
403.389192
 30
0.0
 10
217.178765
 20
402.404384
 30
0.0
 10
217.966611
 20
402.543302
 30
0.0
 10
220.050390
 20
390.725609
 30
0.0
 10
219.262543
 20
390.586691
 30
0.0
 10
219.436192
 20
389.601883
 30
0.0
 10
205.648883
 20
387.170808
 30
0.0
 10
205.475235
 20
388.155616
 30
0.0
 10
204.687389
 20
388.016698
 30
0.0
 10
202.603610
 20
399.834391
 30
0.0
 10
203.391457
 20
399.973309
 30
0.0
 10
203.217808
 20
400.958117
 30
0.0
 10
217.005117
 20
403.389192
 30
0.0
  0
LWPOLYLINE
  5
182
100
AcDbEntity
  8
0
 62
7
100
AcDbPolyline
 90
14
 70
0
 10
206.525808
 20
382.197117
 30
0.0
 10
220.313117
 20
384.628192
 30
0.0
 10
220.486765
 20
383.643384
 30
0.0
 10
221.274611
 20
383.782302
 30
0.0
 10
223.358390
 20
371.964609
 30
0.0
 10
222.570543
 20
371.825691
 30
0.0
 10
222.744192
 20
370.840883
 30
0.0
 10
208.956883
 20
368.409808
 30
0.0
 10
208.783235
 20
369.394616
 30
0.0
 10
207.995389
 20
369.255698
 30
0.0
 10
205.911610
 20
381.073391
 30
0.0
 10
206.699457
 20
381.212309
 30
0.0
 10
206.525808
 20
382.197117
 30
0.0
 10
220.313117
 20
384.628192
 30
0.0
  0
LWPOLYLINE
  5
183
100
AcDbEntity
  8
0
 62
7
100
AcDbPolyline
 90
14
 70
0
 10
209.833808
 20
363.437117
 30
0.0
 10
223.621117
 20
365.868192
 30
0.0
 10
223.794765
 20
364.883384
 30
0.0
 10
224.582611
 20
365.022302
 30
0.0
 10
226.666390
 20
353.204609
 30
0.0
 10
225.878543
 20
353.065691
 30
0.0
 10
226.052192
 20
352.080883
 30
0.0
 10
212.264883
 20
349.649808
 30
0.0
 10
212.091235
 20
350.634616
 30
0.0
 10
211.303389
 20
350.495698
 30
0.0
 10
209.219610
 20
362.313391
 30
0.0
 10
210.007457
 20
362.452309
 30
0.0
 10
209.833808
 20
363.437117
 30
0.0
 10
223.621117
 20
365.868192
 30
0.0
  0
LWPOLYLINE
  5
184
100
AcDbEntity
  8
0
 62
7
100
AcDbPolyline
 90
14
 70
0
 10
212.053808
 20
460.548117
 30
0.0
 10
225.841117
 20
462.979192
 30
0.0
 10
226.014765
 20
461.994384
 30
0.0
 10
226.802611
 20
462.133302
 30
0.0
 10
228.886390
 20
450.315609
 30
0.0
 10
228.098543
 20
450.176691
 30
0.0
 10
228.272192
 20
449.191883
 30
0.0
 10
214.484883
 20
446.760808
 30
0.0
 10
214.311235
 20
447.745616
 30
0.0
 10
213.523389
 20
447.606698
 30
0.0
 10
211.439610
 20
459.424391
 30
0.0
 10
212.227457
 20
459.563309
 30
0.0
 10
212.053808
 20
460.548117
 30
0.0
 10
225.841117
 20
462.979192
 30
0.0
  0
LWPOLYLINE
  5
185
100
AcDbEntity
  8
0
 62
7
100
AcDbPolyline
 90
14
 70
0
 10
215.361808
 20
441.787117
 30
0.0
 10
229.149117
 20
444.218192
 30
0.0
 10
229.322765
 20
443.233384
 30
0.0
 10
230.110611
 20
443.372302
 30
0.0
 10
232.194390
 20
431.554609
 30
0.0
 10
231.406543
 20
431.415691
 30
0.0
 10
231.580192
 20
430.430883
 30
0.0
 10
217.792883
 20
427.999808
 30
0.0
 10
217.619235
 20
428.984616
 30
0.0
 10
216.831389
 20
428.845698
 30
0.0
 10
214.747610
 20
440.663391
 30
0.0
 10
215.535457
 20
440.802309
 30
0.0
 10
215.361808
 20
441.787117
 30
0.0
 10
229.149117
 20
444.218192
 30
0.0
  0
LWPOLYLINE
  5
186
100
AcDbEntity
  8
0
 62
7
100
AcDbPolyline
 90
14
 70
0
 10
218.669808
 20
423.026117
 30
0.0
 10
232.457117
 20
425.457192
 30
0.0
 10
232.630765
 20
424.472384
 30
0.0
 10
233.418611
 20
424.611302
 30
0.0
 10
235.502390
 20
412.793609
 30
0.0
 10
234.714543
 20
412.654691
 30
0.0
 10
234.888192
 20
411.669883
 30
0.0
 10
221.100883
 20
409.238808
 30
0.0
 10
220.927235
 20
410.223616
 30
0.0
 10
220.139389
 20
410.084698
 30
0.0
 10
218.055610
 20
421.902391
 30
0.0
 10
218.843457
 20
422.041309
 30
0.0
 10
218.669808
 20
423.026117
 30
0.0
 10
232.457117
 20
425.457192
 30
0.0
  0
LWPOLYLINE
  5
187
100
AcDbEntity
  8
0
 62
7
100
AcDbPolyline
 90
14
 70
0
 10
221.977808
 20
404.266117
 30
0.0
 10
235.765117
 20
406.697192
 30
0.0
 10
235.938765
 20
405.712384
 30
0.0
 10
236.726611
 20
405.851302
 30
0.0
 10
238.810390
 20
394.033609
 30
0.0
 10
238.022543
 20
393.894691
 30
0.0
 10
238.196192
 20
392.909883
 30
0.0
 10
224.408883
 20
390.478808
 30
0.0
 10
224.235235
 20
391.463616
 30
0.0
 10
223.447389
 20
391.324698
 30
0.0
 10
221.363610
 20
403.142391
 30
0.0
 10
222.151457
 20
403.281309
 30
0.0
 10
221.977808
 20
404.266117
 30
0.0
 10
235.765117
 20
406.697192
 30
0.0
  0
LWPOLYLINE
  5
188
100
AcDbEntity
  8
0
 62
7
100
AcDbPolyline
 90
14
 70
0
 10
225.285808
 20
385.505117
 30
0.0
 10
239.073117
 20
387.936192
 30
0.0
 10
239.246765
 20
386.951384
 30
0.0
 10
240.034611
 20
387.090302
 30
0.0
 10
242.118390
 20
375.272609
 30
0.0
 10
241.330543
 20
375.133691
 30
0.0
 10
241.504192
 20
374.148883
 30
0.0
 10
227.716883
 20
371.717808
 30
0.0
 10
227.543235
 20
372.702616
 30
0.0
 10
226.755389
 20
372.563698
 30
0.0
 10
224.671610
 20
384.381391
 30
0.0
 10
225.459457
 20
384.520309
 30
0.0
 10
225.285808
 20
385.505117
 30
0.0
 10
239.073117
 20
387.936192
 30
0.0
  0
LWPOLYLINE
  5
189
100
AcDbEntity
  8
0
 62
7
100
AcDbPolyline
 90
14
 70
0
 10
228.593808
 20
366.745117
 30
0.0
 10
242.381117
 20
369.176192
 30
0.0
 10
242.554765
 20
368.191384
 30
0.0
 10
243.342611
 20
368.330302
 30
0.0
 10
245.426390
 20
356.512609
 30
0.0
 10
244.638543
 20
356.373691
 30
0.0
 10
244.812192
 20
355.388883
 30
0.0
 10
231.024883
 20
352.957808
 30
0.0
 10
230.851235
 20
353.942616
 30
0.0
 10
230.063389
 20
353.803698
 30
0.0
 10
227.979610
 20
365.621391
 30
0.0
 10
228.767457
 20
365.760309
 30
0.0
 10
228.593808
 20
366.745117
 30
0.0
 10
242.381117
 20
369.176192
 30
0.0
  0
LWPOLYLINE
  5
18a
100
AcDbEntity
  8
0
 62
7
100
AcDbPolyline
 90
14
 70
0
 10
229.946808
 20
468.780117
 30
0.0
 10
243.734117
 20
471.211192
 30
0.0
 10
243.907765
 20
470.226384
 30
0.0
 10
244.695611
 20
470.365302
 30
0.0
 10
246.779390
 20
458.547609
 30
0.0
 10
245.991543
 20
458.408691
 30
0.0
 10
246.165192
 20
457.423883
 30
0.0
 10
232.377883
 20
454.992808
 30
0.0
 10
232.204235
 20
455.977616
 30
0.0
 10
231.416389
 20
455.838698
 30
0.0
 10
229.332610
 20
467.656391
 30
0.0
 10
230.120457
 20
467.795309
 30
0.0
 10
229.946808
 20
468.780117
 30
0.0
 10
243.734117
 20
471.211192
 30
0.0
  0
LWPOLYLINE
  5
18b
100
AcDbEntity
  8
0
 62
7
100
AcDbPolyline
 90
14
 70
0
 10
233.254808
 20
450.019117
 30
0.0
 10
247.042117
 20
452.450192
 30
0.0
 10
247.215765
 20
451.465384
 30
0.0
 10
248.003611
 20
451.604302
 30
0.0
 10
250.087390
 20
439.786609
 30
0.0
 10
249.299543
 20
439.647691
 30
0.0
 10
249.473192
 20
438.662883
 30
0.0
 10
235.685883
 20
436.231808
 30
0.0
 10
235.512235
 20
437.216616
 30
0.0
 10
234.724389
 20
437.077698
 30
0.0
 10
232.640610
 20
448.895391
 30
0.0
 10
233.428457
 20
449.034309
 30
0.0
 10
233.254808
 20
450.019117
 30
0.0
 10
247.042117
 20
452.450192
 30
0.0
  0
LWPOLYLINE
  5
18c
100
AcDbEntity
  8
0
 62
7
100
AcDbPolyline
 90
14
 70
0
 10
236.562808
 20
431.258117
 30
0.0
 10
250.350117
 20
433.689192
 30
0.0
 10
250.523765
 20
432.704384
 30
0.0
 10
251.311611
 20
432.843302
 30
0.0
 10
253.395390
 20
421.025609
 30
0.0
 10
252.607543
 20
420.886691
 30
0.0
 10
252.781192
 20
419.901883
 30
0.0
 10
238.993883
 20
417.470808
 30
0.0
 10
238.820235
 20
418.455616
 30
0.0
 10
238.032389
 20
418.316698
 30
0.0
 10
235.948610
 20
430.134391
 30
0.0
 10
236.736457
 20
430.273309
 30
0.0
 10
236.562808
 20
431.258117
 30
0.0
 10
250.350117
 20
433.689192
 30
0.0
  0
LWPOLYLINE
  5
18d
100
AcDbEntity
  8
0
 62
7
100
AcDbPolyline
 90
14
 70
0
 10
239.870808
 20
412.498117
 30
0.0
 10
253.658117
 20
414.929192
 30
0.0
 10
253.831765
 20
413.944384
 30
0.0
 10
254.619611
 20
414.083302
 30
0.0
 10
256.703390
 20
402.265609
 30
0.0
 10
255.915543
 20
402.126691
 30
0.0
 10
256.089192
 20
401.141883
 30
0.0
 10
242.301883
 20
398.710808
 30
0.0
 10
242.128235
 20
399.695616
 30
0.0
 10
241.340389
 20
399.556698
 30
0.0
 10
239.256610
 20
411.374391
 30
0.0
 10
240.044457
 20
411.513309
 30
0.0
 10
239.870808
 20
412.498117
 30
0.0
 10
253.658117
 20
414.929192
 30
0.0
  0
LWPOLYLINE
  5
18e
100
AcDbEntity
  8
0
 62
7
100
AcDbPolyline
 90
14
 70
0
 10
243.178808
 20
393.737117
 30
0.0
 10
256.966117
 20
396.168192
 30
0.0
 10
257.139765
 20
395.183384
 30
0.0
 10
257.927611
 20
395.322302
 30
0.0
 10
260.011390
 20
383.504609
 30
0.0
 10
259.223543
 20
383.365691
 30
0.0
 10
259.397192
 20
382.380883
 30
0.0
 10
245.609883
 20
379.949808
 30
0.0
 10
245.436235
 20
380.934616
 30
0.0
 10
244.648389
 20
380.795698
 30
0.0
 10
242.564610
 20
392.613391
 30
0.0
 10
243.352457
 20
392.752309
 30
0.0
 10
243.178808
 20
393.737117
 30
0.0
 10
256.966117
 20
396.168192
 30
0.0
  0
LWPOLYLINE
  5
18f
100
AcDbEntity
  8
0
 62
7
100
AcDbPolyline
 90
14
 70
0
 10
246.486808
 20
374.977117
 30
0.0
 10
260.274117
 20
377.408192
 30
0.0
 10
260.447765
 20
376.423384
 30
0.0
 10
261.235611
 20
376.562302
 30
0.0
 10
263.319390
 20
364.744609
 30
0.0
 10
262.531543
 20
364.605691
 30
0.0
 10
262.705192
 20
363.620883
 30
0.0
 10
248.917883
 20
361.189808
 30
0.0
 10
248.744235
 20
362.174616
 30
0.0
 10
247.956389
 20
362.035698
 30
0.0
 10
245.872610
 20
373.853391
 30
0.0
 10
246.660457
 20
373.992309
 30
0.0
 10
246.486808
 20
374.977117
 30
0.0
 10
260.274117
 20
377.408192
 30
0.0
  0
LWPOLYLINE
  5
190
100
AcDbEntity
  8
0
 62
7
100
AcDbPolyline
 90
14
 70
0
 10
247.664808
 20
477.996117
 30
0.0
 10
261.452117
 20
480.427192
 30
0.0
 10
261.625765
 20
479.442384
 30
0.0
 10
262.413611
 20
479.581302
 30
0.0
 10
264.497390
 20
467.763609
 30
0.0
 10
263.709543
 20
467.624691
 30
0.0
 10
263.883192
 20
466.639883
 30
0.0
 10
250.095883
 20
464.208808
 30
0.0
 10
249.922235
 20
465.193616
 30
0.0
 10
249.134389
 20
465.054698
 30
0.0
 10
247.050610
 20
476.872391
 30
0.0
 10
247.838457
 20
477.011309
 30
0.0
 10
247.664808
 20
477.996117
 30
0.0
 10
261.452117
 20
480.427192
 30
0.0
  0
LWPOLYLINE
  5
191
100
AcDbEntity
  8
0
 62
7
100
AcDbPolyline
 90
14
 70
0
 10
250.972808
 20
459.236117
 30
0.0
 10
264.760117
 20
461.667192
 30
0.0
 10
264.933765
 20
460.682384
 30
0.0
 10
265.721611
 20
460.821302
 30
0.0
 10
267.805390
 20
449.003609
 30
0.0
 10
267.017543
 20
448.864691
 30
0.0
 10
267.191192
 20
447.879883
 30
0.0
 10
253.403883
 20
445.448808
 30
0.0
 10
253.230235
 20
446.433616
 30
0.0
 10
252.442389
 20
446.294698
 30
0.0
 10
250.358610
 20
458.112391
 30
0.0
 10
251.146457
 20
458.251309
 30
0.0
 10
250.972808
 20
459.236117
 30
0.0
 10
264.760117
 20
461.667192
 30
0.0
  0
LWPOLYLINE
  5
192
100
AcDbEntity
  8
0
 62
7
100
AcDbPolyline
 90
14
 70
0
 10
254.280808
 20
440.475117
 30
0.0
 10
268.068117
 20
442.906192
 30
0.0
 10
268.241765
 20
441.921384
 30
0.0
 10
269.029611
 20
442.060302
 30
0.0
 10
271.113390
 20
430.242609
 30
0.0
 10
270.325543
 20
430.103691
 30
0.0
 10
270.499192
 20
429.118883
 30
0.0
 10
256.711883
 20
426.687808
 30
0.0
 10
256.538235
 20
427.672616
 30
0.0
 10
255.750389
 20
427.533698
 30
0.0
 10
253.666610
 20
439.351391
 30
0.0
 10
254.454457
 20
439.490309
 30
0.0
 10
254.280808
 20
440.475117
 30
0.0
 10
268.068117
 20
442.906192
 30
0.0
  0
LWPOLYLINE
  5
193
100
AcDbEntity
  8
0
 62
7
100
AcDbPolyline
 90
14
 70
0
 10
257.588808
 20
421.715117
 30
0.0
 10
271.376117
 20
424.146192
 30
0.0
 10
271.549765
 20
423.161384
 30
0.0
 10
272.337611
 20
423.300302
 30
0.0
 10
274.421390
 20
411.482609
 30
0.0
 10
273.633543
 20
411.343691
 30
0.0
 10
273.807192
 20
410.358883
 30
0.0
 10
260.019883
 20
407.927808
 30
0.0
 10
259.846235
 20
408.912616
 30
0.0
 10
259.058389
 20
408.773698
 30
0.0
 10
256.974610
 20
420.591391
 30
0.0
 10
257.762457
 20
420.730309
 30
0.0
 10
257.588808
 20
421.715117
 30
0.0
 10
271.376117
 20
424.146192
 30
0.0
  0
LWPOLYLINE
  5
194
100
AcDbEntity
  8
0
 62
7
100
AcDbPolyline
 90
14
 70
0
 10
260.896808
 20
402.954117
 30
0.0
 10
274.684117
 20
405.385192
 30
0.0
 10
274.857765
 20
404.400384
 30
0.0
 10
275.645611
 20
404.539302
 30
0.0
 10
277.729390
 20
392.721609
 30
0.0
 10
276.941543
 20
392.582691
 30
0.0
 10
277.115192
 20
391.597883
 30
0.0
 10
263.327883
 20
389.166808
 30
0.0
 10
263.154235
 20
390.151616
 30
0.0
 10
262.366389
 20
390.012698
 30
0.0
 10
260.282610
 20
401.830391
 30
0.0
 10
261.070457
 20
401.969309
 30
0.0
 10
260.896808
 20
402.954117
 30
0.0
 10
274.684117
 20
405.385192
 30
0.0
  0
LWPOLYLINE
  5
195
100
AcDbEntity
  8
0
 62
7
100
AcDbPolyline
 90
14
 70
0
 10
264.204808
 20
384.193117
 30
0.0
 10
277.992117
 20
386.624192
 30
0.0
 10
278.165765
 20
385.639384
 30
0.0
 10
278.953611
 20
385.778302
 30
0.0
 10
281.037390
 20
373.960609
 30
0.0
 10
280.249543
 20
373.821691
 30
0.0
 10
280.423192
 20
372.836883
 30
0.0
 10
266.635883
 20
370.405808
 30
0.0
 10
266.462235
 20
371.390616
 30
0.0
 10
265.674389
 20
371.251698
 30
0.0
 10
263.590610
 20
383.069391
 30
0.0
 10
264.378457
 20
383.208309
 30
0.0
 10
264.204808
 20
384.193117
 30
0.0
 10
277.992117
 20
386.624192
 30
0.0
  0
LWPOLYLINE
  5
196
100
AcDbEntity
  8
0
 62
7
100
AcDbPolyline
 90
14
 70
0
 10
267.293808
 20
476.380117
 30
0.0
 10
281.081117
 20
478.811192
 30
0.0
 10
281.254765
 20
477.826384
 30
0.0
 10
282.042611
 20
477.965302
 30
0.0
 10
284.126390
 20
466.147609
 30
0.0
 10
283.338543
 20
466.008691
 30
0.0
 10
283.512192
 20
465.023883
 30
0.0
 10
269.724883
 20
462.592808
 30
0.0
 10
269.551235
 20
463.577616
 30
0.0
 10
268.763389
 20
463.438698
 30
0.0
 10
266.679610
 20
475.256391
 30
0.0
 10
267.467457
 20
475.395309
 30
0.0
 10
267.293808
 20
476.380117
 30
0.0
 10
281.081117
 20
478.811192
 30
0.0
  0
LWPOLYLINE
  5
197
100
AcDbEntity
  8
0
 62
7
100
AcDbPolyline
 90
14
 70
0
 10
270.601808
 20
457.620117
 30
0.0
 10
284.389117
 20
460.051192
 30
0.0
 10
284.562765
 20
459.066384
 30
0.0
 10
285.350611
 20
459.205302
 30
0.0
 10
287.434390
 20
447.387609
 30
0.0
 10
286.646543
 20
447.248691
 30
0.0
 10
286.820192
 20
446.263883
 30
0.0
 10
273.032883
 20
443.832808
 30
0.0
 10
272.859235
 20
444.817616
 30
0.0
 10
272.071389
 20
444.678698
 30
0.0
 10
269.987610
 20
456.496391
 30
0.0
 10
270.775457
 20
456.635309
 30
0.0
 10
270.601808
 20
457.620117
 30
0.0
 10
284.389117
 20
460.051192
 30
0.0
  0
LWPOLYLINE
  5
198
100
AcDbEntity
  8
0
 62
7
100
AcDbPolyline
 90
14
 70
0
 10
273.909808
 20
438.859117
 30
0.0
 10
287.697117
 20
441.290192
 30
0.0
 10
287.870765
 20
440.305384
 30
0.0
 10
288.658611
 20
440.444302
 30
0.0
 10
290.742390
 20
428.626609
 30
0.0
 10
289.954543
 20
428.487691
 30
0.0
 10
290.128192
 20
427.502883
 30
0.0
 10
276.340883
 20
425.071808
 30
0.0
 10
276.167235
 20
426.056616
 30
0.0
 10
275.379389
 20
425.917698
 30
0.0
 10
273.295610
 20
437.735391
 30
0.0
 10
274.083457
 20
437.874309
 30
0.0
 10
273.909808
 20
438.859117
 30
0.0
 10
287.697117
 20
441.290192
 30
0.0
  0
LWPOLYLINE
  5
199
100
AcDbEntity
  8
0
 62
7
100
AcDbPolyline
 90
14
 70
0
 10
277.217808
 20
420.099117
 30
0.0
 10
291.005117
 20
422.530192
 30
0.0
 10
291.178765
 20
421.545384
 30
0.0
 10
291.966611
 20
421.684302
 30
0.0
 10
294.050390
 20
409.866609
 30
0.0
 10
293.262543
 20
409.727691
 30
0.0
 10
293.436192
 20
408.742883
 30
0.0
 10
279.648883
 20
406.311808
 30
0.0
 10
279.475235
 20
407.296616
 30
0.0
 10
278.687389
 20
407.157698
 30
0.0
 10
276.603610
 20
418.975391
 30
0.0
 10
277.391457
 20
419.114309
 30
0.0
 10
277.217808
 20
420.099117
 30
0.0
 10
291.005117
 20
422.530192
 30
0.0
  0
LWPOLYLINE
  5
19a
100
AcDbEntity
  8
0
 62
7
100
AcDbPolyline
 90
14
 70
0
 10
280.525808
 20
401.338117
 30
0.0
 10
294.313117
 20
403.769192
 30
0.0
 10
294.486765
 20
402.784384
 30
0.0
 10
295.274611
 20
402.923302
 30
0.0
 10
297.358390
 20
391.105609
 30
0.0
 10
296.570543
 20
390.966691
 30
0.0
 10
296.744192
 20
389.981883
 30
0.0
 10
282.956883
 20
387.550808
 30
0.0
 10
282.783235
 20
388.535616
 30
0.0
 10
281.995389
 20
388.396698
 30
0.0
 10
279.911610
 20
400.214391
 30
0.0
 10
280.699457
 20
400.353309
 30
0.0
 10
280.525808
 20
401.338117
 30
0.0
 10
294.313117
 20
403.769192
 30
0.0
  0
LWPOLYLINE
  5
19b
100
AcDbEntity
  8
0
 62
7
100
AcDbPolyline
 90
14
 70
0
 10
283.833808
 20
382.577117
 30
0.0
 10
297.621117
 20
385.008192
 30
0.0
 10
297.794765
 20
384.023384
 30
0.0
 10
298.582611
 20
384.162302
 30
0.0
 10
300.666390
 20
372.344609
 30
0.0
 10
299.878543
 20
372.205691
 30
0.0
 10
300.052192
 20
371.220883
 30
0.0
 10
286.264883
 20
368.789808
 30
0.0
 10
286.091235
 20
369.774616
 30
0.0
 10
285.303389
 20
369.635698
 30
0.0
 10
283.219610
 20
381.453391
 30
0.0
 10
284.007457
 20
381.592309
 30
0.0
 10
283.833808
 20
382.577117
 30
0.0
 10
297.621117
 20
385.008192
 30
0.0
  0
LWPOLYLINE
  5
19c
100
AcDbEntity
  8
0
 62
7
100
AcDbPolyline
 90
14
 70
0
 10
286.575808
 20
476.734117
 30
0.0
 10
300.363117
 20
479.165192
 30
0.0
 10
300.536765
 20
478.180384
 30
0.0
 10
301.324611
 20
478.319302
 30
0.0
 10
303.408390
 20
466.501609
 30
0.0
 10
302.620543
 20
466.362691
 30
0.0
 10
302.794192
 20
465.377883
 30
0.0
 10
289.006883
 20
462.946808
 30
0.0
 10
288.833235
 20
463.931616
 30
0.0
 10
288.045389
 20
463.792698
 30
0.0
 10
285.961610
 20
475.610391
 30
0.0
 10
286.749457
 20
475.749309
 30
0.0
 10
286.575808
 20
476.734117
 30
0.0
 10
300.363117
 20
479.165192
 30
0.0
  0
LWPOLYLINE
  5
19d
100
AcDbEntity
  8
0
 62
7
100
AcDbPolyline
 90
14
 70
0
 10
289.883808
 20
457.973117
 30
0.0
 10
303.671117
 20
460.404192
 30
0.0
 10
303.844765
 20
459.419384
 30
0.0
 10
304.632611
 20
459.558302
 30
0.0
 10
306.716390
 20
447.740609
 30
0.0
 10
305.928543
 20
447.601691
 30
0.0
 10
306.102192
 20
446.616883
 30
0.0
 10
292.314883
 20
444.185808
 30
0.0
 10
292.141235
 20
445.170616
 30
0.0
 10
291.353389
 20
445.031698
 30
0.0
 10
289.269610
 20
456.849391
 30
0.0
 10
290.057457
 20
456.988309
 30
0.0
 10
289.883808
 20
457.973117
 30
0.0
 10
303.671117
 20
460.404192
 30
0.0
  0
LWPOLYLINE
  5
19e
100
AcDbEntity
  8
0
 62
7
100
AcDbPolyline
 90
14
 70
0
 10
293.191808
 20
439.213117
 30
0.0
 10
306.979117
 20
441.644192
 30
0.0
 10
307.152765
 20
440.659384
 30
0.0
 10
307.940611
 20
440.798302
 30
0.0
 10
310.024390
 20
428.980609
 30
0.0
 10
309.236543
 20
428.841691
 30
0.0
 10
309.410192
 20
427.856883
 30
0.0
 10
295.622883
 20
425.425808
 30
0.0
 10
295.449235
 20
426.410616
 30
0.0
 10
294.661389
 20
426.271698
 30
0.0
 10
292.577610
 20
438.089391
 30
0.0
 10
293.365457
 20
438.228309
 30
0.0
 10
293.191808
 20
439.213117
 30
0.0
 10
306.979117
 20
441.644192
 30
0.0
  0
LWPOLYLINE
  5
19f
100
AcDbEntity
  8
0
 62
7
100
AcDbPolyline
 90
14
 70
0
 10
296.499808
 20
420.452117
 30
0.0
 10
310.287117
 20
422.883192
 30
0.0
 10
310.460765
 20
421.898384
 30
0.0
 10
311.248611
 20
422.037302
 30
0.0
 10
313.332390
 20
410.219609
 30
0.0
 10
312.544543
 20
410.080691
 30
0.0
 10
312.718192
 20
409.095883
 30
0.0
 10
298.930883
 20
406.664808
 30
0.0
 10
298.757235
 20
407.649616
 30
0.0
 10
297.969389
 20
407.510698
 30
0.0
 10
295.885610
 20
419.328391
 30
0.0
 10
296.673457
 20
419.467309
 30
0.0
 10
296.499808
 20
420.452117
 30
0.0
 10
310.287117
 20
422.883192
 30
0.0
  0
LWPOLYLINE
  5
1a0
100
AcDbEntity
  8
0
 62
7
100
AcDbPolyline
 90
14
 70
0
 10
299.807808
 20
401.692117
 30
0.0
 10
313.595117
 20
404.123192
 30
0.0
 10
313.768765
 20
403.138384
 30
0.0
 10
314.556611
 20
403.277302
 30
0.0
 10
316.640390
 20
391.459609
 30
0.0
 10
315.852543
 20
391.320691
 30
0.0
 10
316.026192
 20
390.335883
 30
0.0
 10
302.238883
 20
387.904808
 30
0.0
 10
302.065235
 20
388.889616
 30
0.0
 10
301.277389
 20
388.750698
 30
0.0
 10
299.193610
 20
400.568391
 30
0.0
 10
299.981457
 20
400.707309
 30
0.0
 10
299.807808
 20
401.692117
 30
0.0
 10
313.595117
 20
404.123192
 30
0.0
  0
LWPOLYLINE
  5
1a1
100
AcDbEntity
  8
0
 62
7
100
AcDbPolyline
 90
14
 70
0
 10
303.115808
 20
382.931117
 30
0.0
 10
316.903117
 20
385.362192
 30
0.0
 10
317.076765
 20
384.377384
 30
0.0
 10
317.864611
 20
384.516302
 30
0.0
 10
319.948390
 20
372.698609
 30
0.0
 10
319.160543
 20
372.559691
 30
0.0
 10
319.334192
 20
371.574883
 30
0.0
 10
305.546883
 20
369.143808
 30
0.0
 10
305.373235
 20
370.128616
 30
0.0
 10
304.585389
 20
369.989698
 30
0.0
 10
302.501610
 20
381.807391
 30
0.0
 10
303.289457
 20
381.946309
 30
0.0
 10
303.115808
 20
382.931117
 30
0.0
 10
316.903117
 20
385.362192
 30
0.0
  0
LWPOLYLINE
  5
1a2
100
AcDbEntity
  8
0
 62
7
100
AcDbPolyline
 90
14
 70
0
 10
305.335808
 20
480.042117
 30
0.0
 10
319.123117
 20
482.473192
 30
0.0
 10
319.296765
 20
481.488384
 30
0.0
 10
320.084611
 20
481.627302
 30
0.0
 10
322.168390
 20
469.809609
 30
0.0
 10
321.380543
 20
469.670691
 30
0.0
 10
321.554192
 20
468.685883
 30
0.0
 10
307.766883
 20
466.254808
 30
0.0
 10
307.593235
 20
467.239616
 30
0.0
 10
306.805389
 20
467.100698
 30
0.0
 10
304.721610
 20
478.918391
 30
0.0
 10
305.509457
 20
479.057309
 30
0.0
 10
305.335808
 20
480.042117
 30
0.0
 10
319.123117
 20
482.473192
 30
0.0
  0
LWPOLYLINE
  5
1a3
100
AcDbEntity
  8
0
 62
7
100
AcDbPolyline
 90
14
 70
0
 10
308.643808
 20
461.281117
 30
0.0
 10
322.431117
 20
463.712192
 30
0.0
 10
322.604765
 20
462.727384
 30
0.0
 10
323.392611
 20
462.866302
 30
0.0
 10
325.476390
 20
451.048609
 30
0.0
 10
324.688543
 20
450.909691
 30
0.0
 10
324.862192
 20
449.924883
 30
0.0
 10
311.074883
 20
447.493808
 30
0.0
 10
310.901235
 20
448.478616
 30
0.0
 10
310.113389
 20
448.339698
 30
0.0
 10
308.029610
 20
460.157391
 30
0.0
 10
308.817457
 20
460.296309
 30
0.0
 10
308.643808
 20
461.281117
 30
0.0
 10
322.431117
 20
463.712192
 30
0.0
  0
LWPOLYLINE
  5
1a4
100
AcDbEntity
  8
0
 62
7
100
AcDbPolyline
 90
14
 70
0
 10
311.951808
 20
442.521117
 30
0.0
 10
325.739117
 20
444.952192
 30
0.0
 10
325.912765
 20
443.967384
 30
0.0
 10
326.700611
 20
444.106302
 30
0.0
 10
328.784390
 20
432.288609
 30
0.0
 10
327.996543
 20
432.149691
 30
0.0
 10
328.170192
 20
431.164883
 30
0.0
 10
314.382883
 20
428.733808
 30
0.0
 10
314.209235
 20
429.718616
 30
0.0
 10
313.421389
 20
429.579698
 30
0.0
 10
311.337610
 20
441.397391
 30
0.0
 10
312.125457
 20
441.536309
 30
0.0
 10
311.951808
 20
442.521117
 30
0.0
 10
325.739117
 20
444.952192
 30
0.0
  0
LWPOLYLINE
  5
1a5
100
AcDbEntity
  8
0
 62
7
100
AcDbPolyline
 90
14
 70
0
 10
315.259808
 20
423.760117
 30
0.0
 10
329.047117
 20
426.191192
 30
0.0
 10
329.220765
 20
425.206384
 30
0.0
 10
330.008611
 20
425.345302
 30
0.0
 10
332.092390
 20
413.527609
 30
0.0
 10
331.304543
 20
413.388691
 30
0.0
 10
331.478192
 20
412.403883
 30
0.0
 10
317.690883
 20
409.972808
 30
0.0
 10
317.517235
 20
410.957616
 30
0.0
 10
316.729389
 20
410.818698
 30
0.0
 10
314.645610
 20
422.636391
 30
0.0
 10
315.433457
 20
422.775309
 30
0.0
 10
315.259808
 20
423.760117
 30
0.0
 10
329.047117
 20
426.191192
 30
0.0
  0
LWPOLYLINE
  5
1a6
100
AcDbEntity
  8
0
 62
7
100
AcDbPolyline
 90
14
 70
0
 10
318.567808
 20
405.000117
 30
0.0
 10
332.355117
 20
407.431192
 30
0.0
 10
332.528765
 20
406.446384
 30
0.0
 10
333.316611
 20
406.585302
 30
0.0
 10
335.400390
 20
394.767609
 30
0.0
 10
334.612543
 20
394.628691
 30
0.0
 10
334.786192
 20
393.643883
 30
0.0
 10
320.998883
 20
391.212808
 30
0.0
 10
320.825235
 20
392.197616
 30
0.0
 10
320.037389
 20
392.058698
 30
0.0
 10
317.953610
 20
403.876391
 30
0.0
 10
318.741457
 20
404.015309
 30
0.0
 10
318.567808
 20
405.000117
 30
0.0
 10
332.355117
 20
407.431192
 30
0.0
  0
LWPOLYLINE
  5
1a7
100
AcDbEntity
  8
0
 62
7
100
AcDbPolyline
 90
14
 70
0
 10
321.875808
 20
386.239117
 30
0.0
 10
335.663117
 20
388.670192
 30
0.0
 10
335.836765
 20
387.685384
 30
0.0
 10
336.624611
 20
387.824302
 30
0.0
 10
338.708390
 20
376.006609
 30
0.0
 10
337.920543
 20
375.867691
 30
0.0
 10
338.094192
 20
374.882883
 30
0.0
 10
324.306883
 20
372.451808
 30
0.0
 10
324.133235
 20
373.436616
 30
0.0
 10
323.345389
 20
373.297698
 30
0.0
 10
321.261610
 20
385.115391
 30
0.0
 10
322.049457
 20
385.254309
 30
0.0
 10
321.875808
 20
386.239117
 30
0.0
 10
335.663117
 20
388.670192
 30
0.0
  0
ENDSEC
  0
SECTION
  2
OBJECTS
  0
DICTIONARY
  5
C
330
0
100
AcDbDictionary
  3
ACAD_GROUP
350
D
  3
ACAD_MLINESTYLE
350
17
  0
DICTIONARY
  5
D
330
C
100
AcDbDictionary
  0
DICTIONARY
  5
1A
330
C
100
AcDbDictionary
  0
DICTIONARY
  5
17
330
C
100
AcDbDictionary
  3
STANDARD
350
18
  0
DICTIONARY
  5
19
330
C
100
AcDbDictionary
  0
ENDSEC
  0
EOF
