  0
SECTION
  2
HEADER
  9
$ACADVER
  1
AC1014
  9
$HANDSEED
  5
FFFF
  9
$MEASUREMENT
 70
     1
  0
ENDSEC
  0
SECTION
  2
TABLES
  0
TABLE
  2
VPORT
  5
8
330
0
100
AcDbSymbolTable
 70
     4
  0
VPORT
  5
2E
330
8
100
AcDbSymbolTableRecord
100
AcDbViewportTableRecord
  2
*ACTIVE
 70
     0
 10
0.0
 20
0.0
 11
1.0
 21
1.0
 12
210.0
 22
148.5
 13
0.0
 23
0.0
 14
10.0
 24
10.0
 15
10.0
 25
10.0
 16
0.0
 26
0.0
 36
1.0
 17
0.0
 27
0.0
 37
0.0
 40
341.0
 41
1.24
 42
50.0
 43
0.0
 44
0.0
 50
0.0
 51
0.0
 71
     0
 72
   100
 73
     1
 74
     3
 75
     0
 76
     0
 77
     0
 78
     0
  0
ENDTAB
  0
TABLE
  2
LTYPE
  5
5
330
0
100
AcDbSymbolTable
 70
     1
  0
LTYPE
  5
14
330
5
100
AcDbSymbolTableRecord
100
AcDbLinetypeTableRecord
  2
BYBLOCK
 70
     0
  3

 72
    65
 73
     0
 40
0.0
  0
LTYPE
  5
15
330
5
100
AcDbSymbolTableRecord
100
AcDbLinetypeTableRecord
  2
BYLAYER
 70
     0
  3

 72
    65
 73
     0
 40
0.0
  0
LTYPE
  5
16
330
5
100
AcDbSymbolTableRecord
100
AcDbLinetypeTableRecord
  2
CONTINUOUS
 70
     0
  3
Solid line
 72
    65
 73
     0
 40
0.0
  0
ENDTAB
  0
TABLE
  2
LAYER
  5
2
100
AcDbSymbolTable
 70
2
  0
LAYER
  5
50
100
AcDbSymbolTableRecord
100
AcDbLayerTableRecord
  2
0
 70
0
  6
CONTINUOUS
  0
LAYER
  5
51
100
AcDbSymbolTableRecord
100
AcDbLayerTableRecord
  2
Layer_1
 70
0
  6
CONTINUOUS
  0
ENDTAB
  0
TABLE
  2
STYLE
  5
3
330
0
100
AcDbSymbolTable
 70
     1
  0
STYLE
  5
11
330
3
100
AcDbSymbolTableRecord
100
AcDbTextStyleTableRecord
  2
STANDARD
 70
     0
 40
0.0
 41
1.0
 50
0.0
 71
     0
 42
2.5
  3
txt
  4

  0
ENDTAB
  0
TABLE
  2
VIEW
  5
6
330
0
100
AcDbSymbolTable
 70
     0
  0
ENDTAB
  0
TABLE
  2
UCS
  5
7
330
0
100
AcDbSymbolTable
 70
     0
  0
ENDTAB
  0
TABLE
  2
APPID
  5
9
330
0
100
AcDbSymbolTable
 70
     2
  0
APPID
  5
12
330
9
100
AcDbSymbolTableRecord
100
AcDbRegAppTableRecord
  2
ACAD
 70
     0
  0
ENDTAB
  0
TABLE
  2
DIMSTYLE
  5
A
330
0
100
AcDbSymbolTable
 70
     1
  0
DIMSTYLE
105
27
330
A
100
AcDbSymbolTableRecord
100
AcDbDimStyleTableRecord
  2
ISO-25
 70
     0
  3

  4

  5

  6

  7

 40
1.0
 41
2.5
 42
0.625
 43
3.75
 44
1.25
 45
0.0
 46
0.0
 47
0.0
 48
0.0
140
2.5
141
2.5
142
0.0
143
0.03937007874016
144
1.0
145
0.0
146
1.0
147
0.625
 71
     0
 72
     0
 73
     0
 74
     0
 75
     0
 76
     0
 77
     1
 78
     8
170
     0
171
     3
172
     1
173
     0
174
     0
175
     0
176
     0
177
     0
178
     0
270
     2
271
     2
272
     2
273
     2
274
     3
340
11
275
     0
280
     0
281
     0
282
     0
283
     0
284
     8
285
     0
286
     0
287
     3
288
     0
  0
ENDTAB
  0
TABLE
  2
BLOCK_RECORD
  5
1
330
0
100
AcDbSymbolTable
 70
     1
  0
BLOCK_RECORD
  5
1F
330
1
100
AcDbSymbolTableRecord
100
AcDbBlockTableRecord
  2
*MODEL_SPACE
  0
BLOCK_RECORD
  5
1B
330
1
100
AcDbSymbolTableRecord
100
AcDbBlockTableRecord
  2
*PAPER_SPACE
  0
ENDTAB
  0
ENDSEC
  0
SECTION
  2
BLOCKS
  0
BLOCK
  5
20
330
1F
100
AcDbEntity
  8
0
100
AcDbBlockBegin
  2
*MODEL_SPACE
 70
     0
 10
0.0
 20
0.0
 30
0.0
  3
*MODEL_SPACE
  1

  0
ENDBLK
  5
21
330
1F
100
AcDbEntity
  8
0
100
AcDbBlockEnd
  0
BLOCK
  5
1C
330
1B
100
AcDbEntity
 67
     1
  8
0
100
AcDbBlockBegin
  2
*PAPER_SPACE
  1

  0
ENDBLK
  5
1D
330
1B
100
AcDbEntity
 67
     1
  8
0
100
AcDbBlockEnd
  0
ENDSEC
  0
SECTION
  2
ENTITIES
  0
LWPOLYLINE
  5
100
100
AcDbEntity
  8
Layer_1
 62
1
100
AcDbPolyline
 90
14
 70
0
 10
36.174979
 20
150.373487
 30
0.0
 10
49.962288
 20
147.942412
 30
0.0
 10
49.788640
 20
146.957604
 30
0.0
 10
50.576486
 20
146.818686
 30
0.0
 10
48.492708
 20
135.000993
 30
0.0
 10
47.704862
 20
135.139911
 30
0.0
 10
47.531213
 20
134.155103
 30
0.0
 10
33.743905
 20
136.586178
 30
0.0
 10
33.917553
 20
137.570986
 30
0.0
 10
33.129707
 20
137.709904
 30
0.0
 10
35.213485
 20
149.527597
 30
0.0
 10
36.001331
 20
149.388679
 30
0.0
 10
36.174979
 20
150.373487
 30
0.0
 10
49.962288
 20
147.942412
 30
0.0
  0
LWPOLYLINE
  5
101
100
AcDbEntity
  8
Layer_1
 62
1
100
AcDbPolyline
 90
14
 70
0
 10
32.875664
 20
131.662139
 30
0.0
 10
46.662972
 20
129.231065
 30
0.0
 10
46.489324
 20
128.246257
 30
0.0
 10
47.277170
 20
128.107338
 30
0.0
 10
45.193392
 20
116.289645
 30
0.0
 10
44.405546
 20
116.428564
 30
0.0
 10
44.231898
 20
115.443756
 30
0.0
 10
30.444589
 20
117.874831
 30
0.0
 10
30.618238
 20
118.859638
 30
0.0
 10
29.830391
 20
118.998557
 30
0.0
 10
31.914170
 20
130.816250
 30
0.0
 10
32.702016
 20
130.677331
 30
0.0
 10
32.875664
 20
131.662139
 30
0.0
 10
46.662972
 20
129.231065
 30
0.0
  0
LWPOLYLINE
  5
102
100
AcDbEntity
  8
Layer_1
 62
1
100
AcDbPolyline
 90
14
 70
0
 10
29.576349
 20
112.950792
 30
0.0
 10
43.363657
 20
110.519717
 30
0.0
 10
43.190009
 20
109.534910
 30
0.0
 10
43.977855
 20
109.395991
 30
0.0
 10
41.894077
 20
97.578298
 30
0.0
 10
41.106231
 20
97.717217
 30
0.0
 10
40.932583
 20
96.732409
 30
0.0
 10
27.145274
 20
99.163483
 30
0.0
 10
27.318922
 20
100.148291
 30
0.0
 10
26.531076
 20
100.287210
 30
0.0
 10
28.614854
 20
112.104903
 30
0.0
 10
29.402700
 20
111.965984
 30
0.0
 10
29.576349
 20
112.950792
 30
0.0
 10
43.363657
 20
110.519717
 30
0.0
  0
LWPOLYLINE
  5
103
100
AcDbEntity
  8
Layer_1
 62
1
100
AcDbPolyline
 90
14
 70
0
 10
26.277033
 20
94.239445
 30
0.0
 10
40.064342
 20
91.808370
 30
0.0
 10
39.890694
 20
90.823562
 30
0.0
 10
40.678540
 20
90.684644
 30
0.0
 10
38.594762
 20
78.866951
 30
0.0
 10
37.806915
 20
79.005869
 30
0.0
 10
37.633267
 20
78.021062
 30
0.0
 10
23.845959
 20
80.452136
 30
0.0
 10
24.019607
 20
81.436944
 30
0.0
 10
23.231761
 20
81.575862
 30
0.0
 10
25.315539
 20
93.393555
 30
0.0
 10
26.103385
 20
93.254637
 30
0.0
 10
26.277033
 20
94.239445
 30
0.0
 10
40.064342
 20
91.808370
 30
0.0
  0
LWPOLYLINE
  5
104
100
AcDbEntity
  8
Layer_1
 62
1
100
AcDbPolyline
 90
14
 70
0
 10
22.977718
 20
75.528097
 30
0.0
 10
36.765026
 20
73.097023
 30
0.0
 10
36.591378
 20
72.112215
 30
0.0
 10
37.379224
 20
71.973296
 30
0.0
 10
35.295446
 20
60.155603
 30
0.0
 10
34.507600
 20
60.294522
 30
0.0
 10
34.333952
 20
59.309714
 30
0.0
 10
20.546643
 20
61.740789
 30
0.0
 10
20.720291
 20
62.725596
 30
0.0
 10
19.932445
 20
62.864515
 30
0.0
 10
22.016223
 20
74.682208
 30
0.0
 10
22.804070
 20
74.543290
 30
0.0
 10
22.977718
 20
75.528097
 30
0.0
 10
36.765026
 20
73.097023
 30
0.0
  0
LWPOLYLINE
  5
105
100
AcDbEntity
  8
Layer_1
 62
1
100
AcDbPolyline
 90
14
 70
0
 10
19.678402
 20
56.816750
 30
0.0
 10
33.465711
 20
54.385675
 30
0.0
 10
33.292063
 20
53.400868
 30
0.0
 10
34.079909
 20
53.261949
 30
0.0
 10
31.996131
 20
41.444256
 30
0.0
 10
31.208285
 20
41.583175
 30
0.0
 10
31.034636
 20
40.598367
 30
0.0
 10
17.247328
 20
43.029441
 30
0.0
 10
17.420976
 20
44.014249
 30
0.0
 10
16.633130
 20
44.153168
 30
0.0
 10
18.716908
 20
55.970861
 30
0.0
 10
19.504754
 20
55.831942
 30
0.0
 10
19.678402
 20
56.816750
 30
0.0
 10
33.465711
 20
54.385675
 30
0.0
  0
LWPOLYLINE
  5
106
100
AcDbEntity
  8
Layer_1
 62
1
100
AcDbPolyline
 90
14
 70
0
 10
54.886327
 20
147.074171
 30
0.0
 10
68.673635
 20
144.643097
 30
0.0
 10
68.499987
 20
143.658289
 30
0.0
 10
69.287833
 20
143.519370
 30
0.0
 10
67.204055
 20
131.701677
 30
0.0
 10
66.416209
 20
131.840596
 30
0.0
 10
66.242561
 20
130.855788
 30
0.0
 10
52.455252
 20
133.286863
 30
0.0
 10
52.628900
 20
134.271670
 30
0.0
 10
51.841054
 20
134.410589
 30
0.0
 10
53.924832
 20
146.228282
 30
0.0
 10
54.712678
 20
146.089363
 30
0.0
 10
54.886327
 20
147.074171
 30
0.0
 10
68.673635
 20
144.643097
 30
0.0
  0
LWPOLYLINE
  5
107
100
AcDbEntity
  8
Layer_1
 62
1
100
AcDbPolyline
 90
14
 70
0
 10
51.587011
 20
128.362824
 30
0.0
 10
65.374320
 20
125.931749
 30
0.0
 10
65.200672
 20
124.946942
 30
0.0
 10
65.988518
 20
124.808023
 30
0.0
 10
63.904740
 20
112.990330
 30
0.0
 10
63.116893
 20
113.129249
 30
0.0
 10
62.943245
 20
112.144441
 30
0.0
 10
49.155937
 20
114.575515
 30
0.0
 10
49.329585
 20
115.560323
 30
0.0
 10
48.541739
 20
115.699242
 30
0.0
 10
50.625517
 20
127.516935
 30
0.0
 10
51.413363
 20
127.378016
 30
0.0
 10
51.587011
 20
128.362824
 30
0.0
 10
65.374320
 20
125.931749
 30
0.0
  0
LWPOLYLINE
  5
108
100
AcDbEntity
  8
Layer_1
 62
1
100
AcDbPolyline
 90
14
 70
0
 10
48.287696
 20
109.651477
 30
0.0
 10
62.075004
 20
107.220402
 30
0.0
 10
61.901356
 20
106.235594
 30
0.0
 10
62.689202
 20
106.096676
 30
0.0
 10
60.605424
 20
94.278983
 30
0.0
 10
59.817578
 20
94.417901
 30
0.0
 10
59.643930
 20
93.433093
 30
0.0
 10
45.856621
 20
95.864168
 30
0.0
 10
46.030270
 20
96.848976
 30
0.0
 10
45.242423
 20
96.987894
 30
0.0
 10
47.326201
 20
108.805587
 30
0.0
 10
48.114048
 20
108.666669
 30
0.0
 10
48.287696
 20
109.651477
 30
0.0
 10
62.075004
 20
107.220402
 30
0.0
  0
LWPOLYLINE
  5
109
100
AcDbEntity
  8
Layer_1
 62
1
100
AcDbPolyline
 90
14
 70
0
 10
44.988380
 20
90.940129
 30
0.0
 10
58.775689
 20
88.509055
 30
0.0
 10
58.602041
 20
87.524247
 30
0.0
 10
59.389887
 20
87.385328
 30
0.0
 10
57.306109
 20
75.567635
 30
0.0
 10
56.518263
 20
75.706554
 30
0.0
 10
56.344615
 20
74.721746
 30
0.0
 10
42.557306
 20
77.152821
 30
0.0
 10
42.730954
 20
78.137628
 30
0.0
 10
41.943108
 20
78.276547
 30
0.0
 10
44.026886
 20
90.094240
 30
0.0
 10
44.814732
 20
89.955321
 30
0.0
 10
44.988380
 20
90.940129
 30
0.0
 10
58.775689
 20
88.509055
 30
0.0
  0
LWPOLYLINE
  5
10a
100
AcDbEntity
  8
Layer_1
 62
1
100
AcDbPolyline
 90
14
 70
0
 10
41.689065
 20
72.228782
 30
0.0
 10
55.476374
 20
69.797707
 30
0.0
 10
55.302725
 20
68.812900
 30
0.0
 10
56.090572
 20
68.673981
 30
0.0
 10
54.006794
 20
56.856288
 30
0.0
 10
53.218947
 20
56.995207
 30
0.0
 10
53.045299
 20
56.010399
 30
0.0
 10
39.257991
 20
58.441473
 30
0.0
 10
39.431639
 20
59.426281
 30
0.0
 10
38.643793
 20
59.565200
 30
0.0
 10
40.727571
 20
71.382893
 30
0.0
 10
41.515417
 20
71.243974
 30
0.0
 10
41.689065
 20
72.228782
 30
0.0
 10
55.476374
 20
69.797707
 30
0.0
  0
LWPOLYLINE
  5
10b
100
AcDbEntity
  8
Layer_1
 62
1
100
AcDbPolyline
 90
14
 70
0
 10
38.389750
 20
53.517435
 30
0.0
 10
52.177058
 20
51.086360
 30
0.0
 10
52.003410
 20
50.101552
 30
0.0
 10
52.791256
 20
49.962634
 30
0.0
 10
50.707478
 20
38.144941
 30
0.0
 10
49.919632
 20
38.283859
 30
0.0
 10
49.745984
 20
37.299052
 30
0.0
 10
35.958675
 20
39.730126
 30
0.0
 10
36.132323
 20
40.714934
 30
0.0
 10
35.344477
 20
40.853852
 30
0.0
 10
37.428255
 20
52.671545
 30
0.0
 10
38.216102
 20
52.532627
 30
0.0
 10
38.389750
 20
53.517435
 30
0.0
 10
52.177058
 20
51.086360
 30
0.0
  0
LWPOLYLINE
  5
10c
100
AcDbEntity
  8
Layer_1
 62
1
100
AcDbPolyline
 90
14
 70
0
 10
73.944970
 20
145.744471
 30
0.0
 10
87.732279
 20
143.313397
 30
0.0
 10
87.558631
 20
142.328589
 30
0.0
 10
88.346477
 20
142.189670
 30
0.0
 10
86.262699
 20
130.371977
 30
0.0
 10
85.474852
 20
130.510896
 30
0.0
 10
85.301204
 20
129.526088
 30
0.0
 10
71.513896
 20
131.957163
 30
0.0
 10
71.687544
 20
132.941970
 30
0.0
 10
70.899698
 20
133.080889
 30
0.0
 10
72.983476
 20
144.898582
 30
0.0
 10
73.771322
 20
144.759664
 30
0.0
 10
73.944970
 20
145.744471
 30
0.0
 10
87.732279
 20
143.313397
 30
0.0
  0
LWPOLYLINE
  5
10d
100
AcDbEntity
  8
Layer_1
 62
1
100
AcDbPolyline
 90
14
 70
0
 10
70.645655
 20
127.033124
 30
0.0
 10
84.432963
 20
124.602049
 30
0.0
 10
84.259315
 20
123.617242
 30
0.0
 10
85.047161
 20
123.478323
 30
0.0
 10
82.963383
 20
111.660630
 30
0.0
 10
82.175537
 20
111.799549
 30
0.0
 10
82.001889
 20
110.814741
 30
0.0
 10
68.214580
 20
113.245815
 30
0.0
 10
68.388229
 20
114.230623
 30
0.0
 10
67.600382
 20
114.369542
 30
0.0
 10
69.684160
 20
126.187235
 30
0.0
 10
70.472007
 20
126.048316
 30
0.0
 10
70.645655
 20
127.033124
 30
0.0
 10
84.432963
 20
124.602049
 30
0.0
  0
LWPOLYLINE
  5
10e
100
AcDbEntity
  8
Layer_1
 62
1
100
AcDbPolyline
 90
14
 70
0
 10
67.346339
 20
108.321777
 30
0.0
 10
81.133648
 20
105.890702
 30
0.0
 10
80.960000
 20
104.905894
 30
0.0
 10
81.747846
 20
104.766976
 30
0.0
 10
79.664068
 20
92.949283
 30
0.0
 10
78.876222
 20
93.088201
 30
0.0
 10
78.702574
 20
92.103394
 30
0.0
 10
64.915265
 20
94.534468
 30
0.0
 10
65.088913
 20
95.519276
 30
0.0
 10
64.301067
 20
95.658194
 30
0.0
 10
66.384845
 20
107.475887
 30
0.0
 10
67.172691
 20
107.336969
 30
0.0
 10
67.346339
 20
108.321777
 30
0.0
 10
81.133648
 20
105.890702
 30
0.0
  0
LWPOLYLINE
  5
10f
100
AcDbEntity
  8
Layer_1
 62
1
100
AcDbPolyline
 90
14
 70
0
 10
64.047024
 20
89.610429
 30
0.0
 10
77.834333
 20
87.179355
 30
0.0
 10
77.660684
 20
86.194547
 30
0.0
 10
78.448531
 20
86.055629
 30
0.0
 10
76.364753
 20
74.237936
 30
0.0
 10
75.576906
 20
74.376854
 30
0.0
 10
75.403258
 20
73.392046
 30
0.0
 10
61.615950
 20
75.823121
 30
0.0
 10
61.789598
 20
76.807929
 30
0.0
 10
61.001752
 20
76.946847
 30
0.0
 10
63.085530
 20
88.764540
 30
0.0
 10
63.873376
 20
88.625622
 30
0.0
 10
64.047024
 20
89.610429
 30
0.0
 10
77.834333
 20
87.179355
 30
0.0
  0
LWPOLYLINE
  5
110
100
AcDbEntity
  8
Layer_1
 62
1
100
AcDbPolyline
 90
14
 70
0
 10
60.747709
 20
70.899082
 30
0.0
 10
74.535017
 20
68.468008
 30
0.0
 10
74.361369
 20
67.483200
 30
0.0
 10
75.149215
 20
67.344281
 30
0.0
 10
73.065437
 20
55.526588
 30
0.0
 10
72.277591
 20
55.665507
 30
0.0
 10
72.103943
 20
54.680699
 30
0.0
 10
58.316634
 20
57.111773
 30
0.0
 10
58.490282
 20
58.096581
 30
0.0
 10
57.702436
 20
58.235500
 30
0.0
 10
59.786214
 20
70.053193
 30
0.0
 10
60.574061
 20
69.914274
 30
0.0
 10
60.747709
 20
70.899082
 30
0.0
 10
74.535017
 20
68.468008
 30
0.0
  0
LWPOLYLINE
  5
111
100
AcDbEntity
  8
Layer_1
 62
1
100
AcDbPolyline
 90
14
 70
0
 10
57.448393
 20
52.187735
 30
0.0
 10
71.235702
 20
49.756660
 30
0.0
 10
71.062054
 20
48.771852
 30
0.0
 10
71.849900
 20
48.632934
 30
0.0
 10
69.766122
 20
36.815241
 30
0.0
 10
68.978276
 20
36.954159
 30
0.0
 10
68.804627
 20
35.969352
 30
0.0
 10
55.017319
 20
38.400426
 30
0.0
 10
55.190967
 20
39.385234
 30
0.0
 10
54.403121
 20
39.524152
 30
0.0
 10
56.486899
 20
51.341846
 30
0.0
 10
57.274745
 20
51.202927
 30
0.0
 10
57.448393
 20
52.187735
 30
0.0
 10
71.235702
 20
49.756660
 30
0.0
  0
LWPOLYLINE
  5
112
100
AcDbEntity
  8
Layer_1
 62
1
100
AcDbPolyline
 90
14
 70
0
 10
93.698207
 20
148.354002
 30
0.0
 10
107.485515
 20
145.922928
 30
0.0
 10
107.311867
 20
144.938120
 30
0.0
 10
108.099713
 20
144.799202
 30
0.0
 10
106.015935
 20
132.981509
 30
0.0
 10
105.228089
 20
133.120427
 30
0.0
 10
105.054441
 20
132.135619
 30
0.0
 10
91.267132
 20
134.566694
 30
0.0
 10
91.440780
 20
135.551502
 30
0.0
 10
90.652934
 20
135.690420
 30
0.0
 10
92.736712
 20
147.508113
 30
0.0
 10
93.524558
 20
147.369195
 30
0.0
 10
93.698207
 20
148.354002
 30
0.0
 10
107.485515
 20
145.922928
 30
0.0
  0
LWPOLYLINE
  5
113
100
AcDbEntity
  8
Layer_1
 62
1
100
AcDbPolyline
 90
14
 70
0
 10
90.398891
 20
129.642655
 30
0.0
 10
104.186200
 20
127.211581
 30
0.0
 10
104.012552
 20
126.226773
 30
0.0
 10
104.800398
 20
126.087854
 30
0.0
 10
102.716620
 20
114.270161
 30
0.0
 10
101.928773
 20
114.409080
 30
0.0
 10
101.755125
 20
113.424272
 30
0.0
 10
87.967817
 20
115.855347
 30
0.0
 10
88.141465
 20
116.840154
 30
0.0
 10
87.353619
 20
116.979073
 30
0.0
 10
89.437397
 20
128.796766
 30
0.0
 10
90.225243
 20
128.657847
 30
0.0
 10
90.398891
 20
129.642655
 30
0.0
 10
104.186200
 20
127.211581
 30
0.0
  0
LWPOLYLINE
  5
114
100
AcDbEntity
  8
Layer_1
 62
1
100
AcDbPolyline
 90
14
 70
0
 10
87.099576
 20
110.931308
 30
0.0
 10
100.886884
 20
108.500233
 30
0.0
 10
100.713236
 20
107.515426
 30
0.0
 10
101.501082
 20
107.376507
 30
0.0
 10
99.417304
 20
95.558814
 30
0.0
 10
98.629458
 20
95.697733
 30
0.0
 10
98.455810
 20
94.712925
 30
0.0
 10
84.668501
 20
97.143999
 30
0.0
 10
84.842150
 20
98.128807
 30
0.0
 10
84.054303
 20
98.267726
 30
0.0
 10
86.138081
 20
110.085419
 30
0.0
 10
86.925928
 20
109.946500
 30
0.0
 10
87.099576
 20
110.931308
 30
0.0
 10
100.886884
 20
108.500233
 30
0.0
  0
LWPOLYLINE
  5
115
100
AcDbEntity
  8
Layer_1
 62
1
100
AcDbPolyline
 90
14
 70
0
 10
83.800260
 20
92.219960
 30
0.0
 10
97.587569
 20
89.788886
 30
0.0
 10
97.413921
 20
88.804078
 30
0.0
 10
98.201767
 20
88.665160
 30
0.0
 10
96.117989
 20
76.847467
 30
0.0
 10
95.330143
 20
76.986385
 30
0.0
 10
95.156495
 20
76.001577
 30
0.0
 10
81.369186
 20
78.432652
 30
0.0
 10
81.542834
 20
79.417460
 30
0.0
 10
80.754988
 20
79.556378
 30
0.0
 10
82.838766
 20
91.374071
 30
0.0
 10
83.626612
 20
91.235153
 30
0.0
 10
83.800260
 20
92.219960
 30
0.0
 10
97.587569
 20
89.788886
 30
0.0
  0
LWPOLYLINE
  5
116
100
AcDbEntity
  8
Layer_1
 62
1
100
AcDbPolyline
 90
14
 70
0
 10
80.500945
 20
73.508613
 30
0.0
 10
94.288254
 20
71.077539
 30
0.0
 10
94.114605
 20
70.092731
 30
0.0
 10
94.902452
 20
69.953812
 30
0.0
 10
92.818674
 20
58.136119
 30
0.0
 10
92.030827
 20
58.275038
 30
0.0
 10
91.857179
 20
57.290230
 30
0.0
 10
78.069871
 20
59.721305
 30
0.0
 10
78.243519
 20
60.706112
 30
0.0
 10
77.455673
 20
60.845031
 30
0.0
 10
79.539451
 20
72.662724
 30
0.0
 10
80.327297
 20
72.523805
 30
0.0
 10
80.500945
 20
73.508613
 30
0.0
 10
94.288254
 20
71.077539
 30
0.0
  0
LWPOLYLINE
  5
117
100
AcDbEntity
  8
Layer_1
 62
1
100
AcDbPolyline
 90
14
 70
0
 10
77.201630
 20
54.797266
 30
0.0
 10
90.988938
 20
52.366191
 30
0.0
 10
90.815290
 20
51.381384
 30
0.0
 10
91.603136
 20
51.242465
 30
0.0
 10
89.519358
 20
39.424772
 30
0.0
 10
88.731512
 20
39.563691
 30
0.0
 10
88.557864
 20
38.578883
 30
0.0
 10
74.770555
 20
41.009957
 30
0.0
 10
74.944203
 20
41.994765
 30
0.0
 10
74.156357
 20
42.133684
 30
0.0
 10
76.240135
 20
53.951377
 30
0.0
 10
77.027982
 20
53.812458
 30
0.0
 10
77.201630
 20
54.797266
 30
0.0
 10
90.988938
 20
52.366191
 30
0.0
  0
LWPOLYLINE
  5
118
100
AcDbEntity
  8
Layer_1
 62
1
100
AcDbPolyline
 90
14
 70
0
 10
111.367665
 20
139.145841
 30
0.0
 10
125.154973
 20
136.714766
 30
0.0
 10
124.981325
 20
135.729958
 30
0.0
 10
125.769171
 20
135.591040
 30
0.0
 10
123.685393
 20
123.773347
 30
0.0
 10
122.897547
 20
123.912265
 30
0.0
 10
122.723899
 20
122.927457
 30
0.0
 10
108.936590
 20
125.358532
 30
0.0
 10
109.110239
 20
126.343340
 30
0.0
 10
108.322392
 20
126.482258
 30
0.0
 10
110.406170
 20
138.299951
 30
0.0
 10
111.194017
 20
138.161033
 30
0.0
 10
111.367665
 20
139.145841
 30
0.0
 10
125.154973
 20
136.714766
 30
0.0
  0
LWPOLYLINE
  5
119
100
AcDbEntity
  8
Layer_1
 62
1
100
AcDbPolyline
 90
14
 70
0
 10
108.068349
 20
120.434493
 30
0.0
 10
121.855658
 20
118.003419
 30
0.0
 10
121.682010
 20
117.018611
 30
0.0
 10
122.469856
 20
116.879692
 30
0.0
 10
120.386078
 20
105.061999
 30
0.0
 10
119.598232
 20
105.200918
 30
0.0
 10
119.424584
 20
104.216110
 30
0.0
 10
105.637275
 20
106.647185
 30
0.0
 10
105.810923
 20
107.631992
 30
0.0
 10
105.023077
 20
107.770911
 30
0.0
 10
107.106855
 20
119.588604
 30
0.0
 10
107.894701
 20
119.449685
 30
0.0
 10
108.068349
 20
120.434493
 30
0.0
 10
121.855658
 20
118.003419
 30
0.0
  0
LWPOLYLINE
  5
11a
100
AcDbEntity
  8
Layer_1
 62
1
100
AcDbPolyline
 90
14
 70
0
 10
104.769034
 20
101.723146
 30
0.0
 10
118.556343
 20
99.292071
 30
0.0
 10
118.382694
 20
98.307264
 30
0.0
 10
119.170541
 20
98.168345
 30
0.0
 10
117.086763
 20
86.350652
 30
0.0
 10
116.298916
 20
86.489571
 30
0.0
 10
116.125268
 20
85.504763
 30
0.0
 10
102.337960
 20
87.935837
 30
0.0
 10
102.511608
 20
88.920645
 30
0.0
 10
101.723762
 20
89.059564
 30
0.0
 10
103.807540
 20
100.877257
 30
0.0
 10
104.595386
 20
100.738338
 30
0.0
 10
104.769034
 20
101.723146
 30
0.0
 10
118.556343
 20
99.292071
 30
0.0
  0
LWPOLYLINE
  5
11b
100
AcDbEntity
  8
Layer_1
 62
1
100
AcDbPolyline
 90
14
 70
0
 10
101.469719
 20
83.011799
 30
0.0
 10
115.257027
 20
80.580724
 30
0.0
 10
115.083379
 20
79.595916
 30
0.0
 10
115.871225
 20
79.456998
 30
0.0
 10
113.787447
 20
67.639305
 30
0.0
 10
112.999601
 20
67.778223
 30
0.0
 10
112.825953
 20
66.793416
 30
0.0
 10
99.038644
 20
69.224490
 30
0.0
 10
99.212292
 20
70.209298
 30
0.0
 10
98.424446
 20
70.348216
 30
0.0
 10
100.508224
 20
82.165909
 30
0.0
 10
101.296071
 20
82.026991
 30
0.0
 10
101.469719
 20
83.011799
 30
0.0
 10
115.257027
 20
80.580724
 30
0.0
  0
LWPOLYLINE
  5
11c
100
AcDbEntity
  8
Layer_1
 62
1
100
AcDbPolyline
 90
14
 70
0
 10
98.170403
 20
64.300451
 30
0.0
 10
111.957712
 20
61.869377
 30
0.0
 10
111.784064
 20
60.884569
 30
0.0
 10
112.571910
 20
60.745651
 30
0.0
 10
110.488132
 20
48.927957
 30
0.0
 10
109.700286
 20
49.066876
 30
0.0
 10
109.526637
 20
48.082068
 30
0.0
 10
95.739329
 20
50.513143
 30
0.0
 10
95.912977
 20
51.497950
 30
0.0
 10
95.125131
 20
51.636869
 30
0.0
 10
97.208909
 20
63.454562
 30
0.0
 10
97.996755
 20
63.315644
 30
0.0
 10
98.170403
 20
64.300451
 30
0.0
 10
111.957712
 20
61.869377
 30
0.0
  0
LWPOLYLINE
  5
11d
100
AcDbEntity
  8
Layer_1
 62
1
100
AcDbPolyline
 90
14
 70
0
 10
94.871088
 20
45.589104
 30
0.0
 10
108.658397
 20
43.158029
 30
0.0
 10
108.484748
 20
42.173222
 30
0.0
 10
109.272595
 20
42.034303
 30
0.0
 10
107.188816
 20
30.216610
 30
0.0
 10
106.400970
 20
30.355529
 30
0.0
 10
106.227322
 20
29.370721
 30
0.0
 10
92.440013
 20
31.801795
 30
0.0
 10
92.613662
 20
32.786603
 30
0.0
 10
91.825815
 20
32.925522
 30
0.0
 10
93.909594
 20
44.743215
 30
0.0
 10
94.697440
 20
44.604296
 30
0.0
 10
94.871088
 20
45.589104
 30
0.0
 10
108.658397
 20
43.158029
 30
0.0
  0
LWPOLYLINE
  5
11e
100
AcDbEntity
  8
Layer_1
 62
1
100
AcDbPolyline
 90
14
 70
0
 10
129.210771
 20
130.922486
 30
0.0
 10
142.998080
 20
128.491412
 30
0.0
 10
142.824432
 20
127.506604
 30
0.0
 10
143.612278
 20
127.367686
 30
0.0
 10
141.528500
 20
115.549993
 30
0.0
 10
140.740654
 20
115.688911
 30
0.0
 10
140.567005
 20
114.704103
 30
0.0
 10
126.779697
 20
117.135178
 30
0.0
 10
126.953345
 20
118.119986
 30
0.0
 10
126.165499
 20
118.258904
 30
0.0
 10
128.249277
 20
130.076597
 30
0.0
 10
129.037123
 20
129.937679
 30
0.0
 10
129.210771
 20
130.922486
 30
0.0
 10
142.998080
 20
128.491412
 30
0.0
  0
LWPOLYLINE
  5
11f
100
AcDbEntity
  8
Layer_1
 62
1
100
AcDbPolyline
 90
14
 70
0
 10
125.911456
 20
112.211139
 30
0.0
 10
139.698764
 20
109.780065
 30
0.0
 10
139.525116
 20
108.795257
 30
0.0
 10
140.312962
 20
108.656338
 30
0.0
 10
138.229184
 20
96.838645
 30
0.0
 10
137.441338
 20
96.977564
 30
0.0
 10
137.267690
 20
95.992756
 30
0.0
 10
123.480381
 20
98.423831
 30
0.0
 10
123.654030
 20
99.408638
 30
0.0
 10
122.866183
 20
99.547557
 30
0.0
 10
124.949962
 20
111.365250
 30
0.0
 10
125.737808
 20
111.226331
 30
0.0
 10
125.911456
 20
112.211139
 30
0.0
 10
139.698764
 20
109.780065
 30
0.0
  0
LWPOLYLINE
  5
120
100
AcDbEntity
  8
Layer_1
 62
1
100
AcDbPolyline
 90
14
 70
0
 10
122.612141
 20
93.499792
 30
0.0
 10
136.399449
 20
91.068717
 30
0.0
 10
136.225801
 20
90.083910
 30
0.0
 10
137.013647
 20
89.944991
 30
0.0
 10
134.929869
 20
78.127298
 30
0.0
 10
134.142023
 20
78.266216
 30
0.0
 10
133.968375
 20
77.281409
 30
0.0
 10
120.181066
 20
79.712483
 30
0.0
 10
120.354714
 20
80.697291
 30
0.0
 10
119.566868
 20
80.836210
 30
0.0
 10
121.650646
 20
92.653903
 30
0.0
 10
122.438492
 20
92.514984
 30
0.0
 10
122.612141
 20
93.499792
 30
0.0
 10
136.399449
 20
91.068717
 30
0.0
  0
LWPOLYLINE
  5
121
100
AcDbEntity
  8
Layer_1
 62
1
100
AcDbPolyline
 90
14
 70
0
 10
119.312825
 20
74.788444
 30
0.0
 10
133.100134
 20
72.357370
 30
0.0
 10
132.926486
 20
71.372562
 30
0.0
 10
133.714332
 20
71.233644
 30
0.0
 10
131.630554
 20
59.415951
 30
0.0
 10
130.842707
 20
59.554869
 30
0.0
 10
130.669059
 20
58.570061
 30
0.0
 10
116.881751
 20
61.001136
 30
0.0
 10
117.055399
 20
61.985944
 30
0.0
 10
116.267553
 20
62.124862
 30
0.0
 10
118.351331
 20
73.942555
 30
0.0
 10
119.139177
 20
73.803637
 30
0.0
 10
119.312825
 20
74.788444
 30
0.0
 10
133.100134
 20
72.357370
 30
0.0
  0
LWPOLYLINE
  5
122
100
AcDbEntity
  8
Layer_1
 62
1
100
AcDbPolyline
 90
14
 70
0
 10
116.013510
 20
56.077097
 30
0.0
 10
129.800818
 20
53.646023
 30
0.0
 10
129.627170
 20
52.661215
 30
0.0
 10
130.415016
 20
52.522296
 30
0.0
 10
128.331238
 20
40.704603
 30
0.0
 10
127.543392
 20
40.843522
 30
0.0
 10
127.369744
 20
39.858714
 30
0.0
 10
113.582435
 20
42.289789
 30
0.0
 10
113.756083
 20
43.274596
 30
0.0
 10
112.968237
 20
43.413515
 30
0.0
 10
115.052015
 20
55.231208
 30
0.0
 10
115.839862
 20
55.092289
 30
0.0
 10
116.013510
 20
56.077097
 30
0.0
 10
129.800818
 20
53.646023
 30
0.0
  0
LWPOLYLINE
  5
123
100
AcDbEntity
  8
Layer_1
 62
1
100
AcDbPolyline
 90
14
 70
0
 10
112.714194
 20
37.365750
 30
0.0
 10
126.501503
 20
34.934675
 30
0.0
 10
126.327855
 20
33.949868
 30
0.0
 10
127.115701
 20
33.810949
 30
0.0
 10
125.031923
 20
21.993256
 30
0.0
 10
124.244077
 20
22.132175
 30
0.0
 10
124.070428
 20
21.147367
 30
0.0
 10
110.283120
 20
23.578441
 30
0.0
 10
110.456768
 20
24.563249
 30
0.0
 10
109.668922
 20
24.702168
 30
0.0
 10
111.752700
 20
36.519861
 30
0.0
 10
112.540546
 20
36.380942
 30
0.0
 10
112.714194
 20
37.365750
 30
0.0
 10
126.501503
 20
34.934675
 30
0.0
  0
LWPOLYLINE
  5
124
100
AcDbEntity
  8
Layer_1
 62
1
100
AcDbPolyline
 90
14
 70
0
 10
131.425542
 20
34.066434
 30
0.0
 10
145.212850
 20
31.635360
 30
0.0
 10
145.039202
 20
30.650552
 30
0.0
 10
145.827048
 20
30.511634
 30
0.0
 10
143.743270
 20
18.693941
 30
0.0
 10
142.955424
 20
18.832859
 30
0.0
 10
142.781776
 20
17.848051
 30
0.0
 10
128.994467
 20
20.279126
 30
0.0
 10
129.168115
 20
21.263934
 30
0.0
 10
128.380269
 20
21.402852
 30
0.0
 10
130.464047
 20
33.220545
 30
0.0
 10
131.251894
 20
33.081627
 30
0.0
 10
131.425542
 20
34.066434
 30
0.0
 10
145.212850
 20
31.635360
 30
0.0
  0
LWPOLYLINE
  5
125
100
AcDbEntity
  8
Layer_1
 62
1
100
AcDbPolyline
 90
14
 70
0
 10
152.172970
 20
135.550000
 30
0.0
 10
166.172970
 20
135.550000
 30
0.0
 10
166.172970
 20
134.550000
 30
0.0
 10
166.972970
 20
134.550000
 30
0.0
 10
166.972970
 20
122.550000
 30
0.0
 10
166.172970
 20
122.550000
 30
0.0
 10
166.172970
 20
121.550000
 30
0.0
 10
152.172970
 20
121.550000
 30
0.0
 10
152.172970
 20
122.550000
 30
0.0
 10
151.372970
 20
122.550000
 30
0.0
 10
151.372970
 20
134.550000
 30
0.0
 10
152.172970
 20
134.550000
 30
0.0
 10
152.172970
 20
135.550000
 30
0.0
 10
166.172970
 20
135.550000
 30
0.0
  0
LWPOLYLINE
  5
126
100
AcDbEntity
  8
Layer_1
 62
1
100
AcDbPolyline
 90
14
 70
0
 10
152.172970
 20
106.550000
 30
0.0
 10
166.172970
 20
106.550000
 30
0.0
 10
166.172970
 20
105.550000
 30
0.0
 10
166.972970
 20
105.550000
 30
0.0
 10
166.972970
 20
93.550000
 30
0.0
 10
166.172970
 20
93.550000
 30
0.0
 10
166.172970
 20
92.550000
 30
0.0
 10
152.172970
 20
92.550000
 30
0.0
 10
152.172970
 20
93.550000
 30
0.0
 10
151.372970
 20
93.550000
 30
0.0
 10
151.372970
 20
105.550000
 30
0.0
 10
152.172970
 20
105.550000
 30
0.0
 10
152.172970
 20
106.550000
 30
0.0
 10
166.172970
 20
106.550000
 30
0.0
  0
LWPOLYLINE
  5
127
100
AcDbEntity
  8
Layer_1
 62
1
100
AcDbPolyline
 90
14
 70
0
 10
152.172970
 20
87.550000
 30
0.0
 10
166.172970
 20
87.550000
 30
0.0
 10
166.172970
 20
86.550000
 30
0.0
 10
166.972970
 20
86.550000
 30
0.0
 10
166.972970
 20
74.550000
 30
0.0
 10
166.172970
 20
74.550000
 30
0.0
 10
166.172970
 20
73.550000
 30
0.0
 10
152.172970
 20
73.550000
 30
0.0
 10
152.172970
 20
74.550000
 30
0.0
 10
151.372970
 20
74.550000
 30
0.0
 10
151.372970
 20
86.550000
 30
0.0
 10
152.172970
 20
86.550000
 30
0.0
 10
152.172970
 20
87.550000
 30
0.0
 10
166.172970
 20
87.550000
 30
0.0
  0
LWPOLYLINE
  5
128
100
AcDbEntity
  8
Layer_1
 62
1
100
AcDbPolyline
 90
14
 70
0
 10
152.172970
 20
54.550000
 30
0.0
 10
166.172970
 20
54.550000
 30
0.0
 10
166.172970
 20
53.550000
 30
0.0
 10
166.972970
 20
53.550000
 30
0.0
 10
166.972970
 20
41.550000
 30
0.0
 10
166.172970
 20
41.550000
 30
0.0
 10
166.172970
 20
40.550000
 30
0.0
 10
152.172970
 20
40.550000
 30
0.0
 10
152.172970
 20
41.550000
 30
0.0
 10
151.372970
 20
41.550000
 30
0.0
 10
151.372970
 20
53.550000
 30
0.0
 10
152.172970
 20
53.550000
 30
0.0
 10
152.172970
 20
54.550000
 30
0.0
 10
166.172970
 20
54.550000
 30
0.0
  0
LWPOLYLINE
  5
129
100
AcDbEntity
  8
Layer_1
 62
1
100
AcDbPolyline
 90
14
 70
0
 10
171.172970
 20
140.550000
 30
0.0
 10
185.172970
 20
140.550000
 30
0.0
 10
185.172970
 20
139.550000
 30
0.0
 10
185.972970
 20
139.550000
 30
0.0
 10
185.972970
 20
127.550000
 30
0.0
 10
185.172970
 20
127.550000
 30
0.0
 10
185.172970
 20
126.550000
 30
0.0
 10
171.172970
 20
126.550000
 30
0.0
 10
171.172970
 20
127.550000
 30
0.0
 10
170.372970
 20
127.550000
 30
0.0
 10
170.372970
 20
139.550000
 30
0.0
 10
171.172970
 20
139.550000
 30
0.0
 10
171.172970
 20
140.550000
 30
0.0
 10
185.172970
 20
140.550000
 30
0.0
  0
LWPOLYLINE
  5
12a
100
AcDbEntity
  8
Layer_1
 62
1
100
AcDbPolyline
 90
14
 70
0
 10
171.172970
 20
111.550000
 30
0.0
 10
185.172970
 20
111.550000
 30
0.0
 10
185.172970
 20
110.550000
 30
0.0
 10
185.972970
 20
110.550000
 30
0.0
 10
185.972970
 20
98.550000
 30
0.0
 10
185.172970
 20
98.550000
 30
0.0
 10
185.172970
 20
97.550000
 30
0.0
 10
171.172970
 20
97.550000
 30
0.0
 10
171.172970
 20
98.550000
 30
0.0
 10
170.372970
 20
98.550000
 30
0.0
 10
170.372970
 20
110.550000
 30
0.0
 10
171.172970
 20
110.550000
 30
0.0
 10
171.172970
 20
111.550000
 30
0.0
 10
185.172970
 20
111.550000
 30
0.0
  0
LWPOLYLINE
  5
12b
100
AcDbEntity
  8
Layer_1
 62
1
100
AcDbPolyline
 90
14
 70
0
 10
171.172970
 20
92.550000
 30
0.0
 10
185.172970
 20
92.550000
 30
0.0
 10
185.172970
 20
91.550000
 30
0.0
 10
185.972970
 20
91.550000
 30
0.0
 10
185.972970
 20
79.550000
 30
0.0
 10
185.172970
 20
79.550000
 30
0.0
 10
185.172970
 20
78.550000
 30
0.0
 10
171.172970
 20
78.550000
 30
0.0
 10
171.172970
 20
79.550000
 30
0.0
 10
170.372970
 20
79.550000
 30
0.0
 10
170.372970
 20
91.550000
 30
0.0
 10
171.172970
 20
91.550000
 30
0.0
 10
171.172970
 20
92.550000
 30
0.0
 10
185.172970
 20
92.550000
 30
0.0
  0
LWPOLYLINE
  5
12c
100
AcDbEntity
  8
Layer_1
 62
1
100
AcDbPolyline
 90
14
 70
0
 10
171.172970
 20
63.550000
 30
0.0
 10
185.172970
 20
63.550000
 30
0.0
 10
185.172970
 20
62.550000
 30
0.0
 10
185.972970
 20
62.550000
 30
0.0
 10
185.972970
 20
50.550000
 30
0.0
 10
185.172970
 20
50.550000
 30
0.0
 10
185.172970
 20
49.550000
 30
0.0
 10
171.172970
 20
49.550000
 30
0.0
 10
171.172970
 20
50.550000
 30
0.0
 10
170.372970
 20
50.550000
 30
0.0
 10
170.372970
 20
62.550000
 30
0.0
 10
171.172970
 20
62.550000
 30
0.0
 10
171.172970
 20
63.550000
 30
0.0
 10
185.172970
 20
63.550000
 30
0.0
  0
LWPOLYLINE
  5
12d
100
AcDbEntity
  8
Layer_1
 62
1
100
AcDbPolyline
 90
14
 70
0
 10
171.172970
 20
44.550000
 30
0.0
 10
185.172970
 20
44.550000
 30
0.0
 10
185.172970
 20
43.550000
 30
0.0
 10
185.972970
 20
43.550000
 30
0.0
 10
185.972970
 20
31.550000
 30
0.0
 10
185.172970
 20
31.550000
 30
0.0
 10
185.172970
 20
30.550000
 30
0.0
 10
171.172970
 20
30.550000
 30
0.0
 10
171.172970
 20
31.550000
 30
0.0
 10
170.372970
 20
31.550000
 30
0.0
 10
170.372970
 20
43.550000
 30
0.0
 10
171.172970
 20
43.550000
 30
0.0
 10
171.172970
 20
44.550000
 30
0.0
 10
185.172970
 20
44.550000
 30
0.0
  0
LWPOLYLINE
  5
12e
100
AcDbEntity
  8
Layer_1
 62
1
100
AcDbPolyline
 90
14
 70
0
 10
190.172970
 20
135.550000
 30
0.0
 10
204.172970
 20
135.550000
 30
0.0
 10
204.172970
 20
134.550000
 30
0.0
 10
204.972970
 20
134.550000
 30
0.0
 10
204.972970
 20
122.550000
 30
0.0
 10
204.172970
 20
122.550000
 30
0.0
 10
204.172970
 20
121.550000
 30
0.0
 10
190.172970
 20
121.550000
 30
0.0
 10
190.172970
 20
122.550000
 30
0.0
 10
189.372970
 20
122.550000
 30
0.0
 10
189.372970
 20
134.550000
 30
0.0
 10
190.172970
 20
134.550000
 30
0.0
 10
190.172970
 20
135.550000
 30
0.0
 10
204.172970
 20
135.550000
 30
0.0
  0
LWPOLYLINE
  5
12f
100
AcDbEntity
  8
Layer_1
 62
1
100
AcDbPolyline
 90
14
 70
0
 10
190.172970
 20
106.550000
 30
0.0
 10
204.172970
 20
106.550000
 30
0.0
 10
204.172970
 20
105.550000
 30
0.0
 10
204.972970
 20
105.550000
 30
0.0
 10
204.972970
 20
93.550000
 30
0.0
 10
204.172970
 20
93.550000
 30
0.0
 10
204.172970
 20
92.550000
 30
0.0
 10
190.172970
 20
92.550000
 30
0.0
 10
190.172970
 20
93.550000
 30
0.0
 10
189.372970
 20
93.550000
 30
0.0
 10
189.372970
 20
105.550000
 30
0.0
 10
190.172970
 20
105.550000
 30
0.0
 10
190.172970
 20
106.550000
 30
0.0
 10
204.172970
 20
106.550000
 30
0.0
  0
LWPOLYLINE
  5
130
100
AcDbEntity
  8
Layer_1
 62
1
100
AcDbPolyline
 90
14
 70
0
 10
190.172970
 20
87.550000
 30
0.0
 10
204.172970
 20
87.550000
 30
0.0
 10
204.172970
 20
86.550000
 30
0.0
 10
204.972970
 20
86.550000
 30
0.0
 10
204.972970
 20
74.550000
 30
0.0
 10
204.172970
 20
74.550000
 30
0.0
 10
204.172970
 20
73.550000
 30
0.0
 10
190.172970
 20
73.550000
 30
0.0
 10
190.172970
 20
74.550000
 30
0.0
 10
189.372970
 20
74.550000
 30
0.0
 10
189.372970
 20
86.550000
 30
0.0
 10
190.172970
 20
86.550000
 30
0.0
 10
190.172970
 20
87.550000
 30
0.0
 10
204.172970
 20
87.550000
 30
0.0
  0
LWPOLYLINE
  5
131
100
AcDbEntity
  8
Layer_1
 62
1
100
AcDbPolyline
 90
14
 70
0
 10
190.172970
 20
54.550000
 30
0.0
 10
204.172970
 20
54.550000
 30
0.0
 10
204.172970
 20
53.550000
 30
0.0
 10
204.972970
 20
53.550000
 30
0.0
 10
204.972970
 20
41.550000
 30
0.0
 10
204.172970
 20
41.550000
 30
0.0
 10
204.172970
 20
40.550000
 30
0.0
 10
190.172970
 20
40.550000
 30
0.0
 10
190.172970
 20
41.550000
 30
0.0
 10
189.372970
 20
41.550000
 30
0.0
 10
189.372970
 20
53.550000
 30
0.0
 10
190.172970
 20
53.550000
 30
0.0
 10
190.172970
 20
54.550000
 30
0.0
 10
204.172970
 20
54.550000
 30
0.0
  0
LWPOLYLINE
  5
132
100
AcDbEntity
  8
Layer_1
 62
1
100
AcDbPolyline
 90
14
 70
0
 10
211.133090
 20
31.635360
 30
0.0
 10
224.920398
 20
34.066434
 30
0.0
 10
225.094046
 20
33.081627
 30
0.0
 10
225.881893
 20
33.220545
 30
0.0
 10
227.965671
 20
21.402852
 30
0.0
 10
227.177825
 20
21.263934
 30
0.0
 10
227.351473
 20
20.279126
 30
0.0
 10
213.564164
 20
17.848051
 30
0.0
 10
213.390516
 20
18.832859
 30
0.0
 10
212.602670
 20
18.693941
 30
0.0
 10
210.518892
 20
30.511634
 30
0.0
 10
211.306738
 20
30.650552
 30
0.0
 10
211.133090
 20
31.635360
 30
0.0
 10
224.920398
 20
34.066434
 30
0.0
  0
LWPOLYLINE
  5
133
100
AcDbEntity
  8
Layer_1
 62
1
100
AcDbPolyline
 90
14
 70
0
 10
213.347860
 20
128.491412
 30
0.0
 10
227.135169
 20
130.922486
 30
0.0
 10
227.308817
 20
129.937679
 30
0.0
 10
228.096663
 20
130.076597
 30
0.0
 10
230.180441
 20
118.258904
 30
0.0
 10
229.392595
 20
118.119986
 30
0.0
 10
229.566243
 20
117.135178
 30
0.0
 10
215.778935
 20
114.704103
 30
0.0
 10
215.605286
 20
115.688911
 30
0.0
 10
214.817440
 20
115.549993
 30
0.0
 10
212.733662
 20
127.367686
 30
0.0
 10
213.521508
 20
127.506604
 30
0.0
 10
213.347860
 20
128.491412
 30
0.0
 10
227.135169
 20
130.922486
 30
0.0
  0
LWPOLYLINE
  5
134
100
AcDbEntity
  8
Layer_1
 62
1
100
AcDbPolyline
 90
14
 70
0
 10
216.647176
 20
109.780065
 30
0.0
 10
230.434484
 20
112.211139
 30
0.0
 10
230.608132
 20
111.226331
 30
0.0
 10
231.395978
 20
111.365250
 30
0.0
 10
233.479757
 20
99.547557
 30
0.0
 10
232.691910
 20
99.408638
 30
0.0
 10
232.865559
 20
98.423831
 30
0.0
 10
219.078250
 20
95.992756
 30
0.0
 10
218.904602
 20
96.977564
 30
0.0
 10
218.116756
 20
96.838645
 30
0.0
 10
216.032978
 20
108.656338
 30
0.0
 10
216.820824
 20
108.795257
 30
0.0
 10
216.647176
 20
109.780065
 30
0.0
 10
230.434484
 20
112.211139
 30
0.0
  0
LWPOLYLINE
  5
135
100
AcDbEntity
  8
Layer_1
 62
1
100
AcDbPolyline
 90
14
 70
0
 10
219.946491
 20
91.068717
 30
0.0
 10
233.733799
 20
93.499792
 30
0.0
 10
233.907448
 20
92.514984
 30
0.0
 10
234.695294
 20
92.653903
 30
0.0
 10
236.779072
 20
80.836210
 30
0.0
 10
235.991226
 20
80.697291
 30
0.0
 10
236.164874
 20
79.712483
 30
0.0
 10
222.377565
 20
77.281409
 30
0.0
 10
222.203917
 20
78.266216
 30
0.0
 10
221.416071
 20
78.127298
 30
0.0
 10
219.332293
 20
89.944991
 30
0.0
 10
220.120139
 20
90.083910
 30
0.0
 10
219.946491
 20
91.068717
 30
0.0
 10
233.733799
 20
93.499792
 30
0.0
  0
LWPOLYLINE
  5
136
100
AcDbEntity
  8
Layer_1
 62
1
100
AcDbPolyline
 90
14
 70
0
 10
223.245806
 20
72.357370
 30
0.0
 10
237.033115
 20
74.788444
 30
0.0
 10
237.206763
 20
73.803637
 30
0.0
 10
237.994609
 20
73.942555
 30
0.0
 10
240.078387
 20
62.124862
 30
0.0
 10
239.290541
 20
61.985944
 30
0.0
 10
239.464189
 20
61.001136
 30
0.0
 10
225.676881
 20
58.570061
 30
0.0
 10
225.503233
 20
59.554869
 30
0.0
 10
224.715386
 20
59.415951
 30
0.0
 10
222.631608
 20
71.233644
 30
0.0
 10
223.419454
 20
71.372562
 30
0.0
 10
223.245806
 20
72.357370
 30
0.0
 10
237.033115
 20
74.788444
 30
0.0
  0
LWPOLYLINE
  5
137
100
AcDbEntity
  8
Layer_1
 62
1
100
AcDbPolyline
 90
14
 70
0
 10
226.545122
 20
53.646023
 30
0.0
 10
240.332430
 20
56.077097
 30
0.0
 10
240.506078
 20
55.092289
 30
0.0
 10
241.293925
 20
55.231208
 30
0.0
 10
243.377703
 20
43.413515
 30
0.0
 10
242.589857
 20
43.274596
 30
0.0
 10
242.763505
 20
42.289789
 30
0.0
 10
228.976196
 20
39.858714
 30
0.0
 10
228.802548
 20
40.843522
 30
0.0
 10
228.014702
 20
40.704603
 30
0.0
 10
225.930924
 20
52.522296
 30
0.0
 10
226.718770
 20
52.661215
 30
0.0
 10
226.545122
 20
53.646023
 30
0.0
 10
240.332430
 20
56.077097
 30
0.0
  0
LWPOLYLINE
  5
138
100
AcDbEntity
  8
Layer_1
 62
1
100
AcDbPolyline
 90
14
 70
0
 10
229.844437
 20
34.934675
 30
0.0
 10
243.631746
 20
37.365750
 30
0.0
 10
243.805394
 20
36.380942
 30
0.0
 10
244.593240
 20
36.519861
 30
0.0
 10
246.677018
 20
24.702168
 30
0.0
 10
245.889172
 20
24.563249
 30
0.0
 10
246.062820
 20
23.578441
 30
0.0
 10
232.275512
 20
21.147367
 30
0.0
 10
232.101863
 20
22.132175
 30
0.0
 10
231.314017
 20
21.993256
 30
0.0
 10
229.230239
 20
33.810949
 30
0.0
 10
230.018085
 20
33.949868
 30
0.0
 10
229.844437
 20
34.934675
 30
0.0
 10
243.631746
 20
37.365750
 30
0.0
  0
LWPOLYLINE
  5
139
100
AcDbEntity
  8
Layer_1
 62
1
100
AcDbPolyline
 90
14
 70
0
 10
231.190967
 20
136.714766
 30
0.0
 10
244.978275
 20
139.145841
 30
0.0
 10
245.151923
 20
138.161033
 30
0.0
 10
245.939770
 20
138.299951
 30
0.0
 10
248.023548
 20
126.482258
 30
0.0
 10
247.235701
 20
126.343340
 30
0.0
 10
247.409350
 20
125.358532
 30
0.0
 10
233.622041
 20
122.927457
 30
0.0
 10
233.448393
 20
123.912265
 30
0.0
 10
232.660547
 20
123.773347
 30
0.0
 10
230.576769
 20
135.591040
 30
0.0
 10
231.364615
 20
135.729958
 30
0.0
 10
231.190967
 20
136.714766
 30
0.0
 10
244.978275
 20
139.145841
 30
0.0
  0
LWPOLYLINE
  5
13a
100
AcDbEntity
  8
Layer_1
 62
1
100
AcDbPolyline
 90
14
 70
0
 10
234.490282
 20
118.003419
 30
0.0
 10
248.277591
 20
120.434493
 30
0.0
 10
248.451239
 20
119.449685
 30
0.0
 10
249.239085
 20
119.588604
 30
0.0
 10
251.322863
 20
107.770911
 30
0.0
 10
250.535017
 20
107.631992
 30
0.0
 10
250.708665
 20
106.647185
 30
0.0
 10
236.921356
 20
104.216110
 30
0.0
 10
236.747708
 20
105.200918
 30
0.0
 10
235.959862
 20
105.061999
 30
0.0
 10
233.876084
 20
116.879692
 30
0.0
 10
234.663930
 20
117.018611
 30
0.0
 10
234.490282
 20
118.003419
 30
0.0
 10
248.277591
 20
120.434493
 30
0.0
  0
LWPOLYLINE
  5
13b
100
AcDbEntity
  8
Layer_1
 62
1
100
AcDbPolyline
 90
14
 70
0
 10
237.789597
 20
99.292071
 30
0.0
 10
251.576906
 20
101.723146
 30
0.0
 10
251.750554
 20
100.738338
 30
0.0
 10
252.538400
 20
100.877257
 30
0.0
 10
254.622178
 20
89.059564
 30
0.0
 10
253.834332
 20
88.920645
 30
0.0
 10
254.007980
 20
87.935837
 30
0.0
 10
240.220672
 20
85.504763
 30
0.0
 10
240.047024
 20
86.489571
 30
0.0
 10
239.259177
 20
86.350652
 30
0.0
 10
237.175399
 20
98.168345
 30
0.0
 10
237.963246
 20
98.307264
 30
0.0
 10
237.789597
 20
99.292071
 30
0.0
 10
251.576906
 20
101.723146
 30
0.0
  0
LWPOLYLINE
  5
13c
100
AcDbEntity
  8
Layer_1
 62
1
100
AcDbPolyline
 90
14
 70
0
 10
241.088913
 20
80.580724
 30
0.0
 10
254.876221
 20
83.011799
 30
0.0
 10
255.049869
 20
82.026991
 30
0.0
 10
255.837716
 20
82.165909
 30
0.0
 10
257.921494
 20
70.348216
 30
0.0
 10
257.133648
 20
70.209298
 30
0.0
 10
257.307296
 20
69.224490
 30
0.0
 10
243.519987
 20
66.793416
 30
0.0
 10
243.346339
 20
67.778223
 30
0.0
 10
242.558493
 20
67.639305
 30
0.0
 10
240.474715
 20
79.456998
 30
0.0
 10
241.262561
 20
79.595916
 30
0.0
 10
241.088913
 20
80.580724
 30
0.0
 10
254.876221
 20
83.011799
 30
0.0
  0
LWPOLYLINE
  5
13d
100
AcDbEntity
  8
Layer_1
 62
1
100
AcDbPolyline
 90
14
 70
0
 10
244.388228
 20
61.869377
 30
0.0
 10
258.175537
 20
64.300451
 30
0.0
 10
258.349185
 20
63.315644
 30
0.0
 10
259.137031
 20
63.454562
 30
0.0
 10
261.220809
 20
51.636869
 30
0.0
 10
260.432963
 20
51.497950
 30
0.0
 10
260.606611
 20
50.513143
 30
0.0
 10
246.819303
 20
48.082068
 30
0.0
 10
246.645654
 20
49.066876
 30
0.0
 10
245.857808
 20
48.927957
 30
0.0
 10
243.774030
 20
60.745651
 30
0.0
 10
244.561876
 20
60.884569
 30
0.0
 10
244.388228
 20
61.869377
 30
0.0
 10
258.175537
 20
64.300451
 30
0.0
  0
LWPOLYLINE
  5
13e
100
AcDbEntity
  8
Layer_1
 62
1
100
AcDbPolyline
 90
14
 70
0
 10
247.687543
 20
43.158029
 30
0.0
 10
261.474852
 20
45.589104
 30
0.0
 10
261.648500
 20
44.604296
 30
0.0
 10
262.436346
 20
44.743215
 30
0.0
 10
264.520125
 20
32.925522
 30
0.0
 10
263.732278
 20
32.786603
 30
0.0
 10
263.905927
 20
31.801795
 30
0.0
 10
250.118618
 20
29.370721
 30
0.0
 10
249.944970
 20
30.355529
 30
0.0
 10
249.157124
 20
30.216610
 30
0.0
 10
247.073345
 20
42.034303
 30
0.0
 10
247.861192
 20
42.173222
 30
0.0
 10
247.687543
 20
43.158029
 30
0.0
 10
261.474852
 20
45.589104
 30
0.0
  0
LWPOLYLINE
  5
13f
100
AcDbEntity
  8
Layer_1
 62
1
100
AcDbPolyline
 90
14
 70
0
 10
248.860425
 20
145.922928
 30
0.0
 10
262.647733
 20
148.354002
 30
0.0
 10
262.821382
 20
147.369195
 30
0.0
 10
263.609228
 20
147.508113
 30
0.0
 10
265.693006
 20
135.690420
 30
0.0
 10
264.905160
 20
135.551502
 30
0.0
 10
265.078808
 20
134.566694
 30
0.0
 10
251.291499
 20
132.135619
 30
0.0
 10
251.117851
 20
133.120427
 30
0.0
 10
250.330005
 20
132.981509
 30
0.0
 10
248.246227
 20
144.799202
 30
0.0
 10
249.034073
 20
144.938120
 30
0.0
 10
248.860425
 20
145.922928
 30
0.0
 10
262.647733
 20
148.354002
 30
0.0
  0
LWPOLYLINE
  5
140
100
AcDbEntity
  8
Layer_1
 62
1
100
AcDbPolyline
 90
14
 70
0
 10
252.159740
 20
127.211581
 30
0.0
 10
265.947049
 20
129.642655
 30
0.0
 10
266.120697
 20
128.657847
 30
0.0
 10
266.908543
 20
128.796766
 30
0.0
 10
268.992321
 20
116.979073
 30
0.0
 10
268.204475
 20
116.840154
 30
0.0
 10
268.378123
 20
115.855347
 30
0.0
 10
254.590815
 20
113.424272
 30
0.0
 10
254.417167
 20
114.409080
 30
0.0
 10
253.629320
 20
114.270161
 30
0.0
 10
251.545542
 20
126.087854
 30
0.0
 10
252.333388
 20
126.226773
 30
0.0
 10
252.159740
 20
127.211581
 30
0.0
 10
265.947049
 20
129.642655
 30
0.0
  0
LWPOLYLINE
  5
141
100
AcDbEntity
  8
Layer_1
 62
1
100
AcDbPolyline
 90
14
 70
0
 10
255.459056
 20
108.500233
 30
0.0
 10
269.246364
 20
110.931308
 30
0.0
 10
269.420012
 20
109.946500
 30
0.0
 10
270.207859
 20
110.085419
 30
0.0
 10
272.291637
 20
98.267726
 30
0.0
 10
271.503790
 20
98.128807
 30
0.0
 10
271.677439
 20
97.143999
 30
0.0
 10
257.890130
 20
94.712925
 30
0.0
 10
257.716482
 20
95.697733
 30
0.0
 10
256.928636
 20
95.558814
 30
0.0
 10
254.844858
 20
107.376507
 30
0.0
 10
255.632704
 20
107.515426
 30
0.0
 10
255.459056
 20
108.500233
 30
0.0
 10
269.246364
 20
110.931308
 30
0.0
  0
LWPOLYLINE
  5
142
100
AcDbEntity
  8
Layer_1
 62
1
100
AcDbPolyline
 90
14
 70
0
 10
258.758371
 20
89.788886
 30
0.0
 10
272.545680
 20
92.219960
 30
0.0
 10
272.719328
 20
91.235153
 30
0.0
 10
273.507174
 20
91.374071
 30
0.0
 10
275.590952
 20
79.556378
 30
0.0
 10
274.803106
 20
79.417460
 30
0.0
 10
274.976754
 20
78.432652
 30
0.0
 10
261.189445
 20
76.001577
 30
0.0
 10
261.015797
 20
76.986385
 30
0.0
 10
260.227951
 20
76.847467
 30
0.0
 10
258.144173
 20
88.665160
 30
0.0
 10
258.932019
 20
88.804078
 30
0.0
 10
258.758371
 20
89.788886
 30
0.0
 10
272.545680
 20
92.219960
 30
0.0
  0
LWPOLYLINE
  5
143
100
AcDbEntity
  8
Layer_1
 62
1
100
AcDbPolyline
 90
14
 70
0
 10
262.057686
 20
71.077539
 30
0.0
 10
275.844995
 20
73.508613
 30
0.0
 10
276.018643
 20
72.523805
 30
0.0
 10
276.806489
 20
72.662724
 30
0.0
 10
278.890267
 20
60.845031
 30
0.0
 10
278.102421
 20
60.706112
 30
0.0
 10
278.276069
 20
59.721305
 30
0.0
 10
264.488761
 20
57.290230
 30
0.0
 10
264.315113
 20
58.275038
 30
0.0
 10
263.527266
 20
58.136119
 30
0.0
 10
261.443488
 20
69.953812
 30
0.0
 10
262.231335
 20
70.092731
 30
0.0
 10
262.057686
 20
71.077539
 30
0.0
 10
275.844995
 20
73.508613
 30
0.0
  0
LWPOLYLINE
  5
144
100
AcDbEntity
  8
Layer_1
 62
1
100
AcDbPolyline
 90
14
 70
0
 10
265.357002
 20
52.366191
 30
0.0
 10
279.144310
 20
54.797266
 30
0.0
 10
279.317958
 20
53.812458
 30
0.0
 10
280.105805
 20
53.951377
 30
0.0
 10
282.189583
 20
42.133684
 30
0.0
 10
281.401737
 20
41.994765
 30
0.0
 10
281.575385
 20
41.009957
 30
0.0
 10
267.788076
 20
38.578883
 30
0.0
 10
267.614428
 20
39.563691
 30
0.0
 10
266.826582
 20
39.424772
 30
0.0
 10
264.742804
 20
51.242465
 30
0.0
 10
265.530650
 20
51.381384
 30
0.0
 10
265.357002
 20
52.366191
 30
0.0
 10
279.144310
 20
54.797266
 30
0.0
  0
LWPOLYLINE
  5
145
100
AcDbEntity
  8
Layer_1
 62
1
100
AcDbPolyline
 90
14
 70
0
 10
268.440013
 20
144.298205
 30
0.0
 10
282.227322
 20
146.729279
 30
0.0
 10
282.400970
 20
145.744471
 30
0.0
 10
283.188816
 20
145.883390
 30
0.0
 10
285.272594
 20
134.065697
 30
0.0
 10
284.484748
 20
133.926778
 30
0.0
 10
284.658396
 20
132.941970
 30
0.0
 10
270.871088
 20
130.510896
 30
0.0
 10
270.697439
 20
131.495704
 30
0.0
 10
269.909593
 20
131.356785
 30
0.0
 10
267.825815
 20
143.174478
 30
0.0
 10
268.613661
 20
143.313397
 30
0.0
 10
268.440013
 20
144.298205
 30
0.0
 10
282.227322
 20
146.729279
 30
0.0
  0
LWPOLYLINE
  5
146
100
AcDbEntity
  8
Layer_1
 62
1
100
AcDbPolyline
 90
14
 70
0
 10
271.739328
 20
125.586857
 30
0.0
 10
285.526637
 20
128.017932
 30
0.0
 10
285.700285
 20
127.033124
 30
0.0
 10
286.488131
 20
127.172042
 30
0.0
 10
288.571909
 20
115.354349
 30
0.0
 10
287.784063
 20
115.215431
 30
0.0
 10
287.957711
 20
114.230623
 30
0.0
 10
274.170403
 20
111.799549
 30
0.0
 10
273.996755
 20
112.784356
 30
0.0
 10
273.208909
 20
112.645438
 30
0.0
 10
271.125130
 20
124.463131
 30
0.0
 10
271.912977
 20
124.602049
 30
0.0
 10
271.739328
 20
125.586857
 30
0.0
 10
285.526637
 20
128.017932
 30
0.0
  0
LWPOLYLINE
  5
147
100
AcDbEntity
  8
Layer_1
 62
1
100
AcDbPolyline
 90
14
 70
0
 10
275.038644
 20
106.875510
 30
0.0
 10
288.825952
 20
109.306584
 30
0.0
 10
288.999601
 20
108.321777
 30
0.0
 10
289.787447
 20
108.460695
 30
0.0
 10
291.871225
 20
96.643002
 30
0.0
 10
291.083379
 20
96.504084
 30
0.0
 10
291.257027
 20
95.519276
 30
0.0
 10
277.469718
 20
93.088201
 30
0.0
 10
277.296070
 20
94.073009
 30
0.0
 10
276.508224
 20
93.934091
 30
0.0
 10
274.424446
 20
105.751784
 30
0.0
 10
275.212292
 20
105.890702
 30
0.0
 10
275.038644
 20
106.875510
 30
0.0
 10
288.825952
 20
109.306584
 30
0.0
  0
LWPOLYLINE
  5
148
100
AcDbEntity
  8
Layer_1
 62
1
100
AcDbPolyline
 90
14
 70
0
 10
278.337959
 20
88.164163
 30
0.0
 10
292.125268
 20
90.595237
 30
0.0
 10
292.298916
 20
89.610429
 30
0.0
 10
293.086762
 20
89.749348
 30
0.0
 10
295.170540
 20
77.931655
 30
0.0
 10
294.382694
 20
77.792736
 30
0.0
 10
294.556342
 20
76.807929
 30
0.0
 10
280.769034
 20
74.376854
 30
0.0
 10
280.595385
 20
75.361662
 30
0.0
 10
279.807539
 20
75.222743
 30
0.0
 10
277.723761
 20
87.040436
 30
0.0
 10
278.511607
 20
87.179355
 30
0.0
 10
278.337959
 20
88.164163
 30
0.0
 10
292.125268
 20
90.595237
 30
0.0
  0
LWPOLYLINE
  5
149
100
AcDbEntity
  8
Layer_1
 62
1
100
AcDbPolyline
 90
14
 70
0
 10
281.637275
 20
69.452815
 30
0.0
 10
295.424583
 20
71.883890
 30
0.0
 10
295.598231
 20
70.899082
 30
0.0
 10
296.386077
 20
71.038001
 30
0.0
 10
298.469856
 20
59.220308
 30
0.0
 10
297.682009
 20
59.081389
 30
0.0
 10
297.855658
 20
58.096581
 30
0.0
 10
284.068349
 20
55.665507
 30
0.0
 10
283.894701
 20
56.650315
 30
0.0
 10
283.106855
 20
56.511396
 30
0.0
 10
281.023077
 20
68.329089
 30
0.0
 10
281.810923
 20
68.468008
 30
0.0
 10
281.637275
 20
69.452815
 30
0.0
 10
295.424583
 20
71.883890
 30
0.0
  0
LWPOLYLINE
  5
14a
100
AcDbEntity
  8
Layer_1
 62
1
100
AcDbPolyline
 90
14
 70
0
 10
284.936590
 20
50.741468
 30
0.0
 10
298.723898
 20
53.172542
 30
0.0
 10
298.897547
 20
52.187735
 30
0.0
 10
299.685393
 20
52.326653
 30
0.0
 10
301.769171
 20
40.508960
 30
0.0
 10
300.981325
 20
40.370042
 30
0.0
 10
301.154973
 20
39.385234
 30
0.0
 10
287.367664
 20
36.954159
 30
0.0
 10
287.194016
 20
37.938967
 30
0.0
 10
286.406170
 20
37.800049
 30
0.0
 10
284.322392
 20
49.617742
 30
0.0
 10
285.110238
 20
49.756660
 30
0.0
 10
284.936590
 20
50.741468
 30
0.0
 10
298.723898
 20
53.172542
 30
0.0
  0
LWPOLYLINE
  5
14b
100
AcDbEntity
  8
Layer_1
 62
1
100
AcDbPolyline
 90
14
 70
0
 10
287.672305
 20
144.643097
 30
0.0
 10
301.459613
 20
147.074171
 30
0.0
 10
301.633262
 20
146.089363
 30
0.0
 10
302.421108
 20
146.228282
 30
0.0
 10
304.504886
 20
134.410589
 30
0.0
 10
303.717040
 20
134.271670
 30
0.0
 10
303.890688
 20
133.286863
 30
0.0
 10
290.103379
 20
130.855788
 30
0.0
 10
289.929731
 20
131.840596
 30
0.0
 10
289.141885
 20
131.701677
 30
0.0
 10
287.058107
 20
143.519370
 30
0.0
 10
287.845953
 20
143.658289
 30
0.0
 10
287.672305
 20
144.643097
 30
0.0
 10
301.459613
 20
147.074171
 30
0.0
  0
LWPOLYLINE
  5
14c
100
AcDbEntity
  8
Layer_1
 62
1
100
AcDbPolyline
 90
14
 70
0
 10
290.971620
 20
125.931749
 30
0.0
 10
304.758929
 20
128.362824
 30
0.0
 10
304.932577
 20
127.378016
 30
0.0
 10
305.720423
 20
127.516935
 30
0.0
 10
307.804201
 20
115.699242
 30
0.0
 10
307.016355
 20
115.560323
 30
0.0
 10
307.190003
 20
114.575515
 30
0.0
 10
293.402695
 20
112.144441
 30
0.0
 10
293.229047
 20
113.129249
 30
0.0
 10
292.441200
 20
112.990330
 30
0.0
 10
290.357422
 20
124.808023
 30
0.0
 10
291.145268
 20
124.946942
 30
0.0
 10
290.971620
 20
125.931749
 30
0.0
 10
304.758929
 20
128.362824
 30
0.0
  0
LWPOLYLINE
  5
14d
100
AcDbEntity
  8
Layer_1
 62
1
100
AcDbPolyline
 90
14
 70
0
 10
294.270936
 20
107.220402
 30
0.0
 10
308.058244
 20
109.651477
 30
0.0
 10
308.231892
 20
108.666669
 30
0.0
 10
309.019739
 20
108.805587
 30
0.0
 10
311.103517
 20
96.987894
 30
0.0
 10
310.315670
 20
96.848976
 30
0.0
 10
310.489319
 20
95.864168
 30
0.0
 10
296.702010
 20
93.433093
 30
0.0
 10
296.528362
 20
94.417901
 30
0.0
 10
295.740516
 20
94.278983
 30
0.0
 10
293.656738
 20
106.096676
 30
0.0
 10
294.444584
 20
106.235594
 30
0.0
 10
294.270936
 20
107.220402
 30
0.0
 10
308.058244
 20
109.651477
 30
0.0
  0
LWPOLYLINE
  5
14e
100
AcDbEntity
  8
Layer_1
 62
1
100
AcDbPolyline
 90
14
 70
0
 10
297.570251
 20
88.509055
 30
0.0
 10
311.357560
 20
90.940129
 30
0.0
 10
311.531208
 20
89.955321
 30
0.0
 10
312.319054
 20
90.094240
 30
0.0
 10
314.402832
 20
78.276547
 30
0.0
 10
313.614986
 20
78.137628
 30
0.0
 10
313.788634
 20
77.152821
 30
0.0
 10
300.001325
 20
74.721746
 30
0.0
 10
299.827677
 20
75.706554
 30
0.0
 10
299.039831
 20
75.567635
 30
0.0
 10
296.956053
 20
87.385328
 30
0.0
 10
297.743899
 20
87.524247
 30
0.0
 10
297.570251
 20
88.509055
 30
0.0
 10
311.357560
 20
90.940129
 30
0.0
  0
LWPOLYLINE
  5
14f
100
AcDbEntity
  8
Layer_1
 62
1
100
AcDbPolyline
 90
14
 70
0
 10
300.869566
 20
69.797707
 30
0.0
 10
314.656875
 20
72.228782
 30
0.0
 10
314.830523
 20
71.243974
 30
0.0
 10
315.618369
 20
71.382893
 30
0.0
 10
317.702147
 20
59.565200
 30
0.0
 10
316.914301
 20
59.426281
 30
0.0
 10
317.087949
 20
58.441473
 30
0.0
 10
303.300641
 20
56.010399
 30
0.0
 10
303.126993
 20
56.995207
 30
0.0
 10
302.339146
 20
56.856288
 30
0.0
 10
300.255368
 20
68.673981
 30
0.0
 10
301.043215
 20
68.812900
 30
0.0
 10
300.869566
 20
69.797707
 30
0.0
 10
314.656875
 20
72.228782
 30
0.0
  0
LWPOLYLINE
  5
150
100
AcDbEntity
  8
Layer_1
 62
1
100
AcDbPolyline
 90
14
 70
0
 10
304.168882
 20
51.086360
 30
0.0
 10
317.956190
 20
53.517435
 30
0.0
 10
318.129838
 20
52.532627
 30
0.0
 10
318.917685
 20
52.671545
 30
0.0
 10
321.001463
 20
40.853852
 30
0.0
 10
320.213617
 20
40.714934
 30
0.0
 10
320.387265
 20
39.730126
 30
0.0
 10
306.599956
 20
37.299052
 30
0.0
 10
306.426308
 20
38.283859
 30
0.0
 10
305.638462
 20
38.144941
 30
0.0
 10
303.554684
 20
49.962634
 30
0.0
 10
304.342530
 20
50.101552
 30
0.0
 10
304.168882
 20
51.086360
 30
0.0
 10
317.956190
 20
53.517435
 30
0.0
  0
LWPOLYLINE
  5
151
100
AcDbEntity
  8
Layer_1
 62
1
100
AcDbPolyline
 90
14
 70
0
 10
306.383652
 20
147.942412
 30
0.0
 10
320.170961
 20
150.373487
 30
0.0
 10
320.344609
 20
149.388679
 30
0.0
 10
321.132455
 20
149.527597
 30
0.0
 10
323.216233
 20
137.709904
 30
0.0
 10
322.428387
 20
137.570986
 30
0.0
 10
322.602035
 20
136.586178
 30
0.0
 10
308.814727
 20
134.155103
 30
0.0
 10
308.641078
 20
135.139911
 30
0.0
 10
307.853232
 20
135.000993
 30
0.0
 10
305.769454
 20
146.818686
 30
0.0
 10
306.557300
 20
146.957604
 30
0.0
 10
306.383652
 20
147.942412
 30
0.0
 10
320.170961
 20
150.373487
 30
0.0
  0
LWPOLYLINE
  5
152
100
AcDbEntity
  8
Layer_1
 62
1
100
AcDbPolyline
 90
14
 70
0
 10
309.682968
 20
129.231065
 30
0.0
 10
323.470276
 20
131.662139
 30
0.0
 10
323.643924
 20
130.677331
 30
0.0
 10
324.431770
 20
130.816250
 30
0.0
 10
326.515549
 20
118.998557
 30
0.0
 10
325.727702
 20
118.859638
 30
0.0
 10
325.901351
 20
117.874831
 30
0.0
 10
312.114042
 20
115.443756
 30
0.0
 10
311.940394
 20
116.428564
 30
0.0
 10
311.152548
 20
116.289645
 30
0.0
 10
309.068770
 20
128.107338
 30
0.0
 10
309.856616
 20
128.246257
 30
0.0
 10
309.682968
 20
129.231065
 30
0.0
 10
323.470276
 20
131.662139
 30
0.0
  0
LWPOLYLINE
  5
153
100
AcDbEntity
  8
Layer_1
 62
1
100
AcDbPolyline
 90
14
 70
0
 10
312.982283
 20
110.519717
 30
0.0
 10
326.769591
 20
112.950792
 30
0.0
 10
326.943240
 20
111.965984
 30
0.0
 10
327.731086
 20
112.104903
 30
0.0
 10
329.814864
 20
100.287210
 30
0.0
 10
329.027018
 20
100.148291
 30
0.0
 10
329.200666
 20
99.163483
 30
0.0
 10
315.413357
 20
96.732409
 30
0.0
 10
315.239709
 20
97.717217
 30
0.0
 10
314.451863
 20
97.578298
 30
0.0
 10
312.368085
 20
109.395991
 30
0.0
 10
313.155931
 20
109.534910
 30
0.0
 10
312.982283
 20
110.519717
 30
0.0
 10
326.769591
 20
112.950792
 30
0.0
  0
LWPOLYLINE
  5
154
100
AcDbEntity
  8
Layer_1
 62
1
100
AcDbPolyline
 90
14
 70
0
 10
316.281598
 20
91.808370
 30
0.0
 10
330.068907
 20
94.239445
 30
0.0
 10
330.242555
 20
93.254637
 30
0.0
 10
331.030401
 20
93.393555
 30
0.0
 10
333.114179
 20
81.575862
 30
0.0
 10
332.326333
 20
81.436944
 30
0.0
 10
332.499981
 20
80.452136
 30
0.0
 10
318.712673
 20
78.021062
 30
0.0
 10
318.539025
 20
79.005869
 30
0.0
 10
317.751178
 20
78.866951
 30
0.0
 10
315.667400
 20
90.684644
 30
0.0
 10
316.455246
 20
90.823562
 30
0.0
 10
316.281598
 20
91.808370
 30
0.0
 10
330.068907
 20
94.239445
 30
0.0
  0
LWPOLYLINE
  5
155
100
AcDbEntity
  8
Layer_1
 62
1
100
AcDbPolyline
 90
14
 70
0
 10
319.580914
 20
73.097023
 30
0.0
 10
333.368222
 20
75.528097
 30
0.0
 10
333.541870
 20
74.543290
 30
0.0
 10
334.329717
 20
74.682208
 30
0.0
 10
336.413495
 20
62.864515
 30
0.0
 10
335.625649
 20
62.725596
 30
0.0
 10
335.799297
 20
61.740789
 30
0.0
 10
322.011988
 20
59.309714
 30
0.0
 10
321.838340
 20
60.294522
 30
0.0
 10
321.050494
 20
60.155603
 30
0.0
 10
318.966716
 20
71.973296
 30
0.0
 10
319.754562
 20
72.112215
 30
0.0
 10
319.580914
 20
73.097023
 30
0.0
 10
333.368222
 20
75.528097
 30
0.0
  0
SPLINE
  5
156
100
AcDbEntity
  8
Layer_1
 62
1
100
AcDbSpline
 70
8
 71
3
 72
8
 73
4
 74
0
 40
0
 40
0
 40
0
 40
0
 40
1
 40
1
 40
1
 40
1
 10
32.322970
 20
156.050000
 30
0.0
 10
32.322970
 20
155.639145
 30
0.0
 10
32.103781
 20
155.259499
 30
0.0
 10
31.747970
 20
155.054071
 30
0.0
  0
SPLINE
  5
157
100
AcDbEntity
  8
Layer_1
 62
1
100
AcDbSpline
 70
8
 71
3
 72
8
 73
4
 74
0
 40
0
 40
0
 40
0
 40
0
 40
1
 40
1
 40
1
 40
1
 10
31.747970
 20
155.054071
 30
0.0
 10
31.392159
 20
154.848643
 30
0.0
 10
30.953781
 20
154.848643
 30
0.0
 10
30.597970
 20
155.054071
 30
0.0
  0
SPLINE
  5
158
100
AcDbEntity
  8
Layer_1
 62
1
100
AcDbSpline
 70
8
 71
3
 72
8
 73
4
 74
0
 40
0
 40
0
 40
0
 40
0
 40
1
 40
1
 40
1
 40
1
 10
30.597970
 20
155.054071
 30
0.0
 10
30.242159
 20
155.259499
 30
0.0
 10
30.022970
 20
155.639145
 30
0.0
 10
30.022970
 20
156.050000
 30
0.0
  0
SPLINE
  5
159
100
AcDbEntity
  8
Layer_1
 62
1
100
AcDbSpline
 70
8
 71
3
 72
8
 73
4
 74
0
 40
0
 40
0
 40
0
 40
0
 40
1
 40
1
 40
1
 40
1
 10
30.022970
 20
156.050000
 30
0.0
 10
30.022970
 20
156.460855
 30
0.0
 10
30.242159
 20
156.840502
 30
0.0
 10
30.597970
 20
157.045929
 30
0.0
  0
SPLINE
  5
15a
100
AcDbEntity
  8
Layer_1
 62
1
100
AcDbSpline
 70
8
 71
3
 72
8
 73
4
 74
0
 40
0
 40
0
 40
0
 40
0
 40
1
 40
1
 40
1
 40
1
 10
30.597970
 20
157.045929
 30
0.0
 10
30.953781
 20
157.251357
 30
0.0
 10
31.392159
 20
157.251357
 30
0.0
 10
31.747970
 20
157.045929
 30
0.0
  0
SPLINE
  5
15b
100
AcDbEntity
  8
Layer_1
 62
1
100
AcDbSpline
 70
8
 71
3
 72
8
 73
4
 74
0
 40
0
 40
0
 40
0
 40
0
 40
1
 40
1
 40
1
 40
1
 10
31.747970
 20
157.045929
 30
0.0
 10
32.103781
 20
156.840502
 30
0.0
 10
32.322970
 20
156.460855
 30
0.0
 10
32.322970
 20
156.050000
 30
0.0
  0
LWPOLYLINE
  5
15c
100
AcDbEntity
  8
Layer_1
 62
1
100
AcDbPolyline
 90
14
 70
0
 10
322.880229
 20
54.385675
 30
0.0
 10
336.667538
 20
56.816750
 30
0.0
 10
336.841186
 20
55.831942
 30
0.0
 10
337.629032
 20
55.970861
 30
0.0
 10
339.712810
 20
44.153168
 30
0.0
 10
338.924964
 20
44.014249
 30
0.0
 10
339.098612
 20
43.029441
 30
0.0
 10
325.311304
 20
40.598367
 30
0.0
 10
325.137655
 20
41.583175
 30
0.0
 10
324.349809
 20
41.444256
 30
0.0
 10
322.266031
 20
53.261949
 30
0.0
 10
323.053877
 20
53.400868
 30
0.0
 10
322.880229
 20
54.385675
 30
0.0
 10
336.667538
 20
56.816750
 30
0.0
  0
SPLINE
  5
15d
100
AcDbEntity
  8
Layer_1
 62
1
100
AcDbSpline
 70
8
 71
3
 72
8
 73
4
 74
0
 40
0
 40
0
 40
0
 40
0
 40
1
 40
1
 40
1
 40
1
 10
154.322970
 20
156.050000
 30
0.0
 10
154.322970
 20
155.639145
 30
0.0
 10
154.103781
 20
155.259499
 30
0.0
 10
153.747970
 20
155.054071
 30
0.0
  0
SPLINE
  5
15e
100
AcDbEntity
  8
Layer_1
 62
1
100
AcDbSpline
 70
8
 71
3
 72
8
 73
4
 74
0
 40
0
 40
0
 40
0
 40
0
 40
1
 40
1
 40
1
 40
1
 10
153.747970
 20
155.054071
 30
0.0
 10
153.392159
 20
154.848643
 30
0.0
 10
152.953781
 20
154.848643
 30
0.0
 10
152.597970
 20
155.054071
 30
0.0
  0
SPLINE
  5
15f
100
AcDbEntity
  8
Layer_1
 62
1
100
AcDbSpline
 70
8
 71
3
 72
8
 73
4
 74
0
 40
0
 40
0
 40
0
 40
0
 40
1
 40
1
 40
1
 40
1
 10
152.597970
 20
155.054071
 30
0.0
 10
152.242159
 20
155.259499
 30
0.0
 10
152.022970
 20
155.639145
 30
0.0
 10
152.022970
 20
156.050000
 30
0.0
  0
SPLINE
  5
160
100
AcDbEntity
  8
Layer_1
 62
1
100
AcDbSpline
 70
8
 71
3
 72
8
 73
4
 74
0
 40
0
 40
0
 40
0
 40
0
 40
1
 40
1
 40
1
 40
1
 10
152.022970
 20
156.050000
 30
0.0
 10
152.022970
 20
156.460855
 30
0.0
 10
152.242159
 20
156.840502
 30
0.0
 10
152.597970
 20
157.045929
 30
0.0
  0
SPLINE
  5
161
100
AcDbEntity
  8
Layer_1
 62
1
100
AcDbSpline
 70
8
 71
3
 72
8
 73
4
 74
0
 40
0
 40
0
 40
0
 40
0
 40
1
 40
1
 40
1
 40
1
 10
152.597970
 20
157.045929
 30
0.0
 10
152.953781
 20
157.251357
 30
0.0
 10
153.392159
 20
157.251357
 30
0.0
 10
153.747970
 20
157.045929
 30
0.0
  0
SPLINE
  5
162
100
AcDbEntity
  8
Layer_1
 62
1
100
AcDbSpline
 70
8
 71
3
 72
8
 73
4
 74
0
 40
0
 40
0
 40
0
 40
0
 40
1
 40
1
 40
1
 40
1
 10
153.747970
 20
157.045929
 30
0.0
 10
154.103781
 20
156.840502
 30
0.0
 10
154.322970
 20
156.460855
 30
0.0
 10
154.322970
 20
156.050000
 30
0.0
  0
LWPOLYLINE
  5
163
100
AcDbEntity
  8
Layer_1
 62
1
100
AcDbPolyline
 90
1
 70
1
 10
32.322970
 20
156.050000
 30
0.0
  0
SPLINE
  5
164
100
AcDbEntity
  8
Layer_1
 62
1
100
AcDbSpline
 70
8
 71
3
 72
8
 73
4
 74
0
 40
0
 40
0
 40
0
 40
0
 40
1
 40
1
 40
1
 40
1
 10
204.322970
 20
156.050000
 30
0.0
 10
204.322970
 20
155.639145
 30
0.0
 10
204.103781
 20
155.259499
 30
0.0
 10
203.747970
 20
155.054071
 30
0.0
  0
SPLINE
  5
165
100
AcDbEntity
  8
Layer_1
 62
1
100
AcDbSpline
 70
8
 71
3
 72
8
 73
4
 74
0
 40
0
 40
0
 40
0
 40
0
 40
1
 40
1
 40
1
 40
1
 10
203.747970
 20
155.054071
 30
0.0
 10
203.392159
 20
154.848643
 30
0.0
 10
202.953781
 20
154.848643
 30
0.0
 10
202.597970
 20
155.054071
 30
0.0
  0
SPLINE
  5
166
100
AcDbEntity
  8
Layer_1
 62
1
100
AcDbSpline
 70
8
 71
3
 72
8
 73
4
 74
0
 40
0
 40
0
 40
0
 40
0
 40
1
 40
1
 40
1
 40
1
 10
202.597970
 20
155.054071
 30
0.0
 10
202.242159
 20
155.259499
 30
0.0
 10
202.022970
 20
155.639145
 30
0.0
 10
202.022970
 20
156.050000
 30
0.0
  0
SPLINE
  5
167
100
AcDbEntity
  8
Layer_1
 62
1
100
AcDbSpline
 70
8
 71
3
 72
8
 73
4
 74
0
 40
0
 40
0
 40
0
 40
0
 40
1
 40
1
 40
1
 40
1
 10
202.022970
 20
156.050000
 30
0.0
 10
202.022970
 20
156.460855
 30
0.0
 10
202.242159
 20
156.840502
 30
0.0
 10
202.597970
 20
157.045929
 30
0.0
  0
SPLINE
  5
168
100
AcDbEntity
  8
Layer_1
 62
1
100
AcDbSpline
 70
8
 71
3
 72
8
 73
4
 74
0
 40
0
 40
0
 40
0
 40
0
 40
1
 40
1
 40
1
 40
1
 10
202.597970
 20
157.045929
 30
0.0
 10
202.953781
 20
157.251357
 30
0.0
 10
203.392159
 20
157.251357
 30
0.0
 10
203.747970
 20
157.045929
 30
0.0
  0
SPLINE
  5
169
100
AcDbEntity
  8
Layer_1
 62
1
100
AcDbSpline
 70
8
 71
3
 72
8
 73
4
 74
0
 40
0
 40
0
 40
0
 40
0
 40
1
 40
1
 40
1
 40
1
 10
203.747970
 20
157.045929
 30
0.0
 10
204.103781
 20
156.840502
 30
0.0
 10
204.322970
 20
156.460855
 30
0.0
 10
204.322970
 20
156.050000
 30
0.0
  0
LWPOLYLINE
  5
16a
100
AcDbEntity
  8
Layer_1
 62
1
100
AcDbPolyline
 90
1
 70
1
 10
154.322970
 20
156.050000
 30
0.0
  0
SPLINE
  5
16b
100
AcDbEntity
  8
Layer_1
 62
1
100
AcDbSpline
 70
8
 71
3
 72
8
 73
4
 74
0
 40
0
 40
0
 40
0
 40
0
 40
1
 40
1
 40
1
 40
1
 10
326.322970
 20
156.050000
 30
0.0
 10
326.322970
 20
155.639145
 30
0.0
 10
326.103781
 20
155.259499
 30
0.0
 10
325.747970
 20
155.054071
 30
0.0
  0
SPLINE
  5
16c
100
AcDbEntity
  8
Layer_1
 62
1
100
AcDbSpline
 70
8
 71
3
 72
8
 73
4
 74
0
 40
0
 40
0
 40
0
 40
0
 40
1
 40
1
 40
1
 40
1
 10
325.747970
 20
155.054071
 30
0.0
 10
325.392159
 20
154.848643
 30
0.0
 10
324.953781
 20
154.848643
 30
0.0
 10
324.597970
 20
155.054071
 30
0.0
  0
SPLINE
  5
16d
100
AcDbEntity
  8
Layer_1
 62
1
100
AcDbSpline
 70
8
 71
3
 72
8
 73
4
 74
0
 40
0
 40
0
 40
0
 40
0
 40
1
 40
1
 40
1
 40
1
 10
324.597970
 20
155.054071
 30
0.0
 10
324.242159
 20
155.259499
 30
0.0
 10
324.022970
 20
155.639145
 30
0.0
 10
324.022970
 20
156.050000
 30
0.0
  0
SPLINE
  5
16e
100
AcDbEntity
  8
Layer_1
 62
1
100
AcDbSpline
 70
8
 71
3
 72
8
 73
4
 74
0
 40
0
 40
0
 40
0
 40
0
 40
1
 40
1
 40
1
 40
1
 10
324.022970
 20
156.050000
 30
0.0
 10
324.022970
 20
156.460855
 30
0.0
 10
324.242159
 20
156.840502
 30
0.0
 10
324.597970
 20
157.045929
 30
0.0
  0
SPLINE
  5
16f
100
AcDbEntity
  8
Layer_1
 62
1
100
AcDbSpline
 70
8
 71
3
 72
8
 73
4
 74
0
 40
0
 40
0
 40
0
 40
0
 40
1
 40
1
 40
1
 40
1
 10
324.597970
 20
157.045929
 30
0.0
 10
324.953781
 20
157.251357
 30
0.0
 10
325.392159
 20
157.251357
 30
0.0
 10
325.747970
 20
157.045929
 30
0.0
  0
SPLINE
  5
170
100
AcDbEntity
  8
Layer_1
 62
1
100
AcDbSpline
 70
8
 71
3
 72
8
 73
4
 74
0
 40
0
 40
0
 40
0
 40
0
 40
1
 40
1
 40
1
 40
1
 10
325.747970
 20
157.045929
 30
0.0
 10
326.103781
 20
156.840502
 30
0.0
 10
326.322970
 20
156.460855
 30
0.0
 10
326.322970
 20
156.050000
 30
0.0
  0
LWPOLYLINE
  5
171
100
AcDbEntity
  8
Layer_1
 62
1
100
AcDbPolyline
 90
1
 70
1
 10
204.322970
 20
156.050000
 30
0.0
  0
SPLINE
  5
172
100
AcDbEntity
  8
Layer_1
 62
1
100
AcDbSpline
 70
8
 71
3
 72
8
 73
4
 74
0
 40
0
 40
0
 40
0
 40
0
 40
1
 40
1
 40
1
 40
1
 10
11.322970
 20
38.050000
 30
0.0
 10
11.322970
 20
37.639145
 30
0.0
 10
11.103781
 20
37.259499
 30
0.0
 10
10.747970
 20
37.054071
 30
0.0
  0
SPLINE
  5
173
100
AcDbEntity
  8
Layer_1
 62
1
100
AcDbSpline
 70
8
 71
3
 72
8
 73
4
 74
0
 40
0
 40
0
 40
0
 40
0
 40
1
 40
1
 40
1
 40
1
 10
10.747970
 20
37.054071
 30
0.0
 10
10.392159
 20
36.848643
 30
0.0
 10
9.953781
 20
36.848643
 30
0.0
 10
9.597970
 20
37.054071
 30
0.0
  0
SPLINE
  5
174
100
AcDbEntity
  8
Layer_1
 62
1
100
AcDbSpline
 70
8
 71
3
 72
8
 73
4
 74
0
 40
0
 40
0
 40
0
 40
0
 40
1
 40
1
 40
1
 40
1
 10
9.597970
 20
37.054071
 30
0.0
 10
9.242159
 20
37.259499
 30
0.0
 10
9.022970
 20
37.639145
 30
0.0
 10
9.022970
 20
38.050000
 30
0.0
  0
SPLINE
  5
175
100
AcDbEntity
  8
Layer_1
 62
1
100
AcDbSpline
 70
8
 71
3
 72
8
 73
4
 74
0
 40
0
 40
0
 40
0
 40
0
 40
1
 40
1
 40
1
 40
1
 10
9.022970
 20
38.050000
 30
0.0
 10
9.022970
 20
38.460855
 30
0.0
 10
9.242159
 20
38.840502
 30
0.0
 10
9.597970
 20
39.045929
 30
0.0
  0
SPLINE
  5
176
100
AcDbEntity
  8
Layer_1
 62
1
100
AcDbSpline
 70
8
 71
3
 72
8
 73
4
 74
0
 40
0
 40
0
 40
0
 40
0
 40
1
 40
1
 40
1
 40
1
 10
9.597970
 20
39.045929
 30
0.0
 10
9.953781
 20
39.251357
 30
0.0
 10
10.392159
 20
39.251357
 30
0.0
 10
10.747970
 20
39.045929
 30
0.0
  0
SPLINE
  5
177
100
AcDbEntity
  8
Layer_1
 62
1
100
AcDbSpline
 70
8
 71
3
 72
8
 73
4
 74
0
 40
0
 40
0
 40
0
 40
0
 40
1
 40
1
 40
1
 40
1
 10
10.747970
 20
39.045929
 30
0.0
 10
11.103781
 20
38.840502
 30
0.0
 10
11.322970
 20
38.460855
 30
0.0
 10
11.322970
 20
38.050000
 30
0.0
  0
LWPOLYLINE
  5
178
100
AcDbEntity
  8
Layer_1
 62
1
100
AcDbPolyline
 90
1
 70
1
 10
326.322970
 20
156.050000
 30
0.0
  0
SPLINE
  5
179
100
AcDbEntity
  8
Layer_1
 62
1
100
AcDbSpline
 70
8
 71
3
 72
8
 73
4
 74
0
 40
0
 40
0
 40
0
 40
0
 40
1
 40
1
 40
1
 40
1
 10
149.322970
 20
10.050000
 30
0.0
 10
149.322970
 20
9.639145
 30
0.0
 10
149.103781
 20
9.259499
 30
0.0
 10
148.747970
 20
9.054071
 30
0.0
  0
SPLINE
  5
17a
100
AcDbEntity
  8
Layer_1
 62
1
100
AcDbSpline
 70
8
 71
3
 72
8
 73
4
 74
0
 40
0
 40
0
 40
0
 40
0
 40
1
 40
1
 40
1
 40
1
 10
148.747970
 20
9.054071
 30
0.0
 10
148.392159
 20
8.848643
 30
0.0
 10
147.953781
 20
8.848643
 30
0.0
 10
147.597970
 20
9.054071
 30
0.0
  0
SPLINE
  5
17b
100
AcDbEntity
  8
Layer_1
 62
1
100
AcDbSpline
 70
8
 71
3
 72
8
 73
4
 74
0
 40
0
 40
0
 40
0
 40
0
 40
1
 40
1
 40
1
 40
1
 10
147.597970
 20
9.054071
 30
0.0
 10
147.242159
 20
9.259499
 30
0.0
 10
147.022970
 20
9.639145
 30
0.0
 10
147.022970
 20
10.050000
 30
0.0
  0
SPLINE
  5
17c
100
AcDbEntity
  8
Layer_1
 62
1
100
AcDbSpline
 70
8
 71
3
 72
8
 73
4
 74
0
 40
0
 40
0
 40
0
 40
0
 40
1
 40
1
 40
1
 40
1
 10
147.022970
 20
10.050000
 30
0.0
 10
147.022970
 20
10.460855
 30
0.0
 10
147.242159
 20
10.840502
 30
0.0
 10
147.597970
 20
11.045929
 30
0.0
  0
SPLINE
  5
17d
100
AcDbEntity
  8
Layer_1
 62
1
100
AcDbSpline
 70
8
 71
3
 72
8
 73
4
 74
0
 40
0
 40
0
 40
0
 40
0
 40
1
 40
1
 40
1
 40
1
 10
147.597970
 20
11.045929
 30
0.0
 10
147.953781
 20
11.251357
 30
0.0
 10
148.392159
 20
11.251357
 30
0.0
 10
148.747970
 20
11.045929
 30
0.0
  0
SPLINE
  5
17e
100
AcDbEntity
  8
Layer_1
 62
1
100
AcDbSpline
 70
8
 71
3
 72
8
 73
4
 74
0
 40
0
 40
0
 40
0
 40
0
 40
1
 40
1
 40
1
 40
1
 10
148.747970
 20
11.045929
 30
0.0
 10
149.103781
 20
10.840502
 30
0.0
 10
149.322970
 20
10.460855
 30
0.0
 10
149.322970
 20
10.050000
 30
0.0
  0
LWPOLYLINE
  5
17f
100
AcDbEntity
  8
Layer_1
 62
1
100
AcDbPolyline
 90
1
 70
1
 10
11.322970
 20
38.050000
 30
0.0
  0
SPLINE
  5
180
100
AcDbEntity
  8
Layer_1
 62
1
100
AcDbSpline
 70
8
 71
3
 72
8
 73
4
 74
0
 40
0
 40
0
 40
0
 40
0
 40
1
 40
1
 40
1
 40
1
 10
209.322970
 20
10.050000
 30
0.0
 10
209.322970
 20
9.639145
 30
0.0
 10
209.103781
 20
9.259499
 30
0.0
 10
208.747970
 20
9.054071
 30
0.0
  0
SPLINE
  5
181
100
AcDbEntity
  8
Layer_1
 62
1
100
AcDbSpline
 70
8
 71
3
 72
8
 73
4
 74
0
 40
0
 40
0
 40
0
 40
0
 40
1
 40
1
 40
1
 40
1
 10
208.747970
 20
9.054071
 30
0.0
 10
208.392159
 20
8.848643
 30
0.0
 10
207.953781
 20
8.848643
 30
0.0
 10
207.597970
 20
9.054071
 30
0.0
  0
SPLINE
  5
182
100
AcDbEntity
  8
Layer_1
 62
1
100
AcDbSpline
 70
8
 71
3
 72
8
 73
4
 74
0
 40
0
 40
0
 40
0
 40
0
 40
1
 40
1
 40
1
 40
1
 10
207.597970
 20
9.054071
 30
0.0
 10
207.242159
 20
9.259499
 30
0.0
 10
207.022970
 20
9.639145
 30
0.0
 10
207.022970
 20
10.050000
 30
0.0
  0
SPLINE
  5
183
100
AcDbEntity
  8
Layer_1
 62
1
100
AcDbSpline
 70
8
 71
3
 72
8
 73
4
 74
0
 40
0
 40
0
 40
0
 40
0
 40
1
 40
1
 40
1
 40
1
 10
207.022970
 20
10.050000
 30
0.0
 10
207.022970
 20
10.460855
 30
0.0
 10
207.242159
 20
10.840502
 30
0.0
 10
207.597970
 20
11.045929
 30
0.0
  0
SPLINE
  5
184
100
AcDbEntity
  8
Layer_1
 62
1
100
AcDbSpline
 70
8
 71
3
 72
8
 73
4
 74
0
 40
0
 40
0
 40
0
 40
0
 40
1
 40
1
 40
1
 40
1
 10
207.597970
 20
11.045929
 30
0.0
 10
207.953781
 20
11.251357
 30
0.0
 10
208.392159
 20
11.251357
 30
0.0
 10
208.747970
 20
11.045929
 30
0.0
  0
SPLINE
  5
185
100
AcDbEntity
  8
Layer_1
 62
1
100
AcDbSpline
 70
8
 71
3
 72
8
 73
4
 74
0
 40
0
 40
0
 40
0
 40
0
 40
1
 40
1
 40
1
 40
1
 10
208.747970
 20
11.045929
 30
0.0
 10
209.103781
 20
10.840502
 30
0.0
 10
209.322970
 20
10.460855
 30
0.0
 10
209.322970
 20
10.050000
 30
0.0
  0
LWPOLYLINE
  5
186
100
AcDbEntity
  8
Layer_1
 62
1
100
AcDbPolyline
 90
1
 70
1
 10
149.322970
 20
10.050000
 30
0.0
  0
SPLINE
  5
187
100
AcDbEntity
  8
Layer_1
 62
1
100
AcDbSpline
 70
8
 71
3
 72
8
 73
4
 74
0
 40
0
 40
0
 40
0
 40
0
 40
1
 40
1
 40
1
 40
1
 10
347.322970
 20
38.050000
 30
0.0
 10
347.322970
 20
37.639145
 30
0.0
 10
347.103781
 20
37.259499
 30
0.0
 10
346.747970
 20
37.054071
 30
0.0
  0
SPLINE
  5
188
100
AcDbEntity
  8
Layer_1
 62
1
100
AcDbSpline
 70
8
 71
3
 72
8
 73
4
 74
0
 40
0
 40
0
 40
0
 40
0
 40
1
 40
1
 40
1
 40
1
 10
346.747970
 20
37.054071
 30
0.0
 10
346.392159
 20
36.848643
 30
0.0
 10
345.953781
 20
36.848643
 30
0.0
 10
345.597970
 20
37.054071
 30
0.0
  0
SPLINE
  5
189
100
AcDbEntity
  8
Layer_1
 62
1
100
AcDbSpline
 70
8
 71
3
 72
8
 73
4
 74
0
 40
0
 40
0
 40
0
 40
0
 40
1
 40
1
 40
1
 40
1
 10
345.597970
 20
37.054071
 30
0.0
 10
345.242159
 20
37.259499
 30
0.0
 10
345.022970
 20
37.639145
 30
0.0
 10
345.022970
 20
38.050000
 30
0.0
  0
SPLINE
  5
18a
100
AcDbEntity
  8
Layer_1
 62
1
100
AcDbSpline
 70
8
 71
3
 72
8
 73
4
 74
0
 40
0
 40
0
 40
0
 40
0
 40
1
 40
1
 40
1
 40
1
 10
345.022970
 20
38.050000
 30
0.0
 10
345.022970
 20
38.460855
 30
0.0
 10
345.242159
 20
38.840502
 30
0.0
 10
345.597970
 20
39.045929
 30
0.0
  0
SPLINE
  5
18b
100
AcDbEntity
  8
Layer_1
 62
1
100
AcDbSpline
 70
8
 71
3
 72
8
 73
4
 74
0
 40
0
 40
0
 40
0
 40
0
 40
1
 40
1
 40
1
 40
1
 10
345.597970
 20
39.045929
 30
0.0
 10
345.953781
 20
39.251357
 30
0.0
 10
346.392159
 20
39.251357
 30
0.0
 10
346.747970
 20
39.045929
 30
0.0
  0
SPLINE
  5
18c
100
AcDbEntity
  8
Layer_1
 62
1
100
AcDbSpline
 70
8
 71
3
 72
8
 73
4
 74
0
 40
0
 40
0
 40
0
 40
0
 40
1
 40
1
 40
1
 40
1
 10
346.747970
 20
39.045929
 30
0.0
 10
347.103781
 20
38.840502
 30
0.0
 10
347.322970
 20
38.460855
 30
0.0
 10
347.322970
 20
38.050000
 30
0.0
  0
LWPOLYLINE
  5
18d
100
AcDbEntity
  8
Layer_1
 62
1
100
AcDbPolyline
 90
1
 70
1
 10
209.322970
 20
10.050000
 30
0.0
  0
LWPOLYLINE
  5
18e
100
AcDbEntity
  8
Layer_1
 62
1
100
AcDbPolyline
 90
1
 70
1
 10
347.322970
 20
38.050000
 30
0.0
  0
LWPOLYLINE
  5
18f
100
AcDbEntity
  8
Layer_1
 62
1
100
AcDbPolyline
 90
2
 70
0
 10
31.172970
 20
161.050000
 30
0.0
 10
325.172970
 20
161.050000
 30
0.0
  0
LWPOLYLINE
  5
190
100
AcDbEntity
  8
Layer_1
 62
1
100
AcDbPolyline
 90
2
 70
0
 10
330.172970
 20
154.050000
 30
0.0
 10
351.172970
 20
40.050000
 30
0.0
  0
LWPOLYLINE
  5
191
100
AcDbEntity
  8
Layer_1
 62
1
100
AcDbPolyline
 90
2
 70
0
 10
343.172970
 20
32.050000
 30
0.0
 10
213.172970
 20
5.050000
 30
0.0
  0
LWPOLYLINE
  5
192
100
AcDbEntity
  8
Layer_1
 62
1
100
AcDbPolyline
 90
2
 70
0
 10
209.172970
 20
5.050000
 30
0.0
 10
147.172970
 20
5.050000
 30
0.0
  0
LWPOLYLINE
  5
193
100
AcDbEntity
  8
Layer_1
 62
1
100
AcDbPolyline
 90
2
 70
0
 10
143.172970
 20
5.050000
 30
0.0
 10
13.172970
 20
32.050000
 30
0.0
  0
SPLINE
  5
194
100
AcDbEntity
  8
Layer_1
 62
1
100
AcDbSpline
 70
8
 71
3
 72
8
 73
4
 74
0
 40
0
 40
0
 40
0
 40
0
 40
1
 40
1
 40
1
 40
1
 10
325.172970
 20
161.050000
 30
0.0
 10
327.646657
 20
161.050000
 30
0.0
 10
329.313323
 20
158.716667
 30
0.0
 10
330.172970
 20
154.050000
 30
0.0
  0
SPLINE
  5
195
100
AcDbEntity
  8
Layer_1
 62
1
100
AcDbSpline
 70
8
 71
3
 72
8
 73
4
 74
0
 40
0
 40
0
 40
0
 40
0
 40
1
 40
1
 40
1
 40
1
 10
351.172970
 20
40.050000
 30
0.0
 10
351.922697
 20
35.980054
 30
0.0
 10
349.256030
 20
33.313387
 30
0.0
 10
343.172970
 20
32.050000
 30
0.0
  0
SPLINE
  5
196
100
AcDbEntity
  8
Layer_1
 62
1
100
AcDbSpline
 70
8
 71
3
 72
8
 73
4
 74
0
 40
0
 40
0
 40
0
 40
0
 40
1
 40
1
 40
1
 40
1
 10
213.172970
 20
5.050000
 30
0.0
 10
213.172955
 20
5.050000
 30
0.0
 10
211.839621
 20
5.050000
 30
0.0
 10
209.172970
 20
5.050000
 30
0.0
  0
SPLINE
  5
197
100
AcDbEntity
  8
Layer_1
 62
1
100
AcDbSpline
 70
8
 71
3
 72
8
 73
4
 74
0
 40
0
 40
0
 40
0
 40
0
 40
1
 40
1
 40
1
 40
1
 10
147.172970
 20
5.050000
 30
0.0
 10
144.506293
 20
5.050000
 30
0.0
 10
143.172960
 20
5.050000
 30
0.0
 10
143.172970
 20
5.050000
 30
0.0
  0
SPLINE
  5
198
100
AcDbEntity
  8
Layer_1
 62
1
100
AcDbSpline
 70
8
 71
3
 72
8
 73
4
 74
0
 40
0
 40
0
 40
0
 40
0
 40
1
 40
1
 40
1
 40
1
 10
13.172970
 20
32.050000
 30
0.0
 10
7.089910
 20
33.313402
 30
0.0
 10
4.423243
 20
35.980069
 30
0.0
 10
5.172970
 20
40.050000
 30
0.0
  0
SPLINE
  5
199
100
AcDbEntity
  8
Layer_1
 62
1
100
AcDbSpline
 70
8
 71
3
 72
8
 73
4
 74
0
 40
0
 40
0
 40
0
 40
0
 40
1
 40
1
 40
1
 40
1
 10
26.172970
 20
154.050000
 30
0.0
 10
27.032617
 20
158.716667
 30
0.0
 10
28.699283
 20
161.050000
 30
0.0
 10
31.172970
 20
161.050000
 30
0.0
  0
LWPOLYLINE
  5
19a
100
AcDbEntity
  8
Layer_1
 62
1
100
AcDbPolyline
 90
2
 70
0
 10
5.172970
 20
40.050000
 30
0.0
 10
26.172970
 20
154.050000
 30
0.0
  0
ENDSEC
  0
SECTION
  2
OBJECTS
  0
DICTIONARY
  5
C
330
0
100
AcDbDictionary
  3
ACAD_GROUP
350
D
  3
ACAD_MLINESTYLE
350
17
  0
DICTIONARY
  5
D
330
C
100
AcDbDictionary
  0
DICTIONARY
  5
1A
330
C
100
AcDbDictionary
  0
DICTIONARY
  5
17
330
C
100
AcDbDictionary
  3
STANDARD
350
18
  0
DICTIONARY
  5
19
330
C
100
AcDbDictionary
  0
ENDSEC
  0
EOF
