  0
SECTION
  2
HEADER
  9
$ACADVER
  1
AC1014
  9
$HANDSEED
  5
FFFF
  9
$MEASUREMENT
 70
     1
  0
ENDSEC
  0
SECTION
  2
TABLES
  0
TABLE
  2
VPORT
  5
8
330
0
100
AcDbSymbolTable
 70
     4
  0
VPORT
  5
2E
330
8
100
AcDbSymbolTableRecord
100
AcDbViewportTableRecord
  2
*ACTIVE
 70
     0
 10
0.0
 20
0.0
 11
1.0
 21
1.0
 12
210.0
 22
148.5
 13
0.0
 23
0.0
 14
10.0
 24
10.0
 15
10.0
 25
10.0
 16
0.0
 26
0.0
 36
1.0
 17
0.0
 27
0.0
 37
0.0
 40
341.0
 41
1.24
 42
50.0
 43
0.0
 44
0.0
 50
0.0
 51
0.0
 71
     0
 72
   100
 73
     1
 74
     3
 75
     0
 76
     0
 77
     0
 78
     0
  0
ENDTAB
  0
TABLE
  2
LTYPE
  5
5
330
0
100
AcDbSymbolTable
 70
     1
  0
LTYPE
  5
14
330
5
100
AcDbSymbolTableRecord
100
AcDbLinetypeTableRecord
  2
BYBLOCK
 70
     0
  3

 72
    65
 73
     0
 40
0.0
  0
LTYPE
  5
15
330
5
100
AcDbSymbolTableRecord
100
AcDbLinetypeTableRecord
  2
BYLAYER
 70
     0
  3

 72
    65
 73
     0
 40
0.0
  0
LTYPE
  5
16
330
5
100
AcDbSymbolTableRecord
100
AcDbLinetypeTableRecord
  2
CONTINUOUS
 70
     0
  3
Solid line
 72
    65
 73
     0
 40
0.0
  0
ENDTAB
  0
TABLE
  2
LAYER
  5
2
100
AcDbSymbolTable
 70
1
  0
LAYER
  5
50
100
AcDbSymbolTableRecord
100
AcDbLayerTableRecord
  2
0
 70
0
  6
CONTINUOUS
  0
ENDTAB
  0
TABLE
  2
STYLE
  5
3
330
0
100
AcDbSymbolTable
 70
     1
  0
STYLE
  5
11
330
3
100
AcDbSymbolTableRecord
100
AcDbTextStyleTableRecord
  2
STANDARD
 70
     0
 40
0.0
 41
1.0
 50
0.0
 71
     0
 42
2.5
  3
txt
  4

  0
ENDTAB
  0
TABLE
  2
VIEW
  5
6
330
0
100
AcDbSymbolTable
 70
     0
  0
ENDTAB
  0
TABLE
  2
UCS
  5
7
330
0
100
AcDbSymbolTable
 70
     0
  0
ENDTAB
  0
TABLE
  2
APPID
  5
9
330
0
100
AcDbSymbolTable
 70
     2
  0
APPID
  5
12
330
9
100
AcDbSymbolTableRecord
100
AcDbRegAppTableRecord
  2
ACAD
 70
     0
  0
ENDTAB
  0
TABLE
  2
DIMSTYLE
  5
A
330
0
100
AcDbSymbolTable
 70
     1
  0
DIMSTYLE
105
27
330
A
100
AcDbSymbolTableRecord
100
AcDbDimStyleTableRecord
  2
ISO-25
 70
     0
  3

  4

  5

  6

  7

 40
1.0
 41
2.5
 42
0.625
 43
3.75
 44
1.25
 45
0.0
 46
0.0
 47
0.0
 48
0.0
140
2.5
141
2.5
142
0.0
143
0.03937007874016
144
1.0
145
0.0
146
1.0
147
0.625
 71
     0
 72
     0
 73
     0
 74
     0
 75
     0
 76
     0
 77
     1
 78
     8
170
     0
171
     3
172
     1
173
     0
174
     0
175
     0
176
     0
177
     0
178
     0
270
     2
271
     2
272
     2
273
     2
274
     3
340
11
275
     0
280
     0
281
     0
282
     0
283
     0
284
     8
285
     0
286
     0
287
     3
288
     0
  0
ENDTAB
  0
TABLE
  2
BLOCK_RECORD
  5
1
330
0
100
AcDbSymbolTable
 70
     1
  0
BLOCK_RECORD
  5
1F
330
1
100
AcDbSymbolTableRecord
100
AcDbBlockTableRecord
  2
*MODEL_SPACE
  0
BLOCK_RECORD
  5
1B
330
1
100
AcDbSymbolTableRecord
100
AcDbBlockTableRecord
  2
*PAPER_SPACE
  0
ENDTAB
  0
ENDSEC
  0
SECTION
  2
BLOCKS
  0
BLOCK
  5
20
330
1F
100
AcDbEntity
  8
0
100
AcDbBlockBegin
  2
*MODEL_SPACE
 70
     0
 10
0.0
 20
0.0
 30
0.0
  3
*MODEL_SPACE
  1

  0
ENDBLK
  5
21
330
1F
100
AcDbEntity
  8
0
100
AcDbBlockEnd
  0
BLOCK
  5
1C
330
1B
100
AcDbEntity
 67
     1
  8
0
100
AcDbBlockBegin
  2
*PAPER_SPACE
  1

  0
ENDBLK
  5
1D
330
1B
100
AcDbEntity
 67
     1
  8
0
100
AcDbBlockEnd
  0
ENDSEC
  0
SECTION
  2
ENTITIES
  0
SPLINE
  5
100
100
AcDbEntity
  8
0
 62
7
100
AcDbSpline
 70
8
 71
3
 72
8
 73
4
 74
0
 40
0
 40
0
 40
0
 40
0
 40
1
 40
1
 40
1
 40
1
 10
183.825000
 20
490.346000
 30
0.0
 10
184.291667
 20
491.595333
 30
0.0
 10
185.191667
 20
492.220000
 30
0.0
 10
186.525000
 20
492.220000
 30
0.0
  0
SPLINE
  5
101
100
AcDbEntity
  8
0
 62
7
100
AcDbSpline
 70
8
 71
3
 72
8
 73
4
 74
0
 40
0
 40
0
 40
0
 40
0
 40
1
 40
1
 40
1
 40
1
 10
323.837000
 20
492.220000
 30
0.0
 10
325.170333
 20
492.220000
 30
0.0
 10
325.952667
 20
491.563333
 30
0.0
 10
326.184000
 20
490.250000
 30
0.0
  0
LWPOLYLINE
  5
102
100
AcDbEntity
  8
0
 62
7
100
AcDbPolyline
 90
2
 70
0
 10
186.525000
 20
492.220000
 30
0.0
 10
323.837000
 20
492.220000
 30
0.0
  0
SPLINE
  5
103
100
AcDbEntity
  8
0
 62
7
100
AcDbSpline
 70
8
 71
3
 72
8
 73
4
 74
0
 40
0
 40
0
 40
0
 40
0
 40
1
 40
1
 40
1
 40
1
 10
347.529000
 20
369.196000
 30
0.0
 10
347.761000
 20
367.882667
 30
0.0
 10
347.224667
 20
367.087333
 30
0.0
 10
345.920000
 20
366.810000
 30
0.0
  0
LWPOLYLINE
  5
104
100
AcDbEntity
  8
0
 62
7
100
AcDbPolyline
 90
2
 70
0
 10
326.184000
 20
490.250000
 30
0.0
 10
347.529000
 20
369.196000
 30
0.0
  0
SPLINE
  5
105
100
AcDbEntity
  8
0
 62
7
100
AcDbSpline
 70
8
 71
3
 72
8
 73
4
 74
0
 40
0
 40
0
 40
0
 40
0
 40
1
 40
1
 40
1
 40
1
 10
246.124000
 20
345.598000
 30
0.0
 10
244.819333
 20
345.320667
 30
0.0
 10
243.510667
 20
345.066333
 30
0.0
 10
242.198000
 20
344.835000
 30
0.0
  0
LWPOLYLINE
  5
106
100
AcDbEntity
  8
0
 62
7
100
AcDbPolyline
 90
2
 70
0
 10
345.920000
 20
366.810000
 30
0.0
 10
246.124000
 20
345.598000
 30
0.0
  0
SPLINE
  5
107
100
AcDbEntity
  8
0
 62
7
100
AcDbSpline
 70
8
 71
3
 72
8
 73
4
 74
0
 40
0
 40
0
 40
0
 40
0
 40
1
 40
1
 40
1
 40
1
 10
213.912000
 20
339.847000
 30
0.0
 10
212.598667
 20
339.615667
 30
0.0
 10
211.275333
 20
339.500000
 30
0.0
 10
209.942000
 20
339.500000
 30
0.0
  0
LWPOLYLINE
  5
108
100
AcDbEntity
  8
0
 62
7
100
AcDbPolyline
 90
2
 70
0
 10
242.198000
 20
344.835000
 30
0.0
 10
213.912000
 20
339.847000
 30
0.0
  0
SPLINE
  5
109
100
AcDbEntity
  8
0
 62
7
100
AcDbSpline
 70
8
 71
3
 72
8
 73
4
 74
0
 40
0
 40
0
 40
0
 40
0
 40
1
 40
1
 40
1
 40
1
 10
140.058000
 20
339.500000
 30
0.0
 10
138.724667
 20
339.500000
 30
0.0
 10
137.401333
 20
339.615667
 30
0.0
 10
136.088000
 20
339.847000
 30
0.0
  0
LWPOLYLINE
  5
10a
100
AcDbEntity
  8
0
 62
7
100
AcDbPolyline
 90
2
 70
0
 10
209.942000
 20
339.500000
 30
0.0
 10
140.058000
 20
339.500000
 30
0.0
  0
SPLINE
  5
10b
100
AcDbEntity
  8
0
 62
7
100
AcDbSpline
 70
8
 71
3
 72
8
 73
4
 74
0
 40
0
 40
0
 40
0
 40
0
 40
1
 40
1
 40
1
 40
1
 10
107.802000
 20
344.835000
 30
0.0
 10
106.489333
 20
345.066333
 30
0.0
 10
105.180667
 20
345.320667
 30
0.0
 10
103.876000
 20
345.598000
 30
0.0
  0
LWPOLYLINE
  5
10c
100
AcDbEntity
  8
0
 62
7
100
AcDbPolyline
 90
2
 70
0
 10
136.088000
 20
339.847000
 30
0.0
 10
107.802000
 20
344.835000
 30
0.0
  0
SPLINE
  5
10d
100
AcDbEntity
  8
0
 62
7
100
AcDbSpline
 70
8
 71
3
 72
8
 73
4
 74
0
 40
0
 40
0
 40
0
 40
0
 40
1
 40
1
 40
1
 40
1
 10
4.080000
 20
366.810000
 30
0.0
 10
2.775333
 20
367.087333
 30
0.0
 10
2.239000
 20
367.882667
 30
0.0
 10
2.471000
 20
369.196000
 30
0.0
  0
LWPOLYLINE
  5
10e
100
AcDbEntity
  8
0
 62
7
100
AcDbPolyline
 90
2
 70
0
 10
103.876000
 20
345.598000
 30
0.0
 10
4.080000
 20
366.810000
 30
0.0
  0
SPLINE
  5
10f
100
AcDbEntity
  8
0
 62
7
100
AcDbSpline
 70
8
 71
3
 72
8
 73
4
 74
0
 40
0
 40
0
 40
0
 40
0
 40
1
 40
1
 40
1
 40
1
 10
23.816000
 20
490.250000
 30
0.0
 10
24.047333
 20
491.563333
 30
0.0
 10
24.829667
 20
492.220000
 30
0.0
 10
26.163000
 20
492.220000
 30
0.0
  0
LWPOLYLINE
  5
110
100
AcDbEntity
  8
0
 62
7
100
AcDbPolyline
 90
2
 70
0
 10
2.471000
 20
369.196000
 30
0.0
 10
23.816000
 20
490.250000
 30
0.0
  0
SPLINE
  5
111
100
AcDbEntity
  8
0
 62
7
100
AcDbSpline
 70
8
 71
3
 72
8
 73
4
 74
0
 40
0
 40
0
 40
0
 40
0
 40
1
 40
1
 40
1
 40
1
 10
163.475000
 20
492.220000
 30
0.0
 10
164.808333
 20
492.220000
 30
0.0
 10
165.708333
 20
491.595333
 30
0.0
 10
166.175000
 20
490.346000
 30
0.0
  0
LWPOLYLINE
  5
112
100
AcDbEntity
  8
0
 62
7
100
AcDbPolyline
 90
2
 70
0
 10
26.163000
 20
492.220000
 30
0.0
 10
163.475000
 20
492.220000
 30
0.0
  0
SPLINE
  5
113
100
AcDbEntity
  8
0
 62
7
100
AcDbSpline
 70
8
 71
3
 72
8
 73
4
 74
0
 40
0
 40
0
 40
0
 40
0
 40
1
 40
1
 40
1
 40
1
 10
167.950000
 20
485.594000
 30
0.0
 10
168.416667
 20
484.344667
 30
0.0
 10
167.983333
 20
483.720000
 30
0.0
 10
166.650000
 20
483.720000
 30
0.0
  0
LWPOLYLINE
  5
114
100
AcDbEntity
  8
0
 62
7
100
AcDbPolyline
 90
2
 70
0
 10
166.175000
 20
490.346000
 30
0.0
 10
167.950000
 20
485.594000
 30
0.0
  0
SPLINE
  5
115
100
AcDbEntity
  8
0
 62
7
100
AcDbSpline
 70
8
 71
3
 72
8
 73
4
 74
0
 40
0
 40
0
 40
0
 40
0
 40
1
 40
1
 40
1
 40
1
 10
33.295000
 20
483.720000
 30
0.0
 10
31.961667
 20
483.720000
 30
0.0
 10
31.179333
 20
483.063333
 30
0.0
 10
30.948000
 20
481.750000
 30
0.0
  0
LWPOLYLINE
  5
116
100
AcDbEntity
  8
0
 62
7
100
AcDbPolyline
 90
2
 70
0
 10
166.650000
 20
483.720000
 30
0.0
 10
33.295000
 20
483.720000
 30
0.0
  0
SPLINE
  5
117
100
AcDbEntity
  8
0
 62
7
100
AcDbSpline
 70
8
 71
3
 72
8
 73
4
 74
0
 40
0
 40
0
 40
0
 40
0
 40
1
 40
1
 40
1
 40
1
 10
12.267000
 20
375.804000
 30
0.0
 10
12.035667
 20
374.490667
 30
0.0
 10
12.572000
 20
373.695333
 30
0.0
 10
13.876000
 20
373.418000
 30
0.0
  0
LWPOLYLINE
  5
118
100
AcDbEntity
  8
0
 62
7
100
AcDbPolyline
 90
2
 70
0
 10
30.948000
 20
481.750000
 30
0.0
 10
12.267000
 20
375.804000
 30
0.0
  0
SPLINE
  5
119
100
AcDbEntity
  8
0
 62
7
100
AcDbSpline
 70
8
 71
3
 72
8
 73
4
 74
0
 40
0
 40
0
 40
0
 40
0
 40
1
 40
1
 40
1
 40
1
 10
105.498000
 20
353.943000
 30
0.0
 10
106.802667
 20
353.665667
 30
0.0
 10
108.111333
 20
353.411333
 30
0.0
 10
109.424000
 20
353.180000
 30
0.0
  0
LWPOLYLINE
  5
11a
100
AcDbEntity
  8
0
 62
7
100
AcDbPolyline
 90
2
 70
0
 10
13.876000
 20
373.418000
 30
0.0
 10
105.498000
 20
353.943000
 30
0.0
  0
SPLINE
  5
11b
100
AcDbEntity
  8
0
 62
7
100
AcDbSpline
 70
8
 71
3
 72
8
 73
4
 74
0
 40
0
 40
0
 40
0
 40
0
 40
1
 40
1
 40
1
 40
1
 10
136.832000
 20
348.347000
 30
0.0
 10
138.145333
 20
348.115667
 30
0.0
 10
139.468667
 20
348.000000
 30
0.0
 10
140.802000
 20
348.000000
 30
0.0
  0
LWPOLYLINE
  5
11c
100
AcDbEntity
  8
0
 62
7
100
AcDbPolyline
 90
2
 70
0
 10
109.424000
 20
353.180000
 30
0.0
 10
136.832000
 20
348.347000
 30
0.0
  0
SPLINE
  5
11d
100
AcDbEntity
  8
0
 62
7
100
AcDbSpline
 70
8
 71
3
 72
8
 73
4
 74
0
 40
0
 40
0
 40
0
 40
0
 40
1
 40
1
 40
1
 40
1
 10
209.198000
 20
348.000000
 30
0.0
 10
210.531333
 20
348.000000
 30
0.0
 10
211.854667
 20
348.115667
 30
0.0
 10
213.168000
 20
348.347000
 30
0.0
  0
LWPOLYLINE
  5
11e
100
AcDbEntity
  8
0
 62
7
100
AcDbPolyline
 90
2
 70
0
 10
140.802000
 20
348.000000
 30
0.0
 10
209.198000
 20
348.000000
 30
0.0
  0
SPLINE
  5
11f
100
AcDbEntity
  8
0
 62
7
100
AcDbSpline
 70
8
 71
3
 72
8
 73
4
 74
0
 40
0
 40
0
 40
0
 40
0
 40
1
 40
1
 40
1
 40
1
 10
240.576000
 20
353.180000
 30
0.0
 10
241.888667
 20
353.411333
 30
0.0
 10
243.197333
 20
353.665667
 30
0.0
 10
244.502000
 20
353.943000
 30
0.0
  0
LWPOLYLINE
  5
120
100
AcDbEntity
  8
0
 62
7
100
AcDbPolyline
 90
2
 70
0
 10
213.168000
 20
348.347000
 30
0.0
 10
240.576000
 20
353.180000
 30
0.0
  0
SPLINE
  5
121
100
AcDbEntity
  8
0
 62
7
100
AcDbSpline
 70
8
 71
3
 72
8
 73
4
 74
0
 40
0
 40
0
 40
0
 40
0
 40
1
 40
1
 40
1
 40
1
 10
336.124000
 20
373.418000
 30
0.0
 10
337.428000
 20
373.695333
 30
0.0
 10
337.964333
 20
374.490667
 30
0.0
 10
337.733000
 20
375.804000
 30
0.0
  0
LWPOLYLINE
  5
122
100
AcDbEntity
  8
0
 62
7
100
AcDbPolyline
 90
2
 70
0
 10
244.502000
 20
353.943000
 30
0.0
 10
336.124000
 20
373.418000
 30
0.0
  0
SPLINE
  5
123
100
AcDbEntity
  8
0
 62
7
100
AcDbSpline
 70
8
 71
3
 72
8
 73
4
 74
0
 40
0
 40
0
 40
0
 40
0
 40
1
 40
1
 40
1
 40
1
 10
319.052000
 20
481.750000
 30
0.0
 10
318.820667
 20
483.063333
 30
0.0
 10
318.038333
 20
483.720000
 30
0.0
 10
316.705000
 20
483.720000
 30
0.0
  0
LWPOLYLINE
  5
124
100
AcDbEntity
  8
0
 62
7
100
AcDbPolyline
 90
2
 70
0
 10
337.733000
 20
375.804000
 30
0.0
 10
319.052000
 20
481.750000
 30
0.0
  0
SPLINE
  5
125
100
AcDbEntity
  8
0
 62
7
100
AcDbSpline
 70
8
 71
3
 72
8
 73
4
 74
0
 40
0
 40
0
 40
0
 40
0
 40
1
 40
1
 40
1
 40
1
 10
183.350000
 20
483.720000
 30
0.0
 10
182.016667
 20
483.720000
 30
0.0
 10
181.583333
 20
484.344667
 30
0.0
 10
182.050000
 20
485.594000
 30
0.0
  0
LWPOLYLINE
  5
126
100
AcDbEntity
  8
0
 62
7
100
AcDbPolyline
 90
2
 70
0
 10
316.705000
 20
483.720000
 30
0.0
 10
183.350000
 20
483.720000
 30
0.0
  0
SPLINE
  5
127
100
AcDbEntity
  8
0
 62
7
100
AcDbSpline
 70
8
 71
3
 72
8
 73
4
 74
0
 40
0
 40
0
 40
0
 40
0
 40
1
 40
1
 40
1
 40
1
 10
30.510788
 20
487.970000
 30
0.0
 10
30.510788
 20
486.986105
 30
0.0
 10
29.713183
 20
486.188500
 30
0.0
 10
28.729288
 20
486.188500
 30
0.0
  0
SPLINE
  5
128
100
AcDbEntity
  8
0
 62
7
100
AcDbSpline
 70
8
 71
3
 72
8
 73
4
 74
0
 40
0
 40
0
 40
0
 40
0
 40
1
 40
1
 40
1
 40
1
 10
28.729288
 20
486.188500
 30
0.0
 10
27.745393
 20
486.188500
 30
0.0
 10
26.947788
 20
486.986105
 30
0.0
 10
26.947788
 20
487.970000
 30
0.0
  0
SPLINE
  5
129
100
AcDbEntity
  8
0
 62
7
100
AcDbSpline
 70
8
 71
3
 72
8
 73
4
 74
0
 40
0
 40
0
 40
0
 40
0
 40
1
 40
1
 40
1
 40
1
 10
26.947788
 20
487.970000
 30
0.0
 10
26.947788
 20
488.953895
 30
0.0
 10
27.745393
 20
489.751500
 30
0.0
 10
28.729288
 20
489.751500
 30
0.0
  0
SPLINE
  5
12a
100
AcDbEntity
  8
0
 62
7
100
AcDbSpline
 70
8
 71
3
 72
8
 73
4
 74
0
 40
0
 40
0
 40
0
 40
0
 40
1
 40
1
 40
1
 40
1
 10
28.729288
 20
489.751500
 30
0.0
 10
29.713183
 20
489.751500
 30
0.0
 10
30.510788
 20
488.953895
 30
0.0
 10
30.510788
 20
487.970000
 30
0.0
  0
LWPOLYLINE
  5
12b
100
AcDbEntity
  8
0
 62
7
100
AcDbPolyline
 90
2
 70
0
 10
182.050000
 20
485.594000
 30
0.0
 10
183.825000
 20
490.346000
 30
0.0
  0
SPLINE
  5
12c
100
AcDbEntity
  8
0
 62
7
100
AcDbSpline
 70
8
 71
3
 72
8
 73
4
 74
0
 40
0
 40
0
 40
0
 40
0
 40
1
 40
1
 40
1
 40
1
 10
323.052222
 20
487.970000
 30
0.0
 10
323.052222
 20
486.986105
 30
0.0
 10
322.254617
 20
486.188500
 30
0.0
 10
321.270722
 20
486.188500
 30
0.0
  0
SPLINE
  5
12d
100
AcDbEntity
  8
0
 62
7
100
AcDbSpline
 70
8
 71
3
 72
8
 73
4
 74
0
 40
0
 40
0
 40
0
 40
0
 40
1
 40
1
 40
1
 40
1
 10
321.270722
 20
486.188500
 30
0.0
 10
320.286827
 20
486.188500
 30
0.0
 10
319.489222
 20
486.986105
 30
0.0
 10
319.489222
 20
487.970000
 30
0.0
  0
SPLINE
  5
12e
100
AcDbEntity
  8
0
 62
7
100
AcDbSpline
 70
8
 71
3
 72
8
 73
4
 74
0
 40
0
 40
0
 40
0
 40
0
 40
1
 40
1
 40
1
 40
1
 10
319.489222
 20
487.970000
 30
0.0
 10
319.489222
 20
488.953895
 30
0.0
 10
320.286827
 20
489.751500
 30
0.0
 10
321.270722
 20
489.751500
 30
0.0
  0
SPLINE
  5
12f
100
AcDbEntity
  8
0
 62
7
100
AcDbSpline
 70
8
 71
3
 72
8
 73
4
 74
0
 40
0
 40
0
 40
0
 40
0
 40
1
 40
1
 40
1
 40
1
 10
321.270722
 20
489.751500
 30
0.0
 10
322.254617
 20
489.751500
 30
0.0
 10
323.052222
 20
488.953895
 30
0.0
 10
323.052222
 20
487.970000
 30
0.0
  0
LWPOLYLINE
  5
130
100
AcDbEntity
  8
0
 62
7
100
AcDbPolyline
 90
1
 70
1
 10
30.510788
 20
487.970000
 30
0.0
  0
SPLINE
  5
131
100
AcDbEntity
  8
0
 62
7
100
AcDbSpline
 70
8
 71
3
 72
8
 73
4
 74
0
 40
0
 40
0
 40
0
 40
0
 40
1
 40
1
 40
1
 40
1
 10
97.174500
 20
487.970000
 30
0.0
 10
97.174500
 20
486.986105
 30
0.0
 10
96.376895
 20
486.188500
 30
0.0
 10
95.393000
 20
486.188500
 30
0.0
  0
SPLINE
  5
132
100
AcDbEntity
  8
0
 62
7
100
AcDbSpline
 70
8
 71
3
 72
8
 73
4
 74
0
 40
0
 40
0
 40
0
 40
0
 40
1
 40
1
 40
1
 40
1
 10
95.393000
 20
486.188500
 30
0.0
 10
94.409105
 20
486.188500
 30
0.0
 10
93.611500
 20
486.986105
 30
0.0
 10
93.611500
 20
487.970000
 30
0.0
  0
SPLINE
  5
133
100
AcDbEntity
  8
0
 62
7
100
AcDbSpline
 70
8
 71
3
 72
8
 73
4
 74
0
 40
0
 40
0
 40
0
 40
0
 40
1
 40
1
 40
1
 40
1
 10
93.611500
 20
487.970000
 30
0.0
 10
93.611500
 20
488.953895
 30
0.0
 10
94.409105
 20
489.751500
 30
0.0
 10
95.393000
 20
489.751500
 30
0.0
  0
SPLINE
  5
134
100
AcDbEntity
  8
0
 62
7
100
AcDbSpline
 70
8
 71
3
 72
8
 73
4
 74
0
 40
0
 40
0
 40
0
 40
0
 40
1
 40
1
 40
1
 40
1
 10
95.393000
 20
489.751500
 30
0.0
 10
96.376895
 20
489.751500
 30
0.0
 10
97.174500
 20
488.953895
 30
0.0
 10
97.174500
 20
487.970000
 30
0.0
  0
LWPOLYLINE
  5
135
100
AcDbEntity
  8
0
 62
7
100
AcDbPolyline
 90
1
 70
1
 10
323.052222
 20
487.970000
 30
0.0
  0
SPLINE
  5
136
100
AcDbEntity
  8
0
 62
7
100
AcDbSpline
 70
8
 71
3
 72
8
 73
4
 74
0
 40
0
 40
0
 40
0
 40
0
 40
1
 40
1
 40
1
 40
1
 10
256.386000
 20
487.970000
 30
0.0
 10
256.386000
 20
486.986105
 30
0.0
 10
255.588395
 20
486.188500
 30
0.0
 10
254.604500
 20
486.188500
 30
0.0
  0
SPLINE
  5
137
100
AcDbEntity
  8
0
 62
7
100
AcDbSpline
 70
8
 71
3
 72
8
 73
4
 74
0
 40
0
 40
0
 40
0
 40
0
 40
1
 40
1
 40
1
 40
1
 10
254.604500
 20
486.188500
 30
0.0
 10
253.620605
 20
486.188500
 30
0.0
 10
252.823000
 20
486.986105
 30
0.0
 10
252.823000
 20
487.970000
 30
0.0
  0
SPLINE
  5
138
100
AcDbEntity
  8
0
 62
7
100
AcDbSpline
 70
8
 71
3
 72
8
 73
4
 74
0
 40
0
 40
0
 40
0
 40
0
 40
1
 40
1
 40
1
 40
1
 10
252.823000
 20
487.970000
 30
0.0
 10
252.823000
 20
488.953895
 30
0.0
 10
253.620605
 20
489.751500
 30
0.0
 10
254.604500
 20
489.751500
 30
0.0
  0
SPLINE
  5
139
100
AcDbEntity
  8
0
 62
7
100
AcDbSpline
 70
8
 71
3
 72
8
 73
4
 74
0
 40
0
 40
0
 40
0
 40
0
 40
1
 40
1
 40
1
 40
1
 10
254.604500
 20
489.751500
 30
0.0
 10
255.588395
 20
489.751500
 30
0.0
 10
256.386000
 20
488.953895
 30
0.0
 10
256.386000
 20
487.970000
 30
0.0
  0
LWPOLYLINE
  5
13a
100
AcDbEntity
  8
0
 62
7
100
AcDbPolyline
 90
1
 70
1
 10
97.174500
 20
487.970000
 30
0.0
  0
SPLINE
  5
13b
100
AcDbEntity
  8
0
 62
7
100
AcDbSpline
 70
8
 71
3
 72
8
 73
4
 74
0
 40
0
 40
0
 40
0
 40
0
 40
1
 40
1
 40
1
 40
1
 10
163.844000
 20
487.970000
 30
0.0
 10
163.844000
 20
486.986105
 30
0.0
 10
163.046395
 20
486.188500
 30
0.0
 10
162.062500
 20
486.188500
 30
0.0
  0
SPLINE
  5
13c
100
AcDbEntity
  8
0
 62
7
100
AcDbSpline
 70
8
 71
3
 72
8
 73
4
 74
0
 40
0
 40
0
 40
0
 40
0
 40
1
 40
1
 40
1
 40
1
 10
162.062500
 20
486.188500
 30
0.0
 10
161.078605
 20
486.188500
 30
0.0
 10
160.281000
 20
486.986105
 30
0.0
 10
160.281000
 20
487.970000
 30
0.0
  0
SPLINE
  5
13d
100
AcDbEntity
  8
0
 62
7
100
AcDbSpline
 70
8
 71
3
 72
8
 73
4
 74
0
 40
0
 40
0
 40
0
 40
0
 40
1
 40
1
 40
1
 40
1
 10
160.281000
 20
487.970000
 30
0.0
 10
160.281000
 20
488.953895
 30
0.0
 10
161.078605
 20
489.751500
 30
0.0
 10
162.062500
 20
489.751500
 30
0.0
  0
SPLINE
  5
13e
100
AcDbEntity
  8
0
 62
7
100
AcDbSpline
 70
8
 71
3
 72
8
 73
4
 74
0
 40
0
 40
0
 40
0
 40
0
 40
1
 40
1
 40
1
 40
1
 10
162.062500
 20
489.751500
 30
0.0
 10
163.046395
 20
489.751500
 30
0.0
 10
163.844000
 20
488.953895
 30
0.0
 10
163.844000
 20
487.970000
 30
0.0
  0
LWPOLYLINE
  5
13f
100
AcDbEntity
  8
0
 62
7
100
AcDbPolyline
 90
1
 70
1
 10
256.386000
 20
487.970000
 30
0.0
  0
SPLINE
  5
140
100
AcDbEntity
  8
0
 62
7
100
AcDbSpline
 70
8
 71
3
 72
8
 73
4
 74
0
 40
0
 40
0
 40
0
 40
0
 40
1
 40
1
 40
1
 40
1
 10
189.719000
 20
487.970000
 30
0.0
 10
189.719000
 20
486.986105
 30
0.0
 10
188.921395
 20
486.188500
 30
0.0
 10
187.937500
 20
486.188500
 30
0.0
  0
SPLINE
  5
141
100
AcDbEntity
  8
0
 62
7
100
AcDbSpline
 70
8
 71
3
 72
8
 73
4
 74
0
 40
0
 40
0
 40
0
 40
0
 40
1
 40
1
 40
1
 40
1
 10
187.937500
 20
486.188500
 30
0.0
 10
186.953605
 20
486.188500
 30
0.0
 10
186.156000
 20
486.986105
 30
0.0
 10
186.156000
 20
487.970000
 30
0.0
  0
SPLINE
  5
142
100
AcDbEntity
  8
0
 62
7
100
AcDbSpline
 70
8
 71
3
 72
8
 73
4
 74
0
 40
0
 40
0
 40
0
 40
0
 40
1
 40
1
 40
1
 40
1
 10
186.156000
 20
487.970000
 30
0.0
 10
186.156000
 20
488.953895
 30
0.0
 10
186.953605
 20
489.751500
 30
0.0
 10
187.937500
 20
489.751500
 30
0.0
  0
SPLINE
  5
143
100
AcDbEntity
  8
0
 62
7
100
AcDbSpline
 70
8
 71
3
 72
8
 73
4
 74
0
 40
0
 40
0
 40
0
 40
0
 40
1
 40
1
 40
1
 40
1
 10
187.937500
 20
489.751500
 30
0.0
 10
188.921395
 20
489.751500
 30
0.0
 10
189.719000
 20
488.953895
 30
0.0
 10
189.719000
 20
487.970000
 30
0.0
  0
LWPOLYLINE
  5
144
100
AcDbEntity
  8
0
 62
7
100
AcDbPolyline
 90
1
 70
1
 10
163.844000
 20
487.970000
 30
0.0
  0
SPLINE
  5
145
100
AcDbEntity
  8
0
 62
7
100
AcDbSpline
 70
8
 71
3
 72
8
 73
4
 74
0
 40
0
 40
0
 40
0
 40
0
 40
1
 40
1
 40
1
 40
1
 10
19.156879
 20
429.485000
 30
0.0
 10
19.156879
 20
428.501105
 30
0.0
 10
18.359274
 20
427.703500
 30
0.0
 10
17.375379
 20
427.703500
 30
0.0
  0
SPLINE
  5
146
100
AcDbEntity
  8
0
 62
7
100
AcDbSpline
 70
8
 71
3
 72
8
 73
4
 74
0
 40
0
 40
0
 40
0
 40
0
 40
1
 40
1
 40
1
 40
1
 10
17.375379
 20
427.703500
 30
0.0
 10
16.391483
 20
427.703500
 30
0.0
 10
15.593879
 20
428.501105
 30
0.0
 10
15.593879
 20
429.485000
 30
0.0
  0
SPLINE
  5
147
100
AcDbEntity
  8
0
 62
7
100
AcDbSpline
 70
8
 71
3
 72
8
 73
4
 74
0
 40
0
 40
0
 40
0
 40
0
 40
1
 40
1
 40
1
 40
1
 10
15.593879
 20
429.485000
 30
0.0
 10
15.593879
 20
430.468895
 30
0.0
 10
16.391483
 20
431.266500
 30
0.0
 10
17.375379
 20
431.266500
 30
0.0
  0
SPLINE
  5
148
100
AcDbEntity
  8
0
 62
7
100
AcDbSpline
 70
8
 71
3
 72
8
 73
4
 74
0
 40
0
 40
0
 40
0
 40
0
 40
1
 40
1
 40
1
 40
1
 10
17.375379
 20
431.266500
 30
0.0
 10
18.359274
 20
431.266500
 30
0.0
 10
19.156879
 20
430.468895
 30
0.0
 10
19.156879
 20
429.485000
 30
0.0
  0
LWPOLYLINE
  5
149
100
AcDbEntity
  8
0
 62
7
100
AcDbPolyline
 90
1
 70
1
 10
189.719000
 20
487.970000
 30
0.0
  0
SPLINE
  5
14a
100
AcDbEntity
  8
0
 62
7
100
AcDbSpline
 70
8
 71
3
 72
8
 73
4
 74
0
 40
0
 40
0
 40
0
 40
0
 40
1
 40
1
 40
1
 40
1
 10
334.406131
 20
429.485000
 30
0.0
 10
334.406131
 20
428.501105
 30
0.0
 10
333.608527
 20
427.703500
 30
0.0
 10
332.624631
 20
427.703500
 30
0.0
  0
SPLINE
  5
14b
100
AcDbEntity
  8
0
 62
7
100
AcDbSpline
 70
8
 71
3
 72
8
 73
4
 74
0
 40
0
 40
0
 40
0
 40
0
 40
1
 40
1
 40
1
 40
1
 10
332.624631
 20
427.703500
 30
0.0
 10
331.640736
 20
427.703500
 30
0.0
 10
330.843131
 20
428.501105
 30
0.0
 10
330.843131
 20
429.485000
 30
0.0
  0
SPLINE
  5
14c
100
AcDbEntity
  8
0
 62
7
100
AcDbSpline
 70
8
 71
3
 72
8
 73
4
 74
0
 40
0
 40
0
 40
0
 40
0
 40
1
 40
1
 40
1
 40
1
 10
330.843131
 20
429.485000
 30
0.0
 10
330.843131
 20
430.468895
 30
0.0
 10
331.640736
 20
431.266500
 30
0.0
 10
332.624631
 20
431.266500
 30
0.0
  0
SPLINE
  5
14d
100
AcDbEntity
  8
0
 62
7
100
AcDbSpline
 70
8
 71
3
 72
8
 73
4
 74
0
 40
0
 40
0
 40
0
 40
0
 40
1
 40
1
 40
1
 40
1
 10
332.624631
 20
431.266500
 30
0.0
 10
333.608527
 20
431.266500
 30
0.0
 10
334.406131
 20
430.468895
 30
0.0
 10
334.406131
 20
429.485000
 30
0.0
  0
LWPOLYLINE
  5
14e
100
AcDbEntity
  8
0
 62
7
100
AcDbPolyline
 90
1
 70
1
 10
19.156879
 20
429.485000
 30
0.0
  0
SPLINE
  5
14f
100
AcDbEntity
  8
0
 62
7
100
AcDbSpline
 70
8
 71
3
 72
8
 73
4
 74
0
 40
0
 40
0
 40
0
 40
0
 40
1
 40
1
 40
1
 40
1
 10
9.802969
 20
371.000000
 30
0.0
 10
9.802969
 20
370.016105
 30
0.0
 10
9.005365
 20
369.218500
 30
0.0
 10
8.021469
 20
369.218500
 30
0.0
  0
SPLINE
  5
150
100
AcDbEntity
  8
0
 62
7
100
AcDbSpline
 70
8
 71
3
 72
8
 73
4
 74
0
 40
0
 40
0
 40
0
 40
0
 40
1
 40
1
 40
1
 40
1
 10
8.021469
 20
369.218500
 30
0.0
 10
7.037574
 20
369.218500
 30
0.0
 10
6.239969
 20
370.016105
 30
0.0
 10
6.239969
 20
371.000000
 30
0.0
  0
SPLINE
  5
151
100
AcDbEntity
  8
0
 62
7
100
AcDbSpline
 70
8
 71
3
 72
8
 73
4
 74
0
 40
0
 40
0
 40
0
 40
0
 40
1
 40
1
 40
1
 40
1
 10
6.239969
 20
371.000000
 30
0.0
 10
6.239969
 20
371.983895
 30
0.0
 10
7.037574
 20
372.781500
 30
0.0
 10
8.021469
 20
372.781500
 30
0.0
  0
SPLINE
  5
152
100
AcDbEntity
  8
0
 62
7
100
AcDbSpline
 70
8
 71
3
 72
8
 73
4
 74
0
 40
0
 40
0
 40
0
 40
0
 40
1
 40
1
 40
1
 40
1
 10
8.021469
 20
372.781500
 30
0.0
 10
9.005365
 20
372.781500
 30
0.0
 10
9.802969
 20
371.983895
 30
0.0
 10
9.802969
 20
371.000000
 30
0.0
  0
LWPOLYLINE
  5
153
100
AcDbEntity
  8
0
 62
7
100
AcDbPolyline
 90
1
 70
1
 10
334.406131
 20
429.485000
 30
0.0
  0
SPLINE
  5
154
100
AcDbEntity
  8
0
 62
7
100
AcDbSpline
 70
8
 71
3
 72
8
 73
4
 74
0
 40
0
 40
0
 40
0
 40
0
 40
1
 40
1
 40
1
 40
1
 10
343.760041
 20
371.000000
 30
0.0
 10
343.760041
 20
370.016105
 30
0.0
 10
342.962436
 20
369.218500
 30
0.0
 10
341.978541
 20
369.218500
 30
0.0
  0
SPLINE
  5
155
100
AcDbEntity
  8
0
 62
7
100
AcDbSpline
 70
8
 71
3
 72
8
 73
4
 74
0
 40
0
 40
0
 40
0
 40
0
 40
1
 40
1
 40
1
 40
1
 10
341.978541
 20
369.218500
 30
0.0
 10
340.994645
 20
369.218500
 30
0.0
 10
340.197041
 20
370.016105
 30
0.0
 10
340.197041
 20
371.000000
 30
0.0
  0
SPLINE
  5
156
100
AcDbEntity
  8
0
 62
7
100
AcDbSpline
 70
8
 71
3
 72
8
 73
4
 74
0
 40
0
 40
0
 40
0
 40
0
 40
1
 40
1
 40
1
 40
1
 10
340.197041
 20
371.000000
 30
0.0
 10
340.197041
 20
371.983895
 30
0.0
 10
340.994645
 20
372.781500
 30
0.0
 10
341.978541
 20
372.781500
 30
0.0
  0
SPLINE
  5
157
100
AcDbEntity
  8
0
 62
7
100
AcDbSpline
 70
8
 71
3
 72
8
 73
4
 74
0
 40
0
 40
0
 40
0
 40
0
 40
1
 40
1
 40
1
 40
1
 10
341.978541
 20
372.781500
 30
0.0
 10
342.962436
 20
372.781500
 30
0.0
 10
343.760041
 20
371.983895
 30
0.0
 10
343.760041
 20
371.000000
 30
0.0
  0
LWPOLYLINE
  5
158
100
AcDbEntity
  8
0
 62
7
100
AcDbPolyline
 90
1
 70
1
 10
9.802969
 20
371.000000
 30
0.0
  0
SPLINE
  5
159
100
AcDbEntity
  8
0
 62
7
100
AcDbSpline
 70
8
 71
3
 72
8
 73
4
 74
0
 40
0
 40
0
 40
0
 40
0
 40
1
 40
1
 40
1
 40
1
 10
68.425115
 20
357.354784
 30
0.0
 10
68.425115
 20
356.370889
 30
0.0
 10
67.627510
 20
355.573284
 30
0.0
 10
66.643615
 20
355.573284
 30
0.0
  0
SPLINE
  5
15a
100
AcDbEntity
  8
0
 62
7
100
AcDbSpline
 70
8
 71
3
 72
8
 73
4
 74
0
 40
0
 40
0
 40
0
 40
0
 40
1
 40
1
 40
1
 40
1
 10
66.643615
 20
355.573284
 30
0.0
 10
65.659720
 20
355.573284
 30
0.0
 10
64.862115
 20
356.370889
 30
0.0
 10
64.862115
 20
357.354784
 30
0.0
  0
SPLINE
  5
15b
100
AcDbEntity
  8
0
 62
7
100
AcDbSpline
 70
8
 71
3
 72
8
 73
4
 74
0
 40
0
 40
0
 40
0
 40
0
 40
1
 40
1
 40
1
 40
1
 10
64.862115
 20
357.354784
 30
0.0
 10
64.862115
 20
358.338679
 30
0.0
 10
65.659720
 20
359.136284
 30
0.0
 10
66.643615
 20
359.136284
 30
0.0
  0
SPLINE
  5
15c
100
AcDbEntity
  8
0
 62
7
100
AcDbSpline
 70
8
 71
3
 72
8
 73
4
 74
0
 40
0
 40
0
 40
0
 40
0
 40
1
 40
1
 40
1
 40
1
 10
66.643615
 20
359.136284
 30
0.0
 10
67.627510
 20
359.136284
 30
0.0
 10
68.425115
 20
358.338679
 30
0.0
 10
68.425115
 20
357.354784
 30
0.0
  0
LWPOLYLINE
  5
15d
100
AcDbEntity
  8
0
 62
7
100
AcDbPolyline
 90
1
 70
1
 10
343.760041
 20
371.000000
 30
0.0
  0
SPLINE
  5
15e
100
AcDbEntity
  8
0
 62
7
100
AcDbSpline
 70
8
 71
3
 72
8
 73
4
 74
0
 40
0
 40
0
 40
0
 40
0
 40
1
 40
1
 40
1
 40
1
 10
285.137895
 20
357.354784
 30
0.0
 10
285.137895
 20
356.370889
 30
0.0
 10
284.340290
 20
355.573284
 30
0.0
 10
283.356395
 20
355.573284
 30
0.0
  0
SPLINE
  5
15f
100
AcDbEntity
  8
0
 62
7
100
AcDbSpline
 70
8
 71
3
 72
8
 73
4
 74
0
 40
0
 40
0
 40
0
 40
0
 40
1
 40
1
 40
1
 40
1
 10
283.356395
 20
355.573284
 30
0.0
 10
282.372500
 20
355.573284
 30
0.0
 10
281.574895
 20
356.370889
 30
0.0
 10
281.574895
 20
357.354784
 30
0.0
  0
SPLINE
  5
160
100
AcDbEntity
  8
0
 62
7
100
AcDbSpline
 70
8
 71
3
 72
8
 73
4
 74
0
 40
0
 40
0
 40
0
 40
0
 40
1
 40
1
 40
1
 40
1
 10
281.574895
 20
357.354784
 30
0.0
 10
281.574895
 20
358.338679
 30
0.0
 10
282.372500
 20
359.136284
 30
0.0
 10
283.356395
 20
359.136284
 30
0.0
  0
SPLINE
  5
161
100
AcDbEntity
  8
0
 62
7
100
AcDbSpline
 70
8
 71
3
 72
8
 73
4
 74
0
 40
0
 40
0
 40
0
 40
0
 40
1
 40
1
 40
1
 40
1
 10
283.356395
 20
359.136284
 30
0.0
 10
284.340290
 20
359.136284
 30
0.0
 10
285.137895
 20
358.338679
 30
0.0
 10
285.137895
 20
357.354784
 30
0.0
  0
LWPOLYLINE
  5
162
100
AcDbEntity
  8
0
 62
7
100
AcDbPolyline
 90
1
 70
1
 10
68.425115
 20
357.354784
 30
0.0
  0
SPLINE
  5
163
100
AcDbEntity
  8
0
 62
7
100
AcDbSpline
 70
8
 71
3
 72
8
 73
4
 74
0
 40
0
 40
0
 40
0
 40
0
 40
1
 40
1
 40
1
 40
1
 10
140.211424
 20
343.750000
 30
0.0
 10
140.211424
 20
342.766105
 30
0.0
 10
139.413819
 20
341.968500
 30
0.0
 10
138.429924
 20
341.968500
 30
0.0
  0
SPLINE
  5
164
100
AcDbEntity
  8
0
 62
7
100
AcDbSpline
 70
8
 71
3
 72
8
 73
4
 74
0
 40
0
 40
0
 40
0
 40
0
 40
1
 40
1
 40
1
 40
1
 10
138.429924
 20
341.968500
 30
0.0
 10
137.446029
 20
341.968500
 30
0.0
 10
136.648424
 20
342.766105
 30
0.0
 10
136.648424
 20
343.750000
 30
0.0
  0
SPLINE
  5
165
100
AcDbEntity
  8
0
 62
7
100
AcDbSpline
 70
8
 71
3
 72
8
 73
4
 74
0
 40
0
 40
0
 40
0
 40
0
 40
1
 40
1
 40
1
 40
1
 10
136.648424
 20
343.750000
 30
0.0
 10
136.648424
 20
344.733895
 30
0.0
 10
137.446029
 20
345.531500
 30
0.0
 10
138.429924
 20
345.531500
 30
0.0
  0
SPLINE
  5
166
100
AcDbEntity
  8
0
 62
7
100
AcDbSpline
 70
8
 71
3
 72
8
 73
4
 74
0
 40
0
 40
0
 40
0
 40
0
 40
1
 40
1
 40
1
 40
1
 10
138.429924
 20
345.531500
 30
0.0
 10
139.413819
 20
345.531500
 30
0.0
 10
140.211424
 20
344.733895
 30
0.0
 10
140.211424
 20
343.750000
 30
0.0
  0
LWPOLYLINE
  5
167
100
AcDbEntity
  8
0
 62
7
100
AcDbPolyline
 90
1
 70
1
 10
285.137895
 20
357.354784
 30
0.0
  0
SPLINE
  5
168
100
AcDbEntity
  8
0
 62
7
100
AcDbSpline
 70
8
 71
3
 72
8
 73
4
 74
0
 40
0
 40
0
 40
0
 40
0
 40
1
 40
1
 40
1
 40
1
 10
213.351586
 20
343.750000
 30
0.0
 10
213.351586
 20
342.766105
 30
0.0
 10
212.553981
 20
341.968500
 30
0.0
 10
211.570086
 20
341.968500
 30
0.0
  0
SPLINE
  5
169
100
AcDbEntity
  8
0
 62
7
100
AcDbSpline
 70
8
 71
3
 72
8
 73
4
 74
0
 40
0
 40
0
 40
0
 40
0
 40
1
 40
1
 40
1
 40
1
 10
211.570086
 20
341.968500
 30
0.0
 10
210.586191
 20
341.968500
 30
0.0
 10
209.788586
 20
342.766105
 30
0.0
 10
209.788586
 20
343.750000
 30
0.0
  0
SPLINE
  5
16a
100
AcDbEntity
  8
0
 62
7
100
AcDbSpline
 70
8
 71
3
 72
8
 73
4
 74
0
 40
0
 40
0
 40
0
 40
0
 40
1
 40
1
 40
1
 40
1
 10
209.788586
 20
343.750000
 30
0.0
 10
209.788586
 20
344.733895
 30
0.0
 10
210.586191
 20
345.531500
 30
0.0
 10
211.570086
 20
345.531500
 30
0.0
  0
SPLINE
  5
16b
100
AcDbEntity
  8
0
 62
7
100
AcDbSpline
 70
8
 71
3
 72
8
 73
4
 74
0
 40
0
 40
0
 40
0
 40
0
 40
1
 40
1
 40
1
 40
1
 10
211.570086
 20
345.531500
 30
0.0
 10
212.553981
 20
345.531500
 30
0.0
 10
213.351586
 20
344.733895
 30
0.0
 10
213.351586
 20
343.750000
 30
0.0
  0
LWPOLYLINE
  5
16c
100
AcDbEntity
  8
0
 62
7
100
AcDbPolyline
 90
1
 70
1
 10
140.211424
 20
343.750000
 30
0.0
  0
LWPOLYLINE
  5
16d
100
AcDbEntity
  8
0
 62
7
100
AcDbPolyline
 90
1
 70
1
 10
213.351586
 20
343.750000
 30
0.0
  0
ENDSEC
  0
SECTION
  2
OBJECTS
  0
DICTIONARY
  5
C
330
0
100
AcDbDictionary
  3
ACAD_GROUP
350
D
  3
ACAD_MLINESTYLE
350
17
  0
DICTIONARY
  5
D
330
C
100
AcDbDictionary
  0
DICTIONARY
  5
1A
330
C
100
AcDbDictionary
  0
DICTIONARY
  5
17
330
C
100
AcDbDictionary
  3
STANDARD
350
18
  0
DICTIONARY
  5
19
330
C
100
AcDbDictionary
  0
ENDSEC
  0
EOF
