  0
SECTION
  2
HEADER
  9
$ACADVER
  1
AC1014
  9
$HANDSEED
  5
FFFF
  9
$MEASUREMENT
 70
     1
  0
ENDSEC
  0
SECTION
  2
TABLES
  0
TABLE
  2
VPORT
  5
8
330
0
100
AcDbSymbolTable
 70
     4
  0
VPORT
  5
2E
330
8
100
AcDbSymbolTableRecord
100
AcDbViewportTableRecord
  2
*ACTIVE
 70
     0
 10
0.0
 20
0.0
 11
1.0
 21
1.0
 12
210.0
 22
148.5
 13
0.0
 23
0.0
 14
10.0
 24
10.0
 15
10.0
 25
10.0
 16
0.0
 26
0.0
 36
1.0
 17
0.0
 27
0.0
 37
0.0
 40
341.0
 41
1.24
 42
50.0
 43
0.0
 44
0.0
 50
0.0
 51
0.0
 71
     0
 72
   100
 73
     1
 74
     3
 75
     0
 76
     0
 77
     0
 78
     0
  0
ENDTAB
  0
TABLE
  2
LTYPE
  5
5
330
0
100
AcDbSymbolTable
 70
     1
  0
LTYPE
  5
14
330
5
100
AcDbSymbolTableRecord
100
AcDbLinetypeTableRecord
  2
BYBLOCK
 70
     0
  3

 72
    65
 73
     0
 40
0.0
  0
LTYPE
  5
15
330
5
100
AcDbSymbolTableRecord
100
AcDbLinetypeTableRecord
  2
BYLAYER
 70
     0
  3

 72
    65
 73
     0
 40
0.0
  0
LTYPE
  5
16
330
5
100
AcDbSymbolTableRecord
100
AcDbLinetypeTableRecord
  2
CONTINUOUS
 70
     0
  3
Solid line
 72
    65
 73
     0
 40
0.0
  0
ENDTAB
  0
TABLE
  2
LAYER
  5
2
100
AcDbSymbolTable
 70
1
  0
LAYER
  5
50
100
AcDbSymbolTableRecord
100
AcDbLayerTableRecord
  2
0
 70
0
  6
CONTINUOUS
  0
ENDTAB
  0
TABLE
  2
STYLE
  5
3
330
0
100
AcDbSymbolTable
 70
     1
  0
STYLE
  5
11
330
3
100
AcDbSymbolTableRecord
100
AcDbTextStyleTableRecord
  2
STANDARD
 70
     0
 40
0.0
 41
1.0
 50
0.0
 71
     0
 42
2.5
  3
txt
  4

  0
ENDTAB
  0
TABLE
  2
VIEW
  5
6
330
0
100
AcDbSymbolTable
 70
     0
  0
ENDTAB
  0
TABLE
  2
UCS
  5
7
330
0
100
AcDbSymbolTable
 70
     0
  0
ENDTAB
  0
TABLE
  2
APPID
  5
9
330
0
100
AcDbSymbolTable
 70
     2
  0
APPID
  5
12
330
9
100
AcDbSymbolTableRecord
100
AcDbRegAppTableRecord
  2
ACAD
 70
     0
  0
ENDTAB
  0
TABLE
  2
DIMSTYLE
  5
A
330
0
100
AcDbSymbolTable
 70
     1
  0
DIMSTYLE
105
27
330
A
100
AcDbSymbolTableRecord
100
AcDbDimStyleTableRecord
  2
ISO-25
 70
     0
  3

  4

  5

  6

  7

 40
1.0
 41
2.5
 42
0.625
 43
3.75
 44
1.25
 45
0.0
 46
0.0
 47
0.0
 48
0.0
140
2.5
141
2.5
142
0.0
143
0.03937007874016
144
1.0
145
0.0
146
1.0
147
0.625
 71
     0
 72
     0
 73
     0
 74
     0
 75
     0
 76
     0
 77
     1
 78
     8
170
     0
171
     3
172
     1
173
     0
174
     0
175
     0
176
     0
177
     0
178
     0
270
     2
271
     2
272
     2
273
     2
274
     3
340
11
275
     0
280
     0
281
     0
282
     0
283
     0
284
     8
285
     0
286
     0
287
     3
288
     0
  0
ENDTAB
  0
TABLE
  2
BLOCK_RECORD
  5
1
330
0
100
AcDbSymbolTable
 70
     1
  0
BLOCK_RECORD
  5
1F
330
1
100
AcDbSymbolTableRecord
100
AcDbBlockTableRecord
  2
*MODEL_SPACE
  0
BLOCK_RECORD
  5
1B
330
1
100
AcDbSymbolTableRecord
100
AcDbBlockTableRecord
  2
*PAPER_SPACE
  0
ENDTAB
  0
ENDSEC
  0
SECTION
  2
BLOCKS
  0
BLOCK
  5
20
330
1F
100
AcDbEntity
  8
0
100
AcDbBlockBegin
  2
*MODEL_SPACE
 70
     0
 10
0.0
 20
0.0
 30
0.0
  3
*MODEL_SPACE
  1

  0
ENDBLK
  5
21
330
1F
100
AcDbEntity
  8
0
100
AcDbBlockEnd
  0
BLOCK
  5
1C
330
1B
100
AcDbEntity
 67
     1
  8
0
100
AcDbBlockBegin
  2
*PAPER_SPACE
  1

  0
ENDBLK
  5
1D
330
1B
100
AcDbEntity
 67
     1
  8
0
100
AcDbBlockEnd
  0
ENDSEC
  0
SECTION
  2
ENTITIES
  0
SPLINE
  5
100
100
AcDbEntity
  8
0
 62
7
100
AcDbSpline
 70
8
 71
3
 72
8
 73
4
 74
0
 40
0
 40
0
 40
0
 40
0
 40
1
 40
1
 40
1
 40
1
 10
23.816000
 20
490.250000
 30
0.0
 10
24.047333
 20
491.563333
 30
0.0
 10
24.829667
 20
492.220000
 30
0.0
 10
26.163000
 20
492.220000
 30
0.0
  0
SPLINE
  5
101
100
AcDbEntity
  8
0
 62
7
100
AcDbSpline
 70
8
 71
3
 72
8
 73
4
 74
0
 40
0
 40
0
 40
0
 40
0
 40
1
 40
1
 40
1
 40
1
 10
323.837000
 20
492.220000
 30
0.0
 10
325.170333
 20
492.220000
 30
0.0
 10
325.952667
 20
491.563333
 30
0.0
 10
326.184000
 20
490.250000
 30
0.0
  0
LWPOLYLINE
  5
102
100
AcDbEntity
  8
0
 62
7
100
AcDbPolyline
 90
2
 70
0
 10
26.163000
 20
492.220000
 30
0.0
 10
323.837000
 20
492.220000
 30
0.0
  0
SPLINE
  5
103
100
AcDbEntity
  8
0
 62
7
100
AcDbSpline
 70
8
 71
3
 72
8
 73
4
 74
0
 40
0
 40
0
 40
0
 40
0
 40
1
 40
1
 40
1
 40
1
 10
347.529000
 20
369.196000
 30
0.0
 10
347.761000
 20
367.882667
 30
0.0
 10
347.224667
 20
367.087333
 30
0.0
 10
345.920000
 20
366.810000
 30
0.0
  0
LWPOLYLINE
  5
104
100
AcDbEntity
  8
0
 62
7
100
AcDbPolyline
 90
2
 70
0
 10
326.184000
 20
490.250000
 30
0.0
 10
347.529000
 20
369.196000
 30
0.0
  0
SPLINE
  5
105
100
AcDbEntity
  8
0
 62
7
100
AcDbSpline
 70
8
 71
3
 72
8
 73
4
 74
0
 40
0
 40
0
 40
0
 40
0
 40
1
 40
1
 40
1
 40
1
 10
246.124000
 20
345.598000
 30
0.0
 10
244.819333
 20
345.320667
 30
0.0
 10
243.510667
 20
345.066333
 30
0.0
 10
242.198000
 20
344.835000
 30
0.0
  0
LWPOLYLINE
  5
106
100
AcDbEntity
  8
0
 62
7
100
AcDbPolyline
 90
2
 70
0
 10
345.920000
 20
366.810000
 30
0.0
 10
246.124000
 20
345.598000
 30
0.0
  0
SPLINE
  5
107
100
AcDbEntity
  8
0
 62
7
100
AcDbSpline
 70
8
 71
3
 72
8
 73
4
 74
0
 40
0
 40
0
 40
0
 40
0
 40
1
 40
1
 40
1
 40
1
 10
213.912000
 20
339.847000
 30
0.0
 10
212.598667
 20
339.615667
 30
0.0
 10
211.275333
 20
339.500000
 30
0.0
 10
209.942000
 20
339.500000
 30
0.0
  0
LWPOLYLINE
  5
108
100
AcDbEntity
  8
0
 62
7
100
AcDbPolyline
 90
2
 70
0
 10
242.198000
 20
344.835000
 30
0.0
 10
213.912000
 20
339.847000
 30
0.0
  0
SPLINE
  5
109
100
AcDbEntity
  8
0
 62
7
100
AcDbSpline
 70
8
 71
3
 72
8
 73
4
 74
0
 40
0
 40
0
 40
0
 40
0
 40
1
 40
1
 40
1
 40
1
 10
140.058000
 20
339.500000
 30
0.0
 10
138.724667
 20
339.500000
 30
0.0
 10
137.401333
 20
339.615667
 30
0.0
 10
136.088000
 20
339.847000
 30
0.0
  0
LWPOLYLINE
  5
10a
100
AcDbEntity
  8
0
 62
7
100
AcDbPolyline
 90
2
 70
0
 10
209.942000
 20
339.500000
 30
0.0
 10
140.058000
 20
339.500000
 30
0.0
  0
SPLINE
  5
10b
100
AcDbEntity
  8
0
 62
7
100
AcDbSpline
 70
8
 71
3
 72
8
 73
4
 74
0
 40
0
 40
0
 40
0
 40
0
 40
1
 40
1
 40
1
 40
1
 10
107.802000
 20
344.835000
 30
0.0
 10
106.489333
 20
345.066333
 30
0.0
 10
105.180667
 20
345.320667
 30
0.0
 10
103.876000
 20
345.598000
 30
0.0
  0
LWPOLYLINE
  5
10c
100
AcDbEntity
  8
0
 62
7
100
AcDbPolyline
 90
2
 70
0
 10
136.088000
 20
339.847000
 30
0.0
 10
107.802000
 20
344.835000
 30
0.0
  0
SPLINE
  5
10d
100
AcDbEntity
  8
0
 62
7
100
AcDbSpline
 70
8
 71
3
 72
8
 73
4
 74
0
 40
0
 40
0
 40
0
 40
0
 40
1
 40
1
 40
1
 40
1
 10
4.080000
 20
366.810000
 30
0.0
 10
2.775333
 20
367.087333
 30
0.0
 10
2.239000
 20
367.882667
 30
0.0
 10
2.471000
 20
369.196000
 30
0.0
  0
LWPOLYLINE
  5
10e
100
AcDbEntity
  8
0
 62
7
100
AcDbPolyline
 90
2
 70
0
 10
103.876000
 20
345.598000
 30
0.0
 10
4.080000
 20
366.810000
 30
0.0
  0
SPLINE
  5
10f
100
AcDbEntity
  8
0
 62
7
100
AcDbSpline
 70
8
 71
3
 72
8
 73
4
 74
0
 40
0
 40
0
 40
0
 40
0
 40
1
 40
1
 40
1
 40
1
 10
29.879288
 20
487.970000
 30
0.0
 10
29.879288
 20
487.559145
 30
0.0
 10
29.660099
 20
487.179499
 30
0.0
 10
29.304288
 20
486.974071
 30
0.0
  0
SPLINE
  5
110
100
AcDbEntity
  8
0
 62
7
100
AcDbSpline
 70
8
 71
3
 72
8
 73
4
 74
0
 40
0
 40
0
 40
0
 40
0
 40
1
 40
1
 40
1
 40
1
 10
29.304288
 20
486.974071
 30
0.0
 10
28.948477
 20
486.768643
 30
0.0
 10
28.510099
 20
486.768643
 30
0.0
 10
28.154288
 20
486.974071
 30
0.0
  0
SPLINE
  5
111
100
AcDbEntity
  8
0
 62
7
100
AcDbSpline
 70
8
 71
3
 72
8
 73
4
 74
0
 40
0
 40
0
 40
0
 40
0
 40
1
 40
1
 40
1
 40
1
 10
28.154288
 20
486.974071
 30
0.0
 10
27.798477
 20
487.179499
 30
0.0
 10
27.579288
 20
487.559145
 30
0.0
 10
27.579288
 20
487.970000
 30
0.0
  0
SPLINE
  5
112
100
AcDbEntity
  8
0
 62
7
100
AcDbSpline
 70
8
 71
3
 72
8
 73
4
 74
0
 40
0
 40
0
 40
0
 40
0
 40
1
 40
1
 40
1
 40
1
 10
27.579288
 20
487.970000
 30
0.0
 10
27.579288
 20
488.380855
 30
0.0
 10
27.798477
 20
488.760502
 30
0.0
 10
28.154288
 20
488.965929
 30
0.0
  0
SPLINE
  5
113
100
AcDbEntity
  8
0
 62
7
100
AcDbSpline
 70
8
 71
3
 72
8
 73
4
 74
0
 40
0
 40
0
 40
0
 40
0
 40
1
 40
1
 40
1
 40
1
 10
28.154288
 20
488.965929
 30
0.0
 10
28.510099
 20
489.171357
 30
0.0
 10
28.948477
 20
489.171357
 30
0.0
 10
29.304288
 20
488.965929
 30
0.0
  0
SPLINE
  5
114
100
AcDbEntity
  8
0
 62
7
100
AcDbSpline
 70
8
 71
3
 72
8
 73
4
 74
0
 40
0
 40
0
 40
0
 40
0
 40
1
 40
1
 40
1
 40
1
 10
29.304288
 20
488.965929
 30
0.0
 10
29.660099
 20
488.760502
 30
0.0
 10
29.879288
 20
488.380855
 30
0.0
 10
29.879288
 20
487.970000
 30
0.0
  0
LWPOLYLINE
  5
115
100
AcDbEntity
  8
0
 62
7
100
AcDbPolyline
 90
2
 70
0
 10
2.471000
 20
369.196000
 30
0.0
 10
23.816000
 20
490.250000
 30
0.0
  0
SPLINE
  5
116
100
AcDbEntity
  8
0
 62
7
100
AcDbSpline
 70
8
 71
3
 72
8
 73
4
 74
0
 40
0
 40
0
 40
0
 40
0
 40
1
 40
1
 40
1
 40
1
 10
322.420722
 20
487.970000
 30
0.0
 10
322.420722
 20
487.559145
 30
0.0
 10
322.201533
 20
487.179499
 30
0.0
 10
321.845722
 20
486.974071
 30
0.0
  0
SPLINE
  5
117
100
AcDbEntity
  8
0
 62
7
100
AcDbSpline
 70
8
 71
3
 72
8
 73
4
 74
0
 40
0
 40
0
 40
0
 40
0
 40
1
 40
1
 40
1
 40
1
 10
321.845722
 20
486.974071
 30
0.0
 10
321.489911
 20
486.768643
 30
0.0
 10
321.051533
 20
486.768643
 30
0.0
 10
320.695722
 20
486.974071
 30
0.0
  0
SPLINE
  5
118
100
AcDbEntity
  8
0
 62
7
100
AcDbSpline
 70
8
 71
3
 72
8
 73
4
 74
0
 40
0
 40
0
 40
0
 40
0
 40
1
 40
1
 40
1
 40
1
 10
320.695722
 20
486.974071
 30
0.0
 10
320.339911
 20
487.179499
 30
0.0
 10
320.120722
 20
487.559145
 30
0.0
 10
320.120722
 20
487.970000
 30
0.0
  0
SPLINE
  5
119
100
AcDbEntity
  8
0
 62
7
100
AcDbSpline
 70
8
 71
3
 72
8
 73
4
 74
0
 40
0
 40
0
 40
0
 40
0
 40
1
 40
1
 40
1
 40
1
 10
320.120722
 20
487.970000
 30
0.0
 10
320.120722
 20
488.380855
 30
0.0
 10
320.339911
 20
488.760502
 30
0.0
 10
320.695722
 20
488.965929
 30
0.0
  0
SPLINE
  5
11a
100
AcDbEntity
  8
0
 62
7
100
AcDbSpline
 70
8
 71
3
 72
8
 73
4
 74
0
 40
0
 40
0
 40
0
 40
0
 40
1
 40
1
 40
1
 40
1
 10
320.695722
 20
488.965929
 30
0.0
 10
321.051533
 20
489.171357
 30
0.0
 10
321.489911
 20
489.171357
 30
0.0
 10
321.845722
 20
488.965929
 30
0.0
  0
SPLINE
  5
11b
100
AcDbEntity
  8
0
 62
7
100
AcDbSpline
 70
8
 71
3
 72
8
 73
4
 74
0
 40
0
 40
0
 40
0
 40
0
 40
1
 40
1
 40
1
 40
1
 10
321.845722
 20
488.965929
 30
0.0
 10
322.201533
 20
488.760502
 30
0.0
 10
322.420722
 20
488.380855
 30
0.0
 10
322.420722
 20
487.970000
 30
0.0
  0
LWPOLYLINE
  5
11c
100
AcDbEntity
  8
0
 62
7
100
AcDbPolyline
 90
1
 70
1
 10
29.879288
 20
487.970000
 30
0.0
  0
SPLINE
  5
11d
100
AcDbEntity
  8
0
 62
7
100
AcDbSpline
 70
8
 71
3
 72
8
 73
4
 74
0
 40
0
 40
0
 40
0
 40
0
 40
1
 40
1
 40
1
 40
1
 10
96.543000
 20
487.970000
 30
0.0
 10
96.543000
 20
487.559145
 30
0.0
 10
96.323811
 20
487.179499
 30
0.0
 10
95.968000
 20
486.974071
 30
0.0
  0
SPLINE
  5
11e
100
AcDbEntity
  8
0
 62
7
100
AcDbSpline
 70
8
 71
3
 72
8
 73
4
 74
0
 40
0
 40
0
 40
0
 40
0
 40
1
 40
1
 40
1
 40
1
 10
95.968000
 20
486.974071
 30
0.0
 10
95.612189
 20
486.768643
 30
0.0
 10
95.173811
 20
486.768643
 30
0.0
 10
94.818000
 20
486.974071
 30
0.0
  0
SPLINE
  5
11f
100
AcDbEntity
  8
0
 62
7
100
AcDbSpline
 70
8
 71
3
 72
8
 73
4
 74
0
 40
0
 40
0
 40
0
 40
0
 40
1
 40
1
 40
1
 40
1
 10
94.818000
 20
486.974071
 30
0.0
 10
94.462189
 20
487.179499
 30
0.0
 10
94.243000
 20
487.559145
 30
0.0
 10
94.243000
 20
487.970000
 30
0.0
  0
SPLINE
  5
120
100
AcDbEntity
  8
0
 62
7
100
AcDbSpline
 70
8
 71
3
 72
8
 73
4
 74
0
 40
0
 40
0
 40
0
 40
0
 40
1
 40
1
 40
1
 40
1
 10
94.243000
 20
487.970000
 30
0.0
 10
94.243000
 20
488.380855
 30
0.0
 10
94.462189
 20
488.760502
 30
0.0
 10
94.818000
 20
488.965929
 30
0.0
  0
SPLINE
  5
121
100
AcDbEntity
  8
0
 62
7
100
AcDbSpline
 70
8
 71
3
 72
8
 73
4
 74
0
 40
0
 40
0
 40
0
 40
0
 40
1
 40
1
 40
1
 40
1
 10
94.818000
 20
488.965929
 30
0.0
 10
95.173811
 20
489.171357
 30
0.0
 10
95.612189
 20
489.171357
 30
0.0
 10
95.968000
 20
488.965929
 30
0.0
  0
SPLINE
  5
122
100
AcDbEntity
  8
0
 62
7
100
AcDbSpline
 70
8
 71
3
 72
8
 73
4
 74
0
 40
0
 40
0
 40
0
 40
0
 40
1
 40
1
 40
1
 40
1
 10
95.968000
 20
488.965929
 30
0.0
 10
96.323811
 20
488.760502
 30
0.0
 10
96.543000
 20
488.380855
 30
0.0
 10
96.543000
 20
487.970000
 30
0.0
  0
LWPOLYLINE
  5
123
100
AcDbEntity
  8
0
 62
7
100
AcDbPolyline
 90
1
 70
1
 10
322.420722
 20
487.970000
 30
0.0
  0
SPLINE
  5
124
100
AcDbEntity
  8
0
 62
7
100
AcDbSpline
 70
8
 71
3
 72
8
 73
4
 74
0
 40
0
 40
0
 40
0
 40
0
 40
1
 40
1
 40
1
 40
1
 10
255.754500
 20
487.970000
 30
0.0
 10
255.754500
 20
487.559145
 30
0.0
 10
255.535311
 20
487.179499
 30
0.0
 10
255.179500
 20
486.974071
 30
0.0
  0
SPLINE
  5
125
100
AcDbEntity
  8
0
 62
7
100
AcDbSpline
 70
8
 71
3
 72
8
 73
4
 74
0
 40
0
 40
0
 40
0
 40
0
 40
1
 40
1
 40
1
 40
1
 10
255.179500
 20
486.974071
 30
0.0
 10
254.823689
 20
486.768643
 30
0.0
 10
254.385311
 20
486.768643
 30
0.0
 10
254.029500
 20
486.974071
 30
0.0
  0
SPLINE
  5
126
100
AcDbEntity
  8
0
 62
7
100
AcDbSpline
 70
8
 71
3
 72
8
 73
4
 74
0
 40
0
 40
0
 40
0
 40
0
 40
1
 40
1
 40
1
 40
1
 10
254.029500
 20
486.974071
 30
0.0
 10
253.673689
 20
487.179499
 30
0.0
 10
253.454500
 20
487.559145
 30
0.0
 10
253.454500
 20
487.970000
 30
0.0
  0
SPLINE
  5
127
100
AcDbEntity
  8
0
 62
7
100
AcDbSpline
 70
8
 71
3
 72
8
 73
4
 74
0
 40
0
 40
0
 40
0
 40
0
 40
1
 40
1
 40
1
 40
1
 10
253.454500
 20
487.970000
 30
0.0
 10
253.454500
 20
488.380855
 30
0.0
 10
253.673689
 20
488.760502
 30
0.0
 10
254.029500
 20
488.965929
 30
0.0
  0
SPLINE
  5
128
100
AcDbEntity
  8
0
 62
7
100
AcDbSpline
 70
8
 71
3
 72
8
 73
4
 74
0
 40
0
 40
0
 40
0
 40
0
 40
1
 40
1
 40
1
 40
1
 10
254.029500
 20
488.965929
 30
0.0
 10
254.385311
 20
489.171357
 30
0.0
 10
254.823689
 20
489.171357
 30
0.0
 10
255.179500
 20
488.965929
 30
0.0
  0
SPLINE
  5
129
100
AcDbEntity
  8
0
 62
7
100
AcDbSpline
 70
8
 71
3
 72
8
 73
4
 74
0
 40
0
 40
0
 40
0
 40
0
 40
1
 40
1
 40
1
 40
1
 10
255.179500
 20
488.965929
 30
0.0
 10
255.535311
 20
488.760502
 30
0.0
 10
255.754500
 20
488.380855
 30
0.0
 10
255.754500
 20
487.970000
 30
0.0
  0
LWPOLYLINE
  5
12a
100
AcDbEntity
  8
0
 62
7
100
AcDbPolyline
 90
1
 70
1
 10
96.543000
 20
487.970000
 30
0.0
  0
SPLINE
  5
12b
100
AcDbEntity
  8
0
 62
7
100
AcDbSpline
 70
8
 71
3
 72
8
 73
4
 74
0
 40
0
 40
0
 40
0
 40
0
 40
1
 40
1
 40
1
 40
1
 10
163.212500
 20
487.970000
 30
0.0
 10
163.212500
 20
487.559145
 30
0.0
 10
162.993311
 20
487.179499
 30
0.0
 10
162.637500
 20
486.974071
 30
0.0
  0
SPLINE
  5
12c
100
AcDbEntity
  8
0
 62
7
100
AcDbSpline
 70
8
 71
3
 72
8
 73
4
 74
0
 40
0
 40
0
 40
0
 40
0
 40
1
 40
1
 40
1
 40
1
 10
162.637500
 20
486.974071
 30
0.0
 10
162.281689
 20
486.768643
 30
0.0
 10
161.843311
 20
486.768643
 30
0.0
 10
161.487500
 20
486.974071
 30
0.0
  0
SPLINE
  5
12d
100
AcDbEntity
  8
0
 62
7
100
AcDbSpline
 70
8
 71
3
 72
8
 73
4
 74
0
 40
0
 40
0
 40
0
 40
0
 40
1
 40
1
 40
1
 40
1
 10
161.487500
 20
486.974071
 30
0.0
 10
161.131689
 20
487.179499
 30
0.0
 10
160.912500
 20
487.559145
 30
0.0
 10
160.912500
 20
487.970000
 30
0.0
  0
SPLINE
  5
12e
100
AcDbEntity
  8
0
 62
7
100
AcDbSpline
 70
8
 71
3
 72
8
 73
4
 74
0
 40
0
 40
0
 40
0
 40
0
 40
1
 40
1
 40
1
 40
1
 10
160.912500
 20
487.970000
 30
0.0
 10
160.912500
 20
488.380855
 30
0.0
 10
161.131689
 20
488.760502
 30
0.0
 10
161.487500
 20
488.965929
 30
0.0
  0
SPLINE
  5
12f
100
AcDbEntity
  8
0
 62
7
100
AcDbSpline
 70
8
 71
3
 72
8
 73
4
 74
0
 40
0
 40
0
 40
0
 40
0
 40
1
 40
1
 40
1
 40
1
 10
161.487500
 20
488.965929
 30
0.0
 10
161.843311
 20
489.171357
 30
0.0
 10
162.281689
 20
489.171357
 30
0.0
 10
162.637500
 20
488.965929
 30
0.0
  0
SPLINE
  5
130
100
AcDbEntity
  8
0
 62
7
100
AcDbSpline
 70
8
 71
3
 72
8
 73
4
 74
0
 40
0
 40
0
 40
0
 40
0
 40
1
 40
1
 40
1
 40
1
 10
162.637500
 20
488.965929
 30
0.0
 10
162.993311
 20
488.760502
 30
0.0
 10
163.212500
 20
488.380855
 30
0.0
 10
163.212500
 20
487.970000
 30
0.0
  0
LWPOLYLINE
  5
131
100
AcDbEntity
  8
0
 62
7
100
AcDbPolyline
 90
1
 70
1
 10
255.754500
 20
487.970000
 30
0.0
  0
SPLINE
  5
132
100
AcDbEntity
  8
0
 62
7
100
AcDbSpline
 70
8
 71
3
 72
8
 73
4
 74
0
 40
0
 40
0
 40
0
 40
0
 40
1
 40
1
 40
1
 40
1
 10
189.087500
 20
487.970000
 30
0.0
 10
189.087500
 20
487.559145
 30
0.0
 10
188.868311
 20
487.179499
 30
0.0
 10
188.512500
 20
486.974071
 30
0.0
  0
SPLINE
  5
133
100
AcDbEntity
  8
0
 62
7
100
AcDbSpline
 70
8
 71
3
 72
8
 73
4
 74
0
 40
0
 40
0
 40
0
 40
0
 40
1
 40
1
 40
1
 40
1
 10
188.512500
 20
486.974071
 30
0.0
 10
188.156689
 20
486.768643
 30
0.0
 10
187.718311
 20
486.768643
 30
0.0
 10
187.362500
 20
486.974071
 30
0.0
  0
SPLINE
  5
134
100
AcDbEntity
  8
0
 62
7
100
AcDbSpline
 70
8
 71
3
 72
8
 73
4
 74
0
 40
0
 40
0
 40
0
 40
0
 40
1
 40
1
 40
1
 40
1
 10
187.362500
 20
486.974071
 30
0.0
 10
187.006689
 20
487.179499
 30
0.0
 10
186.787500
 20
487.559145
 30
0.0
 10
186.787500
 20
487.970000
 30
0.0
  0
SPLINE
  5
135
100
AcDbEntity
  8
0
 62
7
100
AcDbSpline
 70
8
 71
3
 72
8
 73
4
 74
0
 40
0
 40
0
 40
0
 40
0
 40
1
 40
1
 40
1
 40
1
 10
186.787500
 20
487.970000
 30
0.0
 10
186.787500
 20
488.380855
 30
0.0
 10
187.006689
 20
488.760502
 30
0.0
 10
187.362500
 20
488.965929
 30
0.0
  0
SPLINE
  5
136
100
AcDbEntity
  8
0
 62
7
100
AcDbSpline
 70
8
 71
3
 72
8
 73
4
 74
0
 40
0
 40
0
 40
0
 40
0
 40
1
 40
1
 40
1
 40
1
 10
187.362500
 20
488.965929
 30
0.0
 10
187.718311
 20
489.171357
 30
0.0
 10
188.156689
 20
489.171357
 30
0.0
 10
188.512500
 20
488.965929
 30
0.0
  0
SPLINE
  5
137
100
AcDbEntity
  8
0
 62
7
100
AcDbSpline
 70
8
 71
3
 72
8
 73
4
 74
0
 40
0
 40
0
 40
0
 40
0
 40
1
 40
1
 40
1
 40
1
 10
188.512500
 20
488.965929
 30
0.0
 10
188.868311
 20
488.760502
 30
0.0
 10
189.087500
 20
488.380855
 30
0.0
 10
189.087500
 20
487.970000
 30
0.0
  0
LWPOLYLINE
  5
138
100
AcDbEntity
  8
0
 62
7
100
AcDbPolyline
 90
1
 70
1
 10
163.212500
 20
487.970000
 30
0.0
  0
SPLINE
  5
139
100
AcDbEntity
  8
0
 62
7
100
AcDbSpline
 70
8
 71
3
 72
8
 73
4
 74
0
 40
0
 40
0
 40
0
 40
0
 40
1
 40
1
 40
1
 40
1
 10
18.525379
 20
429.485000
 30
0.0
 10
18.525379
 20
429.074145
 30
0.0
 10
18.306190
 20
428.694499
 30
0.0
 10
17.950379
 20
428.489071
 30
0.0
  0
SPLINE
  5
13a
100
AcDbEntity
  8
0
 62
7
100
AcDbSpline
 70
8
 71
3
 72
8
 73
4
 74
0
 40
0
 40
0
 40
0
 40
0
 40
1
 40
1
 40
1
 40
1
 10
17.950379
 20
428.489071
 30
0.0
 10
17.594568
 20
428.283643
 30
0.0
 10
17.156190
 20
428.283643
 30
0.0
 10
16.800379
 20
428.489071
 30
0.0
  0
SPLINE
  5
13b
100
AcDbEntity
  8
0
 62
7
100
AcDbSpline
 70
8
 71
3
 72
8
 73
4
 74
0
 40
0
 40
0
 40
0
 40
0
 40
1
 40
1
 40
1
 40
1
 10
16.800379
 20
428.489071
 30
0.0
 10
16.444568
 20
428.694499
 30
0.0
 10
16.225379
 20
429.074145
 30
0.0
 10
16.225379
 20
429.485000
 30
0.0
  0
SPLINE
  5
13c
100
AcDbEntity
  8
0
 62
7
100
AcDbSpline
 70
8
 71
3
 72
8
 73
4
 74
0
 40
0
 40
0
 40
0
 40
0
 40
1
 40
1
 40
1
 40
1
 10
16.225379
 20
429.485000
 30
0.0
 10
16.225379
 20
429.895855
 30
0.0
 10
16.444568
 20
430.275502
 30
0.0
 10
16.800379
 20
430.480929
 30
0.0
  0
SPLINE
  5
13d
100
AcDbEntity
  8
0
 62
7
100
AcDbSpline
 70
8
 71
3
 72
8
 73
4
 74
0
 40
0
 40
0
 40
0
 40
0
 40
1
 40
1
 40
1
 40
1
 10
16.800379
 20
430.480929
 30
0.0
 10
17.156190
 20
430.686357
 30
0.0
 10
17.594568
 20
430.686357
 30
0.0
 10
17.950379
 20
430.480929
 30
0.0
  0
SPLINE
  5
13e
100
AcDbEntity
  8
0
 62
7
100
AcDbSpline
 70
8
 71
3
 72
8
 73
4
 74
0
 40
0
 40
0
 40
0
 40
0
 40
1
 40
1
 40
1
 40
1
 10
17.950379
 20
430.480929
 30
0.0
 10
18.306190
 20
430.275502
 30
0.0
 10
18.525379
 20
429.895855
 30
0.0
 10
18.525379
 20
429.485000
 30
0.0
  0
LWPOLYLINE
  5
13f
100
AcDbEntity
  8
0
 62
7
100
AcDbPolyline
 90
1
 70
1
 10
189.087500
 20
487.970000
 30
0.0
  0
SPLINE
  5
140
100
AcDbEntity
  8
0
 62
7
100
AcDbSpline
 70
8
 71
3
 72
8
 73
4
 74
0
 40
0
 40
0
 40
0
 40
0
 40
1
 40
1
 40
1
 40
1
 10
333.774631
 20
429.485000
 30
0.0
 10
333.774631
 20
429.074145
 30
0.0
 10
333.555442
 20
428.694499
 30
0.0
 10
333.199631
 20
428.489071
 30
0.0
  0
SPLINE
  5
141
100
AcDbEntity
  8
0
 62
7
100
AcDbSpline
 70
8
 71
3
 72
8
 73
4
 74
0
 40
0
 40
0
 40
0
 40
0
 40
1
 40
1
 40
1
 40
1
 10
333.199631
 20
428.489071
 30
0.0
 10
332.843820
 20
428.283643
 30
0.0
 10
332.405442
 20
428.283643
 30
0.0
 10
332.049631
 20
428.489071
 30
0.0
  0
SPLINE
  5
142
100
AcDbEntity
  8
0
 62
7
100
AcDbSpline
 70
8
 71
3
 72
8
 73
4
 74
0
 40
0
 40
0
 40
0
 40
0
 40
1
 40
1
 40
1
 40
1
 10
332.049631
 20
428.489071
 30
0.0
 10
331.693820
 20
428.694499
 30
0.0
 10
331.474631
 20
429.074145
 30
0.0
 10
331.474631
 20
429.485000
 30
0.0
  0
SPLINE
  5
143
100
AcDbEntity
  8
0
 62
7
100
AcDbSpline
 70
8
 71
3
 72
8
 73
4
 74
0
 40
0
 40
0
 40
0
 40
0
 40
1
 40
1
 40
1
 40
1
 10
331.474631
 20
429.485000
 30
0.0
 10
331.474631
 20
429.895855
 30
0.0
 10
331.693820
 20
430.275502
 30
0.0
 10
332.049631
 20
430.480929
 30
0.0
  0
SPLINE
  5
144
100
AcDbEntity
  8
0
 62
7
100
AcDbSpline
 70
8
 71
3
 72
8
 73
4
 74
0
 40
0
 40
0
 40
0
 40
0
 40
1
 40
1
 40
1
 40
1
 10
332.049631
 20
430.480929
 30
0.0
 10
332.405442
 20
430.686357
 30
0.0
 10
332.843820
 20
430.686357
 30
0.0
 10
333.199631
 20
430.480929
 30
0.0
  0
SPLINE
  5
145
100
AcDbEntity
  8
0
 62
7
100
AcDbSpline
 70
8
 71
3
 72
8
 73
4
 74
0
 40
0
 40
0
 40
0
 40
0
 40
1
 40
1
 40
1
 40
1
 10
333.199631
 20
430.480929
 30
0.0
 10
333.555442
 20
430.275502
 30
0.0
 10
333.774631
 20
429.895855
 30
0.0
 10
333.774631
 20
429.485000
 30
0.0
  0
LWPOLYLINE
  5
146
100
AcDbEntity
  8
0
 62
7
100
AcDbPolyline
 90
1
 70
1
 10
18.525379
 20
429.485000
 30
0.0
  0
SPLINE
  5
147
100
AcDbEntity
  8
0
 62
7
100
AcDbSpline
 70
8
 71
3
 72
8
 73
4
 74
0
 40
0
 40
0
 40
0
 40
0
 40
1
 40
1
 40
1
 40
1
 10
9.171469
 20
371.000000
 30
0.0
 10
9.171469
 20
370.589145
 30
0.0
 10
8.952281
 20
370.209499
 30
0.0
 10
8.596469
 20
370.004071
 30
0.0
  0
SPLINE
  5
148
100
AcDbEntity
  8
0
 62
7
100
AcDbSpline
 70
8
 71
3
 72
8
 73
4
 74
0
 40
0
 40
0
 40
0
 40
0
 40
1
 40
1
 40
1
 40
1
 10
8.596469
 20
370.004071
 30
0.0
 10
8.240658
 20
369.798643
 30
0.0
 10
7.802281
 20
369.798643
 30
0.0
 10
7.446469
 20
370.004071
 30
0.0
  0
SPLINE
  5
149
100
AcDbEntity
  8
0
 62
7
100
AcDbSpline
 70
8
 71
3
 72
8
 73
4
 74
0
 40
0
 40
0
 40
0
 40
0
 40
1
 40
1
 40
1
 40
1
 10
7.446469
 20
370.004071
 30
0.0
 10
7.090658
 20
370.209499
 30
0.0
 10
6.871469
 20
370.589145
 30
0.0
 10
6.871469
 20
371.000000
 30
0.0
  0
SPLINE
  5
14a
100
AcDbEntity
  8
0
 62
7
100
AcDbSpline
 70
8
 71
3
 72
8
 73
4
 74
0
 40
0
 40
0
 40
0
 40
0
 40
1
 40
1
 40
1
 40
1
 10
6.871469
 20
371.000000
 30
0.0
 10
6.871469
 20
371.410855
 30
0.0
 10
7.090658
 20
371.790502
 30
0.0
 10
7.446469
 20
371.995929
 30
0.0
  0
SPLINE
  5
14b
100
AcDbEntity
  8
0
 62
7
100
AcDbSpline
 70
8
 71
3
 72
8
 73
4
 74
0
 40
0
 40
0
 40
0
 40
0
 40
1
 40
1
 40
1
 40
1
 10
7.446469
 20
371.995929
 30
0.0
 10
7.802281
 20
372.201357
 30
0.0
 10
8.240658
 20
372.201357
 30
0.0
 10
8.596469
 20
371.995929
 30
0.0
  0
SPLINE
  5
14c
100
AcDbEntity
  8
0
 62
7
100
AcDbSpline
 70
8
 71
3
 72
8
 73
4
 74
0
 40
0
 40
0
 40
0
 40
0
 40
1
 40
1
 40
1
 40
1
 10
8.596469
 20
371.995929
 30
0.0
 10
8.952281
 20
371.790502
 30
0.0
 10
9.171469
 20
371.410855
 30
0.0
 10
9.171469
 20
371.000000
 30
0.0
  0
LWPOLYLINE
  5
14d
100
AcDbEntity
  8
0
 62
7
100
AcDbPolyline
 90
1
 70
1
 10
333.774631
 20
429.485000
 30
0.0
  0
SPLINE
  5
14e
100
AcDbEntity
  8
0
 62
7
100
AcDbSpline
 70
8
 71
3
 72
8
 73
4
 74
0
 40
0
 40
0
 40
0
 40
0
 40
1
 40
1
 40
1
 40
1
 10
343.128541
 20
371.000000
 30
0.0
 10
343.128541
 20
370.589145
 30
0.0
 10
342.909352
 20
370.209499
 30
0.0
 10
342.553541
 20
370.004071
 30
0.0
  0
SPLINE
  5
14f
100
AcDbEntity
  8
0
 62
7
100
AcDbSpline
 70
8
 71
3
 72
8
 73
4
 74
0
 40
0
 40
0
 40
0
 40
0
 40
1
 40
1
 40
1
 40
1
 10
342.553541
 20
370.004071
 30
0.0
 10
342.197729
 20
369.798643
 30
0.0
 10
341.759352
 20
369.798643
 30
0.0
 10
341.403541
 20
370.004071
 30
0.0
  0
SPLINE
  5
150
100
AcDbEntity
  8
0
 62
7
100
AcDbSpline
 70
8
 71
3
 72
8
 73
4
 74
0
 40
0
 40
0
 40
0
 40
0
 40
1
 40
1
 40
1
 40
1
 10
341.403541
 20
370.004071
 30
0.0
 10
341.047729
 20
370.209499
 30
0.0
 10
340.828541
 20
370.589145
 30
0.0
 10
340.828541
 20
371.000000
 30
0.0
  0
SPLINE
  5
151
100
AcDbEntity
  8
0
 62
7
100
AcDbSpline
 70
8
 71
3
 72
8
 73
4
 74
0
 40
0
 40
0
 40
0
 40
0
 40
1
 40
1
 40
1
 40
1
 10
340.828541
 20
371.000000
 30
0.0
 10
340.828541
 20
371.410855
 30
0.0
 10
341.047729
 20
371.790502
 30
0.0
 10
341.403541
 20
371.995929
 30
0.0
  0
SPLINE
  5
152
100
AcDbEntity
  8
0
 62
7
100
AcDbSpline
 70
8
 71
3
 72
8
 73
4
 74
0
 40
0
 40
0
 40
0
 40
0
 40
1
 40
1
 40
1
 40
1
 10
341.403541
 20
371.995929
 30
0.0
 10
341.759352
 20
372.201357
 30
0.0
 10
342.197729
 20
372.201357
 30
0.0
 10
342.553541
 20
371.995929
 30
0.0
  0
SPLINE
  5
153
100
AcDbEntity
  8
0
 62
7
100
AcDbSpline
 70
8
 71
3
 72
8
 73
4
 74
0
 40
0
 40
0
 40
0
 40
0
 40
1
 40
1
 40
1
 40
1
 10
342.553541
 20
371.995929
 30
0.0
 10
342.909352
 20
371.790502
 30
0.0
 10
343.128541
 20
371.410855
 30
0.0
 10
343.128541
 20
371.000000
 30
0.0
  0
LWPOLYLINE
  5
154
100
AcDbEntity
  8
0
 62
7
100
AcDbPolyline
 90
1
 70
1
 10
9.171469
 20
371.000000
 30
0.0
  0
SPLINE
  5
155
100
AcDbEntity
  8
0
 62
7
100
AcDbSpline
 70
8
 71
3
 72
8
 73
4
 74
0
 40
0
 40
0
 40
0
 40
0
 40
1
 40
1
 40
1
 40
1
 10
67.793615
 20
357.354784
 30
0.0
 10
67.793615
 20
356.943928
 30
0.0
 10
67.574426
 20
356.564282
 30
0.0
 10
67.218615
 20
356.358855
 30
0.0
  0
SPLINE
  5
156
100
AcDbEntity
  8
0
 62
7
100
AcDbSpline
 70
8
 71
3
 72
8
 73
4
 74
0
 40
0
 40
0
 40
0
 40
0
 40
1
 40
1
 40
1
 40
1
 10
67.218615
 20
356.358855
 30
0.0
 10
66.862804
 20
356.153427
 30
0.0
 10
66.424426
 20
356.153427
 30
0.0
 10
66.068615
 20
356.358855
 30
0.0
  0
SPLINE
  5
157
100
AcDbEntity
  8
0
 62
7
100
AcDbSpline
 70
8
 71
3
 72
8
 73
4
 74
0
 40
0
 40
0
 40
0
 40
0
 40
1
 40
1
 40
1
 40
1
 10
66.068615
 20
356.358855
 30
0.0
 10
65.712804
 20
356.564282
 30
0.0
 10
65.493615
 20
356.943928
 30
0.0
 10
65.493615
 20
357.354784
 30
0.0
  0
SPLINE
  5
158
100
AcDbEntity
  8
0
 62
7
100
AcDbSpline
 70
8
 71
3
 72
8
 73
4
 74
0
 40
0
 40
0
 40
0
 40
0
 40
1
 40
1
 40
1
 40
1
 10
65.493615
 20
357.354784
 30
0.0
 10
65.493615
 20
357.765639
 30
0.0
 10
65.712804
 20
358.145285
 30
0.0
 10
66.068615
 20
358.350713
 30
0.0
  0
SPLINE
  5
159
100
AcDbEntity
  8
0
 62
7
100
AcDbSpline
 70
8
 71
3
 72
8
 73
4
 74
0
 40
0
 40
0
 40
0
 40
0
 40
1
 40
1
 40
1
 40
1
 10
66.068615
 20
358.350713
 30
0.0
 10
66.424426
 20
358.556141
 30
0.0
 10
66.862804
 20
358.556141
 30
0.0
 10
67.218615
 20
358.350713
 30
0.0
  0
SPLINE
  5
15a
100
AcDbEntity
  8
0
 62
7
100
AcDbSpline
 70
8
 71
3
 72
8
 73
4
 74
0
 40
0
 40
0
 40
0
 40
0
 40
1
 40
1
 40
1
 40
1
 10
67.218615
 20
358.350713
 30
0.0
 10
67.574426
 20
358.145285
 30
0.0
 10
67.793615
 20
357.765639
 30
0.0
 10
67.793615
 20
357.354784
 30
0.0
  0
LWPOLYLINE
  5
15b
100
AcDbEntity
  8
0
 62
7
100
AcDbPolyline
 90
1
 70
1
 10
343.128541
 20
371.000000
 30
0.0
  0
SPLINE
  5
15c
100
AcDbEntity
  8
0
 62
7
100
AcDbSpline
 70
8
 71
3
 72
8
 73
4
 74
0
 40
0
 40
0
 40
0
 40
0
 40
1
 40
1
 40
1
 40
1
 10
284.506395
 20
357.354784
 30
0.0
 10
284.506395
 20
356.943928
 30
0.0
 10
284.287206
 20
356.564282
 30
0.0
 10
283.931395
 20
356.358855
 30
0.0
  0
SPLINE
  5
15d
100
AcDbEntity
  8
0
 62
7
100
AcDbSpline
 70
8
 71
3
 72
8
 73
4
 74
0
 40
0
 40
0
 40
0
 40
0
 40
1
 40
1
 40
1
 40
1
 10
283.931395
 20
356.358855
 30
0.0
 10
283.575584
 20
356.153427
 30
0.0
 10
283.137206
 20
356.153427
 30
0.0
 10
282.781395
 20
356.358855
 30
0.0
  0
SPLINE
  5
15e
100
AcDbEntity
  8
0
 62
7
100
AcDbSpline
 70
8
 71
3
 72
8
 73
4
 74
0
 40
0
 40
0
 40
0
 40
0
 40
1
 40
1
 40
1
 40
1
 10
282.781395
 20
356.358855
 30
0.0
 10
282.425584
 20
356.564282
 30
0.0
 10
282.206395
 20
356.943928
 30
0.0
 10
282.206395
 20
357.354784
 30
0.0
  0
SPLINE
  5
15f
100
AcDbEntity
  8
0
 62
7
100
AcDbSpline
 70
8
 71
3
 72
8
 73
4
 74
0
 40
0
 40
0
 40
0
 40
0
 40
1
 40
1
 40
1
 40
1
 10
282.206395
 20
357.354784
 30
0.0
 10
282.206395
 20
357.765639
 30
0.0
 10
282.425584
 20
358.145285
 30
0.0
 10
282.781395
 20
358.350713
 30
0.0
  0
SPLINE
  5
160
100
AcDbEntity
  8
0
 62
7
100
AcDbSpline
 70
8
 71
3
 72
8
 73
4
 74
0
 40
0
 40
0
 40
0
 40
0
 40
1
 40
1
 40
1
 40
1
 10
282.781395
 20
358.350713
 30
0.0
 10
283.137206
 20
358.556141
 30
0.0
 10
283.575584
 20
358.556141
 30
0.0
 10
283.931395
 20
358.350713
 30
0.0
  0
SPLINE
  5
161
100
AcDbEntity
  8
0
 62
7
100
AcDbSpline
 70
8
 71
3
 72
8
 73
4
 74
0
 40
0
 40
0
 40
0
 40
0
 40
1
 40
1
 40
1
 40
1
 10
283.931395
 20
358.350713
 30
0.0
 10
284.287206
 20
358.145285
 30
0.0
 10
284.506395
 20
357.765639
 30
0.0
 10
284.506395
 20
357.354784
 30
0.0
  0
LWPOLYLINE
  5
162
100
AcDbEntity
  8
0
 62
7
100
AcDbPolyline
 90
1
 70
1
 10
67.793615
 20
357.354784
 30
0.0
  0
SPLINE
  5
163
100
AcDbEntity
  8
0
 62
7
100
AcDbSpline
 70
8
 71
3
 72
8
 73
4
 74
0
 40
0
 40
0
 40
0
 40
0
 40
1
 40
1
 40
1
 40
1
 10
139.579924
 20
343.750000
 30
0.0
 10
139.579924
 20
343.339145
 30
0.0
 10
139.360735
 20
342.959499
 30
0.0
 10
139.004924
 20
342.754071
 30
0.0
  0
SPLINE
  5
164
100
AcDbEntity
  8
0
 62
7
100
AcDbSpline
 70
8
 71
3
 72
8
 73
4
 74
0
 40
0
 40
0
 40
0
 40
0
 40
1
 40
1
 40
1
 40
1
 10
139.004924
 20
342.754071
 30
0.0
 10
138.649113
 20
342.548643
 30
0.0
 10
138.210735
 20
342.548643
 30
0.0
 10
137.854924
 20
342.754071
 30
0.0
  0
SPLINE
  5
165
100
AcDbEntity
  8
0
 62
7
100
AcDbSpline
 70
8
 71
3
 72
8
 73
4
 74
0
 40
0
 40
0
 40
0
 40
0
 40
1
 40
1
 40
1
 40
1
 10
137.854924
 20
342.754071
 30
0.0
 10
137.499113
 20
342.959499
 30
0.0
 10
137.279924
 20
343.339145
 30
0.0
 10
137.279924
 20
343.750000
 30
0.0
  0
SPLINE
  5
166
100
AcDbEntity
  8
0
 62
7
100
AcDbSpline
 70
8
 71
3
 72
8
 73
4
 74
0
 40
0
 40
0
 40
0
 40
0
 40
1
 40
1
 40
1
 40
1
 10
137.279924
 20
343.750000
 30
0.0
 10
137.279924
 20
344.160855
 30
0.0
 10
137.499113
 20
344.540502
 30
0.0
 10
137.854924
 20
344.745929
 30
0.0
  0
SPLINE
  5
167
100
AcDbEntity
  8
0
 62
7
100
AcDbSpline
 70
8
 71
3
 72
8
 73
4
 74
0
 40
0
 40
0
 40
0
 40
0
 40
1
 40
1
 40
1
 40
1
 10
137.854924
 20
344.745929
 30
0.0
 10
138.210735
 20
344.951357
 30
0.0
 10
138.649113
 20
344.951357
 30
0.0
 10
139.004924
 20
344.745929
 30
0.0
  0
SPLINE
  5
168
100
AcDbEntity
  8
0
 62
7
100
AcDbSpline
 70
8
 71
3
 72
8
 73
4
 74
0
 40
0
 40
0
 40
0
 40
0
 40
1
 40
1
 40
1
 40
1
 10
139.004924
 20
344.745929
 30
0.0
 10
139.360735
 20
344.540502
 30
0.0
 10
139.579924
 20
344.160855
 30
0.0
 10
139.579924
 20
343.750000
 30
0.0
  0
LWPOLYLINE
  5
169
100
AcDbEntity
  8
0
 62
7
100
AcDbPolyline
 90
1
 70
1
 10
284.506395
 20
357.354784
 30
0.0
  0
SPLINE
  5
16a
100
AcDbEntity
  8
0
 62
7
100
AcDbSpline
 70
8
 71
3
 72
8
 73
4
 74
0
 40
0
 40
0
 40
0
 40
0
 40
1
 40
1
 40
1
 40
1
 10
212.720086
 20
343.750000
 30
0.0
 10
212.720086
 20
343.339145
 30
0.0
 10
212.500897
 20
342.959499
 30
0.0
 10
212.145086
 20
342.754071
 30
0.0
  0
SPLINE
  5
16b
100
AcDbEntity
  8
0
 62
7
100
AcDbSpline
 70
8
 71
3
 72
8
 73
4
 74
0
 40
0
 40
0
 40
0
 40
0
 40
1
 40
1
 40
1
 40
1
 10
212.145086
 20
342.754071
 30
0.0
 10
211.789275
 20
342.548643
 30
0.0
 10
211.350897
 20
342.548643
 30
0.0
 10
210.995086
 20
342.754071
 30
0.0
  0
SPLINE
  5
16c
100
AcDbEntity
  8
0
 62
7
100
AcDbSpline
 70
8
 71
3
 72
8
 73
4
 74
0
 40
0
 40
0
 40
0
 40
0
 40
1
 40
1
 40
1
 40
1
 10
210.995086
 20
342.754071
 30
0.0
 10
210.639275
 20
342.959499
 30
0.0
 10
210.420086
 20
343.339145
 30
0.0
 10
210.420086
 20
343.750000
 30
0.0
  0
SPLINE
  5
16d
100
AcDbEntity
  8
0
 62
7
100
AcDbSpline
 70
8
 71
3
 72
8
 73
4
 74
0
 40
0
 40
0
 40
0
 40
0
 40
1
 40
1
 40
1
 40
1
 10
210.420086
 20
343.750000
 30
0.0
 10
210.420086
 20
344.160855
 30
0.0
 10
210.639275
 20
344.540502
 30
0.0
 10
210.995086
 20
344.745929
 30
0.0
  0
SPLINE
  5
16e
100
AcDbEntity
  8
0
 62
7
100
AcDbSpline
 70
8
 71
3
 72
8
 73
4
 74
0
 40
0
 40
0
 40
0
 40
0
 40
1
 40
1
 40
1
 40
1
 10
210.995086
 20
344.745929
 30
0.0
 10
211.350897
 20
344.951357
 30
0.0
 10
211.789275
 20
344.951357
 30
0.0
 10
212.145086
 20
344.745929
 30
0.0
  0
SPLINE
  5
16f
100
AcDbEntity
  8
0
 62
7
100
AcDbSpline
 70
8
 71
3
 72
8
 73
4
 74
0
 40
0
 40
0
 40
0
 40
0
 40
1
 40
1
 40
1
 40
1
 10
212.145086
 20
344.745929
 30
0.0
 10
212.500897
 20
344.540502
 30
0.0
 10
212.720086
 20
344.160855
 30
0.0
 10
212.720086
 20
343.750000
 30
0.0
  0
LWPOLYLINE
  5
170
100
AcDbEntity
  8
0
 62
7
100
AcDbPolyline
 90
1
 70
1
 10
139.579924
 20
343.750000
 30
0.0
  0
LWPOLYLINE
  5
171
100
AcDbEntity
  8
0
 62
7
100
AcDbPolyline
 90
1
 70
1
 10
212.720086
 20
343.750000
 30
0.0
  0
LWPOLYLINE
  5
172
100
AcDbEntity
  8
0
 62
7
100
AcDbPolyline
 90
14
 70
0
 10
32.875994
 20
482.472635
 30
0.0
 10
46.663302
 20
480.041560
 30
0.0
 10
46.489654
 20
479.056752
 30
0.0
 10
47.277500
 20
478.917834
 30
0.0
 10
45.193722
 20
467.100141
 30
0.0
 10
44.405876
 20
467.239059
 30
0.0
 10
44.232228
 20
466.254252
 30
0.0
 10
30.444919
 20
468.685326
 30
0.0
 10
30.618568
 20
469.670134
 30
0.0
 10
29.830721
 20
469.809052
 30
0.0
 10
31.914500
 20
481.626746
 30
0.0
 10
32.702346
 20
481.487827
 30
0.0
 10
32.875994
 20
482.472635
 30
0.0
 10
46.663302
 20
480.041560
 30
0.0
  0
LWPOLYLINE
  5
173
100
AcDbEntity
  8
0
 62
7
100
AcDbPolyline
 90
14
 70
0
 10
29.567996
 20
463.712047
 30
0.0
 10
43.355305
 20
461.280973
 30
0.0
 10
43.181656
 20
460.296165
 30
0.0
 10
43.969503
 20
460.157246
 30
0.0
 10
41.885725
 20
448.339553
 30
0.0
 10
41.097878
 20
448.478472
 30
0.0
 10
40.924230
 20
447.493664
 30
0.0
 10
27.136922
 20
449.924738
 30
0.0
 10
27.310570
 20
450.909546
 30
0.0
 10
26.522724
 20
451.048465
 30
0.0
 10
28.606502
 20
462.866158
 30
0.0
 10
29.394348
 20
462.727239
 30
0.0
 10
29.567996
 20
463.712047
 30
0.0
 10
43.355305
 20
461.280973
 30
0.0
  0
LWPOLYLINE
  5
174
100
AcDbEntity
  8
0
 62
7
100
AcDbPolyline
 90
14
 70
0
 10
26.259999
 20
444.951464
 30
0.0
 10
40.047308
 20
442.520390
 30
0.0
 10
39.873660
 20
441.535582
 30
0.0
 10
40.661506
 20
441.396663
 30
0.0
 10
38.577728
 20
429.578970
 30
0.0
 10
37.789881
 20
429.717889
 30
0.0
 10
37.616233
 20
428.733081
 30
0.0
 10
23.828925
 20
431.164156
 30
0.0
 10
24.002573
 20
432.148963
 30
0.0
 10
23.214727
 20
432.287882
 30
0.0
 10
25.298505
 20
444.105575
 30
0.0
 10
26.086351
 20
443.966657
 30
0.0
 10
26.259999
 20
444.951464
 30
0.0
 10
40.047308
 20
442.520390
 30
0.0
  0
LWPOLYLINE
  5
175
100
AcDbEntity
  8
0
 62
7
100
AcDbPolyline
 90
14
 70
0
 10
22.952001
 20
426.190874
 30
0.0
 10
36.739309
 20
423.759799
 30
0.0
 10
36.565661
 20
422.774991
 30
0.0
 10
37.353507
 20
422.636073
 30
0.0
 10
35.269729
 20
410.818380
 30
0.0
 10
34.481883
 20
410.957298
 30
0.0
 10
34.308235
 20
409.972491
 30
0.0
 10
20.520926
 20
412.403565
 30
0.0
 10
20.694575
 20
413.388373
 30
0.0
 10
19.906728
 20
413.527291
 30
0.0
 10
21.990507
 20
425.344984
 30
0.0
 10
22.778353
 20
425.206066
 30
0.0
 10
22.952001
 20
426.190874
 30
0.0
 10
36.739309
 20
423.759799
 30
0.0
  0
LWPOLYLINE
  5
176
100
AcDbEntity
  8
0
 62
7
100
AcDbPolyline
 90
14
 70
0
 10
19.644003
 20
407.430284
 30
0.0
 10
33.431311
 20
404.999209
 30
0.0
 10
33.257663
 20
404.014402
 30
0.0
 10
34.045509
 20
403.875483
 30
0.0
 10
31.961731
 20
392.057790
 30
0.0
 10
31.173885
 20
392.196709
 30
0.0
 10
31.000237
 20
391.211901
 30
0.0
 10
17.212928
 20
393.642975
 30
0.0
 10
17.386576
 20
394.627783
 30
0.0
 10
16.598730
 20
394.766702
 30
0.0
 10
18.682508
 20
406.584395
 30
0.0
 10
19.470355
 20
406.445476
 30
0.0
 10
19.644003
 20
407.430284
 30
0.0
 10
33.431311
 20
404.999209
 30
0.0
  0
LWPOLYLINE
  5
177
100
AcDbEntity
  8
0
 62
7
100
AcDbPolyline
 90
14
 70
0
 10
16.336005
 20
388.669696
 30
0.0
 10
30.123314
 20
386.238622
 30
0.0
 10
29.949665
 20
385.253814
 30
0.0
 10
30.737512
 20
385.114895
 30
0.0
 10
28.653733
 20
373.297202
 30
0.0
 10
27.865887
 20
373.436121
 30
0.0
 10
27.692239
 20
372.451313
 30
0.0
 10
13.904930
 20
374.882388
 30
0.0
 10
14.078579
 20
375.867195
 30
0.0
 10
13.290732
 20
376.006114
 30
0.0
 10
15.374511
 20
387.823807
 30
0.0
 10
16.162357
 20
387.684889
 30
0.0
 10
16.336005
 20
388.669696
 30
0.0
 10
30.123314
 20
386.238622
 30
0.0
  0
LWPOLYLINE
  5
178
100
AcDbEntity
  8
0
 62
7
100
AcDbPolyline
 90
14
 70
0
 10
51.636582
 20
479.164637
 30
0.0
 10
65.423890
 20
476.733562
 30
0.0
 10
65.250242
 20
475.748755
 30
0.0
 10
66.038088
 20
475.609836
 30
0.0
 10
63.954310
 20
463.792143
 30
0.0
 10
63.166464
 20
463.931062
 30
0.0
 10
62.992816
 20
462.946254
 30
0.0
 10
49.205507
 20
465.377328
 30
0.0
 10
49.379155
 20
466.362136
 30
0.0
 10
48.591309
 20
466.501055
 30
0.0
 10
50.675087
 20
478.318748
 30
0.0
 10
51.462933
 20
478.179829
 30
0.0
 10
51.636582
 20
479.164637
 30
0.0
 10
65.423890
 20
476.733562
 30
0.0
  0
LWPOLYLINE
  5
179
100
AcDbEntity
  8
0
 62
7
100
AcDbPolyline
 90
14
 70
0
 10
48.328584
 20
460.404049
 30
0.0
 10
62.115892
 20
457.972975
 30
0.0
 10
61.942244
 20
456.988167
 30
0.0
 10
62.730090
 20
456.849248
 30
0.0
 10
60.646312
 20
445.031555
 30
0.0
 10
59.858466
 20
445.170474
 30
0.0
 10
59.684818
 20
444.185666
 30
0.0
 10
45.897509
 20
446.616741
 30
0.0
 10
46.071158
 20
447.601548
 30
0.0
 10
45.283311
 20
447.740467
 30
0.0
 10
47.367089
 20
459.558160
 30
0.0
 10
48.154936
 20
459.419241
 30
0.0
 10
48.328584
 20
460.404049
 30
0.0
 10
62.115892
 20
457.972975
 30
0.0
  0
LWPOLYLINE
  5
17a
100
AcDbEntity
  8
0
 62
7
100
AcDbPolyline
 90
14
 70
0
 10
45.020587
 20
441.643466
 30
0.0
 10
58.807895
 20
439.212392
 30
0.0
 10
58.634247
 20
438.227584
 30
0.0
 10
59.422093
 20
438.088666
 30
0.0
 10
57.338315
 20
426.270973
 30
0.0
 10
56.550469
 20
426.409891
 30
0.0
 10
56.376821
 20
425.425083
 30
0.0
 10
42.589512
 20
427.856158
 30
0.0
 10
42.763161
 20
428.840966
 30
0.0
 10
41.975314
 20
428.979884
 30
0.0
 10
44.059093
 20
440.797577
 30
0.0
 10
44.846939
 20
440.658659
 30
0.0
 10
45.020587
 20
441.643466
 30
0.0
 10
58.807895
 20
439.212392
 30
0.0
  0
LWPOLYLINE
  5
17b
100
AcDbEntity
  8
0
 62
7
100
AcDbPolyline
 90
14
 70
0
 10
41.712589
 20
422.882876
 30
0.0
 10
55.499897
 20
420.451801
 30
0.0
 10
55.326249
 20
419.466994
 30
0.0
 10
56.114095
 20
419.328075
 30
0.0
 10
54.030317
 20
407.510382
 30
0.0
 10
53.242471
 20
407.649301
 30
0.0
 10
53.068823
 20
406.664493
 30
0.0
 10
39.281514
 20
409.095567
 30
0.0
 10
39.455162
 20
410.080375
 30
0.0
 10
38.667316
 20
410.219294
 30
0.0
 10
40.751094
 20
422.036987
 30
0.0
 10
41.538940
 20
421.898068
 30
0.0
 10
41.712589
 20
422.882876
 30
0.0
 10
55.499897
 20
420.451801
 30
0.0
  0
LWPOLYLINE
  5
17c
100
AcDbEntity
  8
0
 62
7
100
AcDbPolyline
 90
14
 70
0
 10
38.404590
 20
404.122286
 30
0.0
 10
52.191899
 20
401.691212
 30
0.0
 10
52.018251
 20
400.706404
 30
0.0
 10
52.806097
 20
400.567485
 30
0.0
 10
50.722319
 20
388.749792
 30
0.0
 10
49.934473
 20
388.888711
 30
0.0
 10
49.760825
 20
387.903903
 30
0.0
 10
35.973516
 20
390.334978
 30
0.0
 10
36.147164
 20
391.319785
 30
0.0
 10
35.359318
 20
391.458704
 30
0.0
 10
37.443096
 20
403.276397
 30
0.0
 10
38.230942
 20
403.137478
 30
0.0
 10
38.404590
 20
404.122286
 30
0.0
 10
52.191899
 20
401.691212
 30
0.0
  0
LWPOLYLINE
  5
17d
100
AcDbEntity
  8
0
 62
7
100
AcDbPolyline
 90
14
 70
0
 10
35.096593
 20
385.361698
 30
0.0
 10
48.883901
 20
382.930624
 30
0.0
 10
48.710253
 20
381.945816
 30
0.0
 10
49.498099
 20
381.806898
 30
0.0
 10
47.414321
 20
369.989205
 30
0.0
 10
46.626475
 20
370.128123
 30
0.0
 10
46.452827
 20
369.143315
 30
0.0
 10
32.665518
 20
371.574390
 30
0.0
 10
32.839166
 20
372.559198
 30
0.0
 10
32.051320
 20
372.698116
 30
0.0
 10
34.135098
 20
384.515809
 30
0.0
 10
34.922945
 20
384.376891
 30
0.0
 10
35.096593
 20
385.361698
 30
0.0
 10
48.883901
 20
382.930624
 30
0.0
  0
LWPOLYLINE
  5
17e
100
AcDbEntity
  8
0
 62
7
100
AcDbPolyline
 90
14
 70
0
 10
70.744466
 20
477.826255
 30
0.0
 10
84.531774
 20
475.395180
 30
0.0
 10
84.358126
 20
474.410372
 30
0.0
 10
85.145972
 20
474.271454
 30
0.0
 10
83.062194
 20
462.453761
 30
0.0
 10
82.274348
 20
462.592679
 30
0.0
 10
82.100700
 20
461.607872
 30
0.0
 10
68.313391
 20
464.038946
 30
0.0
 10
68.487039
 20
465.023754
 30
0.0
 10
67.699193
 20
465.162672
 30
0.0
 10
69.782971
 20
476.980365
 30
0.0
 10
70.570817
 20
476.841447
 30
0.0
 10
70.744466
 20
477.826255
 30
0.0
 10
84.531774
 20
475.395180
 30
0.0
  0
LWPOLYLINE
  5
17f
100
AcDbEntity
  8
0
 62
7
100
AcDbPolyline
 90
14
 70
0
 10
67.436468
 20
459.065667
 30
0.0
 10
81.223776
 20
456.634592
 30
0.0
 10
81.050128
 20
455.649785
 30
0.0
 10
81.837974
 20
455.510866
 30
0.0
 10
79.754196
 20
443.693173
 30
0.0
 10
78.966350
 20
443.832092
 30
0.0
 10
78.792702
 20
442.847284
 30
0.0
 10
65.005393
 20
445.278358
 30
0.0
 10
65.179042
 20
446.263166
 30
0.0
 10
64.391195
 20
446.402085
 30
0.0
 10
66.474973
 20
458.219778
 30
0.0
 10
67.262820
 20
458.080859
 30
0.0
 10
67.436468
 20
459.065667
 30
0.0
 10
81.223776
 20
456.634592
 30
0.0
  0
LWPOLYLINE
  5
180
100
AcDbEntity
  8
0
 62
7
100
AcDbPolyline
 90
14
 70
0
 10
64.128471
 20
440.305084
 30
0.0
 10
77.915779
 20
437.874010
 30
0.0
 10
77.742131
 20
436.889202
 30
0.0
 10
78.529978
 20
436.750283
 30
0.0
 10
76.446199
 20
424.932590
 30
0.0
 10
75.658353
 20
425.071509
 30
0.0
 10
75.484705
 20
424.086701
 30
0.0
 10
61.697396
 20
426.517776
 30
0.0
 10
61.871045
 20
427.502583
 30
0.0
 10
61.083198
 20
427.641502
 30
0.0
 10
63.166977
 20
439.459195
 30
0.0
 10
63.954823
 20
439.320276
 30
0.0
 10
64.128471
 20
440.305084
 30
0.0
 10
77.915779
 20
437.874010
 30
0.0
  0
LWPOLYLINE
  5
181
100
AcDbEntity
  8
0
 62
7
100
AcDbPolyline
 90
14
 70
0
 10
60.820473
 20
421.544494
 30
0.0
 10
74.607781
 20
419.113419
 30
0.0
 10
74.434133
 20
418.128611
 30
0.0
 10
75.221979
 20
417.989693
 30
0.0
 10
73.138201
 20
406.172000
 30
0.0
 10
72.350355
 20
406.310918
 30
0.0
 10
72.176707
 20
405.326111
 30
0.0
 10
58.389398
 20
407.757185
 30
0.0
 10
58.563046
 20
408.741993
 30
0.0
 10
57.775200
 20
408.880911
 30
0.0
 10
59.858978
 20
420.698604
 30
0.0
 10
60.646824
 20
420.559686
 30
0.0
 10
60.820473
 20
421.544494
 30
0.0
 10
74.607781
 20
419.113419
 30
0.0
  0
LWPOLYLINE
  5
182
100
AcDbEntity
  8
0
 62
7
100
AcDbPolyline
 90
14
 70
0
 10
57.512475
 20
402.783904
 30
0.0
 10
71.299783
 20
400.352829
 30
0.0
 10
71.126135
 20
399.368022
 30
0.0
 10
71.913981
 20
399.229103
 30
0.0
 10
69.830203
 20
387.411410
 30
0.0
 10
69.042357
 20
387.550329
 30
0.0
 10
68.868709
 20
386.565521
 30
0.0
 10
55.081400
 20
388.996595
 30
0.0
 10
55.255048
 20
389.981403
 30
0.0
 10
54.467202
 20
390.120322
 30
0.0
 10
56.550980
 20
401.938015
 30
0.0
 10
57.338826
 20
401.799096
 30
0.0
 10
57.512475
 20
402.783904
 30
0.0
 10
71.299783
 20
400.352829
 30
0.0
  0
LWPOLYLINE
  5
183
100
AcDbEntity
  8
0
 62
7
100
AcDbPolyline
 90
14
 70
0
 10
54.204477
 20
384.023316
 30
0.0
 10
67.991785
 20
381.592242
 30
0.0
 10
67.818137
 20
380.607434
 30
0.0
 10
68.605983
 20
380.468515
 30
0.0
 10
66.522205
 20
368.650822
 30
0.0
 10
65.734359
 20
368.789741
 30
0.0
 10
65.560711
 20
367.804933
 30
0.0
 10
51.773402
 20
370.236008
 30
0.0
 10
51.947050
 20
371.220815
 30
0.0
 10
51.159204
 20
371.359734
 30
0.0
 10
53.242982
 20
383.177427
 30
0.0
 10
54.030829
 20
383.038508
 30
0.0
 10
54.204477
 20
384.023316
 30
0.0
 10
67.991785
 20
381.592242
 30
0.0
  0
LWPOLYLINE
  5
184
100
AcDbEntity
  8
0
 62
7
100
AcDbPolyline
 90
14
 70
0
 10
90.546942
 20
480.427103
 30
0.0
 10
104.334251
 20
477.996029
 30
0.0
 10
104.160603
 20
477.011221
 30
0.0
 10
104.948449
 20
476.872303
 30
0.0
 10
102.864671
 20
465.054610
 30
0.0
 10
102.076825
 20
465.193528
 30
0.0
 10
101.903176
 20
464.208720
 30
0.0
 10
88.115868
 20
466.639795
 30
0.0
 10
88.289516
 20
467.624603
 30
0.0
 10
87.501670
 20
467.763521
 30
0.0
 10
89.585448
 20
479.581214
 30
0.0
 10
90.373294
 20
479.442296
 30
0.0
 10
90.546942
 20
480.427103
 30
0.0
 10
104.334251
 20
477.996029
 30
0.0
  0
LWPOLYLINE
  5
185
100
AcDbEntity
  8
0
 62
7
100
AcDbPolyline
 90
14
 70
0
 10
87.238945
 20
461.666516
 30
0.0
 10
101.026253
 20
459.235441
 30
0.0
 10
100.852605
 20
458.250633
 30
0.0
 10
101.640451
 20
458.111715
 30
0.0
 10
99.556673
 20
446.294022
 30
0.0
 10
98.768827
 20
446.432940
 30
0.0
 10
98.595179
 20
445.448133
 30
0.0
 10
84.807870
 20
447.879207
 30
0.0
 10
84.981518
 20
448.864015
 30
0.0
 10
84.193672
 20
449.002933
 30
0.0
 10
86.277450
 20
460.820626
 30
0.0
 10
87.065296
 20
460.681708
 30
0.0
 10
87.238945
 20
461.666516
 30
0.0
 10
101.026253
 20
459.235441
 30
0.0
  0
LWPOLYLINE
  5
186
100
AcDbEntity
  8
0
 62
7
100
AcDbPolyline
 90
14
 70
0
 10
83.930948
 20
442.905933
 30
0.0
 10
97.718256
 20
440.474858
 30
0.0
 10
97.544608
 20
439.490051
 30
0.0
 10
98.332454
 20
439.351132
 30
0.0
 10
96.248676
 20
427.533439
 30
0.0
 10
95.460830
 20
427.672358
 30
0.0
 10
95.287182
 20
426.687550
 30
0.0
 10
81.499873
 20
429.118624
 30
0.0
 10
81.673521
 20
430.103432
 30
0.0
 10
80.885675
 20
430.242351
 30
0.0
 10
82.969453
 20
442.060044
 30
0.0
 10
83.757300
 20
441.921125
 30
0.0
 10
83.930948
 20
442.905933
 30
0.0
 10
97.718256
 20
440.474858
 30
0.0
  0
LWPOLYLINE
  5
187
100
AcDbEntity
  8
0
 62
7
100
AcDbPolyline
 90
14
 70
0
 10
80.622949
 20
424.145342
 30
0.0
 10
94.410258
 20
421.714268
 30
0.0
 10
94.236610
 20
420.729460
 30
0.0
 10
95.024456
 20
420.590542
 30
0.0
 10
92.940678
 20
408.772848
 30
0.0
 10
92.152832
 20
408.911767
 30
0.0
 10
91.979183
 20
407.926959
 30
0.0
 10
78.191875
 20
410.358034
 30
0.0
 10
78.365523
 20
411.342841
 30
0.0
 10
77.577677
 20
411.481760
 30
0.0
 10
79.661455
 20
423.299453
 30
0.0
 10
80.449301
 20
423.160535
 30
0.0
 10
80.622949
 20
424.145342
 30
0.0
 10
94.410258
 20
421.714268
 30
0.0
  0
LWPOLYLINE
  5
188
100
AcDbEntity
  8
0
 62
7
100
AcDbPolyline
 90
14
 70
0
 10
77.314951
 20
405.384753
 30
0.0
 10
91.102260
 20
402.953678
 30
0.0
 10
90.928612
 20
401.968870
 30
0.0
 10
91.716458
 20
401.829952
 30
0.0
 10
89.632680
 20
390.012259
 30
0.0
 10
88.844834
 20
390.151177
 30
0.0
 10
88.671185
 20
389.166370
 30
0.0
 10
74.883877
 20
391.597444
 30
0.0
 10
75.057525
 20
392.582252
 30
0.0
 10
74.269679
 20
392.721170
 30
0.0
 10
76.353457
 20
404.538863
 30
0.0
 10
77.141303
 20
404.399945
 30
0.0
 10
77.314951
 20
405.384753
 30
0.0
 10
91.102260
 20
402.953678
 30
0.0
  0
LWPOLYLINE
  5
189
100
AcDbEntity
  8
0
 62
7
100
AcDbPolyline
 90
14
 70
0
 10
74.006953
 20
386.624165
 30
0.0
 10
87.794262
 20
384.193090
 30
0.0
 10
87.620614
 20
383.208283
 30
0.0
 10
88.408460
 20
383.069364
 30
0.0
 10
86.324682
 20
371.251671
 30
0.0
 10
85.536836
 20
371.390590
 30
0.0
 10
85.363188
 20
370.405782
 30
0.0
 10
71.575879
 20
372.836856
 30
0.0
 10
71.749527
 20
373.821664
 30
0.0
 10
70.961681
 20
373.960583
 30
0.0
 10
73.045459
 20
385.778276
 30
0.0
 10
73.833305
 20
385.639357
 30
0.0
 10
74.006953
 20
386.624165
 30
0.0
 10
87.794262
 20
384.193090
 30
0.0
  0
LWPOLYLINE
  5
18a
100
AcDbEntity
  8
0
 62
7
100
AcDbPolyline
 90
14
 70
0
 10
108.265641
 20
471.210259
 30
0.0
 10
122.052950
 20
468.779185
 30
0.0
 10
121.879301
 20
467.794377
 30
0.0
 10
122.667148
 20
467.655458
 30
0.0
 10
120.583369
 20
455.837765
 30
0.0
 10
119.795523
 20
455.976684
 30
0.0
 10
119.621875
 20
454.991876
 30
0.0
 10
105.834567
 20
457.422951
 30
0.0
 10
106.008215
 20
458.407758
 30
0.0
 10
105.220369
 20
458.546677
 30
0.0
 10
107.304147
 20
470.364370
 30
0.0
 10
108.091993
 20
470.225451
 30
0.0
 10
108.265641
 20
471.210259
 30
0.0
 10
122.052950
 20
468.779185
 30
0.0
  0
LWPOLYLINE
  5
18b
100
AcDbEntity
  8
0
 62
7
100
AcDbPolyline
 90
14
 70
0
 10
104.957643
 20
452.449671
 30
0.0
 10
118.744952
 20
450.018597
 30
0.0
 10
118.571304
 20
449.033789
 30
0.0
 10
119.359150
 20
448.894871
 30
0.0
 10
117.275372
 20
437.077178
 30
0.0
 10
116.487525
 20
437.216096
 30
0.0
 10
116.313877
 20
436.231288
 30
0.0
 10
102.526569
 20
438.662363
 30
0.0
 10
102.700217
 20
439.647171
 30
0.0
 10
101.912371
 20
439.786089
 30
0.0
 10
103.996149
 20
451.603782
 30
0.0
 10
104.783995
 20
451.464864
 30
0.0
 10
104.957643
 20
452.449671
 30
0.0
 10
118.744952
 20
450.018597
 30
0.0
  0
LWPOLYLINE
  5
18c
100
AcDbEntity
  8
0
 62
7
100
AcDbPolyline
 90
14
 70
0
 10
101.649646
 20
433.689089
 30
0.0
 10
115.436955
 20
431.258014
 30
0.0
 10
115.263307
 20
430.273206
 30
0.0
 10
116.051153
 20
430.134288
 30
0.0
 10
113.967375
 20
418.316595
 30
0.0
 10
113.179529
 20
418.455513
 30
0.0
 10
113.005880
 20
417.470706
 30
0.0
 10
99.218572
 20
419.901780
 30
0.0
 10
99.392220
 20
420.886588
 30
0.0
 10
98.604374
 20
421.025506
 30
0.0
 10
100.688152
 20
432.843199
 30
0.0
 10
101.475998
 20
432.704281
 30
0.0
 10
101.649646
 20
433.689089
 30
0.0
 10
115.436955
 20
431.258014
 30
0.0
  0
LWPOLYLINE
  5
18d
100
AcDbEntity
  8
0
 62
7
100
AcDbPolyline
 90
14
 70
0
 10
98.341648
 20
414.928498
 30
0.0
 10
112.128957
 20
412.497423
 30
0.0
 10
111.955308
 20
411.512616
 30
0.0
 10
112.743155
 20
411.373697
 30
0.0
 10
110.659376
 20
399.556004
 30
0.0
 10
109.871530
 20
399.694923
 30
0.0
 10
109.697882
 20
398.710115
 30
0.0
 10
95.910574
 20
401.141189
 30
0.0
 10
96.084222
 20
402.125997
 30
0.0
 10
95.296376
 20
402.264916
 30
0.0
 10
97.380154
 20
414.082609
 30
0.0
 10
98.168000
 20
413.943690
 30
0.0
 10
98.341648
 20
414.928498
 30
0.0
 10
112.128957
 20
412.497423
 30
0.0
  0
LWPOLYLINE
  5
18e
100
AcDbEntity
  8
0
 62
7
100
AcDbPolyline
 90
14
 70
0
 10
95.033650
 20
396.167908
 30
0.0
 10
108.820958
 20
393.736834
 30
0.0
 10
108.647310
 20
392.752026
 30
0.0
 10
109.435156
 20
392.613108
 30
0.0
 10
107.351378
 20
380.795415
 30
0.0
 10
106.563532
 20
380.934333
 30
0.0
 10
106.389884
 20
379.949525
 30
0.0
 10
92.602575
 20
382.380600
 30
0.0
 10
92.776224
 20
383.365408
 30
0.0
 10
91.988377
 20
383.504326
 30
0.0
 10
94.072156
 20
395.322019
 30
0.0
 10
94.860002
 20
395.183101
 30
0.0
 10
95.033650
 20
396.167908
 30
0.0
 10
108.820958
 20
393.736834
 30
0.0
  0
LWPOLYLINE
  5
18f
100
AcDbEntity
  8
0
 62
7
100
AcDbPolyline
 90
14
 70
0
 10
91.725652
 20
377.407321
 30
0.0
 10
105.512961
 20
374.976246
 30
0.0
 10
105.339312
 20
373.991438
 30
0.0
 10
106.127159
 20
373.852520
 30
0.0
 10
104.043381
 20
362.034827
 30
0.0
 10
103.255534
 20
362.173745
 30
0.0
 10
103.081886
 20
361.188938
 30
0.0
 10
89.294578
 20
363.620012
 30
0.0
 10
89.468226
 20
364.604820
 30
0.0
 10
88.680380
 20
364.743738
 30
0.0
 10
90.764158
 20
376.561431
 30
0.0
 10
91.552004
 20
376.422513
 30
0.0
 10
91.725652
 20
377.407321
 30
0.0
 10
105.512961
 20
374.976246
 30
0.0
  0
LWPOLYLINE
  5
190
100
AcDbEntity
  8
0
 62
7
100
AcDbPolyline
 90
14
 70
0
 10
126.157998
 20
462.978221
 30
0.0
 10
139.945306
 20
460.547146
 30
0.0
 10
139.771658
 20
459.562339
 30
0.0
 10
140.559504
 20
459.423420
 30
0.0
 10
138.475726
 20
447.605727
 30
0.0
 10
137.687880
 20
447.744646
 30
0.0
 10
137.514232
 20
446.759838
 30
0.0
 10
123.726923
 20
449.190912
 30
0.0
 10
123.900571
 20
450.175720
 30
0.0
 10
123.112725
 20
450.314639
 30
0.0
 10
125.196503
 20
462.132332
 30
0.0
 10
125.984350
 20
461.993413
 30
0.0
 10
126.157998
 20
462.978221
 30
0.0
 10
139.945306
 20
460.547146
 30
0.0
  0
LWPOLYLINE
  5
191
100
AcDbEntity
  8
0
 62
7
100
AcDbPolyline
 90
14
 70
0
 10
122.850000
 20
444.217633
 30
0.0
 10
136.637308
 20
441.786559
 30
0.0
 10
136.463660
 20
440.801751
 30
0.0
 10
137.251506
 20
440.662832
 30
0.0
 10
135.167728
 20
428.845139
 30
0.0
 10
134.379882
 20
428.984058
 30
0.0
 10
134.206234
 20
427.999250
 30
0.0
 10
120.418925
 20
430.430325
 30
0.0
 10
120.592574
 20
431.415132
 30
0.0
 10
119.804727
 20
431.554051
 30
0.0
 10
121.888506
 20
443.371744
 30
0.0
 10
122.676352
 20
443.232825
 30
0.0
 10
122.850000
 20
444.217633
 30
0.0
 10
136.637308
 20
441.786559
 30
0.0
  0
LWPOLYLINE
  5
192
100
AcDbEntity
  8
0
 62
7
100
AcDbPolyline
 90
14
 70
0
 10
119.542003
 20
425.457050
 30
0.0
 10
133.329312
 20
423.025976
 30
0.0
 10
133.155663
 20
422.041168
 30
0.0
 10
133.943510
 20
421.902250
 30
0.0
 10
131.859731
 20
410.084557
 30
0.0
 10
131.071885
 20
410.223475
 30
0.0
 10
130.898237
 20
409.238667
 30
0.0
 10
117.110929
 20
411.669742
 30
0.0
 10
117.284577
 20
412.654550
 30
0.0
 10
116.496730
 20
412.793468
 30
0.0
 10
118.580509
 20
424.611161
 30
0.0
 10
119.368355
 20
424.472243
 30
0.0
 10
119.542003
 20
425.457050
 30
0.0
 10
133.329312
 20
423.025976
 30
0.0
  0
LWPOLYLINE
  5
193
100
AcDbEntity
  8
0
 62
7
100
AcDbPolyline
 90
14
 70
0
 10
116.234005
 20
406.696460
 30
0.0
 10
130.021313
 20
404.265385
 30
0.0
 10
129.847665
 20
403.280577
 30
0.0
 10
130.635511
 20
403.141659
 30
0.0
 10
128.551733
 20
391.323966
 30
0.0
 10
127.763887
 20
391.462884
 30
0.0
 10
127.590239
 20
390.478077
 30
0.0
 10
113.802930
 20
392.909151
 30
0.0
 10
113.976578
 20
393.893959
 30
0.0
 10
113.188732
 20
394.032877
 30
0.0
 10
115.272510
 20
405.850570
 30
0.0
 10
116.060357
 20
405.711652
 30
0.0
 10
116.234005
 20
406.696460
 30
0.0
 10
130.021313
 20
404.265385
 30
0.0
  0
LWPOLYLINE
  5
194
100
AcDbEntity
  8
0
 62
7
100
AcDbPolyline
 90
14
 70
0
 10
112.926007
 20
387.935870
 30
0.0
 10
126.713315
 20
385.504796
 30
0.0
 10
126.539667
 20
384.519988
 30
0.0
 10
127.327513
 20
384.381069
 30
0.0
 10
125.243735
 20
372.563376
 30
0.0
 10
124.455889
 20
372.702295
 30
0.0
 10
124.282241
 20
371.717487
 30
0.0
 10
110.494932
 20
374.148561
 30
0.0
 10
110.668580
 20
375.133369
 30
0.0
 10
109.880734
 20
375.272288
 30
0.0
 10
111.964512
 20
387.089981
 30
0.0
 10
112.752358
 20
386.951062
 30
0.0
 10
112.926007
 20
387.935870
 30
0.0
 10
126.713315
 20
385.504796
 30
0.0
  0
LWPOLYLINE
  5
195
100
AcDbEntity
  8
0
 62
7
100
AcDbPolyline
 90
14
 70
0
 10
109.618009
 20
369.175282
 30
0.0
 10
123.405317
 20
366.744208
 30
0.0
 10
123.231669
 20
365.759400
 30
0.0
 10
124.019515
 20
365.620482
 30
0.0
 10
121.935737
 20
353.802789
 30
0.0
 10
121.147891
 20
353.941707
 30
0.0
 10
120.974243
 20
352.956899
 30
0.0
 10
107.186934
 20
355.387974
 30
0.0
 10
107.360582
 20
356.372782
 30
0.0
 10
106.572736
 20
356.511700
 30
0.0
 10
108.656514
 20
368.329393
 30
0.0
 10
109.444361
 20
368.190475
 30
0.0
 10
109.618009
 20
369.175282
 30
0.0
 10
123.405317
 20
366.744208
 30
0.0
  0
LWPOLYLINE
  5
196
100
AcDbEntity
  8
0
 62
7
100
AcDbPolyline
 90
14
 70
0
 10
148.950000
 20
467.575000
 30
0.0
 10
162.950000
 20
467.575000
 30
0.0
 10
162.950000
 20
466.575000
 30
0.0
 10
163.750000
 20
466.575000
 30
0.0
 10
163.750000
 20
454.575000
 30
0.0
 10
162.950000
 20
454.575000
 30
0.0
 10
162.950000
 20
453.575000
 30
0.0
 10
148.950000
 20
453.575000
 30
0.0
 10
148.950000
 20
454.575000
 30
0.0
 10
148.150000
 20
454.575000
 30
0.0
 10
148.150000
 20
466.575000
 30
0.0
 10
148.950000
 20
466.575000
 30
0.0
 10
148.950000
 20
467.575000
 30
0.0
 10
162.950000
 20
467.575000
 30
0.0
  0
LWPOLYLINE
  5
197
100
AcDbEntity
  8
0
 62
7
100
AcDbPolyline
 90
14
 70
0
 10
148.950000
 20
438.525000
 30
0.0
 10
162.950000
 20
438.525000
 30
0.0
 10
162.950000
 20
437.525000
 30
0.0
 10
163.750000
 20
437.525000
 30
0.0
 10
163.750000
 20
425.525000
 30
0.0
 10
162.950000
 20
425.525000
 30
0.0
 10
162.950000
 20
424.525000
 30
0.0
 10
148.950000
 20
424.525000
 30
0.0
 10
148.950000
 20
425.525000
 30
0.0
 10
148.150000
 20
425.525000
 30
0.0
 10
148.150000
 20
437.525000
 30
0.0
 10
148.950000
 20
437.525000
 30
0.0
 10
148.950000
 20
438.525000
 30
0.0
 10
162.950000
 20
438.525000
 30
0.0
  0
LWPOLYLINE
  5
198
100
AcDbEntity
  8
0
 62
7
100
AcDbPolyline
 90
14
 70
0
 10
148.950000
 20
419.475002
 30
0.0
 10
162.950000
 20
419.475002
 30
0.0
 10
162.950000
 20
418.475002
 30
0.0
 10
163.750000
 20
418.475002
 30
0.0
 10
163.750000
 20
406.475002
 30
0.0
 10
162.950000
 20
406.475002
 30
0.0
 10
162.950000
 20
405.475002
 30
0.0
 10
148.950000
 20
405.475002
 30
0.0
 10
148.950000
 20
406.475002
 30
0.0
 10
148.150000
 20
406.475002
 30
0.0
 10
148.150000
 20
418.475002
 30
0.0
 10
148.950000
 20
418.475002
 30
0.0
 10
148.950000
 20
419.475002
 30
0.0
 10
162.950000
 20
419.475002
 30
0.0
  0
LWPOLYLINE
  5
199
100
AcDbEntity
  8
0
 62
7
100
AcDbPolyline
 90
14
 70
0
 10
148.950000
 20
386.425000
 30
0.0
 10
162.950000
 20
386.425000
 30
0.0
 10
162.950000
 20
385.425000
 30
0.0
 10
163.750000
 20
385.425000
 30
0.0
 10
163.750000
 20
373.425000
 30
0.0
 10
162.950000
 20
373.425000
 30
0.0
 10
162.950000
 20
372.425000
 30
0.0
 10
148.950000
 20
372.425000
 30
0.0
 10
148.950000
 20
373.425000
 30
0.0
 10
148.150000
 20
373.425000
 30
0.0
 10
148.150000
 20
385.425000
 30
0.0
 10
148.950000
 20
385.425000
 30
0.0
 10
148.950000
 20
386.425000
 30
0.0
 10
162.950000
 20
386.425000
 30
0.0
  0
LWPOLYLINE
  5
19a
100
AcDbEntity
  8
0
 62
7
100
AcDbPolyline
 90
14
 70
0
 10
128.400302
 20
365.990386
 30
0.0
 10
142.187611
 20
363.559311
 30
0.0
 10
142.013963
 20
362.574503
 30
0.0
 10
142.801809
 20
362.435585
 30
0.0
 10
140.718031
 20
350.617892
 30
0.0
 10
139.930185
 20
350.756810
 30
0.0
 10
139.756537
 20
349.772002
 30
0.0
 10
125.969228
 20
352.203077
 30
0.0
 10
126.142876
 20
353.187885
 30
0.0
 10
125.355030
 20
353.326803
 30
0.0
 10
127.438808
 20
365.144496
 30
0.0
 10
128.226654
 20
365.005578
 30
0.0
 10
128.400302
 20
365.990386
 30
0.0
 10
142.187611
 20
363.559311
 30
0.0
  0
LWPOLYLINE
  5
19b
100
AcDbEntity
  8
0
 62
7
100
AcDbPolyline
 90
14
 70
0
 10
168.000000
 20
472.600000
 30
0.0
 10
182.000000
 20
472.600000
 30
0.0
 10
182.000000
 20
471.600000
 30
0.0
 10
182.800000
 20
471.600000
 30
0.0
 10
182.800000
 20
459.600000
 30
0.0
 10
182.000000
 20
459.600000
 30
0.0
 10
182.000000
 20
458.600000
 30
0.0
 10
168.000000
 20
458.600000
 30
0.0
 10
168.000000
 20
459.600000
 30
0.0
 10
167.200000
 20
459.600000
 30
0.0
 10
167.200000
 20
471.600000
 30
0.0
 10
168.000000
 20
471.600000
 30
0.0
 10
168.000000
 20
472.600000
 30
0.0
 10
182.000000
 20
472.600000
 30
0.0
  0
LWPOLYLINE
  5
19c
100
AcDbEntity
  8
0
 62
7
100
AcDbPolyline
 90
14
 70
0
 10
168.000000
 20
443.550000
 30
0.0
 10
182.000000
 20
443.550000
 30
0.0
 10
182.000000
 20
442.550000
 30
0.0
 10
182.800000
 20
442.550000
 30
0.0
 10
182.800000
 20
430.550000
 30
0.0
 10
182.000000
 20
430.550000
 30
0.0
 10
182.000000
 20
429.550000
 30
0.0
 10
168.000000
 20
429.550000
 30
0.0
 10
168.000000
 20
430.550000
 30
0.0
 10
167.200000
 20
430.550000
 30
0.0
 10
167.200000
 20
442.550000
 30
0.0
 10
168.000000
 20
442.550000
 30
0.0
 10
168.000000
 20
443.550000
 30
0.0
 10
182.000000
 20
443.550000
 30
0.0
  0
LWPOLYLINE
  5
19d
100
AcDbEntity
  8
0
 62
7
100
AcDbPolyline
 90
14
 70
0
 10
168.000000
 20
424.500004
 30
0.0
 10
182.000000
 20
424.500004
 30
0.0
 10
182.000000
 20
423.500004
 30
0.0
 10
182.800000
 20
423.500004
 30
0.0
 10
182.800000
 20
411.500004
 30
0.0
 10
182.000000
 20
411.500004
 30
0.0
 10
182.000000
 20
410.500004
 30
0.0
 10
168.000000
 20
410.500004
 30
0.0
 10
168.000000
 20
411.500004
 30
0.0
 10
167.200000
 20
411.500004
 30
0.0
 10
167.200000
 20
423.500004
 30
0.0
 10
168.000000
 20
423.500004
 30
0.0
 10
168.000000
 20
424.500004
 30
0.0
 10
182.000000
 20
424.500004
 30
0.0
  0
LWPOLYLINE
  5
19e
100
AcDbEntity
  8
0
 62
7
100
AcDbPolyline
 90
14
 70
0
 10
168.000000
 20
395.450000
 30
0.0
 10
182.000000
 20
395.450000
 30
0.0
 10
182.000000
 20
394.450000
 30
0.0
 10
182.800000
 20
394.450000
 30
0.0
 10
182.800000
 20
382.450000
 30
0.0
 10
182.000000
 20
382.450000
 30
0.0
 10
182.000000
 20
381.450000
 30
0.0
 10
168.000000
 20
381.450000
 30
0.0
 10
168.000000
 20
382.450000
 30
0.0
 10
167.200000
 20
382.450000
 30
0.0
 10
167.200000
 20
394.450000
 30
0.0
 10
168.000000
 20
394.450000
 30
0.0
 10
168.000000
 20
395.450000
 30
0.0
 10
182.000000
 20
395.450000
 30
0.0
  0
LWPOLYLINE
  5
19f
100
AcDbEntity
  8
0
 62
7
100
AcDbPolyline
 90
14
 70
0
 10
168.000000
 20
376.400000
 30
0.0
 10
182.000000
 20
376.400000
 30
0.0
 10
182.000000
 20
375.400000
 30
0.0
 10
182.800000
 20
375.400000
 30
0.0
 10
182.800000
 20
363.400000
 30
0.0
 10
182.000000
 20
363.400000
 30
0.0
 10
182.000000
 20
362.400000
 30
0.0
 10
168.000000
 20
362.400000
 30
0.0
 10
168.000000
 20
363.400000
 30
0.0
 10
167.200000
 20
363.400000
 30
0.0
 10
167.200000
 20
375.400000
 30
0.0
 10
168.000000
 20
375.400000
 30
0.0
 10
168.000000
 20
376.400000
 30
0.0
 10
182.000000
 20
376.400000
 30
0.0
  0
LWPOLYLINE
  5
1a0
100
AcDbEntity
  8
0
 62
7
100
AcDbPolyline
 90
14
 70
0
 10
187.050000
 20
467.575000
 30
0.0
 10
201.050000
 20
467.575000
 30
0.0
 10
201.050000
 20
466.575000
 30
0.0
 10
201.850000
 20
466.575000
 30
0.0
 10
201.850000
 20
454.575000
 30
0.0
 10
201.050000
 20
454.575000
 30
0.0
 10
201.050000
 20
453.575000
 30
0.0
 10
187.050000
 20
453.575000
 30
0.0
 10
187.050000
 20
454.575000
 30
0.0
 10
186.250000
 20
454.575000
 30
0.0
 10
186.250000
 20
466.575000
 30
0.0
 10
187.050000
 20
466.575000
 30
0.0
 10
187.050000
 20
467.575000
 30
0.0
 10
201.050000
 20
467.575000
 30
0.0
  0
LWPOLYLINE
  5
1a1
100
AcDbEntity
  8
0
 62
7
100
AcDbPolyline
 90
14
 70
0
 10
187.050000
 20
438.525000
 30
0.0
 10
201.050000
 20
438.525000
 30
0.0
 10
201.050000
 20
437.525000
 30
0.0
 10
201.850000
 20
437.525000
 30
0.0
 10
201.850000
 20
425.525000
 30
0.0
 10
201.050000
 20
425.525000
 30
0.0
 10
201.050000
 20
424.525000
 30
0.0
 10
187.050000
 20
424.525000
 30
0.0
 10
187.050000
 20
425.525000
 30
0.0
 10
186.250000
 20
425.525000
 30
0.0
 10
186.250000
 20
437.525000
 30
0.0
 10
187.050000
 20
437.525000
 30
0.0
 10
187.050000
 20
438.525000
 30
0.0
 10
201.050000
 20
438.525000
 30
0.0
  0
LWPOLYLINE
  5
1a2
100
AcDbEntity
  8
0
 62
7
100
AcDbPolyline
 90
14
 70
0
 10
187.050000
 20
419.475002
 30
0.0
 10
201.050000
 20
419.475002
 30
0.0
 10
201.050000
 20
418.475002
 30
0.0
 10
201.850000
 20
418.475002
 30
0.0
 10
201.850000
 20
406.475002
 30
0.0
 10
201.050000
 20
406.475002
 30
0.0
 10
201.050000
 20
405.475002
 30
0.0
 10
187.050000
 20
405.475002
 30
0.0
 10
187.050000
 20
406.475002
 30
0.0
 10
186.250000
 20
406.475002
 30
0.0
 10
186.250000
 20
418.475002
 30
0.0
 10
187.050000
 20
418.475002
 30
0.0
 10
187.050000
 20
419.475002
 30
0.0
 10
201.050000
 20
419.475002
 30
0.0
  0
LWPOLYLINE
  5
1a3
100
AcDbEntity
  8
0
 62
7
100
AcDbPolyline
 90
14
 70
0
 10
187.050000
 20
386.425000
 30
0.0
 10
201.050000
 20
386.425000
 30
0.0
 10
201.050000
 20
385.425000
 30
0.0
 10
201.850000
 20
385.425000
 30
0.0
 10
201.850000
 20
373.425000
 30
0.0
 10
201.050000
 20
373.425000
 30
0.0
 10
201.050000
 20
372.425000
 30
0.0
 10
187.050000
 20
372.425000
 30
0.0
 10
187.050000
 20
373.425000
 30
0.0
 10
186.250000
 20
373.425000
 30
0.0
 10
186.250000
 20
385.425000
 30
0.0
 10
187.050000
 20
385.425000
 30
0.0
 10
187.050000
 20
386.425000
 30
0.0
 10
201.050000
 20
386.425000
 30
0.0
  0
LWPOLYLINE
  5
1a4
100
AcDbEntity
  8
0
 62
7
100
AcDbPolyline
 90
14
 70
0
 10
207.812399
 20
363.559313
 30
0.0
 10
221.599707
 20
365.990387
 30
0.0
 10
221.773356
 20
365.005580
 30
0.0
 10
222.561202
 20
365.144498
 30
0.0
 10
224.644980
 20
353.326805
 30
0.0
 10
223.857134
 20
353.187886
 30
0.0
 10
224.030782
 20
352.203079
 30
0.0
 10
210.243473
 20
349.772004
 30
0.0
 10
210.069825
 20
350.756812
 30
0.0
 10
209.281979
 20
350.617893
 30
0.0
 10
207.198201
 20
362.435586
 30
0.0
 10
207.986047
 20
362.574505
 30
0.0
 10
207.812399
 20
363.559313
 30
0.0
 10
221.599707
 20
365.990387
 30
0.0
  0
LWPOLYLINE
  5
1a5
100
AcDbEntity
  8
0
 62
7
100
AcDbPolyline
 90
14
 70
0
 10
210.054704
 20
460.547148
 30
0.0
 10
223.842012
 20
462.978223
 30
0.0
 10
224.015660
 20
461.993415
 30
0.0
 10
224.803507
 20
462.132333
 30
0.0
 10
226.887285
 20
450.314640
 30
0.0
 10
226.099438
 20
450.175722
 30
0.0
 10
226.273087
 20
449.190914
 30
0.0
 10
212.485778
 20
446.759840
 30
0.0
 10
212.312130
 20
447.744647
 30
0.0
 10
211.524284
 20
447.605729
 30
0.0
 10
209.440506
 20
459.423422
 30
0.0
 10
210.228352
 20
459.562340
 30
0.0
 10
210.054704
 20
460.547148
 30
0.0
 10
223.842012
 20
462.978223
 30
0.0
  0
LWPOLYLINE
  5
1a6
100
AcDbEntity
  8
0
 62
7
100
AcDbPolyline
 90
14
 70
0
 10
213.362701
 20
441.786560
 30
0.0
 10
227.150010
 20
444.217635
 30
0.0
 10
227.323658
 20
443.232827
 30
0.0
 10
228.111504
 20
443.371746
 30
0.0
 10
230.195282
 20
431.554053
 30
0.0
 10
229.407436
 20
431.415134
 30
0.0
 10
229.581084
 20
430.430326
 30
0.0
 10
215.793776
 20
427.999252
 30
0.0
 10
215.620128
 20
428.984060
 30
0.0
 10
214.832282
 20
428.845141
 30
0.0
 10
212.748503
 20
440.662834
 30
0.0
 10
213.536350
 20
440.801753
 30
0.0
 10
213.362701
 20
441.786560
 30
0.0
 10
227.150010
 20
444.217635
 30
0.0
  0
LWPOLYLINE
  5
1a7
100
AcDbEntity
  8
0
 62
7
100
AcDbPolyline
 90
14
 70
0
 10
216.670698
 20
423.025978
 30
0.0
 10
230.458007
 20
425.457052
 30
0.0
 10
230.631655
 20
424.472244
 30
0.0
 10
231.419501
 20
424.611163
 30
0.0
 10
233.503279
 20
412.793470
 30
0.0
 10
232.715433
 20
412.654551
 30
0.0
 10
232.889081
 20
411.669744
 30
0.0
 10
219.101773
 20
409.238669
 30
0.0
 10
218.928125
 20
410.223477
 30
0.0
 10
218.140278
 20
410.084558
 30
0.0
 10
216.056500
 20
421.902251
 30
0.0
 10
216.844346
 20
422.041170
 30
0.0
 10
216.670698
 20
423.025978
 30
0.0
 10
230.458007
 20
425.457052
 30
0.0
  0
LWPOLYLINE
  5
1a8
100
AcDbEntity
  8
0
 62
7
100
AcDbPolyline
 90
14
 70
0
 10
219.978697
 20
404.265387
 30
0.0
 10
233.766005
 20
406.696461
 30
0.0
 10
233.939653
 20
405.711654
 30
0.0
 10
234.727500
 20
405.850572
 30
0.0
 10
236.811278
 20
394.032879
 30
0.0
 10
236.023431
 20
393.893961
 30
0.0
 10
236.197080
 20
392.909153
 30
0.0
 10
222.409771
 20
390.478078
 30
0.0
 10
222.236123
 20
391.462886
 30
0.0
 10
221.448277
 20
391.323968
 30
0.0
 10
219.364499
 20
403.141661
 30
0.0
 10
220.152345
 20
403.280579
 30
0.0
 10
219.978697
 20
404.265387
 30
0.0
 10
233.766005
 20
406.696461
 30
0.0
  0
LWPOLYLINE
  5
1a9
100
AcDbEntity
  8
0
 62
7
100
AcDbPolyline
 90
14
 70
0
 10
223.286695
 20
385.504797
 30
0.0
 10
237.074003
 20
387.935872
 30
0.0
 10
237.247651
 20
386.951064
 30
0.0
 10
238.035498
 20
387.089983
 30
0.0
 10
240.119276
 20
375.272290
 30
0.0
 10
239.331430
 20
375.133371
 30
0.0
 10
239.505078
 20
374.148563
 30
0.0
 10
225.717769
 20
371.717489
 30
0.0
 10
225.544121
 20
372.702296
 30
0.0
 10
224.756275
 20
372.563378
 30
0.0
 10
222.672497
 20
384.381071
 30
0.0
 10
223.460343
 20
384.519990
 30
0.0
 10
223.286695
 20
385.504797
 30
0.0
 10
237.074003
 20
387.935872
 30
0.0
  0
LWPOLYLINE
  5
1aa
100
AcDbEntity
  8
0
 62
7
100
AcDbPolyline
 90
14
 70
0
 10
226.594693
 20
366.744210
 30
0.0
 10
240.382001
 20
369.175284
 30
0.0
 10
240.555649
 20
368.190476
 30
0.0
 10
241.343495
 20
368.329395
 30
0.0
 10
243.427274
 20
356.511702
 30
0.0
 10
242.639427
 20
356.372783
 30
0.0
 10
242.813076
 20
355.387976
 30
0.0
 10
229.025767
 20
352.956901
 30
0.0
 10
228.852119
 20
353.941709
 30
0.0
 10
228.064273
 20
353.802790
 30
0.0
 10
225.980495
 20
365.620483
 30
0.0
 10
226.768341
 20
365.759402
 30
0.0
 10
226.594693
 20
366.744210
 30
0.0
 10
240.382001
 20
369.175284
 30
0.0
  0
LWPOLYLINE
  5
1ab
100
AcDbEntity
  8
0
 62
7
100
AcDbPolyline
 90
14
 70
0
 10
227.947050
 20
468.779185
 30
0.0
 10
241.734359
 20
471.210259
 30
0.0
 10
241.908007
 20
470.225451
 30
0.0
 10
242.695853
 20
470.364370
 30
0.0
 10
244.779631
 20
458.546677
 30
0.0
 10
243.991785
 20
458.407758
 30
0.0
 10
244.165433
 20
457.422951
 30
0.0
 10
230.378125
 20
454.991876
 30
0.0
 10
230.204477
 20
455.976684
 30
0.0
 10
229.416631
 20
455.837765
 30
0.0
 10
227.332852
 20
467.655458
 30
0.0
 10
228.120699
 20
467.794377
 30
0.0
 10
227.947050
 20
468.779185
 30
0.0
 10
241.734359
 20
471.210259
 30
0.0
  0
LWPOLYLINE
  5
1ac
100
AcDbEntity
  8
0
 62
7
100
AcDbPolyline
 90
14
 70
0
 10
231.255048
 20
450.018597
 30
0.0
 10
245.042357
 20
452.449671
 30
0.0
 10
245.216005
 20
451.464864
 30
0.0
 10
246.003851
 20
451.603782
 30
0.0
 10
248.087629
 20
439.786089
 30
0.0
 10
247.299783
 20
439.647171
 30
0.0
 10
247.473431
 20
438.662363
 30
0.0
 10
233.686123
 20
436.231288
 30
0.0
 10
233.512475
 20
437.216096
 30
0.0
 10
232.724628
 20
437.077178
 30
0.0
 10
230.640850
 20
448.894871
 30
0.0
 10
231.428696
 20
449.033789
 30
0.0
 10
231.255048
 20
450.018597
 30
0.0
 10
245.042357
 20
452.449671
 30
0.0
  0
LWPOLYLINE
  5
1ad
100
AcDbEntity
  8
0
 62
7
100
AcDbPolyline
 90
14
 70
0
 10
234.563045
 20
431.258014
 30
0.0
 10
248.350354
 20
433.689089
 30
0.0
 10
248.524002
 20
432.704281
 30
0.0
 10
249.311848
 20
432.843199
 30
0.0
 10
251.395626
 20
421.025506
 30
0.0
 10
250.607780
 20
420.886588
 30
0.0
 10
250.781428
 20
419.901780
 30
0.0
 10
236.994120
 20
417.470706
 30
0.0
 10
236.820471
 20
418.455513
 30
0.0
 10
236.032625
 20
418.316595
 30
0.0
 10
233.948847
 20
430.134288
 30
0.0
 10
234.736693
 20
430.273206
 30
0.0
 10
234.563045
 20
431.258014
 30
0.0
 10
248.350354
 20
433.689089
 30
0.0
  0
LWPOLYLINE
  5
1ae
100
AcDbEntity
  8
0
 62
7
100
AcDbPolyline
 90
14
 70
0
 10
237.871043
 20
412.497423
 30
0.0
 10
251.658352
 20
414.928498
 30
0.0
 10
251.832000
 20
413.943690
 30
0.0
 10
252.619846
 20
414.082609
 30
0.0
 10
254.703624
 20
402.264916
 30
0.0
 10
253.915778
 20
402.125997
 30
0.0
 10
254.089426
 20
401.141189
 30
0.0
 10
240.302118
 20
398.710115
 30
0.0
 10
240.128470
 20
399.694923
 30
0.0
 10
239.340624
 20
399.556004
 30
0.0
 10
237.256845
 20
411.373697
 30
0.0
 10
238.044692
 20
411.512616
 30
0.0
 10
237.871043
 20
412.497423
 30
0.0
 10
251.658352
 20
414.928498
 30
0.0
  0
LWPOLYLINE
  5
1af
100
AcDbEntity
  8
0
 62
7
100
AcDbPolyline
 90
14
 70
0
 10
241.179042
 20
393.736834
 30
0.0
 10
254.966350
 20
396.167908
 30
0.0
 10
255.139998
 20
395.183101
 30
0.0
 10
255.927844
 20
395.322019
 30
0.0
 10
258.011623
 20
383.504326
 30
0.0
 10
257.223776
 20
383.365408
 30
0.0
 10
257.397425
 20
382.380600
 30
0.0
 10
243.610116
 20
379.949525
 30
0.0
 10
243.436468
 20
380.934333
 30
0.0
 10
242.648622
 20
380.795415
 30
0.0
 10
240.564844
 20
392.613108
 30
0.0
 10
241.352690
 20
392.752026
 30
0.0
 10
241.179042
 20
393.736834
 30
0.0
 10
254.966350
 20
396.167908
 30
0.0
  0
LWPOLYLINE
  5
1b0
100
AcDbEntity
  8
0
 62
7
100
AcDbPolyline
 90
14
 70
0
 10
244.487039
 20
374.976246
 30
0.0
 10
258.274348
 20
377.407321
 30
0.0
 10
258.447996
 20
376.422513
 30
0.0
 10
259.235842
 20
376.561431
 30
0.0
 10
261.319620
 20
364.743738
 30
0.0
 10
260.531774
 20
364.604820
 30
0.0
 10
260.705422
 20
363.620012
 30
0.0
 10
246.918114
 20
361.188938
 30
0.0
 10
246.744466
 20
362.173745
 30
0.0
 10
245.956619
 20
362.034827
 30
0.0
 10
243.872841
 20
373.852520
 30
0.0
 10
244.660688
 20
373.991438
 30
0.0
 10
244.487039
 20
374.976246
 30
0.0
 10
258.274348
 20
377.407321
 30
0.0
  0
LWPOLYLINE
  5
1b1
100
AcDbEntity
  8
0
 62
7
100
AcDbPolyline
 90
14
 70
0
 10
245.665749
 20
477.996029
 30
0.0
 10
259.453058
 20
480.427103
 30
0.0
 10
259.626706
 20
479.442296
 30
0.0
 10
260.414552
 20
479.581214
 30
0.0
 10
262.498330
 20
467.763521
 30
0.0
 10
261.710484
 20
467.624603
 30
0.0
 10
261.884132
 20
466.639795
 30
0.0
 10
248.096824
 20
464.208720
 30
0.0
 10
247.923175
 20
465.193528
 30
0.0
 10
247.135329
 20
465.054610
 30
0.0
 10
245.051551
 20
476.872303
 30
0.0
 10
245.839397
 20
477.011221
 30
0.0
 10
245.665749
 20
477.996029
 30
0.0
 10
259.453058
 20
480.427103
 30
0.0
  0
LWPOLYLINE
  5
1b2
100
AcDbEntity
  8
0
 62
7
100
AcDbPolyline
 90
14
 70
0
 10
248.973747
 20
459.235441
 30
0.0
 10
262.761055
 20
461.666516
 30
0.0
 10
262.934704
 20
460.681708
 30
0.0
 10
263.722550
 20
460.820626
 30
0.0
 10
265.806328
 20
449.002933
 30
0.0
 10
265.018482
 20
448.864015
 30
0.0
 10
265.192130
 20
447.879207
 30
0.0
 10
251.404821
 20
445.448133
 30
0.0
 10
251.231173
 20
446.432940
 30
0.0
 10
250.443327
 20
446.294022
 30
0.0
 10
248.359549
 20
458.111715
 30
0.0
 10
249.147395
 20
458.250633
 30
0.0
 10
248.973747
 20
459.235441
 30
0.0
 10
262.761055
 20
461.666516
 30
0.0
  0
LWPOLYLINE
  5
1b3
100
AcDbEntity
  8
0
 62
7
100
AcDbPolyline
 90
14
 70
0
 10
252.281744
 20
440.474858
 30
0.0
 10
266.069052
 20
442.905933
 30
0.0
 10
266.242700
 20
441.921125
 30
0.0
 10
267.030547
 20
442.060044
 30
0.0
 10
269.114325
 20
430.242351
 30
0.0
 10
268.326479
 20
430.103432
 30
0.0
 10
268.500127
 20
429.118624
 30
0.0
 10
254.712818
 20
426.687550
 30
0.0
 10
254.539170
 20
427.672358
 30
0.0
 10
253.751324
 20
427.533439
 30
0.0
 10
251.667546
 20
439.351132
 30
0.0
 10
252.455392
 20
439.490051
 30
0.0
 10
252.281744
 20
440.474858
 30
0.0
 10
266.069052
 20
442.905933
 30
0.0
  0
LWPOLYLINE
  5
1b4
100
AcDbEntity
  8
0
 62
7
100
AcDbPolyline
 90
14
 70
0
 10
255.589742
 20
421.714268
 30
0.0
 10
269.377051
 20
424.145342
 30
0.0
 10
269.550699
 20
423.160535
 30
0.0
 10
270.338545
 20
423.299453
 30
0.0
 10
272.422323
 20
411.481760
 30
0.0
 10
271.634477
 20
411.342841
 30
0.0
 10
271.808125
 20
410.358034
 30
0.0
 10
258.020817
 20
407.926959
 30
0.0
 10
257.847168
 20
408.911767
 30
0.0
 10
257.059322
 20
408.772848
 30
0.0
 10
254.975544
 20
420.590542
 30
0.0
 10
255.763390
 20
420.729460
 30
0.0
 10
255.589742
 20
421.714268
 30
0.0
 10
269.377051
 20
424.145342
 30
0.0
  0
LWPOLYLINE
  5
1b5
100
AcDbEntity
  8
0
 62
7
100
AcDbPolyline
 90
14
 70
0
 10
258.897740
 20
402.953678
 30
0.0
 10
272.685049
 20
405.384753
 30
0.0
 10
272.858697
 20
404.399945
 30
0.0
 10
273.646543
 20
404.538863
 30
0.0
 10
275.730321
 20
392.721170
 30
0.0
 10
274.942475
 20
392.582252
 30
0.0
 10
275.116123
 20
391.597444
 30
0.0
 10
261.328815
 20
389.166370
 30
0.0
 10
261.155166
 20
390.151177
 30
0.0
 10
260.367320
 20
390.012259
 30
0.0
 10
258.283542
 20
401.829952
 30
0.0
 10
259.071388
 20
401.968870
 30
0.0
 10
258.897740
 20
402.953678
 30
0.0
 10
272.685049
 20
405.384753
 30
0.0
  0
LWPOLYLINE
  5
1b6
100
AcDbEntity
  8
0
 62
7
100
AcDbPolyline
 90
14
 70
0
 10
262.205738
 20
384.193090
 30
0.0
 10
275.993047
 20
386.624165
 30
0.0
 10
276.166695
 20
385.639357
 30
0.0
 10
276.954541
 20
385.778276
 30
0.0
 10
279.038319
 20
373.960583
 30
0.0
 10
278.250473
 20
373.821664
 30
0.0
 10
278.424121
 20
372.836856
 30
0.0
 10
264.636812
 20
370.405782
 30
0.0
 10
264.463164
 20
371.390590
 30
0.0
 10
263.675318
 20
371.251671
 30
0.0
 10
261.591540
 20
383.069364
 30
0.0
 10
262.379386
 20
383.208283
 30
0.0
 10
262.205738
 20
384.193090
 30
0.0
 10
275.993047
 20
386.624165
 30
0.0
  0
LWPOLYLINE
  5
1b7
100
AcDbEntity
  8
0
 62
7
100
AcDbPolyline
 90
14
 70
0
 10
265.294578
 20
476.379988
 30
0.0
 10
279.081886
 20
478.811062
 30
0.0
 10
279.255534
 20
477.826255
 30
0.0
 10
280.043381
 20
477.965173
 30
0.0
 10
282.127159
 20
466.147480
 30
0.0
 10
281.339312
 20
466.008562
 30
0.0
 10
281.512961
 20
465.023754
 30
0.0
 10
267.725652
 20
462.592679
 30
0.0
 10
267.552004
 20
463.577487
 30
0.0
 10
266.764158
 20
463.438569
 30
0.0
 10
264.680380
 20
475.256262
 30
0.0
 10
265.468226
 20
475.395180
 30
0.0
 10
265.294578
 20
476.379988
 30
0.0
 10
279.081886
 20
478.811062
 30
0.0
  0
LWPOLYLINE
  5
1b8
100
AcDbEntity
  8
0
 62
7
100
AcDbPolyline
 90
14
 70
0
 10
268.602575
 20
457.619400
 30
0.0
 10
282.389884
 20
460.050475
 30
0.0
 10
282.563532
 20
459.065667
 30
0.0
 10
283.351378
 20
459.204586
 30
0.0
 10
285.435156
 20
447.386892
 30
0.0
 10
284.647310
 20
447.247974
 30
0.0
 10
284.820958
 20
446.263166
 30
0.0
 10
271.033650
 20
443.832092
 30
0.0
 10
270.860002
 20
444.816899
 30
0.0
 10
270.072156
 20
444.677981
 30
0.0
 10
267.988377
 20
456.495674
 30
0.0
 10
268.776224
 20
456.634592
 30
0.0
 10
268.602575
 20
457.619400
 30
0.0
 10
282.389884
 20
460.050475
 30
0.0
  0
LWPOLYLINE
  5
1b9
100
AcDbEntity
  8
0
 62
7
100
AcDbPolyline
 90
14
 70
0
 10
271.910572
 20
438.858817
 30
0.0
 10
285.697881
 20
441.289892
 30
0.0
 10
285.871529
 20
440.305084
 30
0.0
 10
286.659375
 20
440.444003
 30
0.0
 10
288.743153
 20
428.626310
 30
0.0
 10
287.955307
 20
428.487391
 30
0.0
 10
288.128955
 20
427.502583
 30
0.0
 10
274.341647
 20
425.071509
 30
0.0
 10
274.167999
 20
426.056317
 30
0.0
 10
273.380152
 20
425.917398
 30
0.0
 10
271.296374
 20
437.735091
 30
0.0
 10
272.084221
 20
437.874010
 30
0.0
 10
271.910572
 20
438.858817
 30
0.0
 10
285.697881
 20
441.289892
 30
0.0
  0
LWPOLYLINE
  5
1ba
100
AcDbEntity
  8
0
 62
7
100
AcDbPolyline
 90
14
 70
0
 10
275.218571
 20
420.098227
 30
0.0
 10
289.005879
 20
422.529301
 30
0.0
 10
289.179527
 20
421.544494
 30
0.0
 10
289.967374
 20
421.683412
 30
0.0
 10
292.051152
 20
409.865719
 30
0.0
 10
291.263305
 20
409.726801
 30
0.0
 10
291.436954
 20
408.741993
 30
0.0
 10
277.649645
 20
406.310918
 30
0.0
 10
277.475997
 20
407.295726
 30
0.0
 10
276.688151
 20
407.156807
 30
0.0
 10
274.604373
 20
418.974501
 30
0.0
 10
275.392219
 20
419.113419
 30
0.0
 10
275.218571
 20
420.098227
 30
0.0
 10
289.005879
 20
422.529301
 30
0.0
  0
LWPOLYLINE
  5
1bb
100
AcDbEntity
  8
0
 62
7
100
AcDbPolyline
 90
14
 70
0
 10
278.526569
 20
401.337637
 30
0.0
 10
292.313877
 20
403.768712
 30
0.0
 10
292.487525
 20
402.783904
 30
0.0
 10
293.275372
 20
402.922822
 30
0.0
 10
295.359150
 20
391.105129
 30
0.0
 10
294.571304
 20
390.966211
 30
0.0
 10
294.744952
 20
389.981403
 30
0.0
 10
280.957643
 20
387.550329
 30
0.0
 10
280.783995
 20
388.535136
 30
0.0
 10
279.996149
 20
388.396218
 30
0.0
 10
277.912371
 20
400.213911
 30
0.0
 10
278.700217
 20
400.352829
 30
0.0
 10
278.526569
 20
401.337637
 30
0.0
 10
292.313877
 20
403.768712
 30
0.0
  0
LWPOLYLINE
  5
1bc
100
AcDbEntity
  8
0
 62
7
100
AcDbPolyline
 90
14
 70
0
 10
281.834567
 20
382.577049
 30
0.0
 10
295.621875
 20
385.008124
 30
0.0
 10
295.795523
 20
384.023316
 30
0.0
 10
296.583369
 20
384.162235
 30
0.0
 10
298.667148
 20
372.344542
 30
0.0
 10
297.879301
 20
372.205623
 30
0.0
 10
298.052950
 20
371.220815
 30
0.0
 10
284.265641
 20
368.789741
 30
0.0
 10
284.091993
 20
369.774549
 30
0.0
 10
283.304147
 20
369.635630
 30
0.0
 10
281.220369
 20
381.453323
 30
0.0
 10
282.008215
 20
381.592242
 30
0.0
 10
281.834567
 20
382.577049
 30
0.0
 10
295.621875
 20
385.008124
 30
0.0
  0
LWPOLYLINE
  5
1bd
100
AcDbEntity
  8
0
 62
7
100
AcDbPolyline
 90
14
 70
0
 10
284.576120
 20
476.733564
 30
0.0
 10
298.363428
 20
479.164639
 30
0.0
 10
298.537076
 20
478.179831
 30
0.0
 10
299.324923
 20
478.318749
 30
0.0
 10
301.408701
 20
466.501056
 30
0.0
 10
300.620855
 20
466.362138
 30
0.0
 10
300.794503
 20
465.377330
 30
0.0
 10
287.007194
 20
462.946256
 30
0.0
 10
286.833546
 20
463.931063
 30
0.0
 10
286.045700
 20
463.792145
 30
0.0
 10
283.961922
 20
475.609838
 30
0.0
 10
284.749768
 20
475.748756
 30
0.0
 10
284.576120
 20
476.733564
 30
0.0
 10
298.363428
 20
479.164639
 30
0.0
  0
LWPOLYLINE
  5
1be
100
AcDbEntity
  8
0
 62
7
100
AcDbPolyline
 90
14
 70
0
 10
287.884117
 20
457.972977
 30
0.0
 10
301.671426
 20
460.404051
 30
0.0
 10
301.845074
 20
459.419243
 30
0.0
 10
302.632920
 20
459.558162
 30
0.0
 10
304.716699
 20
447.740469
 30
0.0
 10
303.928852
 20
447.601550
 30
0.0
 10
304.102501
 20
446.616742
 30
0.0
 10
290.315192
 20
444.185668
 30
0.0
 10
290.141544
 20
445.170476
 30
0.0
 10
289.353698
 20
445.031557
 30
0.0
 10
287.269919
 20
456.849250
 30
0.0
 10
288.057766
 20
456.988169
 30
0.0
 10
287.884117
 20
457.972977
 30
0.0
 10
301.671426
 20
460.404051
 30
0.0
  0
LWPOLYLINE
  5
1bf
100
AcDbEntity
  8
0
 62
7
100
AcDbPolyline
 90
14
 70
0
 10
291.192114
 20
439.212394
 30
0.0
 10
304.979423
 20
441.643468
 30
0.0
 10
305.153071
 20
440.658660
 30
0.0
 10
305.940917
 20
440.797579
 30
0.0
 10
308.024695
 20
428.979886
 30
0.0
 10
307.236849
 20
428.840967
 30
0.0
 10
307.410497
 20
427.856160
 30
0.0
 10
293.623189
 20
425.425085
 30
0.0
 10
293.449541
 20
426.409893
 30
0.0
 10
292.661695
 20
426.270974
 30
0.0
 10
290.577916
 20
438.088667
 30
0.0
 10
291.365763
 20
438.227586
 30
0.0
 10
291.192114
 20
439.212394
 30
0.0
 10
304.979423
 20
441.643468
 30
0.0
  0
LWPOLYLINE
  5
1c0
100
AcDbEntity
  8
0
 62
7
100
AcDbPolyline
 90
14
 70
0
 10
294.500113
 20
420.451803
 30
0.0
 10
308.287421
 20
422.882878
 30
0.0
 10
308.461069
 20
421.898070
 30
0.0
 10
309.248916
 20
422.036988
 30
0.0
 10
311.332694
 20
410.219295
 30
0.0
 10
310.544848
 20
410.080377
 30
0.0
 10
310.718496
 20
409.095569
 30
0.0
 10
296.931187
 20
406.664495
 30
0.0
 10
296.757539
 20
407.649302
 30
0.0
 10
295.969693
 20
407.510384
 30
0.0
 10
293.885915
 20
419.328077
 30
0.0
 10
294.673761
 20
419.466995
 30
0.0
 10
294.500113
 20
420.451803
 30
0.0
 10
308.287421
 20
422.882878
 30
0.0
  0
LWPOLYLINE
  5
1c1
100
AcDbEntity
  8
0
 62
7
100
AcDbPolyline
 90
14
 70
0
 10
297.808111
 20
401.691213
 30
0.0
 10
311.595419
 20
404.122288
 30
0.0
 10
311.769068
 20
403.137480
 30
0.0
 10
312.556914
 20
403.276399
 30
0.0
 10
314.640692
 20
391.458706
 30
0.0
 10
313.852846
 20
391.319787
 30
0.0
 10
314.026494
 20
390.334979
 30
0.0
 10
300.239185
 20
387.903905
 30
0.0
 10
300.065537
 20
388.888713
 30
0.0
 10
299.277691
 20
388.749794
 30
0.0
 10
297.193913
 20
400.567487
 30
0.0
 10
297.981759
 20
400.706406
 30
0.0
 10
297.808111
 20
401.691213
 30
0.0
 10
311.595419
 20
404.122288
 30
0.0
  0
LWPOLYLINE
  5
1c2
100
AcDbEntity
  8
0
 62
7
100
AcDbPolyline
 90
14
 70
0
 10
301.116109
 20
382.930626
 30
0.0
 10
314.903417
 20
385.361700
 30
0.0
 10
315.077065
 20
384.376892
 30
0.0
 10
315.864912
 20
384.515811
 30
0.0
 10
317.948690
 20
372.698118
 30
0.0
 10
317.160843
 20
372.559199
 30
0.0
 10
317.334492
 20
371.574392
 30
0.0
 10
303.547183
 20
369.143317
 30
0.0
 10
303.373535
 20
370.128125
 30
0.0
 10
302.585689
 20
369.989206
 30
0.0
 10
300.501911
 20
381.806899
 30
0.0
 10
301.289757
 20
381.945818
 30
0.0
 10
301.116109
 20
382.930626
 30
0.0
 10
314.903417
 20
385.361700
 30
0.0
  0
LWPOLYLINE
  5
1c3
100
AcDbEntity
  8
0
 62
7
100
AcDbPolyline
 90
14
 70
0
 10
303.336707
 20
480.041562
 30
0.0
 10
317.124016
 20
482.472636
 30
0.0
 10
317.297664
 20
481.487829
 30
0.0
 10
318.085510
 20
481.626747
 30
0.0
 10
320.169288
 20
469.809054
 30
0.0
 10
319.381442
 20
469.670136
 30
0.0
 10
319.555090
 20
468.685328
 30
0.0
 10
305.767782
 20
466.254253
 30
0.0
 10
305.594134
 20
467.239061
 30
0.0
 10
304.806288
 20
467.100143
 30
0.0
 10
302.722509
 20
478.917836
 30
0.0
 10
303.510356
 20
479.056754
 30
0.0
 10
303.336707
 20
480.041562
 30
0.0
 10
317.124016
 20
482.472636
 30
0.0
  0
LWPOLYLINE
  5
1c4
100
AcDbEntity
  8
0
 62
7
100
AcDbPolyline
 90
14
 70
0
 10
306.644705
 20
461.280974
 30
0.0
 10
320.432014
 20
463.712049
 30
0.0
 10
320.605662
 20
462.727241
 30
0.0
 10
321.393508
 20
462.866160
 30
0.0
 10
323.477286
 20
451.048467
 30
0.0
 10
322.689440
 20
450.909548
 30
0.0
 10
322.863088
 20
449.924740
 30
0.0
 10
309.075780
 20
447.493666
 30
0.0
 10
308.902132
 20
448.478473
 30
0.0
 10
308.114285
 20
448.339555
 30
0.0
 10
306.030507
 20
460.157248
 30
0.0
 10
306.818353
 20
460.296167
 30
0.0
 10
306.644705
 20
461.280974
 30
0.0
 10
320.432014
 20
463.712049
 30
0.0
  0
LWPOLYLINE
  5
1c5
100
AcDbEntity
  8
0
 62
7
100
AcDbPolyline
 90
14
 70
0
 10
309.952702
 20
442.520392
 30
0.0
 10
323.740011
 20
444.951466
 30
0.0
 10
323.913659
 20
443.966658
 30
0.0
 10
324.701505
 20
444.105577
 30
0.0
 10
326.785283
 20
432.287884
 30
0.0
 10
325.997437
 20
432.148965
 30
0.0
 10
326.171085
 20
431.164157
 30
0.0
 10
312.383777
 20
428.733083
 30
0.0
 10
312.210128
 20
429.717891
 30
0.0
 10
311.422282
 20
429.578972
 30
0.0
 10
309.338504
 20
441.396665
 30
0.0
 10
310.126350
 20
441.535584
 30
0.0
 10
309.952702
 20
442.520392
 30
0.0
 10
323.740011
 20
444.951466
 30
0.0
  0
LWPOLYLINE
  5
1c6
100
AcDbEntity
  8
0
 62
7
100
AcDbPolyline
 90
14
 70
0
 10
313.260700
 20
423.759801
 30
0.0
 10
327.048009
 20
426.190875
 30
0.0
 10
327.221657
 20
425.206068
 30
0.0
 10
328.009503
 20
425.344986
 30
0.0
 10
330.093281
 20
413.527293
 30
0.0
 10
329.305435
 20
413.388375
 30
0.0
 10
329.479083
 20
412.403567
 30
0.0
 10
315.691775
 20
409.972492
 30
0.0
 10
315.518127
 20
410.957300
 30
0.0
 10
314.730281
 20
410.818382
 30
0.0
 10
312.646502
 20
422.636075
 30
0.0
 10
313.434349
 20
422.774993
 30
0.0
 10
313.260700
 20
423.759801
 30
0.0
 10
327.048009
 20
426.190875
 30
0.0
  0
LWPOLYLINE
  5
1c7
100
AcDbEntity
  8
0
 62
7
100
AcDbPolyline
 90
14
 70
0
 10
316.568699
 20
404.999211
 30
0.0
 10
330.356007
 20
407.430286
 30
0.0
 10
330.529655
 20
406.445478
 30
0.0
 10
331.317501
 20
406.584396
 30
0.0
 10
333.401280
 20
394.766703
 30
0.0
 10
332.613433
 20
394.627785
 30
0.0
 10
332.787082
 20
393.642977
 30
0.0
 10
318.999773
 20
391.211903
 30
0.0
 10
318.826125
 20
392.196710
 30
0.0
 10
318.038279
 20
392.057792
 30
0.0
 10
315.954501
 20
403.875485
 30
0.0
 10
316.742347
 20
404.014403
 30
0.0
 10
316.568699
 20
404.999211
 30
0.0
 10
330.356007
 20
407.430286
 30
0.0
  0
LWPOLYLINE
  5
1c8
100
AcDbEntity
  8
0
 62
7
100
AcDbPolyline
 90
14
 70
0
 10
319.876696
 20
386.238624
 30
0.0
 10
333.664005
 20
388.669698
 30
0.0
 10
333.837653
 20
387.684890
 30
0.0
 10
334.625499
 20
387.823809
 30
0.0
 10
336.709277
 20
376.006116
 30
0.0
 10
335.921431
 20
375.867197
 30
0.0
 10
336.095079
 20
374.882389
 30
0.0
 10
322.307771
 20
372.451315
 30
0.0
 10
322.134123
 20
373.436123
 30
0.0
 10
321.346276
 20
373.297204
 30
0.0
 10
319.262498
 20
385.114897
 30
0.0
 10
320.050345
 20
385.253816
 30
0.0
 10
319.876696
 20
386.238624
 30
0.0
 10
333.664005
 20
388.669698
 30
0.0
  0
ENDSEC
  0
SECTION
  2
OBJECTS
  0
DICTIONARY
  5
C
330
0
100
AcDbDictionary
  3
ACAD_GROUP
350
D
  3
ACAD_MLINESTYLE
350
17
  0
DICTIONARY
  5
D
330
C
100
AcDbDictionary
  0
DICTIONARY
  5
1A
330
C
100
AcDbDictionary
  0
DICTIONARY
  5
17
330
C
100
AcDbDictionary
  3
STANDARD
350
18
  0
DICTIONARY
  5
19
330
C
100
AcDbDictionary
  0
ENDSEC
  0
EOF
