  0
SECTION
  2
HEADER
  9
$ACADVER
  1
AC1014
  9
$HANDSEED
  5
FFFF
  9
$MEASUREMENT
 70
     1
  0
ENDSEC
  0
SECTION
  2
TABLES
  0
TABLE
  2
VPORT
  5
8
330
0
100
AcDbSymbolTable
 70
     4
  0
VPORT
  5
2E
330
8
100
AcDbSymbolTableRecord
100
AcDbViewportTableRecord
  2
*ACTIVE
 70
     0
 10
0.0
 20
0.0
 11
1.0
 21
1.0
 12
210.0
 22
148.5
 13
0.0
 23
0.0
 14
10.0
 24
10.0
 15
10.0
 25
10.0
 16
0.0
 26
0.0
 36
1.0
 17
0.0
 27
0.0
 37
0.0
 40
341.0
 41
1.24
 42
50.0
 43
0.0
 44
0.0
 50
0.0
 51
0.0
 71
     0
 72
   100
 73
     1
 74
     3
 75
     0
 76
     0
 77
     0
 78
     0
  0
ENDTAB
  0
TABLE
  2
LTYPE
  5
5
330
0
100
AcDbSymbolTable
 70
     1
  0
LTYPE
  5
14
330
5
100
AcDbSymbolTableRecord
100
AcDbLinetypeTableRecord
  2
BYBLOCK
 70
     0
  3

 72
    65
 73
     0
 40
0.0
  0
LTYPE
  5
15
330
5
100
AcDbSymbolTableRecord
100
AcDbLinetypeTableRecord
  2
BYLAYER
 70
     0
  3

 72
    65
 73
     0
 40
0.0
  0
LTYPE
  5
16
330
5
100
AcDbSymbolTableRecord
100
AcDbLinetypeTableRecord
  2
CONTINUOUS
 70
     0
  3
Solid line
 72
    65
 73
     0
 40
0.0
  0
ENDTAB
  0
TABLE
  2
LAYER
  5
2
100
AcDbSymbolTable
 70
1
  0
LAYER
  5
50
100
AcDbSymbolTableRecord
100
AcDbLayerTableRecord
  2
0
 70
0
  6
CONTINUOUS
  0
ENDTAB
  0
TABLE
  2
STYLE
  5
3
330
0
100
AcDbSymbolTable
 70
     1
  0
STYLE
  5
11
330
3
100
AcDbSymbolTableRecord
100
AcDbTextStyleTableRecord
  2
STANDARD
 70
     0
 40
0.0
 41
1.0
 50
0.0
 71
     0
 42
2.5
  3
txt
  4

  0
ENDTAB
  0
TABLE
  2
VIEW
  5
6
330
0
100
AcDbSymbolTable
 70
     0
  0
ENDTAB
  0
TABLE
  2
UCS
  5
7
330
0
100
AcDbSymbolTable
 70
     0
  0
ENDTAB
  0
TABLE
  2
APPID
  5
9
330
0
100
AcDbSymbolTable
 70
     2
  0
APPID
  5
12
330
9
100
AcDbSymbolTableRecord
100
AcDbRegAppTableRecord
  2
ACAD
 70
     0
  0
ENDTAB
  0
TABLE
  2
DIMSTYLE
  5
A
330
0
100
AcDbSymbolTable
 70
     1
  0
DIMSTYLE
105
27
330
A
100
AcDbSymbolTableRecord
100
AcDbDimStyleTableRecord
  2
ISO-25
 70
     0
  3

  4

  5

  6

  7

 40
1.0
 41
2.5
 42
0.625
 43
3.75
 44
1.25
 45
0.0
 46
0.0
 47
0.0
 48
0.0
140
2.5
141
2.5
142
0.0
143
0.03937007874016
144
1.0
145
0.0
146
1.0
147
0.625
 71
     0
 72
     0
 73
     0
 74
     0
 75
     0
 76
     0
 77
     1
 78
     8
170
     0
171
     3
172
     1
173
     0
174
     0
175
     0
176
     0
177
     0
178
     0
270
     2
271
     2
272
     2
273
     2
274
     3
340
11
275
     0
280
     0
281
     0
282
     0
283
     0
284
     8
285
     0
286
     0
287
     3
288
     0
  0
ENDTAB
  0
TABLE
  2
BLOCK_RECORD
  5
1
330
0
100
AcDbSymbolTable
 70
     1
  0
BLOCK_RECORD
  5
1F
330
1
100
AcDbSymbolTableRecord
100
AcDbBlockTableRecord
  2
*MODEL_SPACE
  0
BLOCK_RECORD
  5
1B
330
1
100
AcDbSymbolTableRecord
100
AcDbBlockTableRecord
  2
*PAPER_SPACE
  0
ENDTAB
  0
ENDSEC
  0
SECTION
  2
BLOCKS
  0
BLOCK
  5
20
330
1F
100
AcDbEntity
  8
0
100
AcDbBlockBegin
  2
*MODEL_SPACE
 70
     0
 10
0.0
 20
0.0
 30
0.0
  3
*MODEL_SPACE
  1

  0
ENDBLK
  5
21
330
1F
100
AcDbEntity
  8
0
100
AcDbBlockEnd
  0
BLOCK
  5
1C
330
1B
100
AcDbEntity
 67
     1
  8
0
100
AcDbBlockBegin
  2
*PAPER_SPACE
  1

  0
ENDBLK
  5
1D
330
1B
100
AcDbEntity
 67
     1
  8
0
100
AcDbBlockEnd
  0
ENDSEC
  0
SECTION
  2
ENTITIES
  0
SPLINE
  5
100
100
AcDbEntity
  8
0
 62
7
100
AcDbSpline
 70
8
 71
3
 72
8
 73
4
 74
0
 40
0
 40
0
 40
0
 40
0
 40
1
 40
1
 40
1
 40
1
 10
23.816000
 20
490.250000
 30
0.0
 10
24.047333
 20
491.563333
 30
0.0
 10
24.829667
 20
492.220000
 30
0.0
 10
26.163000
 20
492.220000
 30
0.0
  0
SPLINE
  5
101
100
AcDbEntity
  8
0
 62
7
100
AcDbSpline
 70
8
 71
3
 72
8
 73
4
 74
0
 40
0
 40
0
 40
0
 40
0
 40
1
 40
1
 40
1
 40
1
 10
323.837000
 20
492.220000
 30
0.0
 10
325.170333
 20
492.220000
 30
0.0
 10
325.952667
 20
491.563333
 30
0.0
 10
326.184000
 20
490.250000
 30
0.0
  0
LWPOLYLINE
  5
102
100
AcDbEntity
  8
0
 62
7
100
AcDbPolyline
 90
2
 70
0
 10
26.163000
 20
492.220000
 30
0.0
 10
323.837000
 20
492.220000
 30
0.0
  0
SPLINE
  5
103
100
AcDbEntity
  8
0
 62
7
100
AcDbSpline
 70
8
 71
3
 72
8
 73
4
 74
0
 40
0
 40
0
 40
0
 40
0
 40
1
 40
1
 40
1
 40
1
 10
347.529000
 20
369.196000
 30
0.0
 10
347.761000
 20
367.882667
 30
0.0
 10
347.224667
 20
367.087333
 30
0.0
 10
345.920000
 20
366.810000
 30
0.0
  0
LWPOLYLINE
  5
104
100
AcDbEntity
  8
0
 62
7
100
AcDbPolyline
 90
2
 70
0
 10
326.184000
 20
490.250000
 30
0.0
 10
347.529000
 20
369.196000
 30
0.0
  0
SPLINE
  5
105
100
AcDbEntity
  8
0
 62
7
100
AcDbSpline
 70
8
 71
3
 72
8
 73
4
 74
0
 40
0
 40
0
 40
0
 40
0
 40
1
 40
1
 40
1
 40
1
 10
246.124000
 20
345.598000
 30
0.0
 10
244.819333
 20
345.320667
 30
0.0
 10
243.510667
 20
345.066333
 30
0.0
 10
242.198000
 20
344.835000
 30
0.0
  0
LWPOLYLINE
  5
106
100
AcDbEntity
  8
0
 62
7
100
AcDbPolyline
 90
2
 70
0
 10
345.920000
 20
366.810000
 30
0.0
 10
246.124000
 20
345.598000
 30
0.0
  0
SPLINE
  5
107
100
AcDbEntity
  8
0
 62
7
100
AcDbSpline
 70
8
 71
3
 72
8
 73
4
 74
0
 40
0
 40
0
 40
0
 40
0
 40
1
 40
1
 40
1
 40
1
 10
213.912000
 20
339.847000
 30
0.0
 10
212.598667
 20
339.615667
 30
0.0
 10
211.275333
 20
339.500000
 30
0.0
 10
209.942000
 20
339.500000
 30
0.0
  0
LWPOLYLINE
  5
108
100
AcDbEntity
  8
0
 62
7
100
AcDbPolyline
 90
2
 70
0
 10
242.198000
 20
344.835000
 30
0.0
 10
213.912000
 20
339.847000
 30
0.0
  0
SPLINE
  5
109
100
AcDbEntity
  8
0
 62
7
100
AcDbSpline
 70
8
 71
3
 72
8
 73
4
 74
0
 40
0
 40
0
 40
0
 40
0
 40
1
 40
1
 40
1
 40
1
 10
140.058000
 20
339.500000
 30
0.0
 10
138.724667
 20
339.500000
 30
0.0
 10
137.401333
 20
339.615667
 30
0.0
 10
136.088000
 20
339.847000
 30
0.0
  0
LWPOLYLINE
  5
10a
100
AcDbEntity
  8
0
 62
7
100
AcDbPolyline
 90
2
 70
0
 10
209.942000
 20
339.500000
 30
0.0
 10
140.058000
 20
339.500000
 30
0.0
  0
SPLINE
  5
10b
100
AcDbEntity
  8
0
 62
7
100
AcDbSpline
 70
8
 71
3
 72
8
 73
4
 74
0
 40
0
 40
0
 40
0
 40
0
 40
1
 40
1
 40
1
 40
1
 10
107.802000
 20
344.835000
 30
0.0
 10
106.489333
 20
345.066333
 30
0.0
 10
105.180667
 20
345.320667
 30
0.0
 10
103.876000
 20
345.598000
 30
0.0
  0
LWPOLYLINE
  5
10c
100
AcDbEntity
  8
0
 62
7
100
AcDbPolyline
 90
2
 70
0
 10
136.088000
 20
339.847000
 30
0.0
 10
107.802000
 20
344.835000
 30
0.0
  0
SPLINE
  5
10d
100
AcDbEntity
  8
0
 62
7
100
AcDbSpline
 70
8
 71
3
 72
8
 73
4
 74
0
 40
0
 40
0
 40
0
 40
0
 40
1
 40
1
 40
1
 40
1
 10
4.080000
 20
366.810000
 30
0.0
 10
2.775333
 20
367.087333
 30
0.0
 10
2.239000
 20
367.882667
 30
0.0
 10
2.471000
 20
369.196000
 30
0.0
  0
LWPOLYLINE
  5
10e
100
AcDbEntity
  8
0
 62
7
100
AcDbPolyline
 90
2
 70
0
 10
103.876000
 20
345.598000
 30
0.0
 10
4.080000
 20
366.810000
 30
0.0
  0
SPLINE
  5
10f
100
AcDbEntity
  8
0
 62
7
100
AcDbSpline
 70
8
 71
3
 72
8
 73
4
 74
0
 40
0
 40
0
 40
0
 40
0
 40
1
 40
1
 40
1
 40
1
 10
29.879288
 20
487.970000
 30
0.0
 10
29.879288
 20
487.559145
 30
0.0
 10
29.660099
 20
487.179499
 30
0.0
 10
29.304288
 20
486.974071
 30
0.0
  0
SPLINE
  5
110
100
AcDbEntity
  8
0
 62
7
100
AcDbSpline
 70
8
 71
3
 72
8
 73
4
 74
0
 40
0
 40
0
 40
0
 40
0
 40
1
 40
1
 40
1
 40
1
 10
29.304288
 20
486.974071
 30
0.0
 10
28.948477
 20
486.768643
 30
0.0
 10
28.510099
 20
486.768643
 30
0.0
 10
28.154288
 20
486.974071
 30
0.0
  0
SPLINE
  5
111
100
AcDbEntity
  8
0
 62
7
100
AcDbSpline
 70
8
 71
3
 72
8
 73
4
 74
0
 40
0
 40
0
 40
0
 40
0
 40
1
 40
1
 40
1
 40
1
 10
28.154288
 20
486.974071
 30
0.0
 10
27.798477
 20
487.179499
 30
0.0
 10
27.579288
 20
487.559145
 30
0.0
 10
27.579288
 20
487.970000
 30
0.0
  0
SPLINE
  5
112
100
AcDbEntity
  8
0
 62
7
100
AcDbSpline
 70
8
 71
3
 72
8
 73
4
 74
0
 40
0
 40
0
 40
0
 40
0
 40
1
 40
1
 40
1
 40
1
 10
27.579288
 20
487.970000
 30
0.0
 10
27.579288
 20
488.380855
 30
0.0
 10
27.798477
 20
488.760502
 30
0.0
 10
28.154288
 20
488.965929
 30
0.0
  0
SPLINE
  5
113
100
AcDbEntity
  8
0
 62
7
100
AcDbSpline
 70
8
 71
3
 72
8
 73
4
 74
0
 40
0
 40
0
 40
0
 40
0
 40
1
 40
1
 40
1
 40
1
 10
28.154288
 20
488.965929
 30
0.0
 10
28.510099
 20
489.171357
 30
0.0
 10
28.948477
 20
489.171357
 30
0.0
 10
29.304288
 20
488.965929
 30
0.0
  0
SPLINE
  5
114
100
AcDbEntity
  8
0
 62
7
100
AcDbSpline
 70
8
 71
3
 72
8
 73
4
 74
0
 40
0
 40
0
 40
0
 40
0
 40
1
 40
1
 40
1
 40
1
 10
29.304288
 20
488.965929
 30
0.0
 10
29.660099
 20
488.760502
 30
0.0
 10
29.879288
 20
488.380855
 30
0.0
 10
29.879288
 20
487.970000
 30
0.0
  0
LWPOLYLINE
  5
115
100
AcDbEntity
  8
0
 62
7
100
AcDbPolyline
 90
2
 70
0
 10
2.471000
 20
369.196000
 30
0.0
 10
23.816000
 20
490.250000
 30
0.0
  0
SPLINE
  5
116
100
AcDbEntity
  8
0
 62
7
100
AcDbSpline
 70
8
 71
3
 72
8
 73
4
 74
0
 40
0
 40
0
 40
0
 40
0
 40
1
 40
1
 40
1
 40
1
 10
322.420722
 20
487.970000
 30
0.0
 10
322.420722
 20
487.559145
 30
0.0
 10
322.201533
 20
487.179499
 30
0.0
 10
321.845722
 20
486.974071
 30
0.0
  0
SPLINE
  5
117
100
AcDbEntity
  8
0
 62
7
100
AcDbSpline
 70
8
 71
3
 72
8
 73
4
 74
0
 40
0
 40
0
 40
0
 40
0
 40
1
 40
1
 40
1
 40
1
 10
321.845722
 20
486.974071
 30
0.0
 10
321.489911
 20
486.768643
 30
0.0
 10
321.051533
 20
486.768643
 30
0.0
 10
320.695722
 20
486.974071
 30
0.0
  0
SPLINE
  5
118
100
AcDbEntity
  8
0
 62
7
100
AcDbSpline
 70
8
 71
3
 72
8
 73
4
 74
0
 40
0
 40
0
 40
0
 40
0
 40
1
 40
1
 40
1
 40
1
 10
320.695722
 20
486.974071
 30
0.0
 10
320.339911
 20
487.179499
 30
0.0
 10
320.120722
 20
487.559145
 30
0.0
 10
320.120722
 20
487.970000
 30
0.0
  0
SPLINE
  5
119
100
AcDbEntity
  8
0
 62
7
100
AcDbSpline
 70
8
 71
3
 72
8
 73
4
 74
0
 40
0
 40
0
 40
0
 40
0
 40
1
 40
1
 40
1
 40
1
 10
320.120722
 20
487.970000
 30
0.0
 10
320.120722
 20
488.380855
 30
0.0
 10
320.339911
 20
488.760502
 30
0.0
 10
320.695722
 20
488.965929
 30
0.0
  0
SPLINE
  5
11a
100
AcDbEntity
  8
0
 62
7
100
AcDbSpline
 70
8
 71
3
 72
8
 73
4
 74
0
 40
0
 40
0
 40
0
 40
0
 40
1
 40
1
 40
1
 40
1
 10
320.695722
 20
488.965929
 30
0.0
 10
321.051533
 20
489.171357
 30
0.0
 10
321.489911
 20
489.171357
 30
0.0
 10
321.845722
 20
488.965929
 30
0.0
  0
SPLINE
  5
11b
100
AcDbEntity
  8
0
 62
7
100
AcDbSpline
 70
8
 71
3
 72
8
 73
4
 74
0
 40
0
 40
0
 40
0
 40
0
 40
1
 40
1
 40
1
 40
1
 10
321.845722
 20
488.965929
 30
0.0
 10
322.201533
 20
488.760502
 30
0.0
 10
322.420722
 20
488.380855
 30
0.0
 10
322.420722
 20
487.970000
 30
0.0
  0
LWPOLYLINE
  5
11c
100
AcDbEntity
  8
0
 62
7
100
AcDbPolyline
 90
1
 70
1
 10
29.879288
 20
487.970000
 30
0.0
  0
SPLINE
  5
11d
100
AcDbEntity
  8
0
 62
7
100
AcDbSpline
 70
8
 71
3
 72
8
 73
4
 74
0
 40
0
 40
0
 40
0
 40
0
 40
1
 40
1
 40
1
 40
1
 10
96.543000
 20
487.970000
 30
0.0
 10
96.543000
 20
487.559145
 30
0.0
 10
96.323811
 20
487.179499
 30
0.0
 10
95.968000
 20
486.974071
 30
0.0
  0
SPLINE
  5
11e
100
AcDbEntity
  8
0
 62
7
100
AcDbSpline
 70
8
 71
3
 72
8
 73
4
 74
0
 40
0
 40
0
 40
0
 40
0
 40
1
 40
1
 40
1
 40
1
 10
95.968000
 20
486.974071
 30
0.0
 10
95.612189
 20
486.768643
 30
0.0
 10
95.173811
 20
486.768643
 30
0.0
 10
94.818000
 20
486.974071
 30
0.0
  0
SPLINE
  5
11f
100
AcDbEntity
  8
0
 62
7
100
AcDbSpline
 70
8
 71
3
 72
8
 73
4
 74
0
 40
0
 40
0
 40
0
 40
0
 40
1
 40
1
 40
1
 40
1
 10
94.818000
 20
486.974071
 30
0.0
 10
94.462189
 20
487.179499
 30
0.0
 10
94.243000
 20
487.559145
 30
0.0
 10
94.243000
 20
487.970000
 30
0.0
  0
SPLINE
  5
120
100
AcDbEntity
  8
0
 62
7
100
AcDbSpline
 70
8
 71
3
 72
8
 73
4
 74
0
 40
0
 40
0
 40
0
 40
0
 40
1
 40
1
 40
1
 40
1
 10
94.243000
 20
487.970000
 30
0.0
 10
94.243000
 20
488.380855
 30
0.0
 10
94.462189
 20
488.760502
 30
0.0
 10
94.818000
 20
488.965929
 30
0.0
  0
SPLINE
  5
121
100
AcDbEntity
  8
0
 62
7
100
AcDbSpline
 70
8
 71
3
 72
8
 73
4
 74
0
 40
0
 40
0
 40
0
 40
0
 40
1
 40
1
 40
1
 40
1
 10
94.818000
 20
488.965929
 30
0.0
 10
95.173811
 20
489.171357
 30
0.0
 10
95.612189
 20
489.171357
 30
0.0
 10
95.968000
 20
488.965929
 30
0.0
  0
SPLINE
  5
122
100
AcDbEntity
  8
0
 62
7
100
AcDbSpline
 70
8
 71
3
 72
8
 73
4
 74
0
 40
0
 40
0
 40
0
 40
0
 40
1
 40
1
 40
1
 40
1
 10
95.968000
 20
488.965929
 30
0.0
 10
96.323811
 20
488.760502
 30
0.0
 10
96.543000
 20
488.380855
 30
0.0
 10
96.543000
 20
487.970000
 30
0.0
  0
LWPOLYLINE
  5
123
100
AcDbEntity
  8
0
 62
7
100
AcDbPolyline
 90
1
 70
1
 10
322.420722
 20
487.970000
 30
0.0
  0
SPLINE
  5
124
100
AcDbEntity
  8
0
 62
7
100
AcDbSpline
 70
8
 71
3
 72
8
 73
4
 74
0
 40
0
 40
0
 40
0
 40
0
 40
1
 40
1
 40
1
 40
1
 10
255.754500
 20
487.970000
 30
0.0
 10
255.754500
 20
487.559145
 30
0.0
 10
255.535311
 20
487.179499
 30
0.0
 10
255.179500
 20
486.974071
 30
0.0
  0
SPLINE
  5
125
100
AcDbEntity
  8
0
 62
7
100
AcDbSpline
 70
8
 71
3
 72
8
 73
4
 74
0
 40
0
 40
0
 40
0
 40
0
 40
1
 40
1
 40
1
 40
1
 10
255.179500
 20
486.974071
 30
0.0
 10
254.823689
 20
486.768643
 30
0.0
 10
254.385311
 20
486.768643
 30
0.0
 10
254.029500
 20
486.974071
 30
0.0
  0
SPLINE
  5
126
100
AcDbEntity
  8
0
 62
7
100
AcDbSpline
 70
8
 71
3
 72
8
 73
4
 74
0
 40
0
 40
0
 40
0
 40
0
 40
1
 40
1
 40
1
 40
1
 10
254.029500
 20
486.974071
 30
0.0
 10
253.673689
 20
487.179499
 30
0.0
 10
253.454500
 20
487.559145
 30
0.0
 10
253.454500
 20
487.970000
 30
0.0
  0
SPLINE
  5
127
100
AcDbEntity
  8
0
 62
7
100
AcDbSpline
 70
8
 71
3
 72
8
 73
4
 74
0
 40
0
 40
0
 40
0
 40
0
 40
1
 40
1
 40
1
 40
1
 10
253.454500
 20
487.970000
 30
0.0
 10
253.454500
 20
488.380855
 30
0.0
 10
253.673689
 20
488.760502
 30
0.0
 10
254.029500
 20
488.965929
 30
0.0
  0
SPLINE
  5
128
100
AcDbEntity
  8
0
 62
7
100
AcDbSpline
 70
8
 71
3
 72
8
 73
4
 74
0
 40
0
 40
0
 40
0
 40
0
 40
1
 40
1
 40
1
 40
1
 10
254.029500
 20
488.965929
 30
0.0
 10
254.385311
 20
489.171357
 30
0.0
 10
254.823689
 20
489.171357
 30
0.0
 10
255.179500
 20
488.965929
 30
0.0
  0
SPLINE
  5
129
100
AcDbEntity
  8
0
 62
7
100
AcDbSpline
 70
8
 71
3
 72
8
 73
4
 74
0
 40
0
 40
0
 40
0
 40
0
 40
1
 40
1
 40
1
 40
1
 10
255.179500
 20
488.965929
 30
0.0
 10
255.535311
 20
488.760502
 30
0.0
 10
255.754500
 20
488.380855
 30
0.0
 10
255.754500
 20
487.970000
 30
0.0
  0
LWPOLYLINE
  5
12a
100
AcDbEntity
  8
0
 62
7
100
AcDbPolyline
 90
1
 70
1
 10
96.543000
 20
487.970000
 30
0.0
  0
SPLINE
  5
12b
100
AcDbEntity
  8
0
 62
7
100
AcDbSpline
 70
8
 71
3
 72
8
 73
4
 74
0
 40
0
 40
0
 40
0
 40
0
 40
1
 40
1
 40
1
 40
1
 10
163.212500
 20
487.970000
 30
0.0
 10
163.212500
 20
487.559145
 30
0.0
 10
162.993311
 20
487.179499
 30
0.0
 10
162.637500
 20
486.974071
 30
0.0
  0
SPLINE
  5
12c
100
AcDbEntity
  8
0
 62
7
100
AcDbSpline
 70
8
 71
3
 72
8
 73
4
 74
0
 40
0
 40
0
 40
0
 40
0
 40
1
 40
1
 40
1
 40
1
 10
162.637500
 20
486.974071
 30
0.0
 10
162.281689
 20
486.768643
 30
0.0
 10
161.843311
 20
486.768643
 30
0.0
 10
161.487500
 20
486.974071
 30
0.0
  0
SPLINE
  5
12d
100
AcDbEntity
  8
0
 62
7
100
AcDbSpline
 70
8
 71
3
 72
8
 73
4
 74
0
 40
0
 40
0
 40
0
 40
0
 40
1
 40
1
 40
1
 40
1
 10
161.487500
 20
486.974071
 30
0.0
 10
161.131689
 20
487.179499
 30
0.0
 10
160.912500
 20
487.559145
 30
0.0
 10
160.912500
 20
487.970000
 30
0.0
  0
SPLINE
  5
12e
100
AcDbEntity
  8
0
 62
7
100
AcDbSpline
 70
8
 71
3
 72
8
 73
4
 74
0
 40
0
 40
0
 40
0
 40
0
 40
1
 40
1
 40
1
 40
1
 10
160.912500
 20
487.970000
 30
0.0
 10
160.912500
 20
488.380855
 30
0.0
 10
161.131689
 20
488.760502
 30
0.0
 10
161.487500
 20
488.965929
 30
0.0
  0
SPLINE
  5
12f
100
AcDbEntity
  8
0
 62
7
100
AcDbSpline
 70
8
 71
3
 72
8
 73
4
 74
0
 40
0
 40
0
 40
0
 40
0
 40
1
 40
1
 40
1
 40
1
 10
161.487500
 20
488.965929
 30
0.0
 10
161.843311
 20
489.171357
 30
0.0
 10
162.281689
 20
489.171357
 30
0.0
 10
162.637500
 20
488.965929
 30
0.0
  0
SPLINE
  5
130
100
AcDbEntity
  8
0
 62
7
100
AcDbSpline
 70
8
 71
3
 72
8
 73
4
 74
0
 40
0
 40
0
 40
0
 40
0
 40
1
 40
1
 40
1
 40
1
 10
162.637500
 20
488.965929
 30
0.0
 10
162.993311
 20
488.760502
 30
0.0
 10
163.212500
 20
488.380855
 30
0.0
 10
163.212500
 20
487.970000
 30
0.0
  0
LWPOLYLINE
  5
131
100
AcDbEntity
  8
0
 62
7
100
AcDbPolyline
 90
1
 70
1
 10
255.754500
 20
487.970000
 30
0.0
  0
SPLINE
  5
132
100
AcDbEntity
  8
0
 62
7
100
AcDbSpline
 70
8
 71
3
 72
8
 73
4
 74
0
 40
0
 40
0
 40
0
 40
0
 40
1
 40
1
 40
1
 40
1
 10
189.087500
 20
487.970000
 30
0.0
 10
189.087500
 20
487.559145
 30
0.0
 10
188.868311
 20
487.179499
 30
0.0
 10
188.512500
 20
486.974071
 30
0.0
  0
SPLINE
  5
133
100
AcDbEntity
  8
0
 62
7
100
AcDbSpline
 70
8
 71
3
 72
8
 73
4
 74
0
 40
0
 40
0
 40
0
 40
0
 40
1
 40
1
 40
1
 40
1
 10
188.512500
 20
486.974071
 30
0.0
 10
188.156689
 20
486.768643
 30
0.0
 10
187.718311
 20
486.768643
 30
0.0
 10
187.362500
 20
486.974071
 30
0.0
  0
SPLINE
  5
134
100
AcDbEntity
  8
0
 62
7
100
AcDbSpline
 70
8
 71
3
 72
8
 73
4
 74
0
 40
0
 40
0
 40
0
 40
0
 40
1
 40
1
 40
1
 40
1
 10
187.362500
 20
486.974071
 30
0.0
 10
187.006689
 20
487.179499
 30
0.0
 10
186.787500
 20
487.559145
 30
0.0
 10
186.787500
 20
487.970000
 30
0.0
  0
SPLINE
  5
135
100
AcDbEntity
  8
0
 62
7
100
AcDbSpline
 70
8
 71
3
 72
8
 73
4
 74
0
 40
0
 40
0
 40
0
 40
0
 40
1
 40
1
 40
1
 40
1
 10
186.787500
 20
487.970000
 30
0.0
 10
186.787500
 20
488.380855
 30
0.0
 10
187.006689
 20
488.760502
 30
0.0
 10
187.362500
 20
488.965929
 30
0.0
  0
SPLINE
  5
136
100
AcDbEntity
  8
0
 62
7
100
AcDbSpline
 70
8
 71
3
 72
8
 73
4
 74
0
 40
0
 40
0
 40
0
 40
0
 40
1
 40
1
 40
1
 40
1
 10
187.362500
 20
488.965929
 30
0.0
 10
187.718311
 20
489.171357
 30
0.0
 10
188.156689
 20
489.171357
 30
0.0
 10
188.512500
 20
488.965929
 30
0.0
  0
SPLINE
  5
137
100
AcDbEntity
  8
0
 62
7
100
AcDbSpline
 70
8
 71
3
 72
8
 73
4
 74
0
 40
0
 40
0
 40
0
 40
0
 40
1
 40
1
 40
1
 40
1
 10
188.512500
 20
488.965929
 30
0.0
 10
188.868311
 20
488.760502
 30
0.0
 10
189.087500
 20
488.380855
 30
0.0
 10
189.087500
 20
487.970000
 30
0.0
  0
LWPOLYLINE
  5
138
100
AcDbEntity
  8
0
 62
7
100
AcDbPolyline
 90
1
 70
1
 10
163.212500
 20
487.970000
 30
0.0
  0
SPLINE
  5
139
100
AcDbEntity
  8
0
 62
7
100
AcDbSpline
 70
8
 71
3
 72
8
 73
4
 74
0
 40
0
 40
0
 40
0
 40
0
 40
1
 40
1
 40
1
 40
1
 10
18.525379
 20
429.485000
 30
0.0
 10
18.525379
 20
429.074145
 30
0.0
 10
18.306190
 20
428.694499
 30
0.0
 10
17.950379
 20
428.489071
 30
0.0
  0
SPLINE
  5
13a
100
AcDbEntity
  8
0
 62
7
100
AcDbSpline
 70
8
 71
3
 72
8
 73
4
 74
0
 40
0
 40
0
 40
0
 40
0
 40
1
 40
1
 40
1
 40
1
 10
17.950379
 20
428.489071
 30
0.0
 10
17.594568
 20
428.283643
 30
0.0
 10
17.156190
 20
428.283643
 30
0.0
 10
16.800379
 20
428.489071
 30
0.0
  0
SPLINE
  5
13b
100
AcDbEntity
  8
0
 62
7
100
AcDbSpline
 70
8
 71
3
 72
8
 73
4
 74
0
 40
0
 40
0
 40
0
 40
0
 40
1
 40
1
 40
1
 40
1
 10
16.800379
 20
428.489071
 30
0.0
 10
16.444568
 20
428.694499
 30
0.0
 10
16.225379
 20
429.074145
 30
0.0
 10
16.225379
 20
429.485000
 30
0.0
  0
SPLINE
  5
13c
100
AcDbEntity
  8
0
 62
7
100
AcDbSpline
 70
8
 71
3
 72
8
 73
4
 74
0
 40
0
 40
0
 40
0
 40
0
 40
1
 40
1
 40
1
 40
1
 10
16.225379
 20
429.485000
 30
0.0
 10
16.225379
 20
429.895855
 30
0.0
 10
16.444568
 20
430.275502
 30
0.0
 10
16.800379
 20
430.480929
 30
0.0
  0
SPLINE
  5
13d
100
AcDbEntity
  8
0
 62
7
100
AcDbSpline
 70
8
 71
3
 72
8
 73
4
 74
0
 40
0
 40
0
 40
0
 40
0
 40
1
 40
1
 40
1
 40
1
 10
16.800379
 20
430.480929
 30
0.0
 10
17.156190
 20
430.686357
 30
0.0
 10
17.594568
 20
430.686357
 30
0.0
 10
17.950379
 20
430.480929
 30
0.0
  0
SPLINE
  5
13e
100
AcDbEntity
  8
0
 62
7
100
AcDbSpline
 70
8
 71
3
 72
8
 73
4
 74
0
 40
0
 40
0
 40
0
 40
0
 40
1
 40
1
 40
1
 40
1
 10
17.950379
 20
430.480929
 30
0.0
 10
18.306190
 20
430.275502
 30
0.0
 10
18.525379
 20
429.895855
 30
0.0
 10
18.525379
 20
429.485000
 30
0.0
  0
LWPOLYLINE
  5
13f
100
AcDbEntity
  8
0
 62
7
100
AcDbPolyline
 90
1
 70
1
 10
189.087500
 20
487.970000
 30
0.0
  0
SPLINE
  5
140
100
AcDbEntity
  8
0
 62
7
100
AcDbSpline
 70
8
 71
3
 72
8
 73
4
 74
0
 40
0
 40
0
 40
0
 40
0
 40
1
 40
1
 40
1
 40
1
 10
333.774631
 20
429.485000
 30
0.0
 10
333.774631
 20
429.074145
 30
0.0
 10
333.555442
 20
428.694499
 30
0.0
 10
333.199631
 20
428.489071
 30
0.0
  0
SPLINE
  5
141
100
AcDbEntity
  8
0
 62
7
100
AcDbSpline
 70
8
 71
3
 72
8
 73
4
 74
0
 40
0
 40
0
 40
0
 40
0
 40
1
 40
1
 40
1
 40
1
 10
333.199631
 20
428.489071
 30
0.0
 10
332.843820
 20
428.283643
 30
0.0
 10
332.405442
 20
428.283643
 30
0.0
 10
332.049631
 20
428.489071
 30
0.0
  0
SPLINE
  5
142
100
AcDbEntity
  8
0
 62
7
100
AcDbSpline
 70
8
 71
3
 72
8
 73
4
 74
0
 40
0
 40
0
 40
0
 40
0
 40
1
 40
1
 40
1
 40
1
 10
332.049631
 20
428.489071
 30
0.0
 10
331.693820
 20
428.694499
 30
0.0
 10
331.474631
 20
429.074145
 30
0.0
 10
331.474631
 20
429.485000
 30
0.0
  0
SPLINE
  5
143
100
AcDbEntity
  8
0
 62
7
100
AcDbSpline
 70
8
 71
3
 72
8
 73
4
 74
0
 40
0
 40
0
 40
0
 40
0
 40
1
 40
1
 40
1
 40
1
 10
331.474631
 20
429.485000
 30
0.0
 10
331.474631
 20
429.895855
 30
0.0
 10
331.693820
 20
430.275502
 30
0.0
 10
332.049631
 20
430.480929
 30
0.0
  0
SPLINE
  5
144
100
AcDbEntity
  8
0
 62
7
100
AcDbSpline
 70
8
 71
3
 72
8
 73
4
 74
0
 40
0
 40
0
 40
0
 40
0
 40
1
 40
1
 40
1
 40
1
 10
332.049631
 20
430.480929
 30
0.0
 10
332.405442
 20
430.686357
 30
0.0
 10
332.843820
 20
430.686357
 30
0.0
 10
333.199631
 20
430.480929
 30
0.0
  0
SPLINE
  5
145
100
AcDbEntity
  8
0
 62
7
100
AcDbSpline
 70
8
 71
3
 72
8
 73
4
 74
0
 40
0
 40
0
 40
0
 40
0
 40
1
 40
1
 40
1
 40
1
 10
333.199631
 20
430.480929
 30
0.0
 10
333.555442
 20
430.275502
 30
0.0
 10
333.774631
 20
429.895855
 30
0.0
 10
333.774631
 20
429.485000
 30
0.0
  0
LWPOLYLINE
  5
146
100
AcDbEntity
  8
0
 62
7
100
AcDbPolyline
 90
1
 70
1
 10
18.525379
 20
429.485000
 30
0.0
  0
SPLINE
  5
147
100
AcDbEntity
  8
0
 62
7
100
AcDbSpline
 70
8
 71
3
 72
8
 73
4
 74
0
 40
0
 40
0
 40
0
 40
0
 40
1
 40
1
 40
1
 40
1
 10
9.171469
 20
371.000000
 30
0.0
 10
9.171469
 20
370.589145
 30
0.0
 10
8.952281
 20
370.209499
 30
0.0
 10
8.596469
 20
370.004071
 30
0.0
  0
SPLINE
  5
148
100
AcDbEntity
  8
0
 62
7
100
AcDbSpline
 70
8
 71
3
 72
8
 73
4
 74
0
 40
0
 40
0
 40
0
 40
0
 40
1
 40
1
 40
1
 40
1
 10
8.596469
 20
370.004071
 30
0.0
 10
8.240658
 20
369.798643
 30
0.0
 10
7.802281
 20
369.798643
 30
0.0
 10
7.446469
 20
370.004071
 30
0.0
  0
SPLINE
  5
149
100
AcDbEntity
  8
0
 62
7
100
AcDbSpline
 70
8
 71
3
 72
8
 73
4
 74
0
 40
0
 40
0
 40
0
 40
0
 40
1
 40
1
 40
1
 40
1
 10
7.446469
 20
370.004071
 30
0.0
 10
7.090658
 20
370.209499
 30
0.0
 10
6.871469
 20
370.589145
 30
0.0
 10
6.871469
 20
371.000000
 30
0.0
  0
SPLINE
  5
14a
100
AcDbEntity
  8
0
 62
7
100
AcDbSpline
 70
8
 71
3
 72
8
 73
4
 74
0
 40
0
 40
0
 40
0
 40
0
 40
1
 40
1
 40
1
 40
1
 10
6.871469
 20
371.000000
 30
0.0
 10
6.871469
 20
371.410855
 30
0.0
 10
7.090658
 20
371.790502
 30
0.0
 10
7.446469
 20
371.995929
 30
0.0
  0
SPLINE
  5
14b
100
AcDbEntity
  8
0
 62
7
100
AcDbSpline
 70
8
 71
3
 72
8
 73
4
 74
0
 40
0
 40
0
 40
0
 40
0
 40
1
 40
1
 40
1
 40
1
 10
7.446469
 20
371.995929
 30
0.0
 10
7.802281
 20
372.201357
 30
0.0
 10
8.240658
 20
372.201357
 30
0.0
 10
8.596469
 20
371.995929
 30
0.0
  0
SPLINE
  5
14c
100
AcDbEntity
  8
0
 62
7
100
AcDbSpline
 70
8
 71
3
 72
8
 73
4
 74
0
 40
0
 40
0
 40
0
 40
0
 40
1
 40
1
 40
1
 40
1
 10
8.596469
 20
371.995929
 30
0.0
 10
8.952281
 20
371.790502
 30
0.0
 10
9.171469
 20
371.410855
 30
0.0
 10
9.171469
 20
371.000000
 30
0.0
  0
LWPOLYLINE
  5
14d
100
AcDbEntity
  8
0
 62
7
100
AcDbPolyline
 90
1
 70
1
 10
333.774631
 20
429.485000
 30
0.0
  0
SPLINE
  5
14e
100
AcDbEntity
  8
0
 62
7
100
AcDbSpline
 70
8
 71
3
 72
8
 73
4
 74
0
 40
0
 40
0
 40
0
 40
0
 40
1
 40
1
 40
1
 40
1
 10
343.128541
 20
371.000000
 30
0.0
 10
343.128541
 20
370.589145
 30
0.0
 10
342.909352
 20
370.209499
 30
0.0
 10
342.553541
 20
370.004071
 30
0.0
  0
SPLINE
  5
14f
100
AcDbEntity
  8
0
 62
7
100
AcDbSpline
 70
8
 71
3
 72
8
 73
4
 74
0
 40
0
 40
0
 40
0
 40
0
 40
1
 40
1
 40
1
 40
1
 10
342.553541
 20
370.004071
 30
0.0
 10
342.197729
 20
369.798643
 30
0.0
 10
341.759352
 20
369.798643
 30
0.0
 10
341.403541
 20
370.004071
 30
0.0
  0
SPLINE
  5
150
100
AcDbEntity
  8
0
 62
7
100
AcDbSpline
 70
8
 71
3
 72
8
 73
4
 74
0
 40
0
 40
0
 40
0
 40
0
 40
1
 40
1
 40
1
 40
1
 10
341.403541
 20
370.004071
 30
0.0
 10
341.047729
 20
370.209499
 30
0.0
 10
340.828541
 20
370.589145
 30
0.0
 10
340.828541
 20
371.000000
 30
0.0
  0
SPLINE
  5
151
100
AcDbEntity
  8
0
 62
7
100
AcDbSpline
 70
8
 71
3
 72
8
 73
4
 74
0
 40
0
 40
0
 40
0
 40
0
 40
1
 40
1
 40
1
 40
1
 10
340.828541
 20
371.000000
 30
0.0
 10
340.828541
 20
371.410855
 30
0.0
 10
341.047729
 20
371.790502
 30
0.0
 10
341.403541
 20
371.995929
 30
0.0
  0
SPLINE
  5
152
100
AcDbEntity
  8
0
 62
7
100
AcDbSpline
 70
8
 71
3
 72
8
 73
4
 74
0
 40
0
 40
0
 40
0
 40
0
 40
1
 40
1
 40
1
 40
1
 10
341.403541
 20
371.995929
 30
0.0
 10
341.759352
 20
372.201357
 30
0.0
 10
342.197729
 20
372.201357
 30
0.0
 10
342.553541
 20
371.995929
 30
0.0
  0
SPLINE
  5
153
100
AcDbEntity
  8
0
 62
7
100
AcDbSpline
 70
8
 71
3
 72
8
 73
4
 74
0
 40
0
 40
0
 40
0
 40
0
 40
1
 40
1
 40
1
 40
1
 10
342.553541
 20
371.995929
 30
0.0
 10
342.909352
 20
371.790502
 30
0.0
 10
343.128541
 20
371.410855
 30
0.0
 10
343.128541
 20
371.000000
 30
0.0
  0
LWPOLYLINE
  5
154
100
AcDbEntity
  8
0
 62
7
100
AcDbPolyline
 90
1
 70
1
 10
9.171469
 20
371.000000
 30
0.0
  0
SPLINE
  5
155
100
AcDbEntity
  8
0
 62
7
100
AcDbSpline
 70
8
 71
3
 72
8
 73
4
 74
0
 40
0
 40
0
 40
0
 40
0
 40
1
 40
1
 40
1
 40
1
 10
67.793615
 20
357.354784
 30
0.0
 10
67.793615
 20
356.943928
 30
0.0
 10
67.574426
 20
356.564282
 30
0.0
 10
67.218615
 20
356.358855
 30
0.0
  0
SPLINE
  5
156
100
AcDbEntity
  8
0
 62
7
100
AcDbSpline
 70
8
 71
3
 72
8
 73
4
 74
0
 40
0
 40
0
 40
0
 40
0
 40
1
 40
1
 40
1
 40
1
 10
67.218615
 20
356.358855
 30
0.0
 10
66.862804
 20
356.153427
 30
0.0
 10
66.424426
 20
356.153427
 30
0.0
 10
66.068615
 20
356.358855
 30
0.0
  0
SPLINE
  5
157
100
AcDbEntity
  8
0
 62
7
100
AcDbSpline
 70
8
 71
3
 72
8
 73
4
 74
0
 40
0
 40
0
 40
0
 40
0
 40
1
 40
1
 40
1
 40
1
 10
66.068615
 20
356.358855
 30
0.0
 10
65.712804
 20
356.564282
 30
0.0
 10
65.493615
 20
356.943928
 30
0.0
 10
65.493615
 20
357.354784
 30
0.0
  0
SPLINE
  5
158
100
AcDbEntity
  8
0
 62
7
100
AcDbSpline
 70
8
 71
3
 72
8
 73
4
 74
0
 40
0
 40
0
 40
0
 40
0
 40
1
 40
1
 40
1
 40
1
 10
65.493615
 20
357.354784
 30
0.0
 10
65.493615
 20
357.765639
 30
0.0
 10
65.712804
 20
358.145285
 30
0.0
 10
66.068615
 20
358.350713
 30
0.0
  0
SPLINE
  5
159
100
AcDbEntity
  8
0
 62
7
100
AcDbSpline
 70
8
 71
3
 72
8
 73
4
 74
0
 40
0
 40
0
 40
0
 40
0
 40
1
 40
1
 40
1
 40
1
 10
66.068615
 20
358.350713
 30
0.0
 10
66.424426
 20
358.556141
 30
0.0
 10
66.862804
 20
358.556141
 30
0.0
 10
67.218615
 20
358.350713
 30
0.0
  0
SPLINE
  5
15a
100
AcDbEntity
  8
0
 62
7
100
AcDbSpline
 70
8
 71
3
 72
8
 73
4
 74
0
 40
0
 40
0
 40
0
 40
0
 40
1
 40
1
 40
1
 40
1
 10
67.218615
 20
358.350713
 30
0.0
 10
67.574426
 20
358.145285
 30
0.0
 10
67.793615
 20
357.765639
 30
0.0
 10
67.793615
 20
357.354784
 30
0.0
  0
LWPOLYLINE
  5
15b
100
AcDbEntity
  8
0
 62
7
100
AcDbPolyline
 90
1
 70
1
 10
343.128541
 20
371.000000
 30
0.0
  0
SPLINE
  5
15c
100
AcDbEntity
  8
0
 62
7
100
AcDbSpline
 70
8
 71
3
 72
8
 73
4
 74
0
 40
0
 40
0
 40
0
 40
0
 40
1
 40
1
 40
1
 40
1
 10
284.506395
 20
357.354784
 30
0.0
 10
284.506395
 20
356.943928
 30
0.0
 10
284.287206
 20
356.564282
 30
0.0
 10
283.931395
 20
356.358855
 30
0.0
  0
SPLINE
  5
15d
100
AcDbEntity
  8
0
 62
7
100
AcDbSpline
 70
8
 71
3
 72
8
 73
4
 74
0
 40
0
 40
0
 40
0
 40
0
 40
1
 40
1
 40
1
 40
1
 10
283.931395
 20
356.358855
 30
0.0
 10
283.575584
 20
356.153427
 30
0.0
 10
283.137206
 20
356.153427
 30
0.0
 10
282.781395
 20
356.358855
 30
0.0
  0
SPLINE
  5
15e
100
AcDbEntity
  8
0
 62
7
100
AcDbSpline
 70
8
 71
3
 72
8
 73
4
 74
0
 40
0
 40
0
 40
0
 40
0
 40
1
 40
1
 40
1
 40
1
 10
282.781395
 20
356.358855
 30
0.0
 10
282.425584
 20
356.564282
 30
0.0
 10
282.206395
 20
356.943928
 30
0.0
 10
282.206395
 20
357.354784
 30
0.0
  0
SPLINE
  5
15f
100
AcDbEntity
  8
0
 62
7
100
AcDbSpline
 70
8
 71
3
 72
8
 73
4
 74
0
 40
0
 40
0
 40
0
 40
0
 40
1
 40
1
 40
1
 40
1
 10
282.206395
 20
357.354784
 30
0.0
 10
282.206395
 20
357.765639
 30
0.0
 10
282.425584
 20
358.145285
 30
0.0
 10
282.781395
 20
358.350713
 30
0.0
  0
SPLINE
  5
160
100
AcDbEntity
  8
0
 62
7
100
AcDbSpline
 70
8
 71
3
 72
8
 73
4
 74
0
 40
0
 40
0
 40
0
 40
0
 40
1
 40
1
 40
1
 40
1
 10
282.781395
 20
358.350713
 30
0.0
 10
283.137206
 20
358.556141
 30
0.0
 10
283.575584
 20
358.556141
 30
0.0
 10
283.931395
 20
358.350713
 30
0.0
  0
SPLINE
  5
161
100
AcDbEntity
  8
0
 62
7
100
AcDbSpline
 70
8
 71
3
 72
8
 73
4
 74
0
 40
0
 40
0
 40
0
 40
0
 40
1
 40
1
 40
1
 40
1
 10
283.931395
 20
358.350713
 30
0.0
 10
284.287206
 20
358.145285
 30
0.0
 10
284.506395
 20
357.765639
 30
0.0
 10
284.506395
 20
357.354784
 30
0.0
  0
LWPOLYLINE
  5
162
100
AcDbEntity
  8
0
 62
7
100
AcDbPolyline
 90
1
 70
1
 10
67.793615
 20
357.354784
 30
0.0
  0
SPLINE
  5
163
100
AcDbEntity
  8
0
 62
7
100
AcDbSpline
 70
8
 71
3
 72
8
 73
4
 74
0
 40
0
 40
0
 40
0
 40
0
 40
1
 40
1
 40
1
 40
1
 10
139.579924
 20
343.750000
 30
0.0
 10
139.579924
 20
343.339145
 30
0.0
 10
139.360735
 20
342.959499
 30
0.0
 10
139.004924
 20
342.754071
 30
0.0
  0
SPLINE
  5
164
100
AcDbEntity
  8
0
 62
7
100
AcDbSpline
 70
8
 71
3
 72
8
 73
4
 74
0
 40
0
 40
0
 40
0
 40
0
 40
1
 40
1
 40
1
 40
1
 10
139.004924
 20
342.754071
 30
0.0
 10
138.649113
 20
342.548643
 30
0.0
 10
138.210735
 20
342.548643
 30
0.0
 10
137.854924
 20
342.754071
 30
0.0
  0
SPLINE
  5
165
100
AcDbEntity
  8
0
 62
7
100
AcDbSpline
 70
8
 71
3
 72
8
 73
4
 74
0
 40
0
 40
0
 40
0
 40
0
 40
1
 40
1
 40
1
 40
1
 10
137.854924
 20
342.754071
 30
0.0
 10
137.499113
 20
342.959499
 30
0.0
 10
137.279924
 20
343.339145
 30
0.0
 10
137.279924
 20
343.750000
 30
0.0
  0
SPLINE
  5
166
100
AcDbEntity
  8
0
 62
7
100
AcDbSpline
 70
8
 71
3
 72
8
 73
4
 74
0
 40
0
 40
0
 40
0
 40
0
 40
1
 40
1
 40
1
 40
1
 10
137.279924
 20
343.750000
 30
0.0
 10
137.279924
 20
344.160855
 30
0.0
 10
137.499113
 20
344.540502
 30
0.0
 10
137.854924
 20
344.745929
 30
0.0
  0
SPLINE
  5
167
100
AcDbEntity
  8
0
 62
7
100
AcDbSpline
 70
8
 71
3
 72
8
 73
4
 74
0
 40
0
 40
0
 40
0
 40
0
 40
1
 40
1
 40
1
 40
1
 10
137.854924
 20
344.745929
 30
0.0
 10
138.210735
 20
344.951357
 30
0.0
 10
138.649113
 20
344.951357
 30
0.0
 10
139.004924
 20
344.745929
 30
0.0
  0
SPLINE
  5
168
100
AcDbEntity
  8
0
 62
7
100
AcDbSpline
 70
8
 71
3
 72
8
 73
4
 74
0
 40
0
 40
0
 40
0
 40
0
 40
1
 40
1
 40
1
 40
1
 10
139.004924
 20
344.745929
 30
0.0
 10
139.360735
 20
344.540502
 30
0.0
 10
139.579924
 20
344.160855
 30
0.0
 10
139.579924
 20
343.750000
 30
0.0
  0
LWPOLYLINE
  5
169
100
AcDbEntity
  8
0
 62
7
100
AcDbPolyline
 90
1
 70
1
 10
284.506395
 20
357.354784
 30
0.0
  0
SPLINE
  5
16a
100
AcDbEntity
  8
0
 62
7
100
AcDbSpline
 70
8
 71
3
 72
8
 73
4
 74
0
 40
0
 40
0
 40
0
 40
0
 40
1
 40
1
 40
1
 40
1
 10
212.720086
 20
343.750000
 30
0.0
 10
212.720086
 20
343.339145
 30
0.0
 10
212.500897
 20
342.959499
 30
0.0
 10
212.145086
 20
342.754071
 30
0.0
  0
SPLINE
  5
16b
100
AcDbEntity
  8
0
 62
7
100
AcDbSpline
 70
8
 71
3
 72
8
 73
4
 74
0
 40
0
 40
0
 40
0
 40
0
 40
1
 40
1
 40
1
 40
1
 10
212.145086
 20
342.754071
 30
0.0
 10
211.789275
 20
342.548643
 30
0.0
 10
211.350897
 20
342.548643
 30
0.0
 10
210.995086
 20
342.754071
 30
0.0
  0
SPLINE
  5
16c
100
AcDbEntity
  8
0
 62
7
100
AcDbSpline
 70
8
 71
3
 72
8
 73
4
 74
0
 40
0
 40
0
 40
0
 40
0
 40
1
 40
1
 40
1
 40
1
 10
210.995086
 20
342.754071
 30
0.0
 10
210.639275
 20
342.959499
 30
0.0
 10
210.420086
 20
343.339145
 30
0.0
 10
210.420086
 20
343.750000
 30
0.0
  0
SPLINE
  5
16d
100
AcDbEntity
  8
0
 62
7
100
AcDbSpline
 70
8
 71
3
 72
8
 73
4
 74
0
 40
0
 40
0
 40
0
 40
0
 40
1
 40
1
 40
1
 40
1
 10
210.420086
 20
343.750000
 30
0.0
 10
210.420086
 20
344.160855
 30
0.0
 10
210.639275
 20
344.540502
 30
0.0
 10
210.995086
 20
344.745929
 30
0.0
  0
SPLINE
  5
16e
100
AcDbEntity
  8
0
 62
7
100
AcDbSpline
 70
8
 71
3
 72
8
 73
4
 74
0
 40
0
 40
0
 40
0
 40
0
 40
1
 40
1
 40
1
 40
1
 10
210.995086
 20
344.745929
 30
0.0
 10
211.350897
 20
344.951357
 30
0.0
 10
211.789275
 20
344.951357
 30
0.0
 10
212.145086
 20
344.745929
 30
0.0
  0
SPLINE
  5
16f
100
AcDbEntity
  8
0
 62
7
100
AcDbSpline
 70
8
 71
3
 72
8
 73
4
 74
0
 40
0
 40
0
 40
0
 40
0
 40
1
 40
1
 40
1
 40
1
 10
212.145086
 20
344.745929
 30
0.0
 10
212.500897
 20
344.540502
 30
0.0
 10
212.720086
 20
344.160855
 30
0.0
 10
212.720086
 20
343.750000
 30
0.0
  0
LWPOLYLINE
  5
170
100
AcDbEntity
  8
0
 62
7
100
AcDbPolyline
 90
1
 70
1
 10
139.579924
 20
343.750000
 30
0.0
  0
SPLINE
  5
171
100
AcDbEntity
  8
0
 62
7
100
AcDbSpline
 70
8
 71
3
 72
8
 73
4
 74
0
 40
0
 40
0
 40
0
 40
0
 40
1
 40
1
 40
1
 40
1
 10
175.750000
 20
402.000000
 30
0.0
 10
175.750000
 20
401.732051
 30
0.0
 10
175.607051
 20
401.484456
 30
0.0
 10
175.375000
 20
401.350481
 30
0.0
  0
SPLINE
  5
172
100
AcDbEntity
  8
0
 62
7
100
AcDbSpline
 70
8
 71
3
 72
8
 73
4
 74
0
 40
0
 40
0
 40
0
 40
0
 40
1
 40
1
 40
1
 40
1
 10
175.375000
 20
401.350481
 30
0.0
 10
175.142949
 20
401.216506
 30
0.0
 10
174.857051
 20
401.216506
 30
0.0
 10
174.625000
 20
401.350481
 30
0.0
  0
SPLINE
  5
173
100
AcDbEntity
  8
0
 62
7
100
AcDbSpline
 70
8
 71
3
 72
8
 73
4
 74
0
 40
0
 40
0
 40
0
 40
0
 40
1
 40
1
 40
1
 40
1
 10
174.625000
 20
401.350481
 30
0.0
 10
174.392949
 20
401.484456
 30
0.0
 10
174.250000
 20
401.732051
 30
0.0
 10
174.250000
 20
402.000000
 30
0.0
  0
SPLINE
  5
174
100
AcDbEntity
  8
0
 62
7
100
AcDbSpline
 70
8
 71
3
 72
8
 73
4
 74
0
 40
0
 40
0
 40
0
 40
0
 40
1
 40
1
 40
1
 40
1
 10
174.250000
 20
402.000000
 30
0.0
 10
174.250000
 20
402.267949
 30
0.0
 10
174.392949
 20
402.515544
 30
0.0
 10
174.625000
 20
402.649519
 30
0.0
  0
SPLINE
  5
175
100
AcDbEntity
  8
0
 62
7
100
AcDbSpline
 70
8
 71
3
 72
8
 73
4
 74
0
 40
0
 40
0
 40
0
 40
0
 40
1
 40
1
 40
1
 40
1
 10
174.625000
 20
402.649519
 30
0.0
 10
174.857051
 20
402.783494
 30
0.0
 10
175.142949
 20
402.783494
 30
0.0
 10
175.375000
 20
402.649519
 30
0.0
  0
SPLINE
  5
176
100
AcDbEntity
  8
0
 62
7
100
AcDbSpline
 70
8
 71
3
 72
8
 73
4
 74
0
 40
0
 40
0
 40
0
 40
0
 40
1
 40
1
 40
1
 40
1
 10
175.375000
 20
402.649519
 30
0.0
 10
175.607051
 20
402.515544
 30
0.0
 10
175.750000
 20
402.267949
 30
0.0
 10
175.750000
 20
402.000000
 30
0.0
  0
LWPOLYLINE
  5
177
100
AcDbEntity
  8
0
 62
7
100
AcDbPolyline
 90
1
 70
1
 10
212.720086
 20
343.750000
 30
0.0
  0
LWPOLYLINE
  5
178
100
AcDbEntity
  8
0
 62
7
100
AcDbPolyline
 90
1
 70
1
 10
175.750000
 20
402.000000
 30
0.0
  0
ENDSEC
  0
SECTION
  2
OBJECTS
  0
DICTIONARY
  5
C
330
0
100
AcDbDictionary
  3
ACAD_GROUP
350
D
  3
ACAD_MLINESTYLE
350
17
  0
DICTIONARY
  5
D
330
C
100
AcDbDictionary
  0
DICTIONARY
  5
1A
330
C
100
AcDbDictionary
  0
DICTIONARY
  5
17
330
C
100
AcDbDictionary
  3
STANDARD
350
18
  0
DICTIONARY
  5
19
330
C
100
AcDbDictionary
  0
ENDSEC
  0
EOF
